<svg width="1440" height="701" viewBox="0 0 1440 701" fill="none" xmlns="http://www.w3.org/2000/svg">
<g opacity="0.3">
<path d="M540.714 700.767C535.247 700.767 529.925 700.195 524.811 699.053C514.085 696.658 504.176 691.739 495.358 684.433C485.88 676.583 477.567 665.886 470.649 652.641C456.744 626.018 449.787 594.136 443.059 563.302C441.737 557.248 440.371 550.988 438.983 544.913C429.516 503.512 417.515 467.247 402.297 434.046C371.938 367.815 329.245 311.292 278.829 270.587C220.523 223.515 157.835 200.066 102.311 204.562C69.677 207.206 26.5582 232.346 7.28733 275.28C-4.14912 300.761 -5.07131 329.038 4.62229 357.05L4.4298 357.169C-0.652832 342.478 -2.86736 327.75 -2.15033 313.394C-1.49253 300.225 1.62093 287.352 7.10543 275.133C15.8282 255.699 30.2131 238.474 48.7056 225.319C65.7937 213.165 84.8255 205.692 102.299 204.277C131.356 201.926 162.26 207.144 194.152 219.788C223.061 231.252 251.588 248.26 278.939 270.342C329.384 311.069 372.103 367.623 402.479 433.893C417.705 467.117 429.713 503.402 439.186 544.826C440.576 550.9 441.942 557.163 443.262 563.218C449.984 594.029 456.937 625.889 470.822 652.472C484.251 678.184 502.429 693.76 524.847 698.766C555.892 705.7 593.592 691.198 625.691 659.969C671.949 614.969 704.052 549.468 735.1 486.127C740.542 475.024 746.169 463.543 751.74 452.457C766.203 423.67 785.791 386.367 809.07 353.135C832.865 319.167 857.045 294.21 882.994 276.836C898.876 266.201 915.708 259.036 933.023 255.541C949.015 252.31 965.942 252.11 983.335 254.94C1013.17 259.797 1045.31 273.516 1081.6 296.877C1153.05 342.881 1224.42 398.719 1293.73 462.844C1359.61 523.793 1424.22 592.761 1485.77 667.825L1485.63 668.034C1358.04 512.428 1222.07 387.639 1081.5 297.13C1002.09 245.997 939.038 239.626 883.089 277.087C826.169 315.195 786.407 383.969 751.915 452.612C746.346 463.695 740.72 475.176 735.278 486.279C704.222 549.643 672.108 615.164 625.818 660.195C610.86 674.748 594.032 686.099 577.156 693.019C568.24 696.674 559.378 699.065 550.812 700.125C547.398 700.556 544.029 700.767 540.714 700.767Z" fill="#A1A1A1"/>
<path d="M546.06 684.98C532.117 684.98 519.202 681.443 507.66 674.461C494.789 666.675 483.683 654.611 474.647 638.607C473.847 637.189 473.054 635.723 472.288 634.246C458.532 607.739 451.266 576.272 444.242 545.838C442.821 539.688 441.353 533.326 439.864 527.153C430.995 490.397 420.316 458.002 407.213 428.121C405.599 424.443 403.928 420.756 402.242 417.165C371.437 351.503 328.397 295.696 277.774 255.775C219.047 209.506 156.182 187.027 100.757 192.481C68.3597 195.703 25.4397 221.254 6.08635 263.859C-5.50239 289.371 -6.81376 317.704 2.28972 345.798L2.09512 345.911C-2.67659 331.186 -4.63729 316.43 -3.7299 302.058C-2.89655 288.858 0.343803 275.957 5.90445 263.712C14.716 244.311 29.0587 227.067 47.3777 213.844C64.3093 201.622 83.2587 193.936 100.738 192.199C129.76 189.344 160.697 194.063 192.691 206.222C221.67 217.238 250.332 233.829 277.879 255.533C328.532 295.476 371.596 351.317 402.42 417.015C404.105 420.609 405.779 424.299 407.392 427.98C420.504 457.881 431.19 490.293 440.063 527.068C441.554 533.241 443.022 539.603 444.443 545.756C451.465 576.17 458.724 607.615 472.462 634.086C473.225 635.557 474.019 637.023 474.816 638.438C493.488 671.521 519.145 684.98 546.125 684.98C546.273 684.98 546.419 684.98 546.567 684.98C546.398 684.977 546.229 684.98 546.06 684.98ZM551.815 684.783C576.898 683.066 602.781 670.221 624.985 651.113C672.882 609.727 707.306 545.804 740.598 483.988C741.968 481.439 743.339 478.897 744.71 476.355C747.72 470.774 751.288 464.167 754.93 457.506C771.269 427.636 791.044 392.882 813.817 361.6C838.048 328.314 862.255 303.614 887.821 286.084C903.53 275.325 920.131 267.746 937.164 263.557C952.945 259.676 969.623 258.58 986.728 260.296C1016.28 263.264 1048.05 274.516 1083.86 294.698C1118.78 314.345 1147.48 332.838 1174.19 352.899C1212.03 381.345 1248.07 414.121 1278.33 442.429C1348.69 508.431 1417.73 583.377 1483.53 665.187L1483.38 665.393C1417.59 583.594 1348.56 508.654 1278.21 442.66C1247.95 414.355 1211.92 381.584 1174.09 353.147C1147.39 333.092 1118.69 314.604 1083.78 294.963C1005.77 250.997 943.529 248.255 887.918 286.338C830.201 325.907 789.098 395.526 755.101 457.675C751.457 464.336 747.891 470.94 744.881 476.524C743.51 479.063 742.14 481.609 740.769 484.157C707.467 545.993 673.03 609.938 625.1 651.356C613.215 661.582 600.568 669.706 587.51 675.498C575.354 680.884 563.372 683.999 551.815 684.783Z" fill="#A1A1A1"/>
<path d="M551.953 669.554C550.276 669.554 548.609 669.506 546.955 669.407C533.025 668.587 520.133 664.328 508.64 656.743C496.07 648.447 485.179 636.161 476.272 620.221C475.481 618.8 474.692 617.332 473.931 615.855C460.328 589.478 452.761 558.43 445.444 528.408C443.919 522.15 442.341 515.679 440.742 509.399C431.436 472.767 420.475 440.631 407.23 411.153C405.591 407.508 403.895 403.853 402.184 400.29C370.933 335.201 327.545 280.109 276.715 240.972C217.57 195.506 154.526 173.994 99.1992 180.407C68.0477 184.074 25.2525 208.168 4.905 252.399C-6.85084 277.953 -8.56198 306.363 -0.0443869 334.555L-0.241079 334.659C-4.70398 319.889 -6.40667 305.1 -5.30681 290.702C-4.29578 277.46 -0.920037 264.525 4.72522 252.252C13.6299 232.896 27.926 215.646 46.0695 202.361C62.8424 190.08 81.705 182.185 99.1801 180.128C128.168 176.77 159.14 180.987 191.232 192.662C220.283 203.232 249.079 219.403 276.821 240.729C327.681 279.892 371.092 335.015 402.361 400.14C404.073 403.706 405.771 407.362 407.41 411.012C420.661 440.507 431.628 472.663 440.939 509.314C442.538 515.597 444.116 522.069 445.641 528.326C452.955 558.331 460.517 589.356 474.102 615.703C474.864 617.18 475.648 618.645 476.439 620.06C512.631 684.828 576.77 677.875 624.278 642.255C674.173 604.515 711.254 541.791 747.113 481.133L747.481 480.51C750.954 474.63 754.546 468.553 758.12 462.552C795.839 399.244 837.298 334.183 892.651 295.327C908.19 284.442 924.564 276.448 941.311 271.569C956.889 267.031 973.313 265.038 990.126 265.647C1019.44 266.706 1050.84 275.495 1086.14 292.514C1123.23 310.337 1151.14 326.719 1176.64 345.635C1212.97 372.641 1248.16 406.767 1279.21 436.876C1348.35 504.274 1416.33 580.198 1481.28 662.535L1481.14 662.738C1416.19 580.41 1348.21 504.494 1279.09 437.102C1248.04 406.998 1212.86 372.878 1176.54 345.881C1151.05 326.97 1123.14 310.593 1086.07 292.776C1009.56 255.885 948.137 256.773 892.748 295.573C837.431 334.403 795.99 399.436 758.285 462.721C754.711 468.722 751.119 474.802 747.646 480.679L747.278 481.302C729.408 511.529 710.93 542.786 690.976 570.705C668.552 602.08 646.768 625.562 624.379 642.494C600.956 660.055 575.442 669.554 551.953 669.554Z" fill="#A1A1A1"/>
<path d="M1478.9 660.08C1414.8 577.222 1347.87 500.331 1279.97 431.543C1277.1 428.651 1274.22 425.745 1271.33 422.831C1241.92 393.172 1211.51 362.505 1178.99 338.614C1147.44 315.501 1115.47 301.368 1088.36 290.592C1013.51 260.663 952.891 265.181 897.587 304.806C840.815 345.604 796.825 413.34 761.479 467.769C759.357 471.036 757.24 474.309 755.119 477.584C753.553 480.002 751.986 482.421 750.419 484.836C730.293 515.859 711.987 543.595 691.76 568.904C668.652 597.815 646.38 618.989 623.666 633.638C602.379 647.368 579.64 654.631 558.488 654.634C554.635 654.634 550.838 654.395 547.107 653.907C533.486 652.128 520.875 647.131 509.627 639.053C497.353 630.238 486.678 617.718 477.894 601.837C477.109 600.414 476.327 598.943 475.569 597.463C462.128 571.224 454.266 540.613 446.664 511.011C445.027 504.635 443.333 498.039 441.62 491.638C431.869 455.122 420.625 423.242 407.249 394.176C405.584 390.559 403.861 386.937 402.126 383.406C370.427 318.889 326.695 264.513 275.659 226.156C216.095 181.494 152.876 160.955 97.6461 168.317C59.8891 173.45 21.2797 203.288 3.7538 240.876C-8.18606 266.484 -10.3033 294.983 -2.37372 323.294L-2.57253 323.393C-6.72451 308.569 -8.17127 293.735 -6.87259 279.3C-5.67755 266.01 -2.16221 253.033 3.57399 240.726C12.5717 221.427 26.8213 204.176 44.7829 190.844C61.395 178.512 80.1604 170.411 97.6249 168.038C126.579 164.176 157.582 167.894 189.774 179.084C218.895 189.209 247.828 204.963 275.765 225.908C326.832 264.288 370.588 318.694 402.306 383.251C404.042 386.785 405.766 390.41 407.431 394.026C420.815 423.11 432.064 455.006 441.821 491.539C443.534 497.943 445.228 504.536 446.865 510.915C454.463 540.5 462.32 571.091 475.745 597.299C476.502 598.776 477.283 600.245 478.065 601.665C515.848 669.974 580.065 661.441 623.575 633.381C675.486 599.901 715.211 538.673 750.26 484.65C751.827 482.232 753.393 479.813 754.96 477.398C757.079 474.122 759.199 470.85 761.32 467.583C781.496 436.515 801.421 406.324 823.325 378.504C848.514 346.509 872.774 322.322 897.489 304.558C912.866 293.54 929.007 285.132 945.465 279.571C960.846 274.37 977.018 271.484 993.533 270.988C1022.66 270.114 1053.7 276.439 1088.42 290.321C1115.54 301.103 1147.53 315.241 1179.09 338.369C1211.63 362.268 1242.04 392.944 1271.46 422.608C1274.35 425.523 1277.23 428.429 1280.11 431.321C1348.01 500.114 1414.94 577.013 1479.05 659.88L1478.9 660.08Z" fill="#A1A1A1"/>
<path d="M1476.66 657.425C1412.19 572.453 1346.32 494.583 1280.86 425.985C1276.94 421.881 1272.93 417.65 1269.06 413.56C1241.31 384.268 1212.61 353.979 1181.44 331.347C1150.32 308.829 1118.08 297.002 1090.64 288.404C1017.61 265.3 957.806 273.446 902.421 314.041C849.594 352.902 808.208 411.339 768.183 467.851L763.788 474.055C760.317 478.957 756.728 484.022 753.189 488.991C713.124 545.179 673.017 597.841 622.95 624.776C610.801 631.312 598.326 635.842 585.868 638.246C572.49 640.826 559.495 640.862 547.242 638.354C533.933 635.628 521.609 629.903 510.61 621.337C498.641 612.016 488.179 599.267 479.52 583.448C478.739 582.016 477.963 580.542 477.212 579.065C463.936 552.981 455.79 522.821 447.914 493.653C446.156 487.145 444.337 480.414 442.501 473.877C432.298 437.474 420.775 405.851 407.272 377.202C405.584 373.622 403.835 370.028 402.073 366.525C369.927 302.58 325.85 248.92 274.605 211.344C214.62 167.491 151.224 147.918 96.0888 156.236C58.6765 162 20.2427 192.048 2.62795 229.308C-9.51073 254.98 -12.0467 283.59 -4.70727 312.045L-4.90823 312.138C-8.74928 297.25 -9.93585 282.358 -8.43623 267.882C-7.05294 254.535 -3.39168 241.507 2.44605 229.161C11.5411 209.926 25.7399 192.693 43.5111 179.321C59.9583 166.944 78.6221 158.649 96.0634 155.96C124.983 151.596 156.019 154.813 188.312 165.518C217.505 175.197 246.571 190.531 274.704 211.099C325.979 248.695 370.081 302.388 402.246 366.37C404.008 369.876 405.759 373.473 407.447 377.052C420.959 405.716 432.488 437.355 442.696 473.779C444.532 480.315 446.351 487.049 448.108 493.557C455.981 522.708 464.122 552.854 477.384 578.907C478.132 580.379 478.909 581.85 479.687 583.282C516.56 650.64 577.826 648.749 622.868 624.517C672.895 597.604 712.985 544.962 753.032 488.799C756.571 483.83 760.16 478.765 763.631 473.863L768.027 467.659C787.674 439.921 807.988 411.235 830.05 384.55C855.038 354.328 878.677 331.184 902.316 313.792C917.536 302.636 933.448 293.814 949.607 287.573C964.8 281.704 980.721 277.922 996.927 276.329C1025.93 273.48 1056.59 277.341 1090.69 288.128C1118.14 296.731 1150.39 308.561 1181.54 331.099C1212.72 353.739 1241.43 384.037 1269.19 413.337C1273.06 417.427 1277.07 421.655 1280.99 425.762C1346.45 494.366 1412.33 572.241 1476.8 657.222L1476.66 657.425Z" fill="#A1A1A1"/>
<path d="M1474.42 654.769C1410.5 568.853 1345.68 490.008 1281.74 420.429C1276.93 415.2 1272.01 409.763 1267.24 404.506C1240.99 375.53 1213.84 345.567 1183.89 324.086C1152.91 301.954 1120.53 292.525 1092.93 286.223C1021.93 269.759 962.927 281.535 907.254 323.28C858.67 359.864 818.781 411.711 780.203 461.85C776.144 467.126 771.946 472.58 767.855 477.865C763.052 484.072 759.382 488.788 755.958 493.151C737.618 516.507 715.781 543.4 692.866 565.769C668.582 589.472 645.479 605.876 622.234 615.922C610.01 621.204 597.588 624.536 585.31 625.821C572.126 627.203 559.362 626.188 547.373 622.803C534.384 619.135 522.347 612.683 511.592 603.627C499.929 593.807 489.685 580.829 481.144 565.062C480.375 563.633 479.602 562.156 478.854 560.673C465.753 534.764 457.334 505.069 449.191 476.352C447.302 469.691 445.35 462.805 443.381 456.116C432.719 419.814 420.914 388.451 407.291 360.227C405.577 356.679 403.803 353.119 402.016 349.643C369.424 286.271 325 233.327 273.547 196.532C213.146 153.485 149.572 134.884 94.5342 144.152C63.2178 149.541 22.3156 174.368 1.53242 217.68C-10.8241 243.432 -13.7895 272.171 -7.04016 300.79L-7.24112 300.874C-10.7713 285.91 -11.6934 270.954 -9.98442 256.421C-8.40654 243.006 -4.59298 229.922 1.35474 217.528C10.547 198.372 24.693 181.167 42.2675 167.767C58.5497 155.354 77.1014 146.869 94.5089 143.873C123.395 139.008 154.464 141.722 186.855 151.943C216.118 161.177 245.319 176.094 273.647 196.284C325.129 233.099 369.578 286.073 402.189 349.483C403.976 352.958 405.753 356.524 407.466 360.075C421.096 388.313 432.907 419.693 443.576 456.012C445.547 462.704 447.499 469.59 449.388 476.25C457.525 504.953 465.941 534.631 479.027 560.512C479.776 561.992 480.546 563.466 481.316 564.893C511.991 621.531 564.647 640.507 622.168 615.649C674.259 593.139 716.752 542.687 755.812 492.943C759.236 488.579 762.904 483.864 767.707 477.657C771.798 472.372 775.996 466.918 780.055 461.641C799.047 436.958 818.684 411.435 839.63 387.535C863.315 360.506 885.403 339.406 907.153 323.029C922.227 311.726 937.907 302.489 953.76 295.578C968.775 289.03 984.444 284.354 1000.33 281.673C1029.26 276.797 1059.56 278.192 1092.96 285.938C1120.58 292.246 1152.99 301.678 1183.99 323.83C1213.96 345.325 1241.11 375.296 1267.38 404.281C1272.14 409.538 1277.07 414.975 1281.87 420.203C1345.81 489.791 1410.65 568.641 1474.57 654.564L1474.42 654.769Z" fill="#A1A1A1"/>
<path d="M1472.17 652.115C1408.81 565.248 1345.04 485.426 1282.62 414.871C1277.31 408.87 1271.85 402.57 1266.58 396.479C1241.45 367.463 1215.47 337.461 1186.34 316.82C1155.34 294.952 1122.88 287.976 1095.21 284.036C1027.43 274.122 967.529 289.98 912.087 332.514C867.942 366.536 830.101 412.049 793.505 456.066C786.113 464.956 778.471 474.151 771.04 482.914C766.495 488.278 762.468 492.988 758.724 497.312C741.314 517.398 718.156 543.152 693.409 564.2C668.544 585.345 645.026 599.368 621.512 607.066C595.866 615.463 570.271 615.525 547.495 607.249C534.832 602.646 523.081 595.47 512.566 585.918C501.214 575.604 491.189 562.401 482.764 546.681C482.001 545.25 481.235 543.77 480.49 542.287C467.576 516.575 458.895 487.368 450.502 459.124C448.472 452.292 446.374 445.228 444.256 438.365C433.127 402.159 421.041 371.049 407.307 343.262C405.569 339.744 403.769 336.215 401.956 332.771C368.918 269.97 324.149 217.74 272.49 181.731C211.671 139.493 147.92 121.862 92.9772 132.08C55.7427 139.155 18.5652 168.864 0.468229 206.003C-12.1252 231.848 -15.5284 260.736 -9.37343 289.546L-9.57647 289.622C-12.7936 274.568 -13.4493 259.533 -11.5266 244.938C-9.74993 231.447 -5.77348 218.295 0.290566 205.848C9.58017 186.782 23.6711 169.617 41.0405 156.205C57.1513 143.766 75.5867 135.096 92.9476 131.798C121.8 126.431 152.903 128.647 185.393 138.38C214.728 147.168 244.064 161.668 272.587 181.478C324.276 217.509 369.07 269.767 402.13 332.607C403.942 336.052 405.742 339.584 407.483 343.104C421.223 370.908 433.315 402.032 444.451 438.255C446.568 445.118 448.666 452.185 450.697 459.017C459.085 487.246 467.762 516.44 480.664 542.126C481.408 543.609 482.172 545.083 482.936 546.515C513.084 602.787 564.869 625.32 621.461 606.793C673.053 589.9 717.856 544.088 758.584 497.101C762.326 492.777 766.355 488.07 770.899 482.706C778.327 473.942 785.971 464.75 793.361 455.86C829.965 411.835 867.813 366.31 911.979 332.275C926.92 320.811 942.371 311.163 957.903 303.592C972.757 296.353 988.174 290.781 1003.72 287.029C1032.64 280.053 1062.58 278.985 1095.23 283.759C1122.92 287.703 1155.41 294.682 1186.44 316.575C1215.59 337.23 1241.58 367.243 1266.72 396.27C1271.99 402.362 1277.44 408.659 1282.76 414.66C1345.18 485.22 1408.96 565.048 1472.32 651.92L1472.17 652.115Z" fill="#A1A1A1"/>
<path d="M1469.93 649.459C1407.14 561.634 1344.41 480.839 1283.5 409.315C1277.9 402.742 1272.14 395.782 1266.58 389.051C1242.37 359.79 1217.34 329.532 1188.79 309.556C1157.66 287.874 1125.17 283.384 1097.5 281.851C1032.28 277.972 973.208 297.565 916.92 341.751C877.446 372.886 842.257 412.291 808.224 450.397C796.523 463.501 785.47 475.878 774.228 487.962C769.655 492.881 765.49 497.3 761.493 501.469C735.699 528.345 714.239 547.777 693.955 562.621C668.508 581.244 644.577 592.885 620.795 598.207C611.569 600.27 602.376 601.299 593.351 601.299C577.352 601.299 561.872 598.074 547.62 591.687C521.828 580.128 500.555 558.799 484.389 528.292C483.627 526.846 482.868 525.366 482.132 523.889C469.414 498.4 460.49 469.711 451.86 441.964C449.673 434.934 447.414 427.667 445.136 420.601C433.531 384.479 421.161 353.629 407.328 326.285C405.564 322.798 403.739 319.3 401.901 315.887C368.417 253.658 323.301 202.144 271.434 166.916C210.199 125.49 146.272 108.825 91.4247 119.993C54.0357 127.764 17.9306 156.909 -0.553411 194.246C-13.4028 220.198 -17.2565 249.258 -11.7022 278.288L-11.9074 278.358C-14.8072 263.2 -15.1922 248.074 -13.0495 233.403C-11.0656 219.823 -6.92203 206.597 -0.728957 194.091C8.65795 175.13 22.6875 158.02 39.8454 144.609C55.7828 132.15 74.0892 123.311 91.393 119.714C120.212 113.846 151.348 115.559 183.936 124.807C213.342 133.154 242.812 147.236 271.531 166.662C323.428 201.913 368.569 253.455 402.075 315.72C403.913 319.136 405.738 322.634 407.504 326.124C421.345 353.482 433.721 384.35 445.331 420.485C447.609 427.552 449.87 434.821 452.055 441.851C460.68 469.584 469.6 498.262 482.307 523.728C483.043 525.203 483.801 526.682 484.562 528.126C514.749 585.097 564.391 610.538 620.759 597.925C674.417 585.917 721.944 542.315 761.362 501.244C765.357 497.075 769.522 492.658 774.095 487.739C785.334 475.656 796.388 463.282 808.089 450.177C842.125 412.063 877.323 372.652 916.812 341.506C931.641 329.864 946.862 319.802 962.053 311.594C976.765 303.645 991.931 297.176 1007.13 292.37C1036.11 283.207 1065.67 279.672 1097.51 281.566C1125.2 283.099 1157.72 287.595 1188.89 309.302C1217.46 329.292 1242.5 359.565 1266.72 388.837C1272.29 395.568 1278.04 402.527 1283.64 409.098C1344.55 480.628 1407.28 561.431 1470.08 649.262L1469.93 649.459Z" fill="#A1A1A1"/>
<path d="M1467.69 646.804C1404.58 556.764 1344.62 477.263 1284.38 403.757C1278.63 396.744 1272.98 389.582 1266.98 381.999C1243.56 352.358 1219.34 321.71 1191.24 302.292C1159.72 280.619 1125.81 278.815 1099.79 279.667C1037.53 281.437 979.298 304.767 921.754 350.991C887.229 378.859 855.352 412.326 824.524 444.693C808.322 461.703 793.019 477.767 777.414 493.013C772.781 497.543 768.477 501.67 764.26 505.63C738.115 530.141 715.948 547.747 694.497 561.04C668.46 577.174 644.117 586.433 620.076 589.348C607.724 590.845 595.456 590.563 583.614 588.511C571.075 586.338 559.006 582.169 547.743 576.123C522.779 562.72 502.01 540.444 486.014 509.909C485.258 508.46 484.505 506.977 483.774 505.5C471.269 480.273 462.121 452.131 453.274 424.917C450.913 417.656 448.472 410.147 446.017 402.846C433.924 366.804 421.276 336.21 407.348 309.317C405.556 305.861 403.706 302.394 401.847 299.011C367.916 237.355 322.456 186.557 270.381 152.11C222.317 120.447 172.751 103.927 127.3 103.927C114.45 103.927 101.939 105.246 89.8726 107.915C52.9342 116.247 17.0554 145.497 -1.53651 182.433C-14.6587 208.506 -18.9799 237.764 -14.0327 267.042L-14.2399 267.104C-16.8225 251.827 -16.9304 236.597 -14.5614 221.841C-12.3659 208.162 -8.04264 194.85 -1.7142 182.275C7.77 163.432 21.734 146.393 38.6719 132.996C54.6601 120.349 72.3531 111.58 89.8346 107.639C118.619 101.269 149.79 102.484 182.477 111.244C211.953 119.142 241.561 132.804 270.474 151.853C322.578 186.32 368.066 237.147 402.018 298.839C403.879 302.222 405.732 305.692 407.524 309.15C421.458 336.057 434.113 366.666 446.211 402.725C448.667 410.026 451.11 417.535 453.47 424.798C462.314 452.002 471.457 480.132 483.951 505.34C484.683 506.814 485.436 508.296 486.189 509.742C516.103 566.841 564.895 595.749 620.059 589.063C675.879 582.296 726.38 540.793 764.141 505.393C768.359 501.433 772.661 497.306 777.293 492.78C792.896 477.539 808.197 461.472 824.397 444.464C855.229 412.094 887.11 378.62 921.648 350.743C951.274 326.945 980.347 309.601 1010.53 297.718C1039.64 286.257 1068.83 280.259 1099.79 279.379C1117.44 278.801 1131.85 279.805 1145.12 282.533C1162.26 286.057 1177.38 292.435 1191.34 302.036C1219.47 321.471 1243.7 352.135 1267.13 381.791C1273.12 389.373 1278.78 396.532 1284.53 403.545C1344.77 477.054 1404.74 556.561 1467.84 646.607L1467.69 646.804Z" fill="#A1A1A1"/>
<path d="M1465.44 644.148C1402.92 553.122 1343.98 472.673 1285.26 398.198C1279.45 390.83 1273.73 383.239 1267.66 375.203C1244.94 345.094 1221.45 313.956 1193.69 295.025C1161.91 273.454 1128.03 274.316 1102.07 277.476C1043.32 284.379 985.922 311.447 926.587 360.222C897.352 384.369 869.517 412.004 842.597 438.731C821.317 459.857 801.219 479.813 780.601 498.053C775.941 502.179 771.373 506.125 767.026 509.779C740.831 531.776 717.283 548.02 695.038 559.441C668.402 573.117 643.647 580.001 619.357 580.48C606.998 580.722 594.779 579.234 583.047 576.052C570.747 572.714 558.911 567.497 547.866 560.54C523.758 545.356 503.493 522.133 487.636 491.513C486.891 490.067 486.143 488.582 485.413 487.096C473.143 462.176 463.796 434.629 454.756 407.99C452.199 400.453 449.553 392.656 446.894 385.077C434.307 349.102 421.378 318.767 407.367 292.333C405.55 288.909 403.674 285.473 401.789 282.121C367.412 221.037 321.605 170.955 269.324 137.288C207.258 97.4884 142.973 82.7636 88.316 95.8254C51.8555 104.69 16.2158 134.016 -2.47979 170.532C-15.8981 196.743 -20.6994 226.221 -16.3676 255.783L-16.5749 255.837C-18.8339 240.427 -18.6604 225.079 -16.0567 210.222C-13.6391 196.43 -9.13183 183.022 -2.65533 170.371C6.92193 151.664 20.8162 134.709 37.5256 121.34C53.3298 108.696 70.8789 99.7772 88.2779 95.5463C117.031 88.6772 148.233 89.3875 181.017 97.6632C210.566 105.121 240.306 118.366 269.415 137.032C321.728 170.715 367.56 220.829 401.957 281.949C403.843 285.301 405.721 288.739 407.538 292.167C421.557 318.615 434.491 348.964 447.085 384.953C449.746 392.532 452.389 400.329 454.949 407.869C463.985 434.497 473.327 462.033 485.588 486.936C486.318 488.418 487.067 489.904 487.809 491.347C518.039 549.717 564.755 581.275 619.353 580.192C663.654 579.318 710.542 556.865 766.912 509.533C771.257 505.88 775.823 501.937 780.483 497.81C801.094 479.573 821.192 459.623 842.468 438.497C869.392 411.767 897.231 384.127 926.475 359.973C956.391 335.38 984.996 316.766 1013.92 303.058C1043.23 289.174 1072.06 280.709 1102.05 277.186C1128.04 274.02 1161.96 273.161 1193.79 294.766C1221.58 313.719 1245.08 344.871 1267.81 374.994C1273.87 383.03 1279.6 390.618 1285.41 397.984C1344.13 472.462 1403.07 552.916 1465.6 643.948L1465.44 644.148Z" fill="#A1A1A1"/>
<path d="M1463.2 641.493C1401.26 549.477 1343.34 468.076 1286.15 392.642C1280.34 384.984 1274.61 377.027 1268.54 368.602C1246.46 337.954 1223.63 306.263 1196.14 287.761C1164.06 266.269 1130.24 269.806 1104.36 275.289C1049.09 286.775 994.135 316.698 931.422 369.458C907.902 389.336 884.917 411.141 862.689 432.228C835.691 457.838 810.191 482.031 783.788 503.101C779.031 506.901 774.323 510.548 769.795 513.936C743.129 533.876 718.854 548.24 695.582 557.846C682.546 563.227 669.678 567.125 657.334 569.433C644.167 571.894 631.149 572.63 618.64 571.621C593.26 569.571 569.491 560.602 547.993 544.964C524.775 528.075 505.016 503.907 489.264 473.127C488.524 471.67 487.781 470.182 487.056 468.705C475.048 444.151 465.535 417.258 456.336 391.253C453.55 383.38 450.672 375.24 447.776 367.319C434.681 331.403 421.47 301.325 407.388 275.362C405.546 271.966 403.642 268.561 401.734 265.243C366.911 204.728 320.759 155.362 268.27 122.482C205.789 83.4965 141.329 69.7413 86.7631 83.7474C28.3372 98.9768 -28.5955 164.779 -18.6968 244.534L-18.9061 244.579C-21.383 224.628 -19.932 204.974 -14.5955 186.156C-9.72229 168.971 -1.72502 152.797 9.17419 138.089C19.3077 124.413 31.4654 112.605 45.3068 102.993C58.4713 93.8524 72.7928 87.0988 86.7208 83.4683C115.44 76.0975 146.676 76.3089 179.56 84.0997C209.18 91.1155 239.056 103.943 268.359 122.228C320.877 155.131 367.057 204.525 401.901 265.074C403.811 268.394 405.715 271.799 407.559 275.199C421.648 301.173 434.865 331.268 447.966 367.198C450.862 375.118 453.741 383.259 456.526 391.134C465.723 417.131 475.233 444.013 487.234 468.552C487.957 470.029 488.697 471.518 489.438 472.972C519.711 532.125 565.601 567.057 618.652 571.342C663.565 574.964 712.97 556.109 769.691 513.694C774.217 510.306 778.924 506.661 783.681 502.861C810.077 481.797 835.573 457.607 862.566 432C884.796 410.91 907.783 389.102 931.307 369.222C994.046 316.439 1049.02 286.504 1104.33 275.01C1121.72 271.326 1136.11 270.147 1149.64 271.306C1166.93 272.786 1182.17 278.085 1196.23 287.508C1223.75 306.029 1246.6 337.74 1268.69 368.404C1274.76 376.827 1280.49 384.784 1286.29 392.439C1343.49 467.879 1401.41 549.282 1463.36 641.304L1463.2 641.493Z" fill="#A1A1A1"/>
<path d="M1460.96 638.838C1399.6 545.819 1342.71 463.471 1287.03 387.084C1281.27 379.18 1275.57 370.902 1269.55 362.133C1248.07 330.899 1225.86 298.6 1198.59 280.495C1165.81 258.822 1130.42 265.894 1106.65 273.099C1042.13 292.413 984.306 337.314 936.257 378.696C918.987 393.629 901.762 409.448 885.101 424.745C851.68 455.432 820.114 484.416 786.978 508.15C782.105 511.642 777.257 514.988 772.566 518.097C745.38 536.077 720.377 548.558 696.13 556.248C668.642 564.966 642.332 567.159 617.925 562.762C592.853 558.243 569.366 547.014 548.122 529.383C525.839 510.892 506.585 485.781 490.891 454.744C490.159 453.287 489.421 451.796 488.7 450.313C476.991 426.21 467.358 400.056 458.041 374.761C454.989 366.471 451.831 357.902 448.659 349.562C434.857 313.195 421.75 284.227 407.412 258.391C405.544 255.025 403.617 251.654 401.682 248.365C366.408 188.425 319.909 139.775 267.213 107.673C204.318 69.5048 139.68 56.7164 85.2068 71.6668C26.5714 87.9729 -29.198 152.882 -21.0294 233.285L-21.2388 233.322C-23.265 213.374 -21.5116 193.739 -16.0292 174.963C-11.0037 157.761 -2.9599 141.57 7.88221 126.845C17.9925 113.113 30.0867 101.218 43.8308 91.485C56.917 82.2171 71.211 75.2691 85.1645 71.3877C113.852 63.5151 145.12 63.2276 178.101 70.5308C207.793 77.104 237.804 89.5147 267.302 107.416C320.03 139.535 366.554 188.214 401.845 248.19C403.78 251.482 405.709 254.856 407.579 258.222C421.925 284.069 435.037 313.054 448.845 349.435C452.017 357.775 455.175 366.347 458.227 374.637C467.542 399.923 477.172 426.069 488.873 450.161C489.595 451.643 490.331 453.132 491.062 454.589C521.571 514.92 566.634 553.237 617.951 562.483C663.976 570.775 714.519 556.172 772.471 517.843C777.16 514.737 782.008 511.394 786.877 507.902C820.004 484.174 851.566 455.195 884.98 424.511C901.641 409.214 918.869 393.392 936.141 378.456C968.451 350.633 995.33 330.076 1020.72 313.764C1050.62 294.563 1078.71 281.172 1106.6 272.823C1123.6 267.67 1138.42 265.336 1151.9 265.691C1169.26 266.148 1184.57 270.906 1198.68 280.242C1225.98 298.369 1248.21 330.688 1269.7 361.941C1275.73 370.707 1281.42 378.986 1287.18 386.884C1342.86 463.273 1399.76 545.627 1461.12 638.649L1460.96 638.838Z" fill="#A1A1A1"/>
<path d="M1458.72 636.18C1397.95 542.154 1342.08 458.856 1287.91 381.522C1282.23 373.413 1276.61 364.847 1270.66 355.776C1249.74 323.914 1228.12 290.966 1201.04 273.228C1167.91 251.606 1132.61 261.547 1108.94 270.908C1050.48 293.827 998.336 337.466 941.092 387.929C930.768 397.064 920.326 406.493 910.226 415.614C871.384 450.69 831.222 486.958 790.166 513.195C785.178 516.385 780.187 519.432 775.332 522.251C747.963 538.126 721.498 549.023 696.673 554.641C668.551 561.005 641.815 560.754 617.204 553.899C592.482 547.013 569.282 533.52 548.245 513.795C526.956 493.833 508.203 467.78 492.509 436.36C491.784 434.9 491.052 433.406 490.335 431.923C478.979 408.384 469.285 383.081 459.911 358.612C456.533 349.795 453.041 340.679 449.532 331.809C435.191 295.479 421.811 266.759 407.424 241.425C405.535 238.099 403.581 234.756 401.618 231.492C365.904 172.116 319.063 124.181 266.155 92.8628C202.848 55.5124 138.034 43.6936 83.65 59.5854C26.876 76.3566 -29.9235 138.988 -23.3645 222.032L-23.5739 222.06C-25.1496 202.112 -23.0938 182.5 -17.4654 163.767C-12.2897 146.545 -4.19728 130.34 6.58561 115.598C26.4804 88.4037 54.5523 67.8864 83.6035 59.3063C112.257 50.9348 143.559 50.1456 176.639 56.9612C206.403 63.0946 236.548 75.0854 266.24 92.6035C319.177 123.939 366.046 171.905 401.783 231.309C403.748 234.575 405.702 237.918 407.593 241.247C421.987 266.596 435.373 295.327 449.718 331.671C453.227 340.544 456.721 349.66 460.099 358.477C469.471 382.94 479.163 408.238 490.512 431.765C491.227 433.248 491.959 434.739 492.685 436.199C524.084 499.062 567.156 539.665 617.244 553.62C663.625 566.541 716.782 555.901 775.244 521.992C780.096 519.173 785.083 516.129 790.068 512.941C831.11 486.713 871.268 450.45 910.102 415.38C920.201 406.259 930.644 396.831 940.97 387.695C966.027 365.605 995.184 340.268 1024.12 319.114C1054.39 296.987 1082.11 281.132 1108.87 270.641C1125.71 263.98 1140.53 260.524 1154.16 260.079C1171.35 259.515 1187.15 263.856 1201.13 272.977C1213.26 280.923 1225.47 292.781 1238.45 309.231C1249.92 323.756 1260.54 339.941 1270.81 355.59C1276.76 364.658 1282.38 373.224 1288.06 381.331C1342.24 458.667 1398.11 541.968 1458.87 635.996L1458.72 636.18Z" fill="#A1A1A1"/>
<path d="M1456.47 633.525C1396.31 538.484 1341.46 454.236 1288.79 375.967C1283.21 367.68 1277.69 358.855 1271.84 349.513C1251.47 316.988 1230.42 283.356 1203.49 265.967C1178.33 249.768 1148.15 250.67 1111.22 268.724C1059.59 293.825 1013.43 335.809 964.562 380.262C958.477 385.798 952.186 391.52 945.926 397.172C943.474 399.39 941.021 401.614 938.569 403.835C892.007 446.028 843.861 489.659 793.354 518.246C788.248 521.138 783.116 523.886 778.102 526.412C750.131 540.485 722.92 549.443 697.226 553.034C668.454 557.054 641.289 554.365 616.492 545.04C592.155 535.888 569.24 520.132 548.383 498.208C528.166 476.958 509.917 449.966 494.14 417.977C493.421 416.514 492.696 415.017 491.983 413.531C481.058 390.731 471.396 366.448 462.05 342.966C458.266 333.455 454.351 323.621 450.419 314.049C435.524 277.744 421.873 249.272 407.452 224.451C405.536 221.153 403.558 217.844 401.57 214.611C365.403 155.81 318.215 108.589 265.1 78.0537C201.382 41.5234 136.389 30.6715 82.0957 47.5047C26.3644 64.927 -30.3546 128.071 -25.695 210.783L-25.9065 210.806C-27.0297 190.855 -24.6734 171.265 -18.8992 152.58C-13.5712 135.338 -5.43218 119.114 5.2936 104.361C25.1038 77.1094 53.0784 56.2877 82.0471 47.2313C110.669 38.358 142.002 37.0671 175.18 43.3979C205.016 49.086 235.298 60.6595 265.185 77.7943C318.329 108.349 365.547 155.596 401.729 214.428C403.717 217.661 405.699 220.975 407.615 224.273C422.042 249.109 435.702 277.589 450.6 313.908C454.535 323.48 458.448 333.317 462.234 342.827C471.576 366.304 481.238 390.582 492.158 413.374C492.871 414.859 493.595 416.353 494.314 417.816C526.394 482.86 568.66 526.755 616.547 544.761C663.817 562.536 718.146 556.27 778.025 526.141C783.036 523.615 788.165 520.87 793.269 517.981C843.759 489.405 891.897 445.783 938.449 403.596C940.902 401.372 943.354 399.151 945.805 396.932C952.066 391.281 958.356 385.559 964.441 380.026C1013.32 335.564 1059.49 293.568 1111.15 268.456C1127.83 260.299 1142.64 255.724 1156.43 254.464C1173.68 252.889 1189.55 256.674 1203.58 265.711C1215.64 273.499 1227.7 285.411 1240.44 302.128C1251.68 316.879 1262.01 333.376 1272 349.33C1277.85 358.668 1283.37 367.491 1288.95 375.775C1341.62 454.047 1396.47 538.298 1456.64 633.342L1456.47 633.525Z" fill="#A1A1A1"/>
<path d="M1454.23 630.87C1399.32 542.306 1343.95 454.673 1289.67 370.408C1284.15 361.879 1278.67 352.715 1272.87 343.016C1254.02 311.464 1232.64 275.703 1205.94 258.704C1180.49 242.533 1150.25 245.095 1113.51 266.534C1069.81 291.942 1031.14 329.301 990.206 368.852C977.386 381.238 964.129 394.049 950.757 406.406C927.417 428.022 902.168 450.896 875.702 471.729C847.357 494.042 821.462 510.906 796.535 523.291C791.298 525.893 786.027 528.343 780.864 530.566C752.302 542.864 724.35 549.863 697.786 551.368C668.38 553.031 640.786 547.924 615.768 536.176C569.57 514.212 529.192 468.259 495.759 399.59C495.046 398.125 494.327 396.625 493.618 395.14C483.248 373.345 473.755 350.353 464.575 328.117C460.254 317.651 455.787 306.827 451.292 296.294C435.831 259.997 421.905 231.777 407.467 207.482C405.523 204.213 403.52 200.935 401.509 197.735C364.902 139.501 317.367 92.9984 264.045 63.2443C199.915 27.5315 134.746 17.652 80.5415 35.4238C24.4717 53.9116 -30.826 116.219 -28.0277 199.534L-28.2392 199.545C-28.9097 179.589 -26.2488 160.021 -20.3328 141.384C-14.8505 124.12 -6.66495 107.878 3.99948 93.114C14.0463 79.2037 25.9544 67.0411 39.3918 56.9615C52.4379 47.1778 66.2644 39.8379 80.4886 35.1476C109.079 25.7754 140.446 23.9828 173.721 29.8259C203.629 35.0771 234.044 46.2307 264.125 62.9822C317.479 92.7532 365.042 139.284 401.67 197.546C403.681 200.749 405.688 204.029 407.632 207.299C422.076 231.608 436.009 259.84 451.476 296.147C455.971 306.683 460.438 317.507 464.759 327.976C473.939 350.21 483.43 373.199 493.796 394.985C494.502 396.473 495.224 397.97 495.934 399.435C529.343 468.051 569.684 513.967 615.838 535.908C663.38 558.232 720.422 556.293 780.799 530.296C785.957 528.072 791.228 525.625 796.461 523.026C852.192 495.338 903.184 450.118 950.634 406.172C964.006 393.815 977.262 381.007 990.081 368.621C1031.03 329.061 1069.7 291.694 1113.42 266.275C1150.22 244.802 1180.52 242.24 1206.03 258.447C1217.99 266.06 1229.86 277.995 1242.33 294.927C1253.33 309.857 1263.35 326.626 1273.04 342.839C1278.84 352.538 1284.31 361.699 1289.83 370.222C1344.11 454.49 1399.48 542.123 1454.39 630.689L1454.23 630.87Z" fill="#A1A1A1"/>
<path d="M1451.99 628.214C1397.91 539.16 1343.6 450.552 1290.55 364.85C1285.2 356.227 1279.89 346.903 1274.27 337.032C1255.87 304.744 1235.02 268.146 1208.39 251.434C1182.63 235.291 1152.34 239.514 1115.79 264.338C1077.49 290.309 1042.3 326.981 1008.28 362.448C991.213 380.231 973.568 398.621 955.59 415.637C927.213 442.522 903.338 463.03 880.45 480.182C852.228 501.331 825.821 517.082 799.722 528.334C794.365 530.645 788.95 532.793 783.63 534.718C755.914 544.744 728.697 549.818 702.659 549.821C701.213 549.821 699.774 549.804 698.336 549.773C668.234 549.119 640.213 541.559 615.051 527.308C602.906 520.391 591.013 511.611 579.703 501.21C569.073 491.434 558.626 479.92 548.653 466.988C530.711 443.722 513.938 415.66 497.381 381.201C496.67 379.718 495.961 378.233 495.257 376.742C485.65 356.411 476.561 335.158 467.773 314.604C462.699 302.74 457.453 290.47 452.17 278.527C435.903 241.732 422.123 214.583 407.484 190.502C405.515 187.264 403.486 184.017 401.449 180.848C364.399 123.192 316.519 77.4053 262.989 48.4319C198.449 13.5394 133.102 4.62948 78.9866 23.3399C23.9681 42.4169 -31.2577 105.198 -30.3588 188.278L-30.5703 188.281C-30.9891 149.583 -19.4807 112.785 2.70903 81.8673C12.7389 67.8922 24.5836 55.6422 37.9173 45.4498C50.8915 35.5336 64.6905 28.0021 78.9337 23.0637C107.49 13.1898 138.891 10.8982 172.263 16.2538C202.243 21.0653 232.794 31.8017 263.068 48.167C316.631 77.16 364.538 122.975 401.612 180.665C403.649 183.836 405.682 187.086 407.651 190.325C422.296 214.419 436.082 241.577 452.354 278.386C457.638 290.332 462.885 302.602 467.957 314.466C476.746 335.017 485.832 356.267 495.437 376.592C496.141 378.084 496.848 379.569 497.558 381.049C532.741 454.273 571.2 502.03 615.134 527.049C675.983 561.516 740.319 550.097 783.575 534.448C788.891 532.522 794.301 530.377 799.657 528.066C859.682 502.185 914.455 454.264 955.467 415.409C973.443 398.398 991.086 380.009 1008.15 362.228C1042.18 326.755 1077.38 290.073 1115.69 264.09C1132.05 252.982 1146.85 246.16 1160.95 243.24C1178.33 239.638 1194.32 242.31 1208.48 251.183C1220.41 258.667 1232.17 270.697 1244.43 287.959C1255.24 303.168 1265 320.298 1274.44 336.866C1280.06 346.734 1285.37 356.055 1290.72 364.672C1343.76 450.375 1398.08 538.983 1452.15 628.037L1451.99 628.214Z" fill="#A1A1A1"/>
<path d="M1449.75 625.559L1291.44 359.294C1286.27 350.599 1281.13 341.136 1275.7 331.122C1257.76 298.07 1237.43 260.609 1210.84 244.173C1185.14 228.282 1153.93 234.33 1118.08 262.154C1083.61 288.9 1052.18 324.469 1021.78 358.869C1001.97 381.291 981.477 404.475 960.425 424.88C897.152 486.209 841.854 522.432 786.402 538.879C763.398 545.7 740.705 549.133 718.697 549.133C712.026 549.133 705.422 548.818 698.889 548.186C668.076 545.21 639.627 535.203 614.337 518.449C590.897 502.918 569.454 480.994 548.789 451.42C532.287 427.805 516.468 399.652 499.008 362.821C489.792 343.383 480.868 323.187 472.239 303.656C452.708 259.459 432.512 213.757 407.51 173.534C369.158 111.841 318.818 63.4614 261.932 33.6228C196.983 -0.446759 131.459 -8.38983 77.4324 11.2593C25.1255 30.2826 -31.6465 90.27 -32.6913 177.029L-32.9028 177.024C-32.4354 138.244 -20.5674 101.452 1.41711 70.6237C21.295 42.7497 48.2713 21.57 77.3774 10.9859C105.902 0.613071 137.337 -2.18025 170.804 2.68763C200.856 7.0566 231.542 17.3786 262.011 33.3606C290.159 48.1249 316.892 67.5598 341.469 91.1269C366.252 114.891 388.526 142.554 407.67 173.348C432.684 213.585 452.885 259.298 472.421 303.507C481.05 323.035 489.974 343.228 499.187 362.663C524.662 416.404 560.784 482.646 614.432 518.19C675.957 558.951 741.883 551.786 786.355 538.597C841.78 522.161 897.052 485.952 960.301 424.646C981.344 404.25 1001.83 381.066 1021.64 358.649C1052.05 324.244 1083.49 288.666 1117.97 261.906C1153.88 234.035 1185.16 227.98 1210.93 243.914C1222.83 251.274 1234.49 263.408 1246.55 281.016C1257.18 296.516 1266.68 314.023 1275.87 330.952C1281.3 340.967 1286.44 350.424 1291.6 359.117L1449.92 625.382L1449.75 625.559Z" fill="#A1A1A1"/>
<path d="M1448.47 605.09C1408.16 530.953 1373.57 470.794 1339.62 415.77C1323.14 389.04 1306.31 362.731 1289.6 337.571C1284.55 329.961 1279.54 321.865 1274.23 313.294C1260.91 291.75 1247.13 269.474 1231.27 252.943C1222.76 244.05 1214.56 237.682 1206.22 233.477C1180.6 220.44 1150.54 229.06 1116.87 259.099C1099.45 274.621 1083.59 292.286 1070.37 307.518C1056.37 323.644 1042.57 341.427 1029.21 358.624C1010.02 383.344 990.18 408.904 968.846 430.856C955.866 444.253 942.708 456.224 929.736 466.439C903.783 486.874 875.927 503.713 846.942 516.487C829.033 524.292 811.037 530.192 793.459 534.02C778.308 537.306 763.13 539.203 748.343 539.657C726.213 540.339 704.651 537.738 684.257 531.917C662.573 525.727 642.052 515.848 623.265 502.549C606.514 490.691 590.69 475.76 574.893 456.9C545.454 421.785 521.974 381.182 504.808 349.731C496.375 334.208 488.141 318.379 480.178 303.07C457.248 258.983 435.589 217.343 408.486 180.251C386.38 150.199 361.16 124.264 333.517 103.163C312.275 86.9471 289.172 73.6852 264.85 63.7436C259.057 61.3787 253.153 59.1745 247.309 57.1986C222.148 48.7059 193.822 43.1756 163.121 40.76C132.168 38.2683 105.389 40.4246 81.2574 47.3586C67.6149 51.2484 54.3975 57.3508 41.9669 65.494C-1.91757 94.2447 -30.0973 142.509 -33.4138 194.604L-33.6782 194.573C-32.7941 180.686 -30.1988 167.006 -25.9665 153.911C-21.9456 141.472 -16.4231 129.476 -9.55315 118.254C3.42735 97.0577 21.2028 78.7024 41.8506 65.1755C54.3002 57.0182 67.5387 50.9073 81.2024 47.0119C105.359 40.0722 132.16 37.9131 163.138 40.4077C193.856 42.8233 222.196 48.3592 247.375 56.8576C253.225 58.8363 259.131 61.0405 264.928 63.4082C289.269 73.3554 312.391 86.6286 333.651 102.859C361.312 123.973 386.554 149.931 408.67 180.003C435.79 217.117 457.453 258.769 480.391 302.867C488.353 318.176 496.587 334.003 505.018 349.522C522.175 380.959 545.645 421.543 575.066 456.635C590.847 475.475 606.653 490.392 623.386 502.236C660.153 528.261 702.191 540.734 748.335 539.305C763.109 538.851 778.276 536.954 793.414 533.67C810.98 529.842 828.963 523.949 846.857 516.149C875.826 503.383 903.665 486.556 929.6 466.132C942.564 455.925 955.714 443.96 968.684 430.574C990.004 408.633 1009.84 383.079 1029.03 358.367C1042.38 341.168 1056.19 323.379 1070.19 307.248C1083.42 292.007 1099.29 274.337 1116.73 258.803C1131.71 245.428 1146.22 236.188 1159.86 231.337C1176.61 225.379 1192.24 225.987 1206.31 233.147C1214.68 237.367 1222.9 243.751 1231.43 252.664C1247.31 269.221 1261.1 291.511 1274.44 313.068C1279.74 321.637 1284.75 329.732 1289.8 337.337C1306.52 362.5 1323.35 388.812 1339.83 415.547C1373.78 470.577 1408.37 530.742 1448.69 604.884L1448.47 605.09Z" fill="#A1A1A1"/>
<path d="M1447.2 584.615C1409.82 509.224 1374.74 446.136 1339.95 391.749C1322.99 365.183 1305.43 339.645 1287.77 315.847C1283.08 309.533 1278.45 302.971 1273.56 296.026C1258.88 275.227 1243.72 253.72 1226.72 238.841C1218.15 231.295 1209.93 226.041 1201.59 222.777C1169.67 210.273 1137.25 233.961 1115.67 256.035C1100.38 271.628 1086.42 289.258 1072.27 307.459C1059.89 323.39 1048.25 340.528 1035.92 358.669C1017.61 385.599 998.687 413.444 977.269 436.825C964.56 450.775 951.295 462.836 937.845 472.674C912.792 491.001 885.357 505.232 853.972 516.186C836.409 522.314 818.422 526.68 800.511 529.157C785.398 531.223 770.313 531.962 755.672 531.345C733.891 530.437 712.6 526.356 692.388 519.216C671.161 511.715 650.906 500.756 632.189 486.643C615.791 474.28 599.957 458.941 583.783 439.751C554.408 404.949 529.244 366.367 510.606 336.641C503.706 325.637 496.917 314.565 490.349 303.854C464.196 261.201 439.493 220.911 409.463 186.968C387.019 161.6 361.822 140.15 334.575 123.215C313.959 110.401 292.108 100.801 267.775 93.8639C262.16 92.2657 256.447 90.8254 250.797 89.5823C225.983 84.1507 199.499 82.0959 167.457 79.9706C144.36 78.3611 114.124 77.3013 85.0775 83.4517C71.3208 86.3098 58.023 91.2736 45.5502 98.1991C1.63602 122.589 -28.1533 165.197 -34.1391 212.179L-34.4521 212.108C-32.8658 199.649 -29.6508 187.43 -24.9024 175.786C-20.376 164.692 -14.4283 154.054 -7.22632 144.161C6.46062 125.366 24.6676 109.336 45.4275 97.8073C57.9236 90.8677 71.2468 85.8955 85.0268 83.0317C114.101 76.8729 144.36 77.9355 167.472 79.545C199.525 81.6703 226.016 83.7251 250.848 89.1595C256.502 90.4054 262.219 91.8458 267.841 93.444C292.197 100.389 314.069 109.998 334.708 122.826C361.983 139.778 387.201 161.245 409.668 186.638C439.72 220.606 464.433 260.908 490.595 303.577C497.16 314.286 503.95 325.357 510.849 336.359C529.483 366.073 554.636 404.642 583.994 439.427C600.15 458.597 615.966 473.919 632.346 486.268C669.149 514.018 710.648 529.039 755.683 530.916C770.311 531.531 785.381 530.795 800.479 528.729C818.373 526.254 836.345 521.894 853.892 515.769C885.251 504.826 912.663 490.606 937.695 472.296C951.128 462.47 964.375 450.426 977.07 436.49C998.469 413.129 1017.39 385.294 1035.68 358.378C1048.02 340.229 1059.67 323.088 1072.06 307.149C1086.21 288.937 1100.18 271.301 1115.48 255.691C1129.47 241.38 1143.27 231.086 1156.5 225.088C1172.53 217.816 1187.74 216.9 1201.68 222.362C1210.05 225.641 1218.3 230.912 1226.9 238.48C1243.92 253.388 1259.1 274.914 1273.79 295.73C1278.68 302.673 1283.31 309.232 1288 315.543C1305.66 339.349 1323.23 364.895 1340.2 391.47C1374.99 445.871 1410.08 508.97 1447.46 584.378L1447.2 584.615Z" fill="#A1A1A1"/>
<path d="M1445.92 564.14C1410.94 486.471 1376.39 422.224 1340.28 367.73C1322.83 341.328 1304.54 316.566 1285.93 294.126C1281.96 289.329 1277.86 284.238 1273.9 279.317C1257.55 258.982 1240.64 237.958 1222.18 224.741C1213.52 218.495 1205.27 214.351 1196.97 212.077C1165.12 203.341 1134.53 229.493 1114.47 252.967C1100.88 268.814 1088.45 286.775 1076.43 304.146L1074.18 307.399C1063.27 323.158 1053.04 340.443 1042.2 358.744C1024.94 387.887 1007.1 418.019 985.692 442.795C973.236 457.317 959.866 469.468 945.953 478.911C921.695 495.375 894.697 507.123 860.997 515.884C843.571 520.413 825.592 523.243 807.558 524.292C792.484 525.135 777.492 524.712 762.995 523.029C719.106 517.958 678.098 500.364 641.109 470.737C625.119 457.929 609.275 442.186 592.673 422.602C564.578 389.53 539.59 355.537 516.406 323.553C513.297 319.266 510.221 315.007 507.169 310.782C475.504 266.954 445.596 225.556 410.447 193.693C387.5 172.891 362.328 155.928 335.633 143.272C316.034 133.982 294.794 127.674 270.703 123.987C265.273 123.161 259.751 122.482 254.288 121.969C240.544 120.7 225.966 120.495 210.532 120.277C198.135 120.103 185.318 119.922 171.792 119.187C145.668 117.645 116.06 115.9 88.8936 119.553C74.8767 121.439 61.4986 125.261 49.1294 130.915C5.23219 150.984 -26.1689 187.94 -34.8684 229.772L-35.2258 229.64C-32.933 218.61 -29.1004 207.851 -23.8359 197.662C-18.8019 187.918 -12.4312 178.633 -4.90136 170.067C9.5005 153.685 28.1432 139.986 49.0067 130.447C61.4034 124.779 74.8091 120.948 88.8535 119.06C116.048 115.404 145.67 117.152 171.804 118.693C185.322 119.426 198.14 119.609 210.532 119.784C225.972 120.001 240.554 120.207 254.311 121.478C259.778 121.994 265.307 122.673 270.741 123.499C294.862 127.189 316.127 133.506 335.754 142.81C362.48 155.48 387.68 172.463 410.652 193.287C445.833 225.178 475.755 266.596 507.434 310.443C510.486 314.669 513.563 318.925 516.67 323.215C539.85 355.193 564.829 389.178 592.916 422.238C609.501 441.8 625.328 457.528 641.3 470.32C678.24 499.91 719.195 517.479 763.027 522.544C777.507 524.224 792.484 524.647 807.542 523.804C825.556 522.756 843.518 519.929 860.925 515.405C894.591 506.653 921.557 494.918 945.784 478.477C959.667 469.054 973.012 456.925 985.446 442.429C1006.83 417.683 1024.66 387.568 1041.91 358.443C1052.75 340.133 1062.99 322.84 1073.91 307.069L1076.16 303.817C1088.18 286.437 1100.62 268.465 1114.23 252.601C1134.34 229.051 1165.05 202.823 1197.04 211.597C1205.38 213.883 1213.66 218.041 1222.35 224.313C1240.86 237.558 1257.78 258.605 1274.15 278.961C1278.11 283.883 1282.2 288.973 1286.18 293.768C1304.8 316.219 1323.09 340.995 1340.56 367.412C1376.67 421.928 1411.24 486.197 1446.23 563.892L1445.92 564.14Z" fill="#A1A1A1"/>
<path d="M1444.64 543.662C1412.53 464.82 1377.53 397.547 1340.62 343.715C1322.67 317.479 1303.66 293.489 1284.11 272.411C1281.28 269.367 1278.39 266.207 1275.59 263.151C1257.11 242.967 1238 222.092 1217.65 210.648C1208.91 205.684 1200.64 202.654 1192.36 201.38C1160.6 196.498 1131.83 225.071 1113.28 249.901C1101.76 265.24 1091.37 282.299 1081.31 298.797C1079.57 301.652 1077.83 304.502 1076.09 307.34C1066.53 322.933 1057.59 340.353 1048.13 358.792C1032.03 390.142 1015.39 422.557 994.116 448.771C981.62 464.164 968.519 476.064 954.06 485.157C923.818 504.175 893.595 511.213 868.021 515.593C850.724 518.553 832.754 519.85 814.606 519.438C799.578 519.058 784.677 517.471 770.32 514.725C727.749 506.605 687.278 486.457 650.033 454.839C634.535 441.687 618.682 425.536 601.565 405.464C584.274 385.237 568.161 365.774 552.576 346.951C541.986 334.157 531.982 322.073 522.212 310.48C485.282 266.655 451.455 228.124 411.439 200.427C387.999 184.206 362.852 171.724 336.697 163.333C317.95 157.318 297.912 154.389 273.636 154.11C268.399 154.06 263.065 154.141 257.784 154.356C249.761 154.702 241.461 155.427 232.677 156.196C215.82 157.67 196.71 159.342 176.125 158.406C168.287 158.048 160.289 157.544 152.554 157.053C132.659 155.793 112.088 154.491 92.707 155.655C78.4743 156.512 65.0137 159.195 52.7037 163.632C8.88049 179.431 -24.1302 210.738 -35.6026 247.378L-35.9939 247.161C-32.9904 237.566 -28.5402 228.27 -22.768 219.529C-17.2243 211.135 -10.4306 203.206 -2.57923 195.965C12.5502 182.013 31.6265 170.645 52.5895 163.088C64.9291 158.64 78.4193 155.948 92.6837 155.091C112.086 153.924 132.666 155.229 152.571 156.489C160.304 156.98 168.301 157.484 176.138 157.842C196.703 158.778 215.798 157.109 232.648 155.635C241.436 154.866 249.738 154.141 257.769 153.795C263.057 153.58 268.395 153.499 273.639 153.549C297.948 153.826 318.016 156.763 336.794 162.786C362.981 171.189 388.162 183.684 411.631 199.928C429.707 212.438 448.024 228.287 467.629 248.379C485.18 266.365 502.253 286.045 522.491 310.06C532.261 321.656 542.265 333.74 552.858 346.534C568.44 365.354 584.553 384.817 601.84 405.042C618.94 425.094 634.776 441.228 650.255 454.366C687.449 485.941 727.863 506.061 770.375 514.17C784.715 516.913 799.597 518.497 814.608 518.877C832.735 519.289 850.686 517.995 867.962 515.035C893.504 510.664 923.687 503.634 953.876 484.65C968.295 475.582 981.362 463.713 993.824 448.359C1015.07 422.19 1031.69 389.801 1047.77 358.477C1057.24 340.026 1066.19 322.598 1075.76 306.988C1077.5 304.149 1079.24 301.3 1080.98 298.447C1091.04 281.938 1101.44 264.868 1112.97 249.509C1125.04 233.355 1137.42 220.927 1149.77 212.573C1164.39 202.676 1178.74 198.725 1192.4 200.827C1200.72 202.107 1209.03 205.151 1217.81 210.135C1238.21 221.61 1257.35 242.51 1275.85 262.72C1278.65 265.776 1281.54 268.935 1284.36 271.977C1303.93 293.072 1322.96 317.084 1340.92 343.34C1360.51 371.925 1379.71 404.492 1397.96 440.137C1414.1 471.642 1429.92 506.385 1445 543.397L1444.64 543.662Z" fill="#A1A1A1"/>
<path d="M1443.36 523.179C1413.64 442.077 1379.18 373.616 1340.95 319.697C1322.51 293.627 1302.77 270.413 1282.28 250.693C1281.31 249.754 1280.33 248.816 1279.35 247.874C1258.04 227.343 1236.01 206.113 1213.12 196.554C1204.26 192.851 1195.96 190.931 1187.76 190.683C1156.12 189.73 1129.15 220.691 1112.09 246.829C1102.05 262.12 1093.14 278.88 1084.52 295.087C1082.39 299.096 1080.19 303.239 1078.02 307.275C1069.73 322.649 1062.03 340.127 1053.88 358.635C1039.05 392.298 1023.72 427.106 1002.55 454.741C990.301 470.729 977.094 482.719 962.172 491.401C932.774 508.502 902.923 512.992 875.046 515.298C857.857 516.718 839.893 516.476 821.654 514.579C806.675 512.972 791.869 510.224 777.645 506.413C736.523 495.42 696.589 472.719 658.959 438.936C643.889 425.41 628.478 409.326 610.464 388.321C576.226 348.51 550.802 320.47 528.031 297.404C482.74 251.53 448.172 224.541 412.45 207.161C388.535 195.526 363.413 187.529 337.78 183.391C319.996 180.522 301.123 180.778 276.588 184.231C271.56 184.947 266.416 185.79 261.297 186.74C256.462 187.65 251.551 188.693 246.35 189.795C227.147 193.868 205.38 198.485 180.468 197.623C167.337 197.169 153.925 195.926 140.955 194.725C126.215 193.361 110.974 191.949 96.5231 191.757C82.0346 191.565 68.4915 193.11 56.2809 196.351C12.6036 207.939 -22.0209 233.603 -36.3382 265.001L-36.7443 264.671C-33.0259 256.514 -27.958 248.68 -21.6825 241.389C-15.6248 234.347 -8.41221 227.777 -0.243614 221.855C15.624 210.349 35.1381 201.312 56.1878 195.729C68.4322 192.481 82.005 190.931 96.5274 191.123C110.991 191.314 126.241 192.727 140.987 194.094C153.953 195.294 167.359 196.537 180.479 196.991C205.346 197.851 227.09 193.24 246.272 189.172C251.475 188.067 256.39 187.027 261.228 186.114C266.353 185.164 271.501 184.321 276.533 183.602C301.106 180.147 320.011 179.887 337.833 182.765C363.502 186.909 388.659 194.917 412.609 206.569C448.38 223.972 482.983 250.989 528.314 296.903C551.094 319.976 576.526 348.025 610.772 387.848C628.774 408.836 644.168 424.902 659.221 438.415C696.801 472.149 736.675 494.82 777.736 505.796C791.941 509.601 806.73 512.344 821.688 513.95C839.905 515.844 857.846 516.087 875.014 514.669C902.849 512.366 932.649 507.887 961.98 490.826C976.847 482.178 990.007 470.227 1002.21 454.296C1023.33 426.72 1038.65 391.949 1053.46 358.322C1061.62 339.803 1069.33 322.31 1077.62 306.915C1079.8 302.881 1082 298.738 1084.13 294.729C1092.76 278.508 1101.67 261.737 1111.73 246.42C1122.86 229.361 1134.53 215.868 1146.42 206.313C1160.34 195.12 1174.25 189.654 1187.77 190.057C1196.01 190.305 1204.35 192.236 1213.26 195.957C1236.22 205.549 1258.29 226.807 1279.63 247.37C1280.61 248.311 1281.58 249.253 1282.56 250.188C1303.07 269.931 1322.84 293.174 1341.29 319.272C1379.56 373.238 1414.04 441.752 1443.79 522.911L1443.36 523.179Z" fill="#A1A1A1"/>
<path d="M885.57 515.004C884.384 515.004 883.214 515.002 882.063 514.993C864.963 514.897 847.005 513.122 828.695 509.711C813.77 506.878 799.057 502.969 784.964 498.095C764.828 491.144 744.621 481.155 724.897 468.406C705.851 456.094 686.669 440.828 667.882 423.028C649.474 405.588 632.28 386.156 619.357 371.175C589.119 336.218 560.349 306.999 533.847 284.328C490.923 247.612 452.671 225.229 413.463 213.889C389.809 207.048 364.432 203.44 339.998 203.44C339.62 203.44 339.243 203.44 338.865 203.443C317.874 203.539 297.945 208.737 279.54 214.34C274.749 215.809 269.793 217.413 264.81 219.112C262.079 220.054 259.344 221.023 256.451 222.049C236.042 229.296 212.909 237.507 184.805 236.833C167.69 236.422 150.208 234.06 133.302 231.774C122.386 230.297 111.1 228.772 100.334 227.85C85.5344 226.585 71.9152 226.99 59.8505 229.062C16.406 236.515 -19.8324 256.539 -37.0897 282.629L-37.4873 282.164C-28.6355 268.783 -15.3208 257.198 2.08661 247.728C18.7115 238.685 38.6634 231.988 59.7829 228.366C71.8792 226.291 85.5344 225.88 100.368 227.151C111.144 228.073 122.437 229.601 133.357 231.078C150.253 233.364 167.724 235.726 184.816 236.134C212.848 236.808 235.941 228.608 256.316 221.376C259.211 220.347 261.946 219.377 264.679 218.436C269.666 216.736 274.626 215.129 279.421 213.661C297.859 208.049 317.821 202.843 338.862 202.744C363.685 202.629 389.517 206.248 413.575 213.207C433.81 219.062 453.428 227.678 473.545 239.551C492.919 250.986 512.738 265.44 534.13 283.742C560.654 306.43 589.445 335.671 619.702 370.651C632.615 385.624 649.796 405.042 668.184 422.461C706.305 458.58 745.64 483.799 785.096 497.421C799.17 502.289 813.863 506.193 828.766 509.023C847.054 512.428 864.986 514.204 882.063 514.297C908.786 514.443 939.815 513.243 970.078 496.993C985.395 488.768 998.647 476.741 1010.59 460.226C1031.57 431.222 1045.47 393.995 1058.92 357.992C1065.84 339.473 1072.37 321.98 1079.48 306.838C1081.75 301.987 1084.05 296.99 1086.27 292.156C1093.78 275.824 1101.53 258.94 1110.47 243.333C1120.69 225.378 1131.65 210.814 1143.05 200.047C1156.28 187.563 1169.75 180.578 1183.11 179.287C1191.36 178.489 1199.73 179.304 1208.7 181.779C1232.69 188.391 1256.47 207.604 1280.74 228.397C1301.9 246.527 1322.97 269.626 1341.66 295.2C1362.41 323.525 1381.91 356.755 1399.62 393.964C1415.4 427.115 1429.84 463.606 1442.57 502.425L1442.08 502.706C1414.76 419.341 1380.85 349.691 1341.28 295.693C1322.62 270.156 1301.59 247.091 1280.45 228.992C1256.22 208.235 1232.49 189.059 1208.6 182.469C1199.67 180.009 1191.35 179.2 1183.15 179.992C1158.6 182.368 1132.94 205.013 1110.89 243.762C1101.97 259.341 1094.22 276.21 1086.72 292.525C1084.5 297.362 1082.2 302.362 1079.93 307.213C1072.83 322.327 1066.31 339.806 1059.4 358.308C1052.8 375.972 1045.97 394.24 1038.14 411.801C1029.27 431.709 1020.38 447.708 1010.97 460.716C998.977 477.304 985.666 489.385 970.277 497.65C956.704 504.939 942.116 509.756 925.679 512.383C911.76 514.596 897.779 515.004 885.57 515.004Z" fill="#A1A1A1"/>
<path d="M919.489 516.417C908.704 516.417 898.344 515.56 889.076 514.692C872.034 513.096 854.085 509.784 835.73 504.846C820.869 500.79 806.25 495.722 792.277 489.777C754.017 473.533 716.243 446.493 676.798 407.119C659.596 389.95 643.379 371.477 628.247 354.029C598.373 319.683 568.571 291.835 539.664 271.253C497.15 240.983 457.373 224.891 414.483 220.612C390.045 218.174 364.274 219.169 339.954 223.487C319.598 227.101 300.408 235.822 282.493 244.441C278.011 246.609 273.243 248.976 268.326 251.477C267.097 252.105 265.857 252.745 264.601 253.39C243.968 264.023 220.621 276.053 190.659 276.053C190.153 276.053 189.65 276.05 189.14 276.041C168.869 275.768 148.172 271.912 128.155 268.18C120.219 266.7 112.012 265.173 104.137 263.935C88.7563 261.522 75.4352 260.809 63.4108 261.762C19.6764 265.229 -17.2387 279.255 -37.8654 300.251L-38.2186 299.634C-28.0216 289.255 -13.2771 280.244 4.41587 273.575C21.8191 267.016 42.2067 262.664 63.3748 260.987C75.4331 260.031 88.788 260.744 104.203 263.163C112.086 264.4 120.295 265.931 128.233 267.408C148.231 271.134 168.909 274.987 189.142 275.261C219.729 275.678 243.456 263.448 264.387 252.66C265.642 252.015 266.883 251.375 268.112 250.744C273.034 248.241 277.804 245.873 282.29 243.705C300.234 235.069 319.461 226.337 339.872 222.712C364.23 218.388 390.042 217.39 414.521 219.831C435.776 221.951 456.041 226.957 476.473 235.131C497.516 243.55 518.274 255.138 539.933 270.562C568.876 291.172 598.716 319.055 628.622 353.434C643.747 370.876 659.953 389.339 677.14 406.491C716.532 445.811 754.249 472.812 792.448 489.03C806.4 494.964 821 500.026 835.84 504.076C854.17 509.009 872.093 512.318 889.109 513.908C917.744 516.586 948.206 517.961 978.173 503.143C993.941 495.344 1007.29 483.241 1018.96 466.14C1039.77 435.678 1052.72 394.128 1064.15 357.468C1069.9 339.022 1075.33 321.6 1081.33 306.748C1083.49 301.39 1085.66 295.851 1087.77 290.496C1094.35 273.739 1101.16 256.412 1109.21 240.23C1118.53 221.379 1128.79 205.743 1139.69 193.758C1152.21 179.995 1165.26 171.493 1178.46 168.497C1186.71 166.623 1195.11 166.324 1204.14 167.575C1229.36 171.079 1254.98 188.391 1278.92 206.58C1301.02 223.374 1322.84 245.687 1342.02 271.106C1363.35 299.298 1383.01 332.861 1400.44 370.854C1416.03 404.83 1429.79 442.195 1441.34 481.916L1440.8 482.195C1416.25 397.764 1381.95 324.96 1341.61 271.653C1322.47 246.282 1300.69 224.011 1278.63 207.251C1254.75 189.105 1229.2 171.834 1204.08 168.345C1195.1 167.099 1186.76 167.398 1178.56 169.258C1154.18 174.791 1129.73 200.145 1109.7 240.653C1101.66 256.801 1094.86 274.111 1088.29 290.851C1086.18 296.209 1084.01 301.748 1081.84 307.112C1075.86 321.93 1070.44 339.335 1064.69 357.761C1053.24 394.477 1040.27 436.095 1019.4 466.658C1007.65 483.852 994.233 496.023 978.376 503.868C964.615 510.672 949.771 514.613 932.992 515.907C928.455 516.273 923.937 516.417 919.489 516.417Z" fill="#A1A1A1"/>
<path d="M940.777 519.469C940.623 519.469 940.471 519.469 940.316 519.469C925.075 519.418 910.11 516.932 896.087 514.39C879.071 511.306 861.133 506.455 842.767 499.978C827.974 494.704 813.447 488.472 799.593 481.459C762.862 462.892 726.679 434.218 685.719 391.213C670.968 375.73 656.452 359.057 642.412 342.937C640.657 340.919 638.899 338.904 637.141 336.888C607.113 302.551 576.277 276.069 545.491 258.182C503.335 233.69 460.818 223.599 415.513 227.334C390.671 229.383 364.923 234.984 341.054 243.53C322.221 250.276 305.44 261.097 285.456 274.542C281.406 277.279 277.08 280.233 271.847 283.841L271.555 284.044C261.46 291.051 250.017 298.991 237.183 305.029C222.442 311.963 208.142 315.3 193.478 315.261C170.611 315.184 147.275 309.513 124.709 304.025C119.18 302.681 113.461 301.291 107.94 300.034C92.1086 296.434 78.7072 294.616 66.9704 294.478C23.7543 293.971 -14.7451 302.506 -38.6545 317.89L-38.9294 317.129C-27.218 309.592 -11.4202 303.476 6.75504 299.439C24.9641 295.394 45.7896 293.387 66.9767 293.636C78.7474 293.774 92.1826 295.594 108.048 299.202C113.573 300.46 119.292 301.849 124.823 303.194C147.362 308.673 170.668 314.339 193.48 314.415C193.582 314.415 193.685 314.415 193.787 314.415C226.417 314.415 251.276 297.165 271.264 283.294L271.558 283.091C276.792 279.48 281.118 276.526 285.17 273.789C305.188 260.321 321.999 249.481 340.891 242.716C364.8 234.153 390.59 228.543 415.475 226.491C437.645 224.665 458.557 226.057 479.41 230.753C501.881 235.813 523.58 244.531 545.745 257.41C576.59 275.331 607.479 301.855 637.556 336.248C639.313 338.264 641.071 340.282 642.827 342.3C656.861 358.415 671.372 375.082 686.111 390.553C727.017 433.505 763.147 462.14 799.817 480.675C813.652 487.68 828.158 493.901 842.93 499.169C861.27 505.638 879.183 510.48 896.172 513.558C926.602 519.077 956.393 522.905 986.28 509.33C1002.5 501.962 1015.93 489.783 1027.35 472.093C1047.97 440.137 1059.24 395.858 1069.18 356.788C1073.83 338.498 1078.23 321.219 1083.18 306.7C1085.09 301.113 1087.01 295.335 1088.86 289.746C1094.64 272.27 1100.63 254.202 1107.96 237.166C1116.41 217.41 1125.96 200.7 1136.33 187.503C1148.16 172.463 1160.77 162.451 1173.8 157.749C1181.88 154.835 1190.13 153.414 1198.99 153.414C1199.19 153.414 1199.38 153.414 1199.57 153.417C1227.12 153.609 1255.48 170.29 1277.1 184.8C1300.14 200.261 1322.71 221.784 1342.39 247.045C1364.3 275.108 1384.11 309 1401.27 347.783C1416.67 382.585 1429.74 420.826 1440.13 461.449L1439.52 461.723C1424.07 401.279 1394.6 315.077 1341.95 247.657C1322.32 222.452 1299.8 200.979 1276.82 185.556C1255.26 171.084 1226.99 154.451 1199.57 154.262C1190.54 154.192 1182.17 155.607 1173.97 158.567C1149.82 167.279 1126.58 195.342 1108.51 237.586C1101.19 254.583 1095.22 272.631 1089.44 290.087C1087.59 295.679 1085.67 301.46 1083.76 307.05C1078.82 321.532 1074.43 338.788 1069.78 357.059C1059.82 396.199 1048.53 440.563 1027.83 472.642C1016.34 490.451 1002.81 502.712 986.485 510.128C972.646 516.411 957.688 519.469 940.777 519.469Z" fill="#A1A1A1"/>
<path d="M957.704 523.438C954.422 523.438 951.067 523.297 947.632 523.016C932.598 521.784 917.987 518.088 903.096 514.086C885.835 509.446 868.402 503.24 849.802 495.111C835.085 488.622 820.653 481.231 806.907 473.139C772.035 452.641 737.41 422.467 694.641 375.305C684.018 363.593 673.401 351.309 663.132 339.429C657.541 332.962 651.763 326.274 646.037 319.743C615.651 285.174 583.785 260.065 551.322 245.11C508.43 225.348 464.346 221.728 416.549 234.046C391.296 240.554 365.572 250.761 342.16 263.561C323.352 273.843 306.969 288.283 289.622 303.572L288.423 304.629C285.714 307.025 282.975 309.455 280.202 311.912C278.605 313.33 276.997 314.757 275.375 316.194C265.261 325.205 254.336 334.606 241.808 341.841C227.262 350.241 212.875 354.373 197.82 354.475C172.756 354.638 147.19 346.876 122.469 339.361C118.941 338.287 115.29 337.179 111.747 336.128C95.1372 331.195 82.0425 328.357 70.532 327.19C28.0561 322.886 -12.0296 325.919 -39.45 335.513L-39.6256 334.628C-12.1333 325.008 28.035 321.964 70.5849 326.277C82.1271 327.446 95.2556 330.293 111.897 335.234C115.442 336.289 119.093 337.396 122.623 338.47C147.042 345.892 172.284 353.561 197.016 353.561C197.283 353.561 197.549 353.561 197.818 353.559C229.807 353.344 252.578 335.401 274.996 315.433C276.619 313.996 278.226 312.569 279.823 311.151C282.596 308.691 285.333 306.264 288.045 303.865L289.244 302.808C306.62 287.494 323.031 273.029 341.9 262.712C365.354 249.887 391.123 239.664 416.42 233.144C464.338 220.795 508.54 224.426 551.548 244.241C584.092 259.237 616.032 284.402 646.486 319.047C652.211 325.58 657.992 332.266 663.582 338.735C673.847 350.613 684.463 362.894 695.078 374.597C737.797 421.706 772.373 451.838 807.184 472.302C820.911 480.38 835.321 487.762 850.017 494.24C868.59 502.357 885.998 508.556 903.234 513.187C929.398 520.219 961.96 528.974 994.387 515.49C1011.06 508.559 1024.58 496.303 1035.73 478.021C1056.15 444.535 1065.62 397.437 1073.98 355.887C1077.61 337.836 1081.04 320.786 1085.04 306.636C1086.6 301.123 1088.16 295.42 1089.67 289.904C1094.74 271.405 1099.98 252.277 1106.71 234.086C1114.3 213.41 1123.14 195.627 1132.97 181.229C1144.11 164.915 1156.28 153.395 1169.14 146.988C1177.4 142.876 1185.86 140.342 1195 139.239C1207.25 137.762 1220.29 139.341 1234.87 144.054C1247.2 148.045 1260.42 154.241 1275.28 162.998C1299.26 177.123 1322.59 197.86 1342.75 222.966C1365.25 250.896 1385.22 285.124 1402.1 324.692C1417.3 360.324 1429.69 399.441 1438.91 440.963L1438.25 441.223C1418.78 353.561 1384.69 276.287 1342.28 223.637C1322.17 198.598 1298.91 177.92 1275 163.838C1242.98 144.97 1217.58 137.441 1195.07 140.153C1185.98 141.246 1177.58 143.763 1169.38 147.845C1138.79 163.086 1118.75 203.376 1107.33 234.489C1100.61 252.635 1095.38 271.741 1090.32 290.217C1088.81 295.736 1087.24 301.441 1085.68 306.957C1081.69 321.065 1078.27 338.095 1074.65 356.124C1066.27 397.764 1056.78 444.96 1036.26 478.599C1025.03 497.024 1011.39 509.379 994.59 516.366C983.2 521.102 971.053 523.438 957.704 523.438Z" fill="#A1A1A1"/>
<path d="M972.371 527.987C950.004 527.987 928.499 520.329 910.102 513.778C892.794 507.617 875.37 499.916 856.833 490.239C842.198 482.544 827.86 473.992 814.217 464.818C773.321 437.347 736.863 397.916 703.558 359.396C696.758 351.532 689.888 343.425 683.247 335.586C674.025 324.701 664.488 313.445 654.932 302.599C624.091 267.69 591.195 243.948 557.158 232.033C513.128 216.623 467.473 219.473 417.586 240.749C391.9 251.702 366.201 266.514 343.267 283.584C325.578 296.748 310.611 313.367 294.767 330.961C293.644 332.207 292.519 333.458 291.387 334.71L290.774 335.392C286.922 339.673 282.939 344.099 278.901 348.541C269.227 359.232 258.573 370.29 246.25 378.738C231.946 388.544 217.525 393.434 202.159 393.688C175.187 394.136 147.696 384.031 121.113 374.259C119.25 373.574 117.395 372.892 115.549 372.218C98.0185 365.808 85.2305 362.009 74.088 359.895C32.6782 352.042 -8.99816 349.573 -40.2554 353.121L-40.3188 352.138C-9.01084 348.58 32.7268 351.052 74.1916 358.917C85.3658 361.036 98.1813 364.844 115.743 371.265C117.59 371.939 119.445 372.621 121.31 373.309C147.842 383.061 175.28 393.141 202.148 392.701C235.518 392.149 259.019 369.225 278.428 347.78C282.465 343.338 286.448 338.912 290.3 334.634L290.913 333.951C292.045 332.697 293.17 331.448 294.293 330.203C310.165 312.577 325.157 295.93 342.905 282.722C365.882 265.621 391.629 250.783 417.359 239.81C441.011 229.725 463.226 223.901 485.272 222.007C509.864 219.896 534.112 222.949 557.344 231.08C591.489 243.032 624.482 266.841 655.41 301.847C664.972 312.699 674.511 323.956 683.735 334.845C690.377 342.684 697.243 350.787 704.041 358.649C737.311 397.127 773.725 436.515 814.547 463.935C828.171 473.096 842.488 481.637 857.101 489.321C875.611 498.983 893.008 506.672 910.29 512.826C936.826 522.274 969.852 534.033 1002.48 521.659C1019.61 515.165 1033.22 502.833 1044.1 483.959C1064.32 448.898 1071.88 398.903 1078.55 354.79C1081.23 337.066 1083.77 320.326 1086.89 306.579C1088.04 301.494 1089.2 296.24 1090.32 291.158C1094.71 271.281 1099.25 250.724 1105.45 231.013C1112.2 209.402 1120.32 190.539 1129.6 174.955C1140.06 157.369 1151.79 144.341 1164.47 136.232C1172.71 130.966 1181.2 127.316 1190.42 125.07C1202.85 122.045 1216.64 122.147 1231.41 125.371C1244.35 128.195 1258.49 133.52 1273.45 141.201C1298.36 153.989 1322.44 173.937 1343.11 198.888C1366.19 226.689 1386.32 261.246 1402.92 301.604C1417.92 338.064 1429.62 378.061 1437.68 420.482L1436.96 420.725C1419.88 330.837 1386.37 252.314 1342.61 199.621C1322.02 174.752 1298.01 154.869 1273.19 142.123C1241.01 125.602 1213.98 120.34 1190.56 126.042C1181.4 128.272 1172.97 131.896 1164.79 137.122C1134.62 156.416 1116.24 199.035 1106.13 231.393C1099.94 251.054 1095.41 271.582 1091.03 291.434C1089.91 296.516 1088.75 301.773 1087.6 306.864C1084.49 320.565 1081.96 337.283 1079.28 354.985C1076.07 376.206 1072.43 400.258 1067.15 422.808C1061.1 448.644 1053.75 468.843 1044.69 484.56C1039.45 493.647 1033.43 501.382 1026.8 507.549C1019.66 514.181 1011.55 519.249 1002.69 522.609C992.547 526.457 982.371 527.987 972.371 527.987Z" fill="#A1A1A1"/>
<path d="M985.59 532.979C978.196 532.979 970.448 532.021 962.265 530.107C946.148 526.338 930.72 519.5 917.107 513.471C899.949 505.869 882.034 496.412 863.863 485.366C849.322 476.476 835.076 466.762 821.527 456.491C782.636 427.044 749.131 387.89 712.475 343.484C709.218 339.538 705.91 335.513 702.712 331.617C690.117 316.287 677.094 300.434 663.826 285.456C632.473 250.137 598.549 227.766 562.994 218.96C518.145 207.851 469.569 217.435 418.622 247.448C392.479 262.85 366.803 282.265 344.373 303.6C327.483 319.663 313.581 338.602 298.862 358.654C297.366 360.692 295.864 362.736 294.354 364.788C290.596 369.901 286.547 375.389 282.429 380.882C273.793 392.442 263.268 405.614 250.694 415.628C236.618 426.841 222.161 432.493 206.501 432.901C177.832 433.654 148.65 421.004 120.428 408.771L119.353 408.306C105.535 402.319 90.9177 396.27 77.6475 392.597C37.1979 381.404 -4.95857 373.633 -41.0531 370.715L-41.0045 369.661C-4.87185 372.581 37.3227 380.358 77.8082 391.562C91.1165 395.247 105.76 401.304 119.599 407.299L120.673 407.764C148.834 419.969 177.957 432.589 206.486 431.842C239.433 430.979 262.187 406.479 281.869 380.13C285.987 374.639 290.031 369.151 293.79 364.041C295.3 361.992 296.801 359.945 298.297 357.91C313.041 337.824 326.969 318.852 343.914 302.734C366.387 281.357 392.111 261.906 418.302 246.476C442.205 232.397 465.728 222.695 488.211 217.644C513.902 211.874 539.112 211.964 563.142 217.914C598.832 226.754 632.881 249.205 664.34 284.644C677.618 299.637 690.647 315.494 703.249 330.834C706.447 334.726 709.755 338.752 713.013 342.698C749.632 387.061 783.102 426.173 821.922 455.569C835.453 465.824 849.677 475.523 864.197 484.402C882.343 495.431 900.228 504.874 917.361 512.465C944.217 524.365 977.64 539.172 1010.6 527.826C1028.18 521.775 1041.88 509.37 1052.49 489.898C1072.48 453.213 1078.26 397.919 1082.91 353.488C1084.72 336.181 1086.43 319.835 1088.75 306.531C1089.48 302.337 1090.22 298.016 1090.93 293.836C1094.63 272.12 1098.46 249.664 1104.2 227.949C1113.07 194.155 1129.92 148.949 1159.82 125.489C1168.07 119.012 1176.59 114.243 1185.85 110.911C1210.09 102.069 1238.95 104.93 1271.63 119.409C1297.47 130.862 1322.32 150.02 1343.48 174.816C1367.15 202.485 1387.43 237.374 1403.75 278.525C1411.24 297.399 1417.86 317.558 1423.43 338.441C1428.74 358.389 1433.13 379.104 1436.47 400.01L1435.69 400.23C1421 308.109 1388.06 228.338 1342.95 175.608C1321.87 150.905 1297.12 131.82 1271.38 120.41C1238.85 105.995 1210.15 103.143 1186.06 111.929C1176.87 115.235 1168.41 119.968 1160.22 126.397C1130.53 149.693 1113.78 194.668 1104.95 228.295C1099.22 249.954 1095.4 272.38 1091.7 294.067C1090.99 298.247 1090.25 302.571 1089.52 306.768C1087.21 320.027 1085.5 336.35 1083.7 353.631C1081.36 375.989 1078.71 401.329 1074.18 425.246C1068.97 452.728 1062.09 474.08 1053.13 490.518C1048.02 499.896 1042.04 507.805 1035.37 514.023C1028.17 520.723 1019.91 525.712 1010.79 528.847C1002.8 531.604 994.444 532.979 985.59 532.979Z" fill="#A1A1A1"/>
<path d="M997.773 538.25C988.91 538.25 979.564 536.72 969.58 533.65C953.404 528.681 937.841 520.434 924.109 513.156C906.822 503.995 888.918 493.005 870.893 480.487C856.447 470.41 842.296 459.536 828.836 448.162C791.796 416.889 760.027 376.582 726.392 333.912C724.727 331.801 723.063 329.687 721.394 327.573C705.753 307.752 689.581 287.254 672.721 268.313C640.823 232.546 605.87 211.542 568.835 205.882C522.315 198.77 472.125 215.009 419.657 254.14C393.413 273.713 367.069 298.385 345.478 323.61C329.175 342.656 316.099 364.086 302.255 386.777C300.616 389.463 298.973 392.158 297.317 394.858C294.009 400.261 290.072 406.668 285.952 413.222C278.321 425.39 267.923 440.853 255.135 452.486C241.283 465.089 226.794 471.512 210.84 472.118C197.726 472.555 183.255 469.858 166.596 463.868C152.293 458.727 138.458 452.007 123.149 444.396C109.175 437.364 94.4259 430.1 81.1937 425.303C41.9984 411.091 0.597031 398.646 -41.8577 388.307L-41.7054 387.2C0.774693 397.541 42.1993 409.997 81.4158 424.215C94.6839 429.026 109.454 436.301 123.445 443.339C149.106 456.1 181.042 471.986 210.817 470.991C244.857 469.694 266.734 442.111 285.303 412.495C289.421 405.947 293.355 399.543 296.661 394.142C298.317 391.442 299.961 388.747 301.598 386.064C315.464 363.337 328.563 341.869 344.92 322.761C366.555 297.486 392.95 272.766 419.245 253.157C471.871 213.906 522.234 197.626 568.932 204.763C586.836 207.5 604.424 213.856 621.201 223.653C639.203 234.164 656.72 248.903 673.267 267.453C690.145 286.414 706.328 306.923 721.978 326.758C723.647 328.875 725.313 330.986 726.978 333.098C760.581 375.73 792.323 415.998 829.291 447.212C842.732 458.569 856.861 469.429 871.286 479.489C889.286 491.987 907.163 502.963 924.424 512.11C951.553 526.485 985.317 544.375 1018.7 534C1036.79 528.379 1050.58 515.898 1060.86 495.846C1080.67 457.546 1084.2 399.038 1087.04 352.028C1088.05 335.214 1089.01 319.334 1090.6 306.492C1090.93 303.842 1091.26 301.179 1091.58 298.501C1094.55 274.314 1097.62 249.301 1102.95 224.891C1110.56 189.781 1125.79 142.174 1155.15 114.753C1163.34 107.103 1171.89 101.218 1181.28 96.7588C1194.33 90.5041 1208.87 87.5642 1224.51 88.0152C1238.78 88.4268 1254.02 91.6598 1269.8 97.6213C1296.57 107.732 1322.17 126.101 1343.83 150.742C1368.09 178.275 1388.52 213.503 1404.57 255.443C1411.94 274.686 1418.32 295.26 1423.53 316.591C1428.52 337.021 1432.46 358.201 1435.24 379.541L1434.41 379.733C1422.3 286.741 1389.08 203.59 1343.29 151.599C1321.72 127.065 1296.23 108.772 1269.57 98.7009C1236.7 86.2817 1206.26 85.9773 1181.56 97.8158C1172.24 102.241 1163.76 108.081 1155.63 115.672C1126.48 142.904 1111.33 190.266 1103.76 225.201C1098.44 249.546 1095.38 274.522 1092.42 298.679C1092.09 301.356 1091.76 304.023 1091.43 306.672C1089.85 319.466 1088.89 335.327 1087.88 352.115C1085.04 399.261 1081.5 457.937 1061.56 496.483C1056.6 506.148 1050.67 514.238 1043.94 520.521C1036.7 527.28 1028.27 532.185 1018.89 535.099C1012.13 537.196 1005.12 538.25 997.773 538.25Z" fill="#A1A1A1"/>
<path d="M1009.22 543.739C999.123 543.739 988.424 541.563 976.895 537.194C960.583 531.012 944.923 521.358 931.109 512.843C913.651 502.081 895.755 489.552 877.918 475.611C863.575 464.364 849.52 452.326 836.14 439.836C803.193 409.09 775.034 371.423 745.221 331.545C740.348 325.025 735.308 318.286 730.308 311.659C712.731 288.376 697.722 269.178 681.611 251.17C649.144 214.93 613.166 195.292 574.673 192.8C526.304 189.669 474.495 212.556 420.686 260.826C393.955 284.808 367.634 314.207 346.574 343.611C330.709 365.764 318.306 389.877 305.175 415.406C303.548 418.569 301.915 421.743 300.272 424.919C297.345 430.588 293.47 438.057 289.47 445.547C272.638 477.139 250.647 509.663 215.174 511.326C214.068 511.374 212.958 511.397 211.849 511.397C184.15 511.397 155.871 496.788 126.94 480.476L125.134 479.45C110.804 471.298 97.267 463.6 84.737 457.997C37.517 436.879 -8.15059 419.054 -42.6609 405.885L-42.4134 404.732C-7.89465 417.907 37.7856 435.735 85.0226 456.861C97.5864 462.478 111.138 470.188 125.487 478.348L127.291 479.374C157.281 496.283 186.57 511.366 215.143 510.131C250.222 508.485 272.029 476.211 288.736 444.856C292.734 437.372 296.604 429.909 299.532 424.243C301.175 421.063 302.806 417.892 304.432 414.73C317.584 389.162 330.006 365.008 345.923 342.786C367.025 313.319 393.399 283.861 420.182 259.831C445.041 237.53 469.909 220.406 494.093 208.932C521.841 195.765 548.968 189.936 574.715 191.602C613.407 194.105 649.567 213.839 682.187 250.248C698.321 268.285 713.344 287.503 730.938 310.805C735.94 317.431 740.981 324.174 745.856 330.693C775.639 370.533 803.77 408.162 836.654 438.847C850.015 451.322 864.049 463.341 878.37 474.571C896.182 488.495 914.05 501.004 931.483 511.749C958.849 528.619 992.906 549.613 1026.8 540.162C1045.33 534.995 1059.21 522.441 1069.23 501.782C1088.8 461.737 1089.97 399.937 1090.92 350.28C1091.23 334.079 1091.52 318.773 1092.45 306.441L1092.47 306.16C1094.56 278.545 1096.73 249.991 1101.69 221.819C1105.98 197.245 1111.97 175.152 1119.47 156.149C1127.93 134.724 1138.36 117.18 1150.48 104.003C1158.58 95.1861 1167.16 88.1816 1176.69 82.5922C1202.44 67.4022 1234.01 65.0571 1267.96 75.816C1281.63 80.1455 1295.11 86.7046 1308.03 95.3073C1321.03 103.961 1333.2 114.511 1344.19 126.66C1369.03 154.06 1389.63 189.621 1405.4 232.355C1419.57 270.765 1429.47 314.582 1434.02 359.064L1433.13 359.224C1423.39 264.02 1390.77 179.589 1343.62 127.581C1321.57 103.222 1295.33 85.7237 1267.76 76.9886C1233.99 66.2917 1202.63 68.6114 1177.06 83.6971C1167.6 89.2443 1159.09 96.1923 1151.05 104.939C1128.43 129.543 1111.66 170.056 1102.56 222.098C1097.62 250.197 1095.46 278.711 1093.37 306.286L1093.35 306.568C1092.42 318.855 1092.12 334.138 1091.82 350.317C1090.87 400.126 1089.69 462.112 1069.99 502.439C1065.15 512.4 1059.27 520.665 1052.5 527.001C1045.19 533.834 1036.61 538.656 1026.99 541.343C1021.26 542.938 1015.35 543.739 1009.22 543.739Z" fill="#A1A1A1"/>
<path d="M215.833 550.642C203.447 550.642 189.958 547.425 174.736 540.858C159.611 534.333 144.653 525.324 130.739 516.564C128.22 514.968 125.72 513.376 123.237 511.794C110.876 503.922 99.2007 496.486 88.2888 490.694C44.7787 467.606 3.3054 446.854 -36.8036 426.791L-43.4493 423.465L-43.1152 422.278L-36.4694 425.604C3.6417 445.673 45.1213 466.425 88.6399 489.518C99.5814 495.325 111.272 502.769 123.647 510.653C126.128 512.234 128.628 513.827 131.145 515.419C159.706 533.402 190.049 550.83 219.479 549.277C255.656 547.27 277.336 509.714 292.18 477.223C295.983 468.914 299.646 460.632 302.413 454.347C303.94 450.882 305.457 447.421 306.969 443.968C319.512 415.344 331.358 388.307 346.938 362.815C367.504 329.171 393.852 294.969 421.133 266.515C446.442 240.115 471.982 219.256 497.046 204.52C525.795 187.617 553.875 178.845 580.507 178.447C620.58 177.653 657.8 196.025 691.117 233.048C709.586 253.597 726.146 275.825 739.911 294.859C747.4 305.218 754.89 315.836 762.134 326.105C787.776 362.457 814.291 400.044 844.028 430.489C857.311 444.092 871.254 457.272 885.465 469.661C903.052 484.958 920.912 499 938.552 511.397C966.125 530.773 1000.44 554.887 1034.91 546.329C1053.89 541.619 1067.85 528.991 1077.61 507.724C1096.91 465.864 1095.61 400.679 1094.56 348.302C1094.25 332.813 1093.96 318.181 1094.31 306.402C1095.1 279.847 1096.3 248.985 1100.44 218.758C1103.93 193.144 1109.19 169.972 1116.09 149.886C1123.9 127.164 1133.9 108.115 1145.82 93.2665C1153.71 83.4265 1162.56 75.0747 1172.11 68.4395C1185.75 58.9405 1201.05 52.9677 1217.59 50.6902C1233.08 48.5564 1249.41 49.6783 1266.13 54.0219C1280.24 57.6862 1294.13 63.7125 1307.44 71.9375C1320.84 80.2132 1333.32 90.5239 1344.56 102.582C1357.5 116.467 1369.41 132.864 1379.94 151.317C1389.92 168.802 1398.76 188.302 1406.23 209.273C1420.19 248.506 1429.38 293.227 1432.8 338.594L1431.85 338.721C1424.51 241.299 1392.47 155.591 1343.96 103.572C1321.74 79.7199 1294.04 62.5653 1265.95 55.2677C1231.22 46.2451 1198.93 51.1891 1172.55 69.5642C1163.08 76.1458 1154.3 84.4327 1146.46 94.1939C1124.01 122.172 1108.84 164.157 1101.37 218.986C1097.24 249.132 1096.05 279.94 1095.26 306.453C1094.91 318.19 1095.2 332.799 1095.51 348.268C1096.03 374.107 1096.62 403.396 1094.65 431.71C1092.37 464.564 1087.07 489.645 1078.42 508.387C1073.72 518.641 1067.88 527.083 1061.06 533.476C1053.7 540.382 1044.96 545.125 1035.09 547.575C1030.11 548.812 1025.13 549.373 1020.18 549.373C990.557 549.373 961.848 529.197 938.11 512.516C920.445 500.1 902.557 486.037 884.947 470.718C870.714 458.312 856.752 445.113 843.45 431.49C813.652 400.983 787.11 363.356 761.443 326.97C754.201 316.704 746.713 306.089 739.228 295.736C725.481 276.724 708.945 254.527 690.51 234.018C657.372 197.192 620.371 178.927 580.522 179.71C517.942 180.646 459.624 227.969 421.721 267.507C394.495 295.905 368.2 330.034 347.679 363.61C332.145 389.026 320.315 416.021 307.792 444.6C306.279 448.052 304.761 451.514 303.234 454.981C300.465 461.269 296.799 469.556 292.994 477.874C286.763 491.514 276.981 511.369 264.024 526.251C257.731 533.479 251.035 539.158 244.12 543.135C236.411 547.569 228.132 550.061 219.519 550.537C218.299 550.608 217.07 550.642 215.833 550.642Z" fill="#A1A1A1"/>
<path d="M219.809 589.883C207.408 589.883 193.947 586.419 178.805 579.349C163.128 572.032 147.628 561.744 134.536 552.642C130.513 549.841 126.498 546.999 122.615 544.251C111.76 536.57 101.506 529.312 91.8377 523.387C57.118 502.106 22.6246 481.33 -10.7351 461.235C-21.7696 454.589 -33.1786 447.717 -44.2365 441.042L-43.8219 439.822C-32.764 446.496 -21.3551 453.368 -10.3205 460.015C23.0392 480.109 57.5368 500.888 92.2586 522.172C101.952 528.114 112.219 535.378 123.086 543.07C126.968 545.818 130.982 548.657 135.001 551.459C162.155 570.327 193.651 590.3 223.811 588.42C260.84 586.058 281.638 545.049 295.623 509.587C299.208 500.502 302.675 491.381 305.294 484.45C306.639 480.893 307.976 477.338 309.31 473.792C321.307 441.899 332.638 411.776 347.956 382.847C367.878 345.223 394.205 306.283 422.082 273.2C460.905 227.326 520.909 171.369 586.296 165.301C627.879 161.338 666.152 178.346 700.047 215.857C715.276 232.718 730.335 252.167 748.881 278.925C758.253 292.446 767.553 306.461 776.547 320.01C799.946 355.264 824.139 391.718 851.401 422.145C864.608 436.89 878.455 451.229 892.559 464.764C909.636 481.138 927.49 496.714 945.621 511.061C973.471 532.965 1008.13 560.23 1043.02 552.513C1062.15 548.369 1076.6 535.305 1085.99 513.685C1105.02 469.931 1100.94 398.347 1097.95 346.08C1097.12 331.412 1096.33 317.558 1096.17 306.382C1095.82 281.544 1095.85 248.793 1099.19 215.716C1104.95 158.398 1119.06 113.592 1141.15 82.5495C1148.89 71.613 1157.77 62.1112 1167.54 54.3062C1181.43 43.1893 1197.11 35.7113 1214.13 32.0837C1230.17 28.6674 1247.05 28.721 1264.3 32.2443C1278.86 35.2829 1293.18 40.7906 1306.85 48.6097C1320.66 56.5076 1333.47 66.5704 1344.92 78.5188C1358.16 92.3247 1370.25 108.777 1380.86 127.423C1390.92 145.093 1399.73 164.869 1407.06 186.207C1420.81 226.266 1429.29 271.889 1431.58 318.144L1430.58 318.232C1425.64 218.585 1394.19 131.598 1344.3 79.5758C1321.68 55.9749 1293.22 39.635 1264.15 33.5691C1228.32 26.2546 1195.09 33.8228 1168.06 55.4563C1158.37 63.1964 1149.57 72.6221 1141.89 83.4712C1119.94 114.308 1105.92 158.86 1100.19 215.896C1096.86 248.883 1096.83 281.569 1097.18 306.359C1097.33 317.496 1098.12 331.333 1098.96 345.982C1100.5 372.999 1102.25 403.624 1101.25 433.522C1100.08 468.335 1095.38 494.778 1086.86 514.359C1082.27 524.921 1076.48 533.546 1069.63 539.995C1062.2 546.988 1053.31 551.645 1043.19 553.838C1027.49 557.307 1010.6 554.19 991.547 544.305C974.983 535.711 959.113 523.229 945.113 512.22C926.955 497.853 909.078 482.254 891.975 465.858C877.85 452.303 863.984 437.944 850.758 423.18C823.439 392.69 799.219 356.197 775.796 320.907C766.806 307.36 757.508 293.354 748.145 279.844C729.631 253.134 714.599 233.722 699.406 216.9C665.712 179.603 627.682 162.696 586.363 166.634C521.258 172.68 461.453 228.465 422.746 274.201C394.924 307.216 368.652 346.075 348.772 383.62C333.497 412.466 322.183 442.547 310.205 474.393C308.87 477.941 307.533 481.496 306.188 485.053C303.568 491.99 300.099 501.12 296.509 510.213C282.402 545.99 261.394 587.366 223.855 589.759C222.52 589.841 221.169 589.883 219.809 589.883Z" fill="#A1A1A1"/>
<path d="M223.865 629.128C189.981 629.128 154.428 601.395 122.911 576.807C113.226 569.253 104.078 562.116 95.3846 556.082L-45.0234 458.62L-44.5348 457.371L95.8732 554.833C104.59 560.882 113.748 568.027 123.446 575.593C156.182 601.13 193.287 630.075 228.142 627.566C265.988 624.846 285.925 580.384 299.066 541.957C303.364 529.389 307.514 516.6 311.529 504.232C322.508 470.407 333.86 435.43 348.968 402.877C360.965 377.03 375.869 349.922 392.066 324.489C409.835 296.587 428.861 270.988 448.61 248.404C470.385 223.507 492.526 202.911 514.415 187.191C538.627 169.805 562.479 158.454 585.314 153.451C631.058 143.431 672.662 158.638 708.968 198.655C739.14 231.907 764.784 273.026 789.584 312.792C811.171 347.405 833.492 383.194 858.767 413.788C887.962 449.124 919.56 481.733 952.685 510.706C980.594 535.119 1015.33 565.504 1051.13 558.675C1081.36 552.908 1098.84 525.95 1104.57 476.256C1109.43 433.987 1104.8 383.845 1101.08 343.558C1099.81 329.828 1098.62 316.859 1098.03 306.343C1094.78 248.368 1096.85 200.509 1104.35 160.036C1109.03 134.783 1115.93 112.273 1124.87 93.1313C1134.85 71.7487 1147.67 53.9233 1162.96 40.1511C1176.19 28.2365 1191.1 19.5832 1207.28 14.4306C1222.68 9.52607 1238.89 7.88277 1255.47 9.5458C1288.07 12.8155 1319.97 28.758 1345.27 54.4335C1358.8 68.1577 1371.08 84.6696 1381.78 103.507C1391.91 121.36 1400.69 141.415 1407.88 163.119C1421.41 204.004 1429.18 250.533 1430.35 297.67L1429.29 297.717C1426.8 197.338 1395.15 106.81 1344.63 55.5581C1290.98 1.12919 1214.82 -4.86053 1163.55 41.3209C1112.75 87.0683 1091.66 173.723 1099.08 306.238C1099.66 316.721 1100.86 329.673 1102.13 343.386C1105.86 383.761 1110.5 434.01 1105.61 476.47C1102.94 499.598 1097.59 518.184 1089.69 531.717C1085.25 539.324 1079.9 545.542 1073.78 550.193C1067.27 555.143 1059.7 558.466 1051.27 560.073C1047.83 560.73 1044.33 561.059 1040.77 561.059C1027.8 561.059 1013.98 556.688 998.843 547.831C981.787 537.853 965.327 523.455 952.101 511.887C918.932 482.872 887.29 450.22 858.052 414.834C832.72 384.175 810.375 348.344 788.765 313.694C763.997 273.978 738.385 232.91 708.289 199.743C672.226 159.999 630.908 144.891 585.479 154.844C493.586 174.975 398.925 297.915 349.861 403.621C334.793 436.084 323.456 471.013 312.491 504.793C308.474 517.167 304.322 529.964 300.02 542.543C291.295 568.055 282.678 586.323 272.902 600.028C266.8 608.58 260.18 615.322 253.225 620.066C245.493 625.34 237.07 628.339 228.191 628.979C226.757 629.077 225.312 629.128 223.865 629.128Z" fill="#A1A1A1"/>
</g>
</svg>
