<svg width="1152" height="702" viewBox="0 0 1152 702" fill="none" xmlns="http://www.w3.org/2000/svg">
<g opacity="0.3">
<path d="M432.571 701.183C428.197 701.183 423.94 700.611 419.849 699.469C411.268 697.073 403.34 692.154 396.286 684.848C388.704 676.998 382.054 666.301 376.519 653.056C365.395 626.434 359.83 594.552 354.447 563.718C353.39 557.663 352.297 551.403 351.187 545.329C343.613 503.928 334.012 467.663 321.837 434.461C297.551 368.23 263.396 311.707 223.063 271.002C176.418 223.93 126.268 200.482 81.8489 204.977C55.7415 207.621 21.2465 232.761 5.82977 275.696C-3.3194 301.177 -4.05715 329.454 3.69773 357.466L3.54374 357.584C-0.522363 342.893 -2.29399 328.165 -1.72036 313.81C-1.19412 300.641 1.29664 287.768 5.68425 275.549C12.6625 256.114 24.1704 238.889 38.9644 225.734C52.6348 213.58 67.8603 206.108 81.8387 204.693C105.085 202.342 129.808 207.559 155.321 220.204C178.449 231.668 201.27 248.676 223.151 270.757C263.507 311.484 297.683 368.039 321.983 434.309C334.164 467.533 343.77 503.818 351.349 545.241C352.461 551.316 353.554 557.579 354.61 563.633C359.987 594.444 365.549 626.304 376.658 652.887C387.401 678.599 401.943 694.175 419.877 699.181C444.714 706.115 474.874 691.613 500.553 660.385C537.559 615.385 563.242 549.884 588.08 486.542C592.434 475.439 596.935 463.959 601.392 452.873C612.962 424.086 628.633 386.783 647.256 353.551C666.292 319.583 685.636 294.626 706.395 277.251C719.101 266.617 732.566 259.451 746.418 255.956C759.212 252.726 772.754 252.526 786.668 255.356C810.535 260.212 836.248 273.931 865.278 297.292C922.437 343.296 979.535 399.135 1034.98 463.26C1087.69 524.208 1139.38 593.176 1188.62 668.241L1188.5 668.449C1086.43 512.843 977.66 388.054 865.203 297.546C801.668 246.412 751.23 240.042 706.471 277.502C660.935 315.611 629.125 384.384 601.532 453.028C597.077 464.111 592.576 475.592 588.222 486.694C563.377 550.059 537.686 615.579 500.655 660.61C488.688 675.163 475.226 686.514 461.725 693.434C454.592 697.09 447.502 699.48 440.649 700.54C437.918 700.971 435.223 701.183 432.571 701.183Z" fill="#A1A1A1"/>
<path d="M436.848 685.396C425.693 685.396 415.361 681.858 406.128 674.876C395.831 667.091 386.946 655.027 379.717 639.022C379.078 637.605 378.443 636.139 377.831 634.662C366.825 608.155 361.013 576.687 355.393 546.254C354.256 540.103 353.082 533.741 351.891 527.569C344.796 490.813 336.252 458.418 325.77 428.537C324.479 424.858 323.142 421.171 321.793 417.58C297.15 351.919 262.717 296.112 222.219 256.19C175.238 209.922 124.945 187.443 80.6055 192.897C54.6876 196.119 20.3516 221.67 4.86893 264.274C-4.40206 289.786 -5.45115 318.12 1.83163 346.214L1.67595 346.327C-2.14142 331.602 -3.70998 316.846 -2.98407 302.473C-2.31738 289.273 0.274896 276.372 4.72342 264.128C11.7727 244.727 23.2468 227.482 37.902 214.26C51.4473 202.038 66.6068 194.351 80.5903 192.615C103.808 189.76 128.558 194.478 154.152 206.638C177.336 217.653 200.265 234.244 222.303 255.948C262.826 295.892 297.277 351.733 321.936 417.431C323.284 421.025 324.623 424.714 325.914 428.396C336.403 458.296 344.952 490.708 352.05 527.484C353.243 533.657 354.417 540.019 355.554 546.172C361.172 576.586 366.979 608.031 377.969 634.501C378.58 635.973 379.215 637.438 379.853 638.853C394.791 671.936 415.316 685.396 436.9 685.396C437.018 685.396 437.135 685.396 437.254 685.396C437.118 685.393 436.983 685.396 436.848 685.396ZM441.452 685.198C461.518 683.482 482.225 670.637 499.988 651.529C538.306 610.142 565.845 546.22 592.478 484.403C593.575 481.855 594.671 479.313 595.768 476.77C598.175 471.189 601.03 464.582 603.944 457.921C617.015 428.052 632.835 393.297 651.053 362.015C670.438 328.73 689.804 304.029 710.257 286.5C722.824 275.741 736.105 268.161 749.731 263.973C762.356 260.092 775.698 258.995 789.382 260.712C813.023 263.68 838.441 274.932 867.092 295.114C895.025 314.76 917.987 333.254 939.353 353.314C969.621 381.76 998.453 414.536 1022.66 442.844C1078.95 508.847 1134.18 583.793 1186.82 665.603L1186.71 665.808C1134.08 584.01 1078.85 509.069 1022.57 443.075C998.36 414.77 969.533 382 939.272 353.562C917.911 333.507 894.956 315.019 867.027 295.379C804.615 251.413 754.823 248.67 710.334 286.754C664.16 326.322 631.278 395.941 604.081 458.091C601.165 464.751 598.312 471.355 595.905 476.939C594.808 479.479 593.712 482.024 592.615 484.572C565.973 546.409 538.424 610.353 500.079 651.771C490.572 661.998 480.455 670.121 470.008 675.913C460.283 681.3 450.697 684.415 441.452 685.198Z" fill="#A1A1A1"/>
<path d="M441.563 669.969C440.221 669.969 438.888 669.921 437.564 669.823C426.42 669.002 416.107 664.743 406.912 657.158C396.856 648.863 388.143 636.576 381.018 620.637C380.385 619.216 379.754 617.747 379.145 616.27C368.263 589.893 362.208 558.845 356.356 528.823C355.136 522.566 353.873 516.094 352.594 509.814C345.149 473.182 336.38 441.046 325.784 411.569C324.473 407.924 323.116 404.268 321.747 400.705C296.746 335.616 262.036 280.525 221.372 241.387C174.056 195.922 123.621 174.41 79.3594 180.822C54.4382 184.489 20.202 208.583 3.92405 252.814C-5.48062 278.369 -6.84953 306.778 -0.0354609 334.971L-0.192814 335.075C-3.76314 320.305 -5.12529 305.515 -4.2454 291.117C-3.43658 277.875 -0.735981 264.94 3.78022 252.668C10.9039 233.312 22.3408 216.061 36.8556 202.777C50.2739 190.496 65.3641 182.601 79.3442 180.543C102.534 177.186 127.312 181.403 152.986 193.078C176.227 203.648 199.263 219.819 221.457 241.145C262.145 280.308 296.873 335.43 321.889 400.556C323.258 404.122 324.617 407.777 325.928 411.428C336.529 440.922 345.303 473.078 352.751 509.73C354.031 516.012 355.293 522.484 356.513 528.742C362.364 558.747 368.413 589.772 379.282 616.118C379.891 617.595 380.519 619.061 381.151 620.476C410.105 685.244 461.416 678.29 499.422 642.67C539.339 604.931 569.003 542.206 597.691 481.548L597.985 480.925C600.764 475.046 603.637 468.968 606.496 462.967C636.672 399.66 669.838 334.599 714.12 295.743C726.552 284.857 739.651 276.863 753.049 271.984C765.511 267.446 778.65 265.453 792.101 266.062C815.552 267.122 840.676 275.911 868.91 292.93C898.583 310.752 920.912 327.135 941.312 346.051C970.377 373.057 998.531 407.183 1023.37 437.292C1078.68 504.69 1133.07 580.614 1185.03 662.951L1184.91 663.154C1132.95 580.825 1078.57 504.91 1023.27 437.517C998.435 407.414 970.285 373.294 941.229 346.296C920.837 327.386 898.515 311.009 868.853 293.192C807.651 256.301 758.509 257.189 714.198 295.988C669.945 334.818 636.792 399.851 606.628 463.137C603.769 469.138 600.896 475.217 598.117 481.094L597.823 481.717C583.526 511.945 568.744 543.201 552.781 571.121C534.841 602.495 517.414 625.978 499.503 642.91C480.765 660.47 460.353 669.969 441.563 669.969Z" fill="#A1A1A1"/>
<path d="M1183.12 660.496C1131.84 577.637 1078.29 500.746 1023.98 431.959C1021.68 429.067 1019.37 426.161 1017.06 423.246C993.534 393.588 969.207 362.921 943.192 339.029C917.955 315.916 892.377 301.783 870.684 291.007C810.806 261.078 762.312 265.597 718.069 305.222C672.652 346.02 637.459 413.756 609.183 468.185C607.486 471.452 605.792 474.724 604.095 477.999C602.843 480.418 601.589 482.836 600.335 485.252C584.235 516.274 569.589 544.01 553.408 569.319C534.922 598.231 517.104 619.405 498.933 634.053C481.903 647.783 463.712 655.047 446.791 655.05C443.708 655.05 440.67 654.81 437.685 654.323C426.788 652.544 416.7 647.546 407.702 639.468C397.882 630.654 389.342 618.133 382.315 602.253C381.687 600.829 381.061 599.358 380.455 597.878C369.702 571.639 363.413 541.028 357.331 511.426C356.022 505.05 354.666 498.455 353.296 492.053C345.495 455.537 336.5 423.658 325.799 394.591C324.467 390.975 323.088 387.353 321.701 383.821C296.341 319.304 261.356 264.929 220.527 226.572C172.876 181.91 122.301 161.37 78.1168 168.732C47.9112 173.865 17.0236 203.704 3.00294 241.291C-6.54894 266.899 -8.24275 295.399 -1.89908 323.71L-2.05812 323.808C-5.37971 308.985 -6.53712 294.15 -5.49817 279.716C-4.54213 266.426 -1.72987 253.448 2.8591 241.142C10.0573 221.842 21.4569 204.592 35.8262 191.259C49.1159 178.928 64.1282 170.827 78.0999 168.453C101.263 164.592 126.066 168.31 151.819 179.5C175.116 189.625 198.262 205.378 220.612 226.324C261.466 264.703 296.47 319.11 321.845 383.666C323.234 387.201 324.613 390.826 325.945 394.442C336.652 423.525 345.651 455.422 353.456 491.955C354.827 498.359 356.182 504.952 357.492 511.33C363.57 540.915 369.856 571.507 380.596 597.715C381.202 599.192 381.826 600.66 382.452 602.081C412.678 670.389 464.052 661.857 498.86 633.797C540.389 600.316 572.168 539.089 600.208 485.066C601.462 482.647 602.714 480.229 603.968 477.813C605.663 474.538 607.359 471.265 609.056 467.999C625.197 436.931 641.136 406.74 658.66 378.919C678.811 346.925 698.219 322.737 717.991 304.974C730.293 293.956 743.205 285.548 756.371 279.986C768.676 274.786 781.614 271.899 794.826 271.403C818.126 270.53 842.958 276.855 870.735 290.737C892.435 301.518 918.024 315.657 943.275 338.784C969.301 362.684 993.634 393.36 1017.17 423.024C1019.48 425.938 1021.78 428.844 1024.08 431.736C1078.4 500.529 1131.95 577.429 1183.24 660.295L1183.12 660.496Z" fill="#A1A1A1"/>
<path d="M1181.33 657.84C1129.75 572.868 1077.05 494.999 1024.69 426.4C1021.55 422.296 1018.35 418.066 1015.25 413.976C993.045 384.684 970.088 354.394 945.153 331.763C920.254 309.244 894.461 297.417 872.513 288.82C814.092 265.715 766.244 273.861 721.937 314.456C679.675 353.317 646.566 411.754 614.546 468.266L611.03 474.47C608.253 479.372 605.382 484.437 602.551 489.407C570.499 545.594 538.414 598.256 498.36 625.191C488.641 631.728 478.661 636.258 468.694 638.662C457.992 641.241 447.596 641.278 437.793 638.769C427.147 636.043 417.287 630.319 408.488 621.753C398.912 612.431 390.543 599.682 383.616 583.864C382.991 582.432 382.37 580.958 381.77 579.481C371.148 553.397 364.632 523.237 358.331 494.069C356.925 487.56 355.469 480.829 354.001 474.293C345.838 437.889 336.62 406.266 325.817 377.617C324.467 374.038 323.068 370.444 321.658 366.94C295.942 302.995 260.68 249.336 219.684 211.76C171.696 167.907 120.979 148.334 76.8709 156.652C46.9411 162.416 16.194 192.463 2.10226 229.723C-7.60868 255.396 -9.63749 284.006 -3.76592 312.46L-3.92668 312.553C-6.99953 297.665 -7.94878 282.774 -6.74908 268.297C-5.64245 254.951 -2.71344 241.923 1.95674 229.577C9.23276 210.342 20.5918 193.109 34.8088 179.737C47.9665 167.36 62.8976 159.064 76.8506 156.375C99.9866 152.012 124.815 155.228 150.65 165.934C174.004 175.613 197.257 190.947 219.763 211.515C260.783 249.11 296.065 302.804 321.797 366.785C323.206 370.291 324.607 373.888 325.958 377.468C336.767 406.131 345.99 437.771 354.156 474.194C355.625 480.731 357.08 487.465 358.486 493.973C364.784 523.124 371.297 553.27 381.907 579.323C382.506 580.794 383.127 582.266 383.749 583.697C413.248 651.056 462.261 649.164 498.294 624.932C538.316 598.019 570.388 545.377 602.426 489.215C605.257 484.246 608.128 479.18 610.905 474.279L614.421 468.075C630.139 440.336 646.39 411.65 664.04 384.966C684.031 354.744 702.941 331.599 721.852 314.208C734.029 303.052 746.758 294.229 759.686 287.989C771.84 282.12 784.577 278.337 797.541 276.745C820.74 273.895 845.274 277.757 872.55 288.544C894.509 297.146 920.315 308.976 945.231 331.515C970.179 354.154 993.143 384.453 1015.35 413.753C1018.45 417.843 1021.65 422.071 1024.79 426.178C1077.16 494.782 1129.87 572.657 1181.44 657.637L1181.33 657.84Z" fill="#A1A1A1"/>
<path d="M1179.53 655.185C1128.4 569.268 1076.54 490.424 1025.39 420.845C1021.55 415.616 1017.61 410.179 1013.79 404.922C992.791 375.946 971.071 345.983 947.113 324.502C922.33 302.369 896.421 292.941 874.342 286.638C817.54 270.174 770.341 281.951 725.803 323.695C686.936 360.279 655.025 412.126 624.163 462.265C620.915 467.542 617.557 472.996 614.284 478.281C610.441 484.488 607.506 489.203 604.766 493.567C590.094 516.922 572.625 543.816 554.293 566.185C534.866 589.887 516.383 606.292 497.787 616.338C488.008 621.62 478.07 624.952 468.248 626.237C457.701 627.618 447.489 626.603 437.898 623.218C427.507 619.551 417.877 613.099 409.273 604.043C399.943 594.222 391.748 581.245 384.915 565.477C384.3 564.048 383.682 562.571 383.083 561.088C372.602 535.179 365.867 505.484 359.353 476.767C357.842 470.107 356.28 463.221 354.705 456.532C346.175 420.23 336.731 388.866 325.833 360.643C324.462 357.094 323.042 353.534 321.612 350.059C295.539 286.686 260 233.743 218.838 196.947C170.517 153.9 119.657 135.3 75.6273 144.568C50.5741 149.957 17.8524 174.784 1.22584 218.096C-8.65938 243.848 -11.0317 272.587 -5.63223 301.205L-5.79299 301.29C-8.6171 286.325 -9.35485 271.369 -7.98763 256.836C-6.72533 243.422 -3.67448 230.338 1.08369 217.944C8.43754 198.788 19.7543 181.583 33.8139 168.183C46.8397 155.769 61.681 147.285 75.607 144.289C98.716 139.424 123.571 142.138 149.484 152.359C172.894 161.593 196.255 176.509 218.917 196.699C260.103 233.514 295.662 286.489 321.751 349.898C323.181 353.374 324.602 356.939 325.973 360.491C336.877 388.728 346.325 420.109 354.86 456.428C356.437 463.119 357.999 470.005 359.51 476.666C366.02 505.369 372.753 535.047 383.222 560.928C383.821 562.408 384.437 563.882 385.053 565.308C409.593 621.947 451.718 640.922 497.734 616.064C539.407 593.554 573.401 543.102 604.649 493.358C607.389 488.995 610.323 484.279 614.166 478.072C617.438 472.787 620.797 467.333 624.044 462.057C639.237 437.373 654.947 411.85 671.704 387.95C690.652 360.922 708.322 339.821 725.722 323.445C737.782 312.142 750.325 302.905 763.008 295.993C775.02 289.446 787.555 284.769 800.264 282.089C823.405 277.212 847.646 278.608 874.371 286.353C896.461 292.662 922.39 302.093 947.192 324.245C971.166 345.74 992.891 375.712 1013.9 404.696C1017.71 409.953 1021.65 415.39 1025.5 420.619C1076.65 490.207 1128.52 569.057 1179.65 654.979L1179.53 655.185Z" fill="#A1A1A1"/>
<path d="M1177.74 652.53C1127.05 565.664 1076.03 485.841 1026.09 415.286C1021.85 409.285 1017.48 402.986 1013.26 396.894C993.161 367.879 972.377 337.877 949.072 317.235C924.273 295.368 898.304 288.392 876.171 284.451C821.945 274.538 774.023 290.396 729.67 332.93C694.354 366.951 664.081 412.465 634.804 456.482C628.89 465.372 622.777 474.566 616.832 483.33C613.196 488.694 609.974 493.404 606.979 497.727C593.052 517.813 574.525 543.568 554.727 564.615C534.835 585.761 516.021 599.784 497.209 607.482C476.693 615.879 456.217 615.941 437.996 607.665C427.866 603.062 418.464 595.886 410.053 586.333C400.972 576.02 392.951 562.817 386.211 547.097C385.6 545.665 384.988 544.185 384.392 542.703C374.06 516.99 367.116 487.783 360.402 459.54C358.777 452.707 357.099 445.644 355.405 438.78C346.501 402.574 336.833 371.464 325.846 343.678C324.455 340.16 323.015 336.631 321.565 333.186C295.134 270.386 259.319 218.156 217.992 182.147C169.337 139.909 118.336 122.278 74.3817 132.496C44.5941 139.57 14.8521 169.279 0.374536 206.419C-9.70021 232.263 -12.4228 261.152 -7.49879 289.962L-7.66123 290.038C-10.2349 274.983 -10.7595 259.948 -9.22136 245.353C-7.8 231.863 -4.61883 218.711 0.232405 206.264C7.66409 187.198 18.9368 170.032 32.8323 156.621C45.721 144.182 60.4693 135.512 74.3581 132.214C97.4399 126.847 122.322 129.062 148.314 138.795C171.782 147.584 195.252 162.083 218.069 181.893C259.421 217.924 295.256 270.183 321.704 333.023C323.154 336.467 324.594 339.999 325.986 343.52C336.978 371.323 346.652 402.447 355.561 438.67C357.255 445.534 358.933 452.6 360.557 459.433C367.268 487.662 374.209 516.855 384.531 542.542C385.127 544.025 385.738 545.499 386.348 546.931C410.468 603.203 451.895 625.736 497.169 607.208C538.442 590.316 574.284 544.504 606.867 497.516C609.861 493.192 613.084 488.485 616.719 483.121C622.661 474.358 628.777 465.166 634.689 456.276C663.972 412.251 694.251 366.726 729.583 332.69C741.536 321.227 753.897 311.578 766.322 304.007C778.206 296.769 790.539 291.196 802.98 287.445C826.116 280.468 850.062 279.4 876.187 284.175C898.334 288.118 924.325 295.097 949.15 316.99C972.472 337.646 993.264 367.659 1013.37 396.686C1017.59 402.777 1021.96 409.074 1026.2 415.075C1076.14 485.635 1127.17 565.463 1177.86 652.336L1177.74 652.53Z" fill="#A1A1A1"/>
<path d="M1175.94 649.874C1125.71 562.05 1075.53 481.255 1026.8 409.73C1022.32 403.157 1017.72 396.198 1013.26 389.467C993.894 360.206 973.868 329.947 951.031 309.971C926.127 288.29 900.138 283.8 877.999 282.266C825.821 278.388 778.566 297.981 733.536 342.166C701.957 373.302 673.805 412.707 646.579 450.813C637.219 463.917 628.376 476.294 619.382 488.378C615.724 493.296 612.392 497.716 609.194 501.885C588.559 528.761 571.391 548.193 555.164 563.036C534.806 581.659 515.662 593.301 496.636 598.622C489.255 600.685 481.901 601.714 474.681 601.714C461.882 601.714 449.497 598.49 438.096 592.103C417.463 580.543 400.444 559.214 387.511 528.707C386.902 527.261 386.294 525.782 385.705 524.305C375.531 498.815 368.392 470.126 361.488 442.379C359.739 435.349 357.931 428.083 356.109 421.016C346.824 384.895 336.929 354.044 325.863 326.7C324.452 323.213 322.991 319.715 321.521 316.302C294.733 254.074 258.641 202.559 217.147 167.331C168.159 125.905 117.017 109.241 73.1397 120.409C43.2285 128.18 14.3444 157.325 -0.442825 194.661C-10.7223 220.613 -13.8053 249.674 -9.36186 278.704L-9.52599 278.774C-11.8459 263.615 -12.1538 248.49 -10.4397 233.819C-8.85254 220.238 -5.53772 207.013 -0.583262 194.506C6.92626 175.545 18.1499 158.436 31.8762 145.024C44.6262 132.566 59.2713 123.726 73.1143 120.13C96.1691 114.261 121.078 115.975 147.149 125.223C170.674 133.569 194.25 147.651 217.225 167.078C258.742 202.328 294.855 253.871 321.66 316.136C323.13 319.552 324.59 323.05 326.003 326.54C337.076 353.898 346.977 384.765 356.265 420.901C358.087 427.967 359.896 435.237 361.644 442.267C368.544 470 375.68 498.677 385.846 524.144C386.435 525.618 387.04 527.098 387.65 528.541C411.799 585.512 451.513 610.954 496.607 598.34C539.534 586.333 577.555 542.73 609.089 501.659C612.286 497.49 615.617 493.073 619.276 488.155C628.267 476.071 637.11 463.697 646.471 450.593C673.7 412.479 701.858 373.068 733.45 341.921C745.313 330.28 757.489 320.217 769.642 312.009C781.412 304.06 793.545 297.592 805.701 292.786C828.884 283.622 852.536 280.087 878.006 281.982C900.164 283.515 926.176 288.011 951.109 309.718C973.964 329.708 993.999 359.98 1013.37 389.253C1017.83 395.984 1022.43 402.943 1026.91 409.513C1075.64 481.043 1125.83 561.847 1176.06 649.677L1175.94 649.874Z" fill="#A1A1A1"/>
<path d="M1174.15 647.22C1123.67 557.179 1075.7 477.678 1027.51 404.172C1022.91 397.159 1018.38 389.997 1013.59 382.415C994.85 352.773 975.476 322.126 952.991 302.708C927.776 281.035 900.646 279.231 879.828 280.082C830.026 281.852 783.438 305.183 737.403 351.406C709.783 379.275 684.281 412.741 659.619 445.108C646.657 462.119 634.415 478.183 621.931 493.429C618.225 497.959 614.782 502.085 611.408 506.045C590.492 530.557 572.758 548.162 555.597 561.455C534.767 577.589 515.293 586.849 496.061 589.763C486.179 591.26 476.365 590.978 466.891 588.926C456.86 586.753 447.205 582.584 438.194 576.538C418.223 563.135 401.608 540.859 388.811 510.324C388.207 508.875 387.604 507.393 387.019 505.916C377.015 480.689 369.697 452.547 362.619 425.332C360.73 418.071 358.778 410.562 356.813 403.262C347.139 367.219 337.021 336.625 325.878 309.732C324.445 306.276 322.964 302.809 321.477 299.427C294.332 237.771 257.964 186.972 216.305 152.525C177.854 120.863 138.201 104.342 101.84 104.342C91.56 104.342 81.5513 105.662 71.8979 108.331C42.3471 116.663 13.6441 145.913 -1.22945 182.849C-11.7272 208.922 -15.1842 238.18 -11.2264 267.457L-11.3922 267.519C-13.4582 252.242 -13.5445 237.013 -11.6494 222.257C-9.893 208.578 -6.43435 195.265 -1.3716 182.691C6.21576 163.848 17.387 146.809 30.9373 133.412C43.7279 120.764 57.8822 111.995 71.8674 108.055C94.8952 101.684 119.832 102.899 145.981 111.66C169.562 119.558 193.248 133.22 216.379 152.269C258.062 186.736 294.453 237.562 321.614 299.255C323.103 302.637 324.585 306.107 326.019 309.566C337.166 336.473 347.29 367.081 356.969 403.141C358.933 410.441 360.888 417.95 362.776 425.214C369.851 452.417 377.166 480.548 387.161 505.755C387.746 507.229 388.349 508.712 388.951 510.158C412.882 567.256 451.916 596.165 496.047 589.479C540.703 582.711 581.104 541.209 611.313 505.809C614.687 501.848 618.129 497.722 621.834 493.195C634.317 477.954 646.558 461.888 659.517 444.88C684.183 412.51 709.688 379.035 737.318 351.158C761.019 327.36 784.277 310.017 808.423 298.133C831.71 286.672 855.068 280.674 879.828 279.795C893.954 279.217 905.479 280.22 916.098 282.949C929.809 286.472 941.903 292.851 953.072 302.451C975.577 321.886 994.96 352.551 1013.71 382.206C1018.5 389.789 1023.03 396.948 1027.62 403.961C1075.82 477.47 1123.79 556.976 1174.28 647.022L1174.15 647.22Z" fill="#A1A1A1"/>
<path d="M1172.35 644.564C1122.33 553.537 1075.18 473.089 1028.21 398.613C1023.56 391.245 1018.98 383.655 1014.13 375.618C995.953 345.509 977.159 314.371 954.95 295.441C929.527 273.869 902.426 274.732 881.657 277.892C834.659 284.794 788.737 311.862 741.269 360.637C717.881 384.785 695.613 412.419 674.078 439.146C657.053 460.272 640.975 480.228 624.481 498.468C620.753 502.595 617.098 506.541 613.621 510.194C592.664 532.191 573.826 548.435 556.03 559.857C534.722 573.533 514.917 580.416 495.485 580.895C485.599 581.138 475.823 579.649 466.437 576.467C456.598 573.13 447.129 567.912 438.293 560.956C419.006 545.772 402.794 522.548 390.108 491.929C389.513 490.483 388.914 488.997 388.33 487.512C378.514 462.592 371.037 435.045 363.805 408.405C361.759 400.868 359.642 393.072 357.515 385.492C347.446 349.517 337.102 319.183 325.893 292.749C324.44 289.324 322.939 285.888 321.431 282.537C293.93 221.453 257.284 171.37 215.459 137.704C165.806 97.9039 114.378 83.1791 70.6526 96.2409C41.4842 105.106 12.9724 134.431 -1.98403 170.948C-12.7187 197.159 -16.5597 226.636 -13.0943 256.199L-13.2602 256.252C-15.0673 240.843 -14.9285 225.495 -12.8456 210.638C-10.9115 196.846 -7.30566 183.437 -2.12446 170.787C5.53735 152.079 16.6527 135.125 30.0203 121.756C42.6636 109.111 56.7029 100.193 70.6221 95.9619C93.6245 89.0927 118.586 89.803 144.814 98.0787C168.452 105.537 192.245 118.782 215.532 137.447C257.382 171.131 294.048 221.244 321.565 282.365C323.074 285.716 324.577 289.155 326.03 292.583C337.246 319.03 347.593 349.379 357.668 385.368C359.796 392.948 361.911 400.744 363.959 408.284C371.187 434.912 378.661 462.448 388.47 487.351C389.054 488.834 389.653 490.319 390.247 491.763C414.431 550.132 451.804 581.69 495.482 580.608C530.923 579.734 568.433 557.28 613.529 509.949C617.005 506.296 620.658 502.352 624.386 498.226C640.875 479.989 656.954 460.038 673.974 438.912C695.513 412.182 717.784 384.542 741.179 360.389C765.112 335.796 787.996 317.181 811.139 303.474C834.585 289.589 857.646 281.125 881.642 277.601C902.433 274.436 929.566 273.576 955.028 295.181C977.261 314.134 996.065 345.286 1014.25 375.41C1019.1 383.446 1023.68 391.034 1028.33 398.399C1075.3 472.877 1122.45 553.331 1172.48 644.364L1172.35 644.564Z" fill="#A1A1A1"/>
<path d="M1170.56 641.909C1121.01 549.892 1074.67 468.492 1028.92 393.058C1024.27 385.399 1019.69 377.442 1014.83 369.017C997.168 338.369 978.904 306.679 956.913 288.177C931.249 266.684 904.193 270.222 883.488 275.704C839.269 287.19 795.308 317.114 745.137 369.874C726.321 389.751 707.933 411.557 690.151 432.643C668.553 458.254 648.153 482.447 627.031 503.517C623.225 507.316 619.459 510.964 615.836 514.352C594.504 534.291 575.083 548.655 556.465 558.261C546.037 563.642 535.742 567.54 525.867 569.849C515.334 572.31 504.919 573.045 494.912 572.036C474.608 569.987 455.593 561.018 438.394 545.38C419.82 528.49 404.012 504.323 391.411 473.543C390.819 472.085 390.225 470.597 389.645 469.12C380.039 444.566 372.428 417.673 365.069 391.668C362.84 383.795 360.537 375.655 358.221 367.735C347.745 331.819 337.176 301.741 325.91 275.778C324.437 272.381 322.914 268.976 321.387 265.658C293.529 205.144 256.607 155.777 214.616 122.897C164.632 83.9121 113.063 70.1568 69.4106 84.1629C22.6698 99.3923 -22.8763 165.195 -14.9573 244.95L-15.1248 244.995C-17.1063 225.044 -15.9455 205.389 -11.6763 186.572C-7.77774 169.386 -1.37992 153.212 7.33945 138.504C15.4463 124.828 25.1724 113.021 36.2455 103.409C46.7771 94.2679 58.2343 87.5143 69.3768 83.8839C92.3521 76.513 117.341 76.7244 143.648 84.5153C167.344 91.531 191.245 104.359 214.687 122.644C256.702 155.546 293.646 204.941 321.521 265.489C323.049 268.81 324.572 272.215 326.047 275.614C337.319 301.588 347.892 331.684 358.373 367.613C360.69 375.534 362.993 383.674 365.221 391.55C372.578 417.546 380.186 444.428 389.787 468.968C390.366 470.445 390.958 471.933 391.55 473.388C415.769 532.541 452.481 567.473 494.922 571.757C530.852 575.379 570.376 556.525 615.753 514.109C619.374 510.721 623.139 507.077 626.945 503.277C648.062 482.213 668.458 458.023 690.053 432.415C707.837 411.326 726.227 389.517 745.046 369.637C795.237 316.854 839.218 286.92 883.461 275.425C897.374 271.741 908.892 270.563 919.713 271.721C933.545 273.201 945.737 278.5 956.988 287.923C979.004 306.445 997.278 338.155 1014.95 368.82C1019.81 377.242 1024.39 385.199 1029.03 392.855C1074.8 468.294 1121.13 549.698 1170.68 641.72L1170.56 641.909Z" fill="#A1A1A1"/>
<path d="M1168.77 639.254C1119.68 546.234 1074.17 463.886 1029.62 387.5C1025.01 379.596 1020.46 371.317 1015.64 362.548C998.453 331.315 980.684 299.015 958.873 280.911C932.651 259.238 904.335 266.31 885.318 273.514C833.702 292.828 787.445 337.73 749.006 379.111C735.19 394.045 721.409 409.863 708.081 425.16C681.344 455.847 656.091 484.832 629.583 508.565C625.684 512.058 621.806 515.403 618.053 518.512C596.304 536.493 576.302 548.974 556.904 556.663C534.913 565.382 513.865 567.574 494.34 563.177C474.282 558.659 455.493 547.429 438.498 529.798C420.671 511.308 405.268 486.196 392.713 455.159C392.127 453.702 391.537 452.211 390.96 450.728C381.592 426.626 373.887 400.471 366.433 375.176C363.991 366.886 361.465 358.318 358.927 349.977C347.886 313.61 337.4 284.643 325.929 258.807C324.435 255.441 322.894 252.07 321.345 248.78C293.126 188.841 255.927 140.19 213.77 108.088C163.454 69.9204 111.744 57.132 68.1654 72.0823C21.2571 88.3884 -23.3584 153.297 -16.8235 233.7L-16.991 233.737C-18.612 213.789 -17.2093 194.154 -12.8234 175.379C-8.80295 158.176 -2.36792 141.986 6.30577 127.261C14.394 113.528 24.0694 101.633 35.0646 91.9005C45.5336 82.6327 56.9688 75.6846 68.1316 71.8032C91.0815 63.9306 116.096 63.6431 142.481 70.9464C166.234 77.5196 190.243 89.9303 213.841 107.832C256.024 139.951 293.243 188.63 321.476 248.606C323.024 251.898 324.567 255.272 326.063 258.637C337.54 284.485 348.03 313.469 359.076 349.85C361.614 358.191 364.14 366.762 366.582 375.052C374.034 400.339 381.738 426.485 391.099 450.576C391.676 452.059 392.264 453.547 392.85 455.004C417.257 515.336 453.307 553.653 494.36 562.898C531.18 571.191 571.615 556.587 617.977 518.259C621.728 515.152 625.606 511.809 629.501 508.317C656.003 484.589 681.252 455.61 707.984 424.926C721.313 409.629 735.095 393.808 748.913 378.872C774.761 351.048 796.264 330.491 816.58 314.18C840.496 294.979 862.967 281.587 885.279 273.238C898.88 268.086 910.735 265.752 921.522 266.107C935.41 266.564 947.653 271.322 958.947 280.657C980.787 298.784 998.566 331.103 1015.76 362.357C1020.58 371.123 1025.14 379.401 1029.74 387.299C1074.29 463.689 1119.81 546.043 1168.89 639.065L1168.77 639.254Z" fill="#A1A1A1"/>
<path d="M1166.97 636.595C1118.36 542.569 1073.67 459.271 1030.33 381.938C1025.78 373.828 1021.29 365.262 1016.52 356.192C999.795 324.329 982.496 291.382 960.834 273.644C934.324 252.021 906.085 261.963 887.149 271.324C840.382 294.243 798.669 337.882 752.874 388.345C744.615 397.48 736.261 406.909 728.181 416.03C697.108 451.106 664.978 487.374 632.133 513.61C628.143 516.801 624.149 519.848 620.266 522.667C598.37 538.541 577.199 549.438 557.339 555.056C534.841 561.421 513.452 561.17 493.763 554.315C473.986 547.429 455.425 533.936 438.596 514.21C421.565 494.249 406.563 468.195 394.007 436.775C393.427 435.315 392.842 433.821 392.268 432.339C383.183 408.8 375.428 383.496 367.929 359.027C365.227 350.211 362.433 341.095 359.626 332.224C348.153 295.894 337.449 267.175 325.939 241.84C324.428 238.514 322.865 235.171 321.295 231.907C292.724 172.531 255.25 124.597 212.924 93.2784C162.278 55.9279 110.427 44.1091 66.9201 60.0009C21.5008 76.7721 -23.9387 139.403 -18.6915 222.448L-18.8591 222.476C-20.1197 202.528 -18.475 182.916 -13.9723 164.183C-9.83173 146.96 -3.35777 130.756 5.26854 116.014C21.1844 88.8192 43.6419 68.3019 66.8829 59.7218C89.8057 51.3503 114.847 50.5611 141.311 57.3767C165.123 63.5102 189.238 75.5009 212.992 93.019C255.342 124.354 292.837 172.32 321.427 231.724C322.999 234.991 324.562 238.334 326.075 241.663C337.589 267.011 348.299 295.742 359.775 332.086C362.582 340.96 365.377 350.075 368.079 358.892C375.577 383.356 383.33 408.653 392.41 432.181C392.982 433.664 393.567 435.155 394.148 436.615C419.267 499.477 453.725 540.08 493.795 554.036C530.9 566.957 573.425 556.316 620.195 522.407C624.077 519.589 628.067 516.544 632.055 513.356C664.888 487.129 697.014 450.866 728.081 415.796C736.161 406.675 744.515 397.246 752.776 388.111C772.822 366.021 796.148 340.683 819.297 319.529C843.513 297.402 865.689 281.547 887.096 271.056C900.572 264.395 912.425 260.94 923.329 260.494C937.081 259.931 949.721 264.271 960.904 273.393C970.608 281.339 980.375 293.197 990.762 309.647C999.935 324.171 1008.43 340.356 1016.65 356.006C1021.41 365.073 1025.91 373.639 1030.45 381.746C1073.79 459.082 1118.49 542.383 1167.1 636.412L1166.97 636.595Z" fill="#A1A1A1"/>
<path d="M1165.18 633.94C1117.05 538.9 1073.17 454.652 1031.03 376.382C1026.57 368.095 1022.15 359.27 1017.47 349.929C1001.18 317.404 984.333 283.771 962.794 266.383C942.667 250.184 918.52 251.086 888.976 269.14C847.669 294.24 810.744 336.224 771.65 380.678C766.782 386.214 761.749 391.936 756.741 397.587C754.779 399.806 752.817 402.03 750.856 404.251C713.606 446.444 675.089 490.074 634.683 518.661C630.598 521.553 626.493 524.302 622.481 526.827C600.105 540.901 578.336 549.859 557.781 553.45C534.763 557.469 513.031 554.78 493.193 545.456C473.724 536.304 455.392 520.547 438.706 498.623C422.533 477.373 407.934 450.381 395.312 418.392C394.737 416.929 394.157 415.432 393.586 413.947C384.847 391.147 377.117 366.864 369.64 343.381C366.613 333.871 363.481 324.036 360.335 314.464C348.419 278.159 337.498 249.688 325.962 224.866C324.429 221.569 322.847 218.259 321.256 215.026C292.323 156.226 254.572 109.004 212.08 78.4692C161.106 41.939 109.111 31.087 65.6767 47.9202C21.0916 65.3426 -24.2836 128.487 -20.5559 211.199L-20.7251 211.221C-21.6236 191.27 -19.7386 171.68 -15.1192 152.995C-10.8568 135.753 -4.34565 119.529 4.23498 104.776C20.0831 77.5249 42.4628 56.7033 65.6378 47.6468C88.5352 38.7736 113.602 37.4826 140.144 43.8134C164.013 49.5015 188.239 61.0751 212.148 78.2099C254.664 108.764 292.438 156.011 321.383 214.843C322.973 218.076 324.559 221.391 326.092 224.689C337.634 249.524 348.561 278.004 360.48 314.323C363.628 323.895 366.758 333.733 369.787 343.243C377.261 366.72 384.991 390.997 393.727 413.789C394.297 415.275 394.876 416.769 395.451 418.231C421.115 483.276 454.928 527.171 493.237 545.177C531.054 562.951 574.517 556.686 622.42 526.557C626.429 524.031 630.532 521.286 634.615 518.396C675.007 489.821 713.518 446.198 750.759 404.011C752.722 401.787 754.683 399.566 756.644 397.348C761.653 391.696 766.685 385.974 771.553 380.441C810.656 335.979 847.591 293.984 888.917 268.872C902.264 260.715 914.114 256.14 925.141 254.88C938.944 253.304 951.636 257.09 962.867 266.126C972.513 273.914 982.158 285.826 992.353 302.544C1001.35 317.294 1009.61 333.792 1017.6 349.746C1022.28 359.084 1026.7 367.906 1031.16 376.191C1073.29 454.463 1117.18 538.714 1165.31 633.757L1165.18 633.94Z" fill="#A1A1A1"/>
<path d="M1163.39 631.285C1119.45 542.722 1075.16 455.089 1031.74 370.824C1027.32 362.295 1022.94 353.131 1018.3 343.432C1003.21 311.879 986.115 276.119 964.754 259.119C944.391 242.948 920.202 245.511 890.804 266.95C855.849 292.357 824.915 329.716 792.165 369.268C781.909 381.653 771.303 394.464 760.606 406.821C741.933 428.438 721.735 451.312 700.562 472.145C677.886 494.457 657.169 511.322 637.228 523.707C633.038 526.309 628.822 528.758 624.691 530.982C601.841 543.28 579.48 550.279 558.229 551.784C534.704 553.447 512.629 548.339 492.615 536.591C455.656 514.628 423.354 468.675 396.607 400.006C396.037 398.54 395.461 397.041 394.894 395.555C386.598 373.761 379.004 350.769 371.66 328.532C368.203 318.066 364.63 307.243 361.034 296.709C348.665 260.413 337.524 232.192 325.974 207.898C324.419 204.628 322.816 201.35 321.207 198.151C291.922 139.917 253.894 93.4139 211.236 63.6598C159.932 27.947 107.797 18.0675 64.4332 35.8394C19.5774 54.3272 -24.6608 116.634 -22.4221 199.949L-22.5913 199.96C-23.1277 180.004 -20.9991 160.437 -16.2663 141.8C-11.8804 124.535 -5.33196 108.294 3.19958 93.5295C11.237 79.6193 20.7635 67.4566 31.5134 57.377C41.9503 47.5933 53.0115 40.2534 64.3909 35.5631C87.2629 26.191 112.357 24.3983 138.977 30.2414C162.903 35.4927 187.235 46.6462 211.3 63.3977C253.983 93.1687 292.034 139.7 321.336 197.962C322.945 201.164 324.551 204.445 326.106 207.715C337.661 232.023 348.807 260.255 361.181 296.563C364.777 307.099 368.351 317.923 371.807 328.391C379.151 350.625 386.744 373.614 395.037 395.4C395.602 396.888 396.179 398.385 396.747 399.851C423.474 468.466 455.747 514.383 492.671 536.323C530.704 558.647 576.338 556.708 624.639 530.711C628.766 528.487 632.983 526.041 637.169 523.442C681.754 495.754 722.547 450.534 760.507 406.587C771.205 394.23 781.809 381.422 792.065 369.037C824.822 329.477 855.762 292.109 890.734 266.69C920.179 245.217 944.415 242.655 964.825 258.863C974.392 266.476 983.891 278.41 993.866 295.342C1002.66 310.273 1010.68 327.041 1018.43 343.254C1023.07 352.953 1027.45 362.114 1031.87 370.638C1075.29 454.905 1119.58 542.539 1163.52 631.105L1163.39 631.285Z" fill="#A1A1A1"/>
<path d="M1161.59 628.63C1118.33 539.576 1074.88 450.968 1032.44 365.265C1028.16 356.643 1023.91 347.319 1019.41 337.448C1004.7 305.16 988.02 268.562 966.713 251.85C946.106 235.707 921.874 239.929 892.631 264.754C861.992 290.725 833.843 327.396 806.62 362.864C792.97 380.647 778.855 399.036 764.472 416.052C741.771 442.937 722.67 463.446 704.36 480.598C681.782 501.746 660.656 517.497 639.778 528.749C635.492 531.061 631.16 533.209 626.904 535.134C604.731 545.16 582.957 550.233 562.127 550.236C560.97 550.236 559.819 550.219 558.669 550.188C534.587 549.534 512.17 541.975 492.041 527.723C482.325 520.806 472.81 512.026 463.763 501.625C455.258 491.85 446.901 480.336 438.923 467.403C424.569 444.138 411.15 416.075 397.904 381.617C397.336 380.134 396.769 378.648 396.206 377.157C388.52 356.826 381.249 335.573 374.219 315.019C370.159 303.155 365.963 290.886 361.736 278.943C348.722 242.148 337.698 214.998 325.987 190.918C324.412 187.679 322.789 184.432 321.159 181.264C291.519 123.608 253.215 77.8208 210.391 48.8475C158.759 13.9549 106.482 5.045 63.1892 23.7555C19.1744 42.8324 -25.0062 105.613 -24.287 188.694L-24.4563 188.697C-24.7913 149.999 -15.5846 113.201 2.16718 82.2828C10.1911 68.3077 19.6668 56.0577 30.3338 45.8653C40.7131 35.9491 51.7524 28.4176 63.1469 23.4792C85.9919 13.6054 111.113 11.3138 137.811 16.6693C161.794 21.4808 186.235 32.2172 210.454 48.5825C253.305 77.5756 291.631 123.391 321.29 181.081C322.919 184.252 324.545 187.502 326.121 190.74C337.837 214.835 348.866 241.993 361.883 278.802C366.11 290.748 370.308 303.017 374.366 314.881C381.396 335.432 388.666 356.682 396.349 377.008C396.913 378.499 397.478 379.985 398.047 381.464C426.193 454.688 456.96 502.445 492.107 527.464C540.787 561.931 592.255 550.513 626.86 534.863C631.113 532.938 635.441 530.793 639.725 528.482C687.745 502.6 731.564 454.68 764.374 415.824C778.755 398.813 792.869 380.424 806.517 362.644C833.746 327.171 861.901 290.488 892.555 264.506C905.64 253.397 917.483 246.576 928.759 243.656C942.665 240.053 955.459 242.726 966.784 251.599C976.326 259.082 985.734 271.113 995.546 288.374C1004.19 303.584 1012 320.713 1019.55 337.281C1024.05 347.15 1028.29 356.471 1032.57 365.088C1075.01 450.79 1118.46 539.398 1161.72 628.452L1161.59 628.63Z" fill="#A1A1A1"/>
<path d="M1159.8 625.975L1033.15 359.71C1029.01 351.014 1024.91 341.552 1020.56 331.537C1006.21 298.485 989.941 261.025 968.674 244.589C948.109 228.697 923.14 234.746 894.461 262.569C866.89 289.316 841.743 324.885 817.425 359.284C801.573 381.707 785.182 404.891 768.34 425.295C717.721 486.624 673.483 522.847 629.121 539.294C610.718 546.116 592.564 549.549 574.957 549.549C569.621 549.549 564.338 549.233 559.111 548.602C534.461 545.625 511.702 535.619 491.469 518.865C472.718 503.333 455.563 481.41 439.031 451.836C425.83 428.221 413.174 400.068 399.206 363.236C391.834 343.798 384.695 323.602 377.791 304.072C362.166 259.875 346.01 214.172 326.008 173.95C295.327 112.257 255.055 63.877 209.546 34.0383C157.587 -0.0312313 105.167 -7.9743 61.9459 11.6748C20.1004 30.6981 -25.3172 90.6855 -26.1531 177.445L-26.3223 177.439C-25.9483 138.66 -16.454 101.867 1.13369 71.0392C17.036 43.1652 38.617 21.9856 61.902 11.4014C84.7216 1.0286 109.869 -1.76473 136.644 3.10315C160.685 7.47213 185.234 17.7942 209.608 33.7762C232.127 48.5405 253.513 67.9753 273.175 91.5424C293.002 115.307 310.821 142.969 326.136 173.764C346.147 214 362.308 259.714 377.937 303.922C384.84 323.45 391.979 343.643 399.35 363.078C419.73 416.819 448.627 483.061 491.546 518.605C540.765 559.366 593.506 552.201 629.084 539.013C673.424 522.577 717.642 486.368 768.241 425.061C785.075 404.665 801.465 381.481 817.315 359.064C841.639 324.659 866.792 289.082 894.376 262.321C923.105 234.45 948.127 228.396 968.745 244.33C978.267 251.689 987.589 263.824 997.244 281.432C1005.74 296.932 1013.34 314.439 1020.69 331.368C1025.04 341.383 1029.15 350.839 1033.28 359.532L1159.93 625.797L1159.8 625.975Z" fill="#A1A1A1"/>
<path d="M1158.78 605.506C1126.53 531.369 1098.86 471.209 1071.7 416.185C1058.52 389.456 1045.05 363.146 1031.68 337.987C1027.64 330.376 1023.63 322.281 1019.39 313.709C1008.73 292.166 997.703 269.89 985.017 253.358C978.207 244.465 971.65 238.098 964.973 233.892C944.476 220.856 920.428 229.475 893.499 259.514C879.561 275.037 866.87 292.701 856.294 307.934C845.098 324.059 834.053 341.843 823.371 359.039C808.019 383.759 792.144 409.319 775.077 431.271C764.693 444.668 754.166 456.639 743.789 466.854C723.027 487.29 700.742 504.129 677.553 516.903C663.226 524.708 648.83 530.608 634.767 534.435C622.646 537.722 610.504 539.619 598.674 540.073C580.97 540.755 563.721 538.153 547.406 532.332C530.058 526.143 513.642 516.263 498.612 502.965C485.211 491.106 472.552 476.176 459.914 457.316C436.363 422.201 417.58 381.597 403.846 350.146C397.1 334.624 390.513 318.794 384.142 303.486C365.798 259.399 348.471 217.758 326.788 180.667C309.104 150.614 288.928 124.679 266.814 103.579C249.82 87.3626 231.337 74.1007 211.88 64.1592C207.245 61.7943 202.523 59.5901 197.847 57.6142C177.718 49.1214 155.058 43.5912 130.497 41.1755C105.735 38.6838 84.311 40.8401 65.0059 47.7741C54.0919 51.6639 43.518 57.7664 33.5735 65.9096C-1.53411 94.6602 -24.0779 142.925 -26.7311 195.02L-26.9426 194.989C-26.2353 181.101 -24.1591 167.422 -20.7732 154.326C-17.5566 141.887 -13.1385 129.891 -7.64257 118.67C2.74183 97.4733 16.9622 79.118 33.4804 65.5911C43.4401 57.4338 54.031 51.3228 64.9619 47.4274C84.2873 40.4878 105.728 38.3287 130.51 40.8232C155.085 43.2388 177.757 48.7747 197.9 57.2731C202.58 59.2518 207.304 61.456 211.942 63.8237C231.415 73.7709 249.913 87.0441 266.92 103.274C289.05 124.389 309.243 150.346 326.936 180.419C348.632 217.533 365.962 259.184 384.313 303.283C390.682 318.591 397.269 334.418 404.014 349.938C417.74 381.375 436.516 421.958 460.053 457.051C472.678 475.891 485.323 490.808 498.709 502.652C528.122 528.677 561.753 541.149 598.668 539.72C610.487 539.267 622.621 537.37 634.731 534.086C648.784 530.258 663.17 524.364 677.485 516.565C700.66 503.799 722.932 486.971 743.68 466.547C754.051 456.341 764.571 444.375 774.947 430.989C792.003 409.049 807.875 383.494 823.222 358.783C833.906 341.583 844.952 323.794 856.154 307.663C866.735 292.422 879.432 274.752 893.38 259.218C905.37 245.844 916.98 236.604 927.889 231.753C941.288 225.794 953.791 226.403 965.047 233.562C971.745 237.782 978.32 244.166 985.148 253.079C997.852 269.636 1008.88 291.926 1019.55 313.484C1023.79 322.052 1027.8 330.148 1031.84 337.753C1045.21 362.915 1058.68 389.228 1071.86 415.963C1099.02 470.992 1126.7 531.157 1158.95 605.3L1158.78 605.506Z" fill="#A1A1A1"/>
<path d="M1157.76 585.031C1127.86 509.639 1099.79 446.551 1071.96 392.164C1058.39 365.598 1044.34 340.061 1030.21 316.263C1026.46 309.949 1022.76 303.387 1018.84 296.442C1007.11 275.643 994.972 254.136 981.38 239.256C974.516 231.71 967.941 226.456 961.272 223.192C935.739 210.689 909.802 234.377 892.538 256.45C880.305 272.043 869.134 289.674 857.819 307.874C847.915 323.806 838.597 340.943 828.732 359.084C814.09 386.014 798.95 413.86 781.815 437.241C771.648 451.191 761.036 463.252 750.276 473.089C730.233 491.416 708.285 505.648 683.178 516.601C669.127 522.729 654.737 527.095 640.409 529.573C628.318 531.639 616.25 532.378 604.538 531.76C587.113 530.853 570.08 526.771 553.91 519.631C536.928 512.131 520.725 501.172 505.752 487.059C492.633 474.696 479.966 459.356 467.026 440.167C443.526 405.364 423.395 366.782 408.485 337.056C402.965 326.052 397.533 314.98 392.28 304.269C371.357 261.617 351.595 221.326 327.57 187.384C309.616 162.015 289.458 140.565 267.66 123.631C251.167 110.817 233.686 101.216 214.22 94.2795C209.728 92.6813 205.157 91.2409 200.638 89.9979C180.786 84.5663 159.599 82.5114 133.966 80.3861C115.488 78.7767 91.2995 77.7168 68.062 83.8672C57.0566 86.7254 46.4184 91.6891 36.4401 98.6146C1.30877 123.005 -22.5227 165.612 -27.3113 212.594L-27.5618 212.524C-26.2927 200.065 -23.7207 187.846 -19.922 176.202C-16.3009 165.108 -11.5427 154.47 -5.78111 144.576C5.16845 125.781 19.734 109.751 36.3419 98.2228C46.3389 91.2832 56.9974 86.311 68.0214 83.4472C91.2809 77.2884 115.488 78.351 133.978 79.9605C159.62 82.0858 180.813 84.1406 200.678 89.5751C205.201 90.8209 209.775 92.2613 214.273 93.8595C233.757 100.805 251.255 110.414 267.767 123.242C289.586 140.193 309.761 161.66 327.734 187.054C351.776 221.022 371.546 261.324 392.476 303.993C397.728 314.701 403.16 325.773 408.679 336.774C423.587 366.489 443.709 405.057 467.195 439.843C480.12 459.013 492.773 474.335 505.877 486.684C535.319 514.434 568.518 529.454 604.546 531.332C616.249 531.946 628.305 531.211 640.383 529.144C654.698 526.67 669.076 522.309 683.114 516.184C708.201 505.242 730.13 491.022 750.156 472.711C760.903 462.885 771.5 450.841 781.656 436.906C798.775 413.544 813.909 385.71 828.546 358.794C838.414 340.644 847.734 323.504 857.645 307.564C868.965 289.353 880.141 271.716 892.385 256.106C903.577 241.796 914.616 231.502 925.197 225.504C938.026 218.231 950.189 217.315 961.347 222.778C968.039 226.056 974.638 231.327 981.522 238.895C995.138 253.803 1007.28 275.33 1019.03 296.146C1022.95 303.088 1026.65 309.647 1030.4 315.958C1044.53 339.765 1058.58 365.311 1072.16 391.885C1099.99 446.286 1128.06 509.385 1157.97 584.794L1157.76 585.031Z" fill="#A1A1A1"/>
<path d="M1156.73 564.555C1128.75 486.886 1101.11 422.64 1072.23 368.146C1058.26 341.743 1043.63 316.981 1028.75 294.541C1025.57 289.744 1022.29 284.653 1019.12 279.732C1006.04 259.398 992.514 238.373 977.745 225.157C970.812 218.91 964.215 214.767 957.577 212.492C932.097 203.757 907.623 229.909 891.578 253.383C880.703 269.23 870.762 287.19 861.148 304.562L859.347 307.815C850.618 323.574 842.43 340.858 833.759 359.16C819.954 388.302 805.679 418.434 788.553 443.211C778.589 457.732 767.893 469.884 756.762 479.326C737.356 495.79 715.758 507.539 688.798 516.299C674.857 520.829 660.474 523.659 646.047 524.707C633.987 525.55 621.994 525.127 610.396 523.445C575.285 518.374 542.479 500.78 512.887 471.152C500.095 458.344 487.42 442.602 474.138 423.017C451.662 389.946 431.672 355.952 413.125 323.969C410.637 319.681 408.177 315.422 405.735 311.197C380.403 267.369 356.477 225.971 328.358 194.109C310 173.307 289.862 156.344 268.506 143.688C252.827 134.397 235.835 128.089 216.562 124.402C212.219 123.577 207.801 122.897 203.43 122.384C192.435 121.116 180.773 120.91 168.426 120.693C158.508 120.518 148.254 120.338 137.433 119.602C116.534 118.06 92.8482 116.316 71.1149 119.969C59.9014 121.854 49.1989 125.676 39.3035 131.331C4.18575 151.4 -20.9351 188.356 -27.8947 230.188L-28.1807 230.055C-26.3464 219.026 -23.2804 208.267 -19.0687 198.077C-15.0415 188.333 -9.94495 179.048 -3.92109 170.482C7.6004 154.1 22.5145 140.401 39.2054 130.863C49.1227 125.194 59.8472 121.364 71.0828 119.475C92.838 115.819 116.536 117.567 137.443 119.109C148.258 119.842 158.512 120.025 168.426 120.2C180.778 120.417 192.443 120.623 203.449 121.894C207.823 122.41 212.246 123.089 216.593 123.915C235.89 127.604 252.902 133.921 268.603 143.226C289.984 155.896 310.144 172.878 328.522 193.703C356.666 225.593 380.604 267.011 405.947 310.859C408.389 315.084 410.851 319.34 413.336 323.63C431.88 355.608 451.864 389.593 474.333 422.654C487.601 442.216 500.263 457.944 513.04 470.735C542.592 500.326 575.356 517.895 610.421 522.96C622.005 524.64 633.987 525.063 646.033 524.22C660.445 523.171 674.814 520.344 688.74 515.82C715.673 507.068 737.246 495.334 756.627 478.892C767.734 469.47 778.409 457.341 788.357 442.844C805.461 418.099 819.727 387.984 833.524 358.858C842.198 340.548 850.391 323.255 859.127 307.485L860.928 304.232C870.547 286.852 880.493 268.88 891.38 253.016C907.476 229.466 932.036 203.238 957.634 212.013C964.303 214.299 970.926 218.457 977.884 224.728C992.685 237.973 1006.23 259.02 1019.32 279.377C1022.49 284.298 1025.76 289.389 1028.94 294.183C1043.84 316.634 1058.47 341.411 1072.44 367.827C1101.34 422.344 1128.99 486.613 1156.98 564.307L1156.73 564.555Z" fill="#A1A1A1"/>
<path d="M1155.71 544.078C1130.02 465.236 1102.02 397.962 1072.49 344.131C1058.14 317.894 1042.93 293.905 1027.28 272.826C1025.03 269.782 1022.71 266.622 1020.47 263.567C1005.69 243.382 990.402 222.507 974.119 211.063C967.129 206.1 960.513 203.069 953.888 201.795C928.48 196.913 905.46 225.486 890.622 250.316C881.409 265.656 873.092 282.714 865.05 299.212C863.659 302.068 862.268 304.917 860.875 307.756C853.225 323.349 846.073 340.768 838.501 359.208C825.627 390.558 812.315 422.972 795.293 449.186C785.296 464.579 774.815 476.48 763.248 485.573C739.054 504.591 714.876 511.629 694.417 516.009C680.579 518.969 666.203 520.265 651.685 519.854C639.662 519.473 627.742 517.886 616.256 515.141C582.199 507.02 549.822 486.872 520.026 455.255C507.628 442.103 494.946 425.952 481.252 405.88C467.419 385.653 454.528 366.19 442.061 347.367C433.589 334.573 425.585 322.489 417.769 310.896C388.225 267.071 361.164 228.539 329.151 200.843C310.399 184.621 290.282 172.14 269.357 163.749C254.36 157.734 238.329 154.805 218.909 154.526C214.719 154.475 210.452 154.557 206.227 154.771C199.809 155.118 193.169 155.842 186.142 156.612C172.656 158.086 157.368 159.757 140.9 158.822C134.629 158.464 128.231 157.959 122.043 157.469C106.128 156.209 89.6702 154.906 74.1655 156.071C62.7794 156.927 52.0109 159.611 42.1629 164.047C7.10434 179.846 -19.3042 211.153 -28.4821 247.794L-28.7952 247.577C-26.3924 237.982 -22.8322 228.686 -18.2145 219.945C-13.7795 211.551 -8.34449 203.622 -2.06343 196.381C10.0401 182.428 25.3012 171.06 42.0715 163.503C51.9432 159.056 62.7354 156.364 74.1469 155.507C89.6685 154.34 106.133 155.645 122.057 156.905C128.243 157.395 134.641 157.9 140.91 158.258C157.363 159.194 172.639 157.525 186.118 156.051C193.149 155.281 199.79 154.557 206.215 154.21C210.445 153.996 214.716 153.914 218.911 153.965C238.358 154.241 254.413 157.178 269.435 163.202C290.385 171.604 310.529 184.1 329.305 200.344C343.766 212.853 358.419 228.703 374.103 248.794C388.144 266.78 401.803 286.46 417.993 310.476C425.809 322.072 433.812 334.155 442.286 346.95C454.752 365.77 467.642 385.233 481.472 405.457C495.152 425.509 507.821 441.643 520.204 454.781C549.959 486.356 582.29 506.476 616.3 514.586C627.772 517.328 639.678 518.912 651.686 519.293C666.188 519.704 680.549 518.411 694.37 515.451C714.803 511.079 738.949 504.049 763.101 485.065C774.636 475.998 785.09 464.128 795.059 448.775C812.053 422.606 825.355 390.216 838.218 358.892C845.795 340.441 852.951 323.013 860.61 307.403C862.002 304.565 863.391 301.715 864.782 298.863C872.83 282.354 881.152 265.284 890.377 249.925C900.03 233.771 909.934 221.343 919.813 212.988C931.514 203.092 942.989 199.14 953.92 201.243C960.577 202.523 967.225 205.567 974.244 210.55C990.571 222.025 1005.88 242.926 1020.68 263.136C1022.92 266.191 1025.23 269.351 1027.49 272.392C1043.14 293.487 1058.36 317.5 1072.73 343.756C1088.41 372.34 1103.77 404.907 1118.37 440.553C1131.28 472.057 1143.94 506.8 1156 543.813L1155.71 544.078Z" fill="#A1A1A1"/>
<path d="M1154.69 523.594C1130.91 442.492 1103.35 374.032 1072.76 320.113C1058.01 294.043 1042.22 270.828 1025.82 251.109C1025.04 250.17 1024.26 249.231 1023.48 248.29C1006.43 227.758 988.807 206.528 970.498 196.97C963.405 193.266 956.767 191.347 950.206 191.099C924.899 190.146 903.318 221.106 889.672 247.244C881.641 262.535 874.512 279.295 867.619 295.503C865.915 299.511 864.151 303.655 862.412 307.691C855.784 323.064 849.623 340.543 843.102 359.05C831.239 392.714 818.972 427.522 802.038 455.156C792.241 471.144 781.675 483.135 769.738 491.816C746.219 508.917 722.339 513.408 700.037 515.713C686.285 517.134 671.914 516.891 657.323 514.994C645.34 513.388 633.495 510.64 622.116 506.829C589.218 495.836 557.271 473.134 527.167 439.352C515.111 425.825 502.782 409.742 488.371 388.737C460.981 348.926 440.642 320.885 422.425 297.82C386.192 251.946 358.538 224.957 329.96 207.577C310.828 195.941 290.73 187.944 270.224 183.807C255.997 180.937 240.898 181.194 221.27 184.647C217.248 185.363 213.133 186.205 209.038 187.155C205.17 188.066 201.241 189.109 197.08 190.211C181.717 194.284 164.304 198.901 144.374 198.038C133.87 197.584 123.14 196.341 112.764 195.141C100.972 193.776 88.7788 192.364 77.2184 192.172C65.6276 191.981 54.7931 193.525 45.0246 196.767C10.0828 208.355 -17.6168 234.019 -29.0706 265.416L-29.3955 265.086C-26.4208 256.929 -22.3665 249.096 -17.3461 241.804C-12.4999 234.763 -6.72987 228.193 -0.19499 222.27C12.4991 210.765 28.1104 201.728 44.9501 196.144C54.7457 192.897 65.6039 191.347 77.2218 191.538C88.7923 191.73 100.992 193.142 112.79 194.509C123.162 195.71 133.887 196.953 144.383 197.407C164.277 198.267 181.672 193.655 197.017 189.588C201.18 188.483 205.112 187.443 208.982 186.529C213.082 185.58 217.2 184.737 221.226 184.018C240.885 180.562 256.009 180.303 270.266 183.181C290.802 187.324 310.927 195.332 330.087 206.985C358.704 224.387 386.386 251.404 422.651 297.318C440.875 320.392 461.221 348.441 488.618 388.263C503.019 409.251 515.334 425.318 527.377 438.831C557.44 472.565 589.34 495.235 622.188 506.211C633.553 510.017 645.384 512.759 657.35 514.366C671.924 516.26 686.277 516.502 700.011 515.085C722.279 512.782 746.119 508.303 769.584 491.241C781.477 482.594 792.006 470.642 801.769 454.711C818.666 427.136 830.92 392.364 842.77 358.737C849.297 340.219 855.461 322.726 862.099 307.33C863.838 303.297 865.602 299.153 867.306 295.145C874.204 278.923 881.338 262.152 889.382 246.835C898.288 229.777 907.625 216.284 917.133 206.728C928.27 195.535 939.402 190.07 950.213 190.473C956.811 190.721 963.483 192.652 970.61 196.372C988.979 205.964 1006.63 227.223 1023.7 247.785C1024.49 248.727 1025.27 249.668 1026.05 250.604C1042.46 270.346 1058.27 293.589 1073.03 319.687C1103.65 373.654 1131.24 442.168 1155.03 523.326L1154.69 523.594Z" fill="#A1A1A1"/>
<path d="M708.456 515.42C707.507 515.42 706.571 515.417 705.65 515.409C691.97 515.313 677.604 513.537 662.956 510.126C651.016 507.294 639.246 503.384 627.971 498.511C611.863 491.56 595.696 481.57 579.918 468.821C564.68 456.509 549.335 441.243 534.305 423.443C519.579 406.004 505.824 386.572 495.485 371.591C471.295 336.633 448.279 307.415 427.077 284.744C392.738 248.028 362.136 225.644 330.77 214.305C311.847 207.464 291.546 203.856 271.998 203.856C271.696 203.856 271.394 203.856 271.091 203.859C254.299 203.955 238.356 209.152 223.632 214.756C219.799 216.224 215.834 217.828 211.848 219.528C209.663 220.469 207.475 221.439 205.161 222.465C188.834 229.712 170.327 237.923 147.844 237.249C134.152 236.837 120.167 234.475 106.642 232.189C97.9088 230.712 88.8798 229.187 80.267 228.266C68.4274 227 57.532 227.406 47.8803 229.478C13.1246 236.93 -15.8661 256.954 -29.6719 283.044L-29.99 282.579C-22.9086 269.199 -12.2568 257.614 1.66915 248.143C14.969 239.101 30.9306 232.404 47.8261 228.782C57.5032 226.707 68.4274 226.295 80.2941 227.567C88.9153 228.488 97.9494 230.016 106.686 231.493C120.202 233.779 134.179 236.141 147.853 236.55C170.278 237.224 188.752 229.024 205.052 221.791C207.369 220.762 209.557 219.793 211.743 218.851C215.733 217.152 219.701 215.545 223.537 214.076C238.287 208.464 254.257 203.258 271.09 203.16C290.948 203.044 311.614 206.663 330.86 213.623C347.048 219.477 362.742 228.094 378.836 239.966C394.335 251.402 410.19 265.856 427.304 284.158C448.523 306.845 471.556 336.086 495.761 371.066C506.091 386.039 519.836 405.457 534.547 422.877C565.044 458.995 596.512 484.214 628.076 497.837C639.336 502.705 651.091 506.609 663.013 509.439C677.643 512.844 691.988 514.619 705.65 514.712C727.028 514.859 751.852 513.658 776.062 497.409C788.316 489.184 798.917 477.156 808.472 460.641C825.253 431.637 836.377 394.411 847.137 358.408C852.672 339.889 857.899 322.396 863.582 307.254C865.403 302.403 867.241 297.405 869.017 292.571C875.021 276.24 881.228 259.356 888.378 243.749C896.551 225.794 905.321 211.23 914.443 200.462C925.021 187.978 935.803 180.993 946.492 179.702C953.089 178.905 959.785 179.719 966.963 182.194C986.153 188.807 1005.17 208.019 1024.59 228.813C1041.52 246.942 1058.37 270.042 1073.32 295.616C1089.93 323.941 1105.53 357.17 1119.7 394.38C1132.32 427.53 1143.87 464.021 1154.05 502.84L1153.67 503.122C1131.81 419.756 1104.68 350.106 1073.02 296.109C1058.09 270.571 1041.27 247.506 1024.36 229.407C1004.98 208.65 985.995 189.475 966.876 182.885C959.737 180.424 953.079 179.615 946.522 180.407C926.882 182.783 906.352 205.429 888.715 244.177C881.578 259.756 875.376 276.626 869.378 292.941C867.601 297.777 865.762 302.778 863.941 307.629C858.267 322.743 853.044 340.221 847.516 358.723C842.237 376.388 836.778 394.656 830.514 412.216C823.412 432.125 816.303 448.124 808.779 461.132C799.181 477.72 788.533 489.801 776.221 498.065C765.363 505.354 753.692 510.172 740.543 512.799C729.407 515.011 718.223 515.42 708.456 515.42Z" fill="#A1A1A1"/>
<path d="M735.591 516.832C726.963 516.832 718.675 515.975 711.26 515.107C697.627 513.512 683.268 510.2 668.584 505.262C656.695 501.205 645 496.137 633.822 490.193C603.213 473.949 572.994 446.909 541.438 407.535C527.676 390.366 514.703 371.892 502.598 354.445C478.699 320.099 454.857 292.25 431.731 271.668C397.72 241.398 365.898 225.306 331.586 221.027C312.036 218.589 291.419 219.584 271.963 223.903C255.679 227.516 240.326 236.237 225.994 244.857C222.409 247.024 218.595 249.392 214.661 251.892C213.677 252.521 212.686 253.161 211.681 253.806C195.174 264.438 176.497 276.468 152.527 276.468C152.122 276.468 151.72 276.465 151.312 276.457C135.095 276.184 118.538 272.328 102.524 268.596C96.1749 267.116 89.6096 265.588 83.3099 264.351C71.005 261.938 60.3482 261.225 50.7286 262.177C15.7411 265.644 -13.791 279.67 -30.2924 300.667L-30.575 300.049C-22.4174 289.671 -10.6217 280.66 3.53265 273.991C17.4552 267.432 33.7653 263.079 50.6998 261.402C60.3465 260.447 71.0304 261.16 83.3624 263.578C89.6688 264.816 96.2358 266.346 102.586 267.823C118.585 271.55 135.127 275.403 151.314 275.676C175.783 276.093 194.765 263.863 211.51 253.076C212.513 252.43 213.507 251.791 214.49 251.159C218.427 248.656 222.243 246.289 225.832 244.121C240.188 235.485 255.569 226.752 271.897 223.127C291.384 218.803 312.034 217.806 331.617 220.247C348.62 222.366 364.832 227.372 381.178 235.547C398.013 243.966 414.619 255.554 431.946 270.977C455.101 291.588 478.973 319.47 502.897 353.85C514.997 371.292 527.962 389.754 541.712 406.906C573.226 446.227 603.399 473.227 633.959 489.446C645.12 495.379 656.8 500.441 668.672 504.492C683.336 509.425 697.675 512.734 711.287 514.324C734.195 517.001 758.565 518.377 782.538 503.559C795.153 495.76 805.828 483.656 815.172 466.555C831.819 436.094 842.18 394.543 851.322 357.883C855.921 339.438 860.266 322.016 865.06 307.164C866.789 301.806 868.531 296.267 870.214 290.911C875.48 274.154 880.925 256.828 887.37 240.646C894.827 221.794 903.031 206.159 911.752 194.174C921.769 180.41 932.204 171.909 942.764 168.913C949.365 167.038 956.086 166.739 963.308 167.991C983.486 171.495 1003.99 188.807 1023.13 206.996C1040.81 223.79 1058.27 246.103 1073.61 271.521C1090.68 299.714 1106.41 333.276 1120.35 371.269C1132.82 405.246 1143.83 442.61 1153.07 482.331L1152.64 482.61C1133 398.179 1105.56 325.375 1073.29 272.068C1057.97 246.697 1040.55 224.427 1022.91 207.667C1003.8 189.52 983.356 172.25 963.263 168.76C956.083 167.515 949.404 167.813 942.846 169.674C923.346 175.207 903.784 200.561 887.761 241.068C881.328 257.217 875.889 274.526 870.629 291.266C868.945 296.625 867.204 302.163 865.473 307.527C860.689 322.345 856.349 339.751 851.753 358.177C842.596 394.893 832.218 436.511 815.517 467.074C806.121 484.268 795.386 496.439 782.701 504.283C771.692 511.088 759.817 515.028 746.393 516.322C742.764 516.688 739.15 516.832 735.591 516.832Z" fill="#A1A1A1"/>
<path d="M752.622 519.885C752.498 519.885 752.377 519.885 752.253 519.885C740.06 519.834 728.088 517.348 716.87 514.805C703.257 511.722 688.906 506.871 674.214 500.393C662.379 495.12 650.758 488.887 639.674 481.875C610.29 463.308 581.343 434.633 548.575 391.628C536.775 376.145 525.162 359.473 513.93 343.353C512.525 341.335 511.119 339.319 509.713 337.304C485.69 302.967 461.021 276.485 436.393 258.598C402.668 234.106 368.655 224.015 332.41 227.75C312.536 229.799 291.939 235.4 272.843 243.946C257.777 250.691 244.352 261.512 228.365 274.957C225.124 277.694 221.664 280.648 217.478 284.256L217.244 284.459C209.168 291.466 200.014 299.407 189.746 305.444C177.954 312.378 166.514 315.715 154.782 315.676C136.489 315.6 117.82 309.929 99.7672 304.441C95.344 303.096 90.7686 301.707 86.3522 300.449C73.6869 296.85 62.9658 295.032 53.5763 294.894C19.0034 294.386 -11.7961 302.921 -30.9236 318.306L-31.1436 317.545C-21.7744 310.008 -9.13615 303.891 5.40403 299.855C19.9713 295.81 36.6317 293.803 53.5814 294.051C62.9979 294.189 73.7461 296.01 86.4385 299.618C90.8583 300.875 95.4337 302.265 99.8585 303.609C117.89 309.089 136.535 314.754 154.784 314.83C154.865 314.83 154.948 314.83 155.029 314.83C181.133 314.83 201.021 297.58 217.011 283.709L217.246 283.506C221.434 279.896 224.894 276.942 228.136 274.205C244.15 260.737 257.599 249.896 272.713 243.131C291.84 234.568 312.472 228.959 332.38 226.907C350.116 225.08 366.846 226.473 383.528 231.169C401.505 236.228 418.864 244.947 436.596 257.825C461.272 275.746 485.983 302.27 510.045 336.664C511.451 338.679 512.857 340.698 514.261 342.716C525.488 358.83 537.098 375.497 548.888 390.969C581.614 433.92 610.518 462.555 639.854 481.091C650.922 488.095 662.526 494.316 674.344 499.584C689.016 506.053 703.346 510.896 716.937 513.974C741.281 519.493 765.115 523.321 789.024 509.746C801.999 502.378 812.747 490.198 821.879 472.508C838.377 440.553 847.389 396.274 855.342 357.204C859.065 338.913 862.581 321.635 866.547 307.116C868.074 301.529 869.605 295.751 871.086 290.161C875.715 272.685 880.502 254.618 886.372 237.581C893.128 217.825 900.765 201.116 909.066 187.919C918.53 172.878 928.615 162.866 939.042 158.165C945.507 155.25 952.105 153.83 959.195 153.83C959.349 153.83 959.503 153.83 959.658 153.832C981.7 154.024 1004.38 170.705 1021.68 185.216C1040.11 200.676 1058.17 222.2 1073.91 247.461C1091.44 275.524 1107.29 309.416 1121.02 348.198C1133.34 383 1143.79 421.242 1152.1 461.865L1151.62 462.138C1139.26 401.694 1115.68 315.493 1073.56 248.073C1057.86 222.868 1039.84 201.395 1021.45 185.971C1004.2 171.5 981.591 154.867 959.657 154.678C952.433 154.608 945.737 156.023 939.176 158.982C919.857 167.695 901.261 195.758 886.812 238.001C880.956 254.998 876.174 273.046 871.549 290.502C870.069 296.095 868.536 301.876 867.009 307.465C863.053 321.948 859.54 339.204 855.823 357.474C847.856 396.615 838.827 440.978 822.265 473.058C813.072 490.866 802.251 503.127 789.188 510.543C778.117 516.826 766.15 519.885 752.622 519.885Z" fill="#A1A1A1"/>
<path d="M766.164 523.854C763.537 523.854 760.854 523.713 758.106 523.431C746.078 522.199 734.389 518.504 722.477 514.501C708.668 509.862 694.722 503.655 679.841 495.526C668.068 489.037 656.523 481.647 645.526 473.554C617.628 453.057 589.928 422.883 555.713 375.72C547.215 364.009 538.72 351.725 530.505 339.844C526.033 333.378 521.41 326.689 516.83 320.158C492.521 285.59 467.028 260.481 441.058 245.525C406.744 225.763 371.477 222.144 333.239 234.462C313.037 240.97 292.458 251.176 273.728 263.976C258.682 274.259 245.575 288.699 231.698 303.988L230.739 305.045C228.571 307.44 226.38 309.87 224.161 312.328C222.884 313.746 221.598 315.172 220.3 316.61C212.208 325.621 203.469 335.021 193.447 342.257C181.81 350.657 170.3 354.789 158.256 354.89C138.205 355.054 117.752 347.291 97.9751 339.776C95.1526 338.703 92.2321 337.595 89.3978 336.543C76.1098 331.611 65.634 328.772 56.4256 327.605C22.445 323.301 -9.62365 326.334 -31.56 335.929L-31.7004 335.044C-9.70657 325.424 22.428 322.379 56.4679 326.692C65.7017 327.862 76.2045 330.709 89.518 335.65C92.3539 336.704 95.2745 337.812 98.0986 338.886C117.634 346.307 137.827 353.977 157.613 353.977C157.826 353.977 158.039 353.977 158.254 353.974C183.846 353.76 202.063 335.816 219.997 315.849C221.295 314.411 222.581 312.985 223.859 311.567C226.077 309.106 228.266 306.679 230.436 304.281L231.395 303.224C245.296 287.91 258.425 273.444 273.52 263.128C292.284 250.303 312.898 240.079 333.136 233.56C371.47 221.211 406.832 224.841 441.239 244.657C467.273 259.652 492.826 284.818 517.189 319.462C521.769 325.996 526.393 332.682 530.866 339.151C539.077 351.029 547.57 363.31 556.063 375.013C590.238 422.122 617.899 452.254 645.747 472.717C656.729 480.796 668.257 488.178 680.014 494.655C694.872 502.773 708.798 508.971 722.587 513.602C743.518 520.635 769.568 529.39 795.51 515.905C808.847 508.974 819.666 496.718 828.585 478.436C844.924 444.95 852.499 397.853 859.185 356.302C862.089 338.252 864.831 321.201 868.033 307.051C869.28 301.538 870.53 295.836 871.739 290.32C875.793 271.821 879.986 252.693 885.37 234.501C891.443 213.826 898.511 196.043 906.378 181.645C915.291 165.33 925.028 153.81 935.316 147.404C941.918 143.291 948.685 140.757 956.003 139.655C965.804 138.178 976.236 139.756 987.894 144.469C997.759 148.461 1008.33 154.656 1020.23 163.414C1039.4 177.538 1058.07 198.275 1074.2 223.381C1092.2 251.312 1108.18 285.539 1121.68 325.108C1133.84 360.739 1143.75 399.857 1151.13 441.379L1150.6 441.638C1135.02 353.977 1107.76 276.703 1073.83 224.052C1057.74 199.014 1039.13 178.336 1020 164.254C994.382 145.385 974.063 137.857 956.052 140.568C948.783 141.662 942.064 144.179 935.507 148.26C911.031 163.501 895 203.791 885.862 234.904C880.492 253.051 876.304 272.156 872.255 290.633C871.045 296.152 869.794 301.857 868.547 307.373C865.356 321.48 862.616 338.511 859.716 356.539C853.017 398.18 845.425 445.376 829.011 479.014C820.021 497.44 809.116 509.794 795.672 516.782C786.56 521.517 776.842 523.854 766.164 523.854Z" fill="#A1A1A1"/>
<path d="M777.897 528.403C760.003 528.403 742.799 520.744 728.082 514.194C714.235 508.032 700.296 500.332 685.466 490.655C673.758 482.96 662.288 474.408 651.374 465.233C618.657 437.762 589.49 398.332 562.847 359.811C557.407 351.947 551.911 343.841 546.597 336.002C539.22 325.116 531.59 313.861 523.945 303.015C499.273 268.105 472.956 244.363 445.727 232.449C410.502 217.039 373.978 219.889 334.068 241.164C313.52 252.118 292.961 266.93 274.613 284C260.462 297.163 248.489 313.782 235.814 331.376C234.915 332.622 234.015 333.874 233.11 335.125L232.619 335.807C229.538 340.089 226.351 344.514 223.121 348.957C215.381 359.648 206.858 370.706 197 379.153C185.557 388.959 174.02 393.85 161.727 394.104C140.149 394.552 118.157 384.447 96.8907 374.674C95.4 373.989 93.916 373.307 92.4388 372.634C78.4147 366.224 68.1843 362.424 59.2704 360.31C26.1425 352.457 -7.19858 349.988 -32.2044 353.537L-32.2551 352.553C-7.20872 348.996 26.1814 351.468 59.3533 359.332C68.2926 361.452 78.545 365.26 92.5945 371.681C94.0717 372.354 95.5557 373.037 97.0481 373.724C118.274 383.477 140.224 393.557 161.718 393.117C188.415 392.565 207.215 369.64 222.742 348.195C225.972 343.753 229.159 339.328 232.24 335.049L232.731 334.367C233.636 333.113 234.536 331.864 235.435 330.618C248.132 312.993 260.126 296.346 274.324 283.137C292.705 266.036 313.303 251.199 333.887 240.226C352.808 230.14 370.581 224.317 388.217 222.423C407.891 220.311 427.289 223.364 445.875 231.496C473.191 243.447 499.586 267.257 524.328 302.262C531.978 313.114 539.609 324.372 546.988 335.261C552.302 343.099 557.794 351.203 563.232 359.064C589.849 397.542 618.98 436.931 651.638 464.351C662.536 473.512 673.99 482.052 685.681 489.736C700.489 499.399 714.406 507.088 728.232 513.241C749.461 522.689 775.882 534.449 801.987 522.075C815.686 515.581 826.577 503.249 835.283 484.375C851.452 449.313 857.503 399.318 862.842 355.206C864.987 337.482 867.013 320.741 869.51 306.995C870.434 301.91 871.362 296.656 872.258 291.574C875.768 271.696 879.397 251.139 884.36 231.428C889.76 209.817 896.259 190.955 903.677 175.37C912.046 157.784 921.434 144.756 931.58 136.647C938.169 131.382 944.958 127.732 952.338 125.485C962.281 122.461 973.314 122.562 985.13 125.787C995.477 128.611 1006.79 133.935 1018.76 141.616C1038.69 154.405 1057.96 174.353 1074.49 199.304C1092.95 227.105 1109.05 261.662 1122.33 302.02C1134.34 338.479 1143.69 378.477 1150.14 420.898L1149.57 421.14C1135.9 331.252 1109.09 252.729 1074.09 200.037C1057.61 175.167 1038.41 155.284 1018.55 142.538C992.807 126.018 971.183 120.755 952.445 126.458C945.118 128.687 938.377 132.312 931.835 137.538C907.696 156.832 892.992 199.45 884.907 231.809C879.956 251.469 876.331 271.998 872.827 291.85C871.93 296.932 871.001 302.189 870.077 307.279C867.588 320.981 865.564 337.699 863.422 355.4C860.854 376.622 857.943 400.674 853.718 423.223C848.877 449.06 843 469.258 835.753 484.975C831.562 494.063 826.746 501.797 821.438 507.965C815.729 514.597 809.24 519.665 802.15 523.025C794.038 526.872 785.897 528.403 777.897 528.403Z" fill="#A1A1A1"/>
<path d="M788.472 533.395C782.557 533.395 776.359 532.436 769.812 530.522C756.918 526.754 744.576 519.916 733.686 513.886C719.959 506.284 705.627 496.828 691.09 485.781C679.457 476.891 668.061 467.178 657.221 456.907C626.109 427.46 599.304 388.305 569.98 343.9C567.375 339.953 564.728 335.928 562.17 332.033C552.093 316.702 541.675 300.85 531.06 285.871C505.978 250.553 478.839 228.181 450.395 219.375C414.516 208.267 375.655 217.851 334.897 247.864C313.983 263.265 293.443 282.68 275.498 304.015C261.987 320.079 250.865 339.018 239.089 359.07C237.893 361.108 236.691 363.151 235.483 365.203C232.476 370.316 229.238 375.804 225.943 381.298C219.034 392.857 210.615 406.029 200.555 416.044C189.294 427.257 177.729 432.908 165.2 433.317C142.266 434.07 118.92 421.419 96.3423 409.186L95.4827 408.721C84.4282 402.734 72.7341 396.685 62.1179 393.013C29.7583 381.819 -3.96691 374.048 -32.8425 371.131L-32.8036 370.077C-3.89753 372.997 29.8581 380.774 62.2465 391.978C72.8932 395.662 84.6076 401.719 95.679 407.715L96.5385 408.18C119.067 420.385 142.366 433.004 165.189 432.257C191.546 431.395 209.75 406.895 225.495 380.545C228.789 375.055 232.025 369.567 235.032 364.456C236.24 362.407 237.441 360.361 238.637 358.326C250.433 338.24 261.575 319.267 275.131 303.15C293.109 281.773 313.689 262.321 334.642 246.892C353.764 232.812 372.582 223.11 390.569 218.059C411.121 212.289 431.289 212.379 450.513 218.33C479.066 227.169 506.305 249.62 531.472 285.059C542.095 300.052 552.518 315.91 562.599 331.249C565.158 335.142 567.804 339.167 570.41 343.113C599.705 387.477 626.481 426.589 657.538 455.985C668.362 466.239 679.742 475.938 691.358 484.817C705.874 495.847 720.183 505.289 733.889 512.88C755.373 524.781 782.112 539.587 808.478 528.242C822.541 522.19 833.502 509.785 841.99 490.314C857.982 453.628 862.61 398.334 866.329 353.903C867.777 336.596 869.145 320.251 870.999 306.947C871.583 302.752 872.173 298.431 872.744 294.251C875.705 272.536 878.769 250.079 883.363 228.364C890.458 194.571 903.936 149.365 927.854 125.905C934.458 119.427 941.272 114.658 948.683 111.327C968.075 102.484 991.163 105.345 1017.3 119.825C1037.98 131.277 1057.85 150.436 1074.78 175.232C1093.72 202.9 1109.94 237.79 1123 278.94C1128.99 297.814 1134.29 317.973 1138.74 338.857C1143 358.805 1146.5 379.519 1149.17 400.426L1148.55 400.646C1136.8 308.525 1110.45 228.753 1074.36 176.024C1057.5 151.321 1037.7 132.236 1017.1 120.826C991.084 106.411 968.119 103.558 948.849 112.344C941.492 115.65 934.73 120.383 928.175 126.812C904.422 150.109 891.022 195.084 883.962 228.711C879.378 250.37 876.321 272.795 873.361 294.482C872.791 298.662 872.202 302.986 871.617 307.183C869.769 320.442 868.402 336.766 866.957 354.047C865.085 376.405 862.965 401.745 859.341 425.661C855.176 453.144 849.669 474.495 842.503 490.934C838.414 500.312 833.633 508.221 828.292 514.439C822.539 521.139 815.925 526.128 808.635 529.262C802.237 532.019 795.555 533.395 788.472 533.395Z" fill="#A1A1A1"/>
<path d="M798.218 538.666C791.128 538.666 783.651 537.135 775.664 534.066C762.723 529.097 750.272 520.849 739.287 513.571C725.458 504.41 711.134 493.42 696.714 480.903C685.157 470.826 673.837 459.951 663.068 448.578C633.437 417.304 608.021 376.997 581.113 334.328C579.782 332.217 578.45 330.103 577.115 327.988C564.602 308.167 551.664 287.67 538.177 268.728C512.658 232.962 484.696 211.957 455.068 206.297C417.852 199.186 377.7 215.424 335.726 254.556C314.73 274.129 293.655 298.801 276.382 324.025C263.34 343.071 252.879 364.502 241.804 387.192C240.493 389.879 239.178 392.573 237.853 395.274C235.207 400.677 232.058 407.084 228.762 413.637C222.656 425.806 214.338 441.269 204.108 452.902C193.026 465.504 181.435 471.928 168.672 472.534C158.181 472.971 146.603 470.273 133.277 464.284C121.835 459.142 110.767 452.422 98.5192 444.812C87.3395 437.779 75.5405 430.516 64.9548 425.718C33.5985 411.506 0.477428 399.062 -33.4863 388.723L-33.3645 387.615C0.61956 397.957 33.7593 410.413 65.1324 424.63C75.7469 429.442 87.5629 436.717 98.7561 443.755C119.285 456.515 144.834 472.401 168.653 471.406C195.886 470.11 213.387 442.526 228.242 412.91C231.537 406.362 234.684 399.958 237.329 394.558C238.654 391.857 239.968 389.163 241.278 386.479C252.371 363.752 262.85 342.285 275.935 323.177C293.244 297.902 314.36 273.182 335.396 253.572C377.497 214.322 417.787 198.041 455.145 205.178C469.469 207.915 483.539 214.271 496.961 224.069C511.362 234.58 525.376 249.319 538.613 267.869C552.116 286.83 565.062 307.339 577.582 327.174C578.917 329.291 580.251 331.402 581.582 333.513C608.465 376.146 633.858 416.414 663.432 447.628C674.186 458.984 685.489 469.845 697.029 479.905C711.429 492.403 725.73 503.379 739.539 512.525C761.242 526.901 788.253 544.791 814.961 534.415C829.429 528.795 840.463 516.314 848.69 496.262C864.54 457.961 867.362 399.454 869.631 352.443C870.443 335.63 871.21 319.749 872.481 306.908C872.743 304.258 873.005 301.594 873.267 298.917C875.64 274.729 878.093 249.716 882.359 225.306C888.447 190.197 900.634 142.589 924.12 115.169C930.672 107.519 937.508 101.634 945.021 97.1743C955.463 90.9197 967.099 87.9798 979.606 88.4308C991.024 88.8423 1003.22 92.0753 1015.84 98.0369C1037.26 108.148 1057.74 126.517 1075.07 151.158C1094.47 178.691 1110.82 213.919 1123.66 255.858C1129.55 275.101 1134.65 295.675 1138.82 317.007C1142.82 337.437 1145.97 358.616 1148.19 379.957L1147.53 380.148C1137.84 287.157 1111.27 204.006 1074.63 152.015C1057.37 127.481 1036.98 109.188 1015.65 99.1164C989.357 86.6973 965.011 86.3928 945.246 98.2313C937.791 102.657 931.007 108.497 924.506 116.088C901.182 143.319 889.065 190.682 883.007 225.616C878.753 249.962 876.303 274.938 873.934 299.094C873.672 301.772 873.41 304.438 873.147 307.088C871.88 319.882 871.115 335.743 870.305 352.531C868.029 399.676 865.198 458.353 849.246 496.899C845.28 506.564 840.537 514.654 835.151 520.936C829.356 527.696 822.615 532.6 815.115 535.515C809.7 537.612 804.093 538.666 798.218 538.666Z" fill="#A1A1A1"/>
<path d="M807.376 544.154C799.298 544.154 790.74 541.978 781.516 537.609C768.466 531.428 755.938 521.774 744.887 513.258C730.921 502.497 716.604 489.968 702.334 476.026C690.86 464.78 679.616 452.741 668.912 440.251C642.554 409.505 620.027 371.839 596.177 331.96C592.279 325.441 588.246 318.701 584.246 312.074C570.185 288.792 558.178 269.594 545.289 251.585C519.315 215.345 490.533 195.707 459.738 193.216C421.044 190.084 379.596 212.972 336.549 261.242C315.164 285.223 294.108 314.622 277.259 344.027C264.567 366.179 254.645 390.293 244.14 415.822C242.839 418.984 241.532 422.158 240.218 425.335C237.876 431.003 234.776 438.473 231.576 445.962C218.11 477.554 200.518 510.079 172.14 511.742C171.255 511.79 170.366 511.812 169.48 511.812C147.32 511.812 124.697 497.203 101.552 480.891L100.107 479.865C88.6431 471.714 77.8137 464.016 67.7897 458.412C30.0136 437.295 -6.52042 419.469 -34.1287 406.3L-33.9307 405.147C-6.31567 418.322 30.2285 436.15 68.0181 457.276C78.0692 462.894 88.9104 470.603 100.39 478.763L101.833 479.789C125.825 496.699 149.256 511.781 172.114 510.547C200.178 508.901 217.623 476.627 230.989 445.272C234.187 437.788 237.284 430.324 239.625 424.658C240.94 421.479 242.245 418.308 243.546 415.145C254.067 389.577 264.005 365.424 276.738 343.201C293.62 313.735 314.719 284.276 336.146 260.247C356.033 237.946 375.927 220.822 395.275 209.347C417.473 196.181 439.174 190.352 459.772 192.018C490.726 194.521 519.654 214.254 545.749 250.663C558.657 268.7 570.676 287.918 584.75 311.22C588.752 317.847 592.785 324.589 596.685 331.109C620.511 370.948 643.016 408.578 669.323 439.262C680.012 451.738 691.239 463.757 702.696 474.986C716.945 488.911 731.24 501.42 745.187 512.165C767.079 529.035 794.325 550.028 821.443 540.577C836.265 535.41 847.369 522.856 855.386 502.198C871.036 462.153 871.977 400.353 872.733 350.696C872.98 334.494 873.214 319.189 873.96 306.857L873.977 306.575C875.651 278.96 877.382 250.407 881.35 222.234C884.786 197.661 889.573 175.568 895.575 156.564C902.343 135.139 910.689 117.596 920.381 104.418C926.865 95.6016 933.725 88.5971 941.351 83.0077C961.956 67.8177 987.205 65.4726 1014.37 76.2315C1025.3 80.5611 1036.09 87.1201 1046.43 95.7228C1056.82 104.376 1066.56 114.927 1075.35 127.075C1095.23 154.476 1111.7 190.036 1124.32 232.77C1135.66 271.181 1143.58 314.997 1147.21 359.479L1146.5 359.64C1138.72 264.436 1112.62 180.004 1074.89 127.997C1057.25 103.638 1036.27 86.1392 1014.21 77.4041C987.195 66.7072 962.105 69.027 941.644 84.1126C934.077 89.6598 927.273 96.6079 920.838 105.354C902.743 129.959 889.331 170.472 882.052 222.513C878.094 250.613 876.366 279.127 874.695 306.702L874.678 306.984C873.933 319.27 873.7 334.553 873.453 350.733C872.693 400.542 871.749 462.528 855.988 502.855C852.124 512.816 847.415 521.08 841.997 527.417C836.154 534.249 829.289 539.072 821.59 541.758C817.004 543.354 812.278 544.154 807.376 544.154Z" fill="#A1A1A1"/>
<path d="M172.666 551.057C162.757 551.057 151.967 547.841 139.789 541.273C127.688 534.748 115.722 525.74 104.591 516.979C102.576 515.384 100.576 513.791 98.5895 512.21C88.7009 504.337 79.3605 496.902 70.631 491.109C35.8229 468.021 2.64427 447.27 -29.4429 427.207L-34.7595 423.881L-34.4922 422.694L-29.1756 426.02C2.91331 446.089 36.097 466.84 70.9119 489.934C79.6651 495.74 89.0173 503.184 98.9178 511.068C100.903 512.65 102.903 514.242 104.916 515.835C127.765 533.818 152.039 551.246 175.583 549.693C204.525 547.686 221.869 510.13 233.744 477.639C236.786 469.329 239.717 461.048 241.93 454.762C243.152 451.298 244.365 447.837 245.575 444.384C255.609 415.76 265.087 388.723 277.551 363.231C294.003 329.587 315.081 295.385 336.906 266.93C357.154 240.53 377.586 219.672 397.637 204.936C420.636 188.032 443.1 179.26 464.405 178.863C496.464 178.068 526.24 196.44 552.894 233.464C567.669 254.012 580.916 276.24 591.929 295.275C597.92 305.634 603.912 316.252 609.707 326.52C630.221 362.873 651.433 400.46 675.222 430.905C685.848 444.508 697.003 457.688 708.372 470.076C722.442 485.373 736.73 499.416 750.842 511.812C772.9 531.188 800.351 555.302 827.93 546.744C843.11 542.034 854.283 529.407 862.089 508.14C877.531 466.279 876.488 401.094 875.649 348.717C875.402 333.229 875.167 318.597 875.449 306.817C876.084 280.263 877.04 249.401 880.351 219.173C883.142 193.56 887.355 170.387 892.875 150.301C899.119 127.58 907.119 108.531 916.652 93.6821C922.969 83.842 930.048 75.4902 937.691 68.855C948.599 59.356 960.838 53.3832 974.072 51.1057C986.464 48.972 999.531 50.0938 1012.91 54.4374C1024.19 58.1017 1035.31 64.1281 1045.96 72.353C1056.67 80.6287 1066.66 90.9395 1075.64 102.998C1086 116.883 1095.53 133.279 1103.95 151.733C1111.94 169.217 1119.01 188.717 1124.98 209.688C1136.15 248.922 1143.5 293.643 1146.24 339.01L1145.48 339.137C1139.61 241.714 1113.98 156.006 1075.17 103.987C1057.39 80.1354 1035.23 62.9809 1012.76 55.6833C984.979 46.6606 959.142 51.6046 938.043 69.9797C930.461 76.5613 923.439 84.8483 917.171 94.6094C899.208 122.588 887.071 164.572 881.099 219.401C877.795 249.547 876.842 280.356 876.209 306.868C875.928 318.605 876.162 333.214 876.411 348.683C876.823 374.522 877.292 403.811 875.722 432.125C873.899 464.98 869.652 490.061 862.738 508.802C858.975 519.056 854.302 527.498 848.85 533.891C842.961 540.797 835.969 545.541 828.071 547.99C824.086 549.228 820.104 549.789 816.147 549.789C792.445 549.789 769.479 529.612 750.488 512.931C736.356 500.515 722.046 486.453 707.957 471.133C696.571 458.728 685.402 445.528 674.76 431.905C650.922 401.399 629.688 363.772 609.154 327.385C603.36 317.12 597.37 306.505 591.382 296.152C580.385 277.139 567.156 254.942 552.408 234.433C525.898 197.607 496.296 179.342 464.417 180.126C414.353 181.061 367.699 228.385 337.376 267.922C315.596 296.321 294.56 330.449 278.143 364.026C265.716 389.442 256.252 416.436 246.233 445.015C245.023 448.468 243.809 451.929 242.587 455.396C240.372 461.685 237.44 469.972 234.395 478.29C229.411 491.929 221.585 511.784 211.219 526.667C206.185 533.894 200.828 539.574 195.296 543.551C189.128 547.985 182.506 550.476 175.615 550.953C174.639 551.023 173.656 551.057 172.666 551.057Z" fill="#A1A1A1"/>
<path d="M175.847 590.299C165.926 590.299 155.158 586.834 143.044 579.765C130.502 572.448 118.103 562.159 107.629 553.058C104.41 550.256 101.199 547.415 98.0919 544.667C89.408 536.986 81.2047 529.728 73.4702 523.803C45.6944 502.522 18.0997 481.745 -8.58805 461.651C-17.4157 455.004 -26.5429 448.132 -35.3892 441.458L-35.0575 440.237C-26.2112 446.912 -17.0841 453.784 -8.2564 460.43C18.4313 480.525 46.0294 501.304 73.8069 522.588C81.5618 528.53 89.7752 535.793 98.4692 543.486C101.574 546.234 104.786 549.072 108.001 551.874C129.724 570.742 154.921 590.716 179.048 588.836C208.672 586.474 225.31 545.464 236.499 510.002C239.367 500.918 242.14 491.797 244.235 484.865C245.311 481.308 246.38 477.754 247.448 474.208C257.046 442.314 266.11 412.191 278.364 383.263C294.302 345.639 315.364 306.699 337.666 273.616C368.724 227.742 416.727 171.785 469.037 165.716C502.303 161.753 532.922 178.761 560.038 216.272C572.221 233.134 584.268 252.583 599.105 279.34C606.602 292.862 614.042 306.876 621.237 320.426C639.957 355.679 659.311 392.133 681.121 422.561C691.686 437.306 702.764 451.644 714.047 465.18C727.709 481.553 741.992 497.129 756.497 511.477C778.777 533.381 806.505 560.646 834.416 552.928C849.719 548.785 861.283 535.72 868.789 514.101C884.018 470.346 880.751 398.763 878.363 346.496C877.693 331.827 877.06 317.973 876.937 306.797C876.659 281.959 876.683 249.209 879.351 216.131C883.957 158.813 895.252 114.007 912.922 82.965C919.116 72.0285 926.219 62.5267 934.031 54.7218C945.145 43.6048 957.685 36.1269 971.305 32.4992C984.136 29.083 997.639 29.1365 1011.44 32.6599C1023.09 35.6984 1034.54 41.2061 1045.48 49.0252C1056.53 56.9232 1066.77 66.9859 1075.94 78.9343C1086.53 92.7403 1096.2 109.193 1104.69 127.839C1112.74 145.509 1119.79 165.285 1125.65 186.622C1136.64 226.682 1143.43 272.305 1145.26 318.56L1144.46 318.647C1140.51 219.001 1115.35 132.013 1075.44 79.9913C1057.35 56.3904 1034.57 40.0505 1011.32 33.9847C982.654 26.6702 956.073 34.2383 934.448 55.8718C926.698 63.6119 919.654 73.0376 913.51 83.8868C895.956 114.723 884.732 159.275 880.15 216.312C877.488 249.299 877.466 281.984 877.742 306.775C877.867 317.911 878.499 331.748 879.167 346.397C880.4 373.414 881.798 404.039 880.999 433.937C880.067 468.751 876.302 495.193 869.486 514.775C865.82 525.336 861.183 533.961 855.703 540.411C849.762 547.404 842.645 552.06 834.55 554.253C821.994 557.723 808.481 554.605 793.237 544.72C779.986 536.126 767.291 523.645 756.091 512.635C741.564 498.268 727.262 482.67 713.58 466.273C702.28 452.718 691.187 438.36 680.606 423.595C658.751 393.106 639.375 356.612 620.637 321.322C613.445 307.775 606.007 293.769 598.516 280.259C583.705 253.549 571.679 234.137 559.525 217.315C532.57 180.018 502.146 163.112 469.091 167.049C417.006 173.096 369.162 228.88 338.197 274.616C315.939 307.632 294.922 346.49 279.018 384.035C266.797 412.882 257.746 442.963 248.164 474.808C247.096 478.357 246.027 481.911 244.951 485.469C242.854 492.405 240.079 501.535 237.208 510.628C225.921 546.406 209.115 587.781 179.084 590.174C178.016 590.256 176.935 590.299 175.847 590.299Z" fill="#A1A1A1"/>
<path d="M179.092 629.544C151.985 629.544 123.542 601.81 98.3286 577.223C90.5804 569.669 83.2621 562.532 76.3076 556.497L-36.0188 459.035L-35.6279 457.787L76.6985 555.248C83.6716 561.297 90.9984 568.443 98.7567 576.008C124.945 601.545 154.63 630.491 182.514 627.982C212.79 625.262 228.74 580.8 239.253 542.373C242.691 529.804 246.011 517.016 249.223 504.647C258.007 470.823 267.088 435.846 279.175 403.293C288.772 377.445 300.695 350.338 313.653 324.905C327.868 297.003 343.089 271.403 358.888 248.82C376.308 223.923 394.021 203.326 411.532 187.607C430.902 170.221 449.983 158.87 468.251 153.867C504.846 143.846 538.13 159.053 567.174 199.07C591.312 232.322 611.827 273.441 631.667 313.207C648.937 347.821 666.793 383.61 687.014 414.204C710.37 449.539 735.648 482.148 762.148 511.122C784.475 535.534 812.263 565.92 840.902 559.09C865.088 553.323 879.073 526.365 883.652 476.672C887.548 434.403 883.842 384.261 880.865 343.973C879.85 330.244 878.892 317.275 878.422 306.758C875.826 248.783 877.481 200.925 883.48 160.451C887.223 135.199 892.746 112.689 899.895 93.5468C907.88 72.1642 918.132 54.3388 930.366 40.5667C940.95 28.6521 952.878 19.9987 965.82 14.8461C978.141 9.94159 991.112 8.2983 1004.37 9.96133C1030.46 13.231 1055.97 29.1735 1076.22 54.849C1087.04 68.5732 1096.87 85.0851 1105.42 103.922C1113.53 121.776 1120.56 141.831 1126.3 163.535C1137.13 204.42 1143.34 250.948 1144.28 298.085L1143.43 298.133C1141.44 197.754 1116.12 107.226 1075.7 55.9736C1032.79 1.54471 971.86 -4.445 930.836 41.7364C890.199 87.4838 873.329 174.139 879.263 306.654C879.732 317.137 880.689 330.089 881.703 343.801C884.686 384.176 888.4 434.425 884.487 476.886C882.354 500.013 878.07 518.6 871.754 532.132C868.2 539.74 863.917 545.958 859.022 550.609C853.812 555.558 847.756 558.882 841.02 560.488C838.267 561.145 835.466 561.475 832.619 561.475C822.241 561.475 811.187 557.103 799.075 548.247C785.43 538.269 772.262 523.871 761.681 512.303C735.146 483.287 709.832 450.635 686.442 415.25C666.176 384.591 648.3 348.76 631.012 314.109C611.198 274.394 590.708 233.326 566.631 200.158C537.781 160.415 504.726 145.306 468.383 155.259C394.868 175.39 319.14 298.33 279.889 404.037C267.834 436.5 258.765 471.429 249.993 505.208C246.78 517.582 243.458 530.379 240.016 542.959C233.036 568.471 226.143 586.739 218.322 600.443C213.44 608.995 208.144 615.737 202.58 620.481C196.394 625.755 189.656 628.754 182.553 629.394C181.405 629.493 180.25 629.544 179.092 629.544Z" fill="#A1A1A1"/>
</g>
</svg>
