<svg width="1051" height="899" viewBox="0 0 1051 899" fill="none" xmlns="http://www.w3.org/2000/svg">
<path d="M344.5 422C488.5 265 610 239.5 710 0H1050L1053 200C877 306.5 853.064 464.889 805 619C710.5 922 420 825.933 391 815.5C240.546 761.373 200.5 579 344.5 422Z" fill="#FF7200" fill-opacity="0.27"/>
<path d="M191.5 441.5C495 234.314 656.5 -1.5 656.5 -1.5H1048V359.5C1048 359.5 921.5 471.5 907.5 578C893.5 684.5 790.5 898.5 790.5 898.5H38.0002C38.0002 898.5 -112 648.687 191.5 441.5Z" fill="#FF7200" fill-opacity="0.27"/>
</svg>
