<svg width="45" height="45" viewBox="0 0 45 45" fill="none" xmlns="http://www.w3.org/2000/svg">
<g clip-path="url(#clip0_9_7380)">
<path d="M9.01294 33.3328V29.8252L14.9369 33.2548L22.2639 26.3955V41.9848L9.01294 33.3328Z" fill="#0093EB"/>
<path d="M1.92139 24.0577L9.63814 17.0425L22.2654 24.8372L14.9385 31.6964L1.92139 24.0577Z" fill="#0093EB"/>
<path d="M9.63667 17.042L0.438965 10.0268L13.6899 3.01172L23.0434 9.24736L9.63667 17.042Z" fill="#0093EB"/>
<path d="M35.5141 33.4107L22.2632 41.9848V26.3955L29.824 32.943L35.5141 29.3575V33.4107Z" fill="#0093EB"/>
<path d="M29.824 31.384L22.2632 24.8364L34.9685 16.73L42.6072 23.2775L29.824 31.384Z" fill="#0093EB"/>
<path d="M34.9683 16.7303L23.0425 9.24736L32.396 3.01172L44.088 10.0268L34.9683 16.7303Z" fill="#0093EB"/>
</g>
<defs>
<clipPath id="clip0_9_7380">
<rect width="43.65" height="43.65" fill="white" transform="translate(0.438965 0.673584)"/>
</clipPath>
</defs>
</svg>
