<svg width="44" height="44" viewBox="0 0 44 44" fill="none" xmlns="http://www.w3.org/2000/svg">
<g clip-path="url(#clip0_9_7412)">
<path d="M38.2519 5.59058H5.5144V38.3281H38.2519V5.59058Z" fill="#ECEFF1"/>
<path d="M21.8816 25.4024L38.2503 38.3282V12.8093L21.8816 25.4024Z" fill="#CFD8DC"/>
<path d="M39.6152 5.59082H38.2511L21.8824 18.5167L5.51362 5.59082H4.14956C1.89067 5.59082 0.057373 7.42412 0.057373 9.68301V34.2361C0.057373 36.495 1.89067 38.3283 4.14956 38.3283H5.51362V12.8094L21.8824 25.3997L38.2511 12.8067V38.3283H39.6152C41.8741 38.3283 43.7074 36.495 43.7074 34.2361V9.68301C43.7074 7.42412 41.8741 5.59082 39.6152 5.59082Z" fill="#F44336"/>
</g>
<defs>
<clipPath id="clip0_9_7412">
<rect width="43.65" height="43.65" fill="white" transform="translate(0.057373 0.134521)"/>
</clipPath>
</defs>
</svg>
