<svg width="45" height="45" viewBox="0 0 45 45" fill="none" xmlns="http://www.w3.org/2000/svg">
<g id="google-drive 1" clip-path="url(#clip0_9_7370)">
<g id="Group">
<g id="Drive_4_">
<path id="Vector" d="M22.5864 14.4124L13.5272 30.1255H13.5016L18.7478 36.5234L6.97587 41.4625C6.74546 41.3345 6.56632 41.1554 6.46404 40.9763L0.936222 30.7397C0.654717 30.1766 0.885125 29.7416 0.961814 29.4857L15.7793 3.89437C15.8816 3.74082 16.0351 3.58727 16.2399 3.45923H16.2655L23.8661 5.81372L22.5864 14.4124Z" fill="#59C36A"/>
</g>
<path id="Vector_2" d="M44.4496 30.1257L34.1875 36.5235L31.7563 30.1257L22.5861 14.4126L16.265 3.45928C16.444 3.33133 16.6744 3.25464 16.8792 3.25464H28.3782C28.6342 3.33133 29.146 3.30574 29.4786 3.89442L44.2961 29.4858C44.3984 29.665 44.4496 29.8953 44.4496 30.1257Z" fill="#FFDA2D"/>
<path id="Vector_3" d="M29.4798 3.8954C29.1473 3.30671 28.6354 3.3323 28.3794 3.25562H22.5873V14.4134L31.7575 30.1265L34.1887 36.5244L44.4508 30.1265C44.4508 29.8961 44.3996 29.6659 44.2973 29.4868L29.4798 3.8954Z" fill="#FDBF00"/>
<path id="Vector_4" d="M44.4501 30.1257C44.4501 30.356 44.3989 30.5864 44.3222 30.7399L38.7943 40.9765C38.5895 41.3092 38.1035 41.6418 37.6683 41.6418H7.59002C7.38521 41.6418 7.15488 41.565 6.97583 41.4627L13.5016 30.1257H44.4501Z" fill="#4086F4"/>
<path id="Vector_5" d="M22.5873 41.6418H37.6691C38.1043 41.6418 38.5904 41.3092 38.7951 40.9765L44.323 30.7399C44.3997 30.5864 44.4509 30.356 44.4509 30.1257H22.5874V41.6418H22.5873Z" fill="#4175DF"/>
</g>
</g>
<defs>
<clipPath id="clip0_9_7370">
<rect width="43.65" height="43.65" fill="white" transform="translate(0.800049 0.623291)"/>
</clipPath>
</defs>
</svg>
