<svg width="44" height="45" viewBox="0 0 44 45" fill="none" xmlns="http://www.w3.org/2000/svg">
<g id="google-calendar 1" clip-path="url(#clip0_9_7390)">
<g id="Group">
<g id="Group_2">
<path id="Vector" d="M39.9384 13.4713H4.13171C3.42487 13.4713 2.85291 12.8993 2.85291 12.1925V4.34912C2.85291 2.23363 4.57384 0.512695 6.68933 0.512695H37.3807C39.4962 0.512695 41.2172 2.23363 41.2172 4.34912V12.1925C41.2172 12.8993 40.6452 13.4713 39.9384 13.4713Z" fill="#E3E7EA"/>
</g>
<path id="Vector_2" d="M37.3802 0.512695H22.0345V13.4713H39.9379C40.6447 13.4713 41.2167 12.8993 41.2167 12.1925V4.34912C41.2167 2.23363 39.4957 0.512695 37.3802 0.512695Z" fill="#BABAC0"/>
<g id="Calendar_1_">
<g id="Group_3">
<g id="Group_4">
<path id="Vector_3" d="M2.80384 27.5379C2.80426 27.536 2.80443 27.5351 2.80443 27.5351L0.260287 15.415C0.081254 14.2641 0.388168 13.113 1.10439 12.269C1.84601 11.3995 2.92012 10.9136 4.04548 10.9136H39.9545C41.0799 10.9136 42.1541 11.3995 42.8957 12.269C43.6119 13.1131 43.9188 14.2641 43.7398 15.3638L41.1956 27.5412L43.7398 39.6612C43.9188 40.8121 43.6119 41.9631 42.8957 42.807C42.1541 43.6767 41.0799 44.1626 39.9546 44.1626H4.04548C2.92012 44.1626 1.84592 43.6767 1.1043 42.807C0.388168 41.963 0.081254 40.8121 0.260287 39.7123C0.260287 39.7123 2.75968 27.7491 2.80384 27.5379Z" fill="#4086F4"/>
</g>
</g>
<path id="Vector_4" d="M2.80443 27.5351C2.80443 27.5351 2.80426 27.536 2.80384 27.5379H41.1963L43.7398 15.3638C43.9188 14.2641 43.6119 13.1131 42.8957 12.269C42.1541 11.3995 41.0799 10.9136 39.9546 10.9136H4.04548C2.92012 10.9136 1.84592 11.3995 1.1043 12.269C0.388168 13.1131 0.081254 14.2641 0.260287 15.415L2.80443 27.5351Z" fill="#4175DF"/>
<g id="Group_5">
<path id="Vector_5" d="M9.21191 8.18555C9.91818 8.18555 10.4907 7.613 10.4907 6.90674C10.4907 6.20047 9.91818 5.62793 9.21191 5.62793C8.50565 5.62793 7.93311 6.20047 7.93311 6.90674C7.93311 7.613 8.50565 8.18555 9.21191 8.18555Z" fill="#FFF5F5"/>
</g>
<g id="Group_6">
<path id="Vector_6" d="M34.7881 8.18555C35.4944 8.18555 36.0669 7.613 36.0669 6.90674C36.0669 6.20047 35.4944 5.62793 34.7881 5.62793C34.0818 5.62793 33.5093 6.20047 33.5093 6.90674C33.5093 7.613 34.0818 8.18555 34.7881 8.18555Z" fill="#E3E7EA"/>
</g>
<g id="Group_7">
<path id="Vector_7" d="M16.8846 36.4897C14.7216 36.4897 12.7821 35.1198 12.0616 33.0792C11.8255 32.4135 12.1739 31.683 12.8409 31.4482C13.504 31.2109 14.2371 31.5618 14.4719 32.2275C14.8328 33.2465 15.803 33.9321 16.8846 33.9321C18.2945 33.9321 19.4422 32.7844 19.4422 31.3745C19.4422 29.9646 18.2945 28.8169 16.8846 28.8169H15.2948C14.5893 28.8169 14.016 28.2449 14.016 27.5381C14.016 26.8312 14.5893 26.2593 15.2948 26.2593H16.8846C18.2945 26.2593 19.4422 25.1116 19.4422 23.7017C19.4422 22.2917 18.2945 21.144 16.8846 21.144C15.803 21.144 14.8328 21.8297 14.4718 22.8487C14.237 23.5156 13.5027 23.8653 12.8408 23.628C12.1739 23.3932 11.8255 22.6627 12.0615 21.997C12.7821 19.9564 14.7216 18.5864 16.8846 18.5864C19.7057 18.5864 21.9998 20.8805 21.9998 23.7017C21.9998 25.2277 21.3279 26.6002 20.2639 27.5381C21.3279 28.476 21.9998 29.8485 21.9998 31.3745C21.9998 34.1956 19.7057 36.4897 16.8846 36.4897Z" fill="#FFF5F5"/>
</g>
<path id="Vector_8" d="M12.8408 23.628C13.5027 23.8653 14.237 23.5156 14.4718 22.8487C14.8327 21.8297 15.8031 21.144 16.8845 21.144C18.2945 21.144 19.4421 22.2917 19.4421 23.7017C19.4421 25.1116 18.2945 26.2593 16.8845 26.2593H15.2948C14.5892 26.2593 14.0161 26.8312 14.016 27.5379H20.2641C21.328 26.6 21.9998 25.2276 21.9998 23.7017C21.9998 20.8805 19.7057 18.5864 16.8845 18.5864C14.7215 18.5864 12.7821 19.9564 12.0615 21.997C11.8255 22.6627 12.1739 23.3932 12.8408 23.628Z" fill="#E3E7EA"/>
<g id="Group_8">
<path id="Vector_9" d="M29.6737 36.4896C28.9669 36.4896 28.3949 35.9176 28.3949 35.2108V22.2541L26.5466 23.4867C25.9571 23.8763 25.1641 23.719 24.7732 23.132C24.381 22.5438 24.5397 21.7508 25.1279 21.3586L28.9643 18.801C29.3565 18.54 29.8622 18.5151 30.2769 18.7373C30.6927 18.9597 30.9525 19.393 30.9525 19.8651V35.2108C30.9525 35.9176 30.3805 36.4896 29.6737 36.4896Z" fill="#FFF5F5"/>
</g>
<path id="Vector_10" d="M26.5466 23.4871L28.3949 22.2545V27.5382H30.9525V19.8655C30.9525 19.3935 30.6927 18.9601 30.2769 18.7378C29.8623 18.5155 29.3565 18.5405 28.9643 18.8015L25.1279 21.3591C24.5397 21.7513 24.381 22.5442 24.7732 23.1325C25.1642 23.7195 25.9571 23.8768 26.5466 23.4871Z" fill="#E3E7EA"/>
</g>
</g>
</g>
<defs>
<clipPath id="clip0_9_7390">
<rect width="43.65" height="43.65" fill="white" transform="translate(0.175049 0.512695)"/>
</clipPath>
</defs>
</svg>
