<svg width="492" height="32" viewBox="0 0 492 32" fill="none" xmlns="http://www.w3.org/2000/svg">
<path d="M459.705 16.8942C459.035 16.9205 458.359 16.9386 457.703 16.9781C457.277 17.0028 457.095 16.9304 456.811 16.8926C456.716 16.8794 456.615 16.853 456.527 16.8563C455.864 16.8827 455.201 16.9123 454.539 16.9419C454.336 17.0061 454.207 17.0917 453.896 17.123C453.592 17.1526 453.234 17.1526 452.895 17.1674C452.449 17.1856 452.003 17.2037 451.556 17.2201C451.333 17.2284 451.151 17.2596 451.076 17.3189C451.063 17.3288 451.211 17.3535 451.293 17.3683C451.563 17.4177 451.827 17.4736 452.124 17.5115C452.408 17.5477 452.76 17.4884 453.064 17.5345C453.747 17.6382 453.754 17.6366 454.275 17.6168C454.721 17.5987 455.168 17.579 455.614 17.5658C455.702 17.5625 455.803 17.5872 455.898 17.6004C456.182 17.6366 456.364 17.7189 456.784 17.6876C457.102 17.6629 457.453 17.658 457.785 17.6448C458.062 17.6926 458.319 17.7469 458.616 17.7847C458.894 17.821 458.975 17.849 458.826 17.8967C458.691 17.9411 458.501 17.9593 458.251 17.9625C458.028 17.9642 457.805 17.979 457.582 17.9872C457.467 17.9922 457.358 17.9955 457.25 18.0004C456.824 18.0185 456.824 18.0185 456.047 17.9132C455.742 17.872 455.397 17.9296 455.107 17.8901C454.911 17.8638 454.741 17.8243 454.552 17.7963C454.471 17.7848 454.343 17.7831 454.241 17.7864C453.903 17.7979 453.565 17.8062 453.24 17.8276C453.01 17.8424 452.875 17.8885 452.902 17.9346C452.909 17.9527 453.071 17.979 453.166 17.9806C453.382 17.9839 453.612 17.9609 453.822 17.9724C454.025 17.9839 454.234 18.0169 454.383 18.0531C454.687 18.1288 455.032 18.0613 455.323 18.0811C455.627 18.1025 455.877 18.1683 456.168 18.2078C456.243 18.2177 456.385 18.2012 456.5 18.1963C456.831 18.1848 457.162 18.1749 457.494 18.1634C457.771 18.2111 458.069 18.2539 458.319 18.3082C458.772 18.407 459.259 18.4448 459.847 18.3971C460.178 18.3708 460.503 18.3807 460.767 18.4448C461.037 18.5107 461.348 18.5041 461.693 18.4909C462.011 18.4778 462.336 18.4416 462.66 18.4876C463.363 18.5897 463.37 18.5947 464.202 18.5551C464.452 18.5436 464.641 18.5403 464.831 18.5782C465.007 18.6128 465.196 18.6424 465.379 18.6753C465.71 18.6638 466.048 18.6523 466.379 18.6391C466.805 18.621 467.042 18.644 467.143 18.7362C467.204 18.7922 467.231 18.8432 467.38 18.8811C467.556 18.9272 467.745 18.9255 468.002 18.9123C468.246 18.9008 468.422 18.8827 468.523 18.8235C468.564 18.7988 468.645 18.7757 468.719 18.756C468.78 18.7412 468.875 18.7181 468.929 18.7214C469.03 18.728 469.165 18.7461 469.199 18.7675C469.531 18.9667 469.531 18.9683 469.869 19.0259C470.241 19.0901 470.626 19.1477 470.964 19.2202C471.269 19.2844 471.573 19.2564 471.904 19.2564C472.154 19.2564 472.317 19.2992 472.296 19.342C472.283 19.3667 472.188 19.4029 472.107 19.4062C471.444 19.4391 470.775 19.4671 470.105 19.4901C470.024 19.4934 469.923 19.4638 469.828 19.449C469.639 19.4194 469.47 19.3733 469.267 19.3634C469.064 19.3535 468.827 19.3782 468.604 19.3864C468.381 19.3947 468.144 19.4161 467.942 19.4029C467.739 19.3897 467.576 19.342 467.387 19.3107C467.299 19.2959 467.177 19.2745 467.103 19.2795C466.609 19.319 466.244 19.2646 465.893 19.1922C465.818 19.1774 465.69 19.1675 465.595 19.1708C464.811 19.1988 464.033 19.2317 463.249 19.263C462.931 19.2761 462.674 19.2185 462.606 19.1214C462.572 19.0671 462.505 19.0128 462.505 18.9584C462.505 18.8597 462.133 18.8054 461.862 18.8169C461.416 18.8333 460.963 18.8465 460.523 18.8712C460.165 18.8909 459.861 18.8712 459.617 18.8119C459.333 18.7444 459.009 18.7576 458.684 18.7757C458.441 18.7889 458.373 18.8432 458.386 18.9798C458.4 19.0901 458.285 19.1247 457.845 19.1428C457.291 19.1659 456.73 19.1889 456.168 19.207C456.08 19.2103 455.979 19.1823 455.891 19.1675C455.702 19.1379 455.533 19.0901 455.33 19.0803C455.127 19.0687 454.89 19.0934 454.667 19.1033C454.444 19.1115 454.207 19.1346 454.004 19.1231C453.801 19.1115 453.632 19.0622 453.45 19.0309C453.362 19.0161 453.254 18.9947 453.166 18.9979C452.72 19.0111 452.273 19.0309 451.827 19.049C451.326 19.0687 451.326 19.0687 450.616 18.9667C450.292 18.9206 449.967 18.9568 449.649 18.97C449.311 18.9831 448.993 18.9897 448.73 18.9239C448.554 18.8811 448.358 18.8547 448.148 18.863C447.587 18.8827 447.032 18.9074 446.471 18.9272C446.377 18.9305 446.248 18.9222 446.174 18.9074C445.815 18.8383 445.464 18.784 444.963 18.8185C444.53 18.8482 444.064 18.8498 443.631 18.8778C443.394 18.8926 443.286 18.9453 443.333 18.9864C443.36 19.0078 443.503 19.0325 443.597 19.0325C443.814 19.0342 444.05 19.0095 444.253 19.0193C444.672 19.0391 444.882 19.1774 445.43 19.1395C445.754 19.1165 446.092 19.1082 446.431 19.1017C446.518 19.1 446.613 19.1313 446.708 19.1478C446.978 19.1922 447.215 19.2498 447.607 19.2202C447.932 19.1971 448.277 19.1906 448.608 19.1774C449.135 19.156 449.135 19.1576 449.819 19.258C450.143 19.3058 450.468 19.2679 450.785 19.2564C451.022 19.2482 451.245 19.2317 451.435 19.2548C451.725 19.2893 451.935 19.3683 452.293 19.3634C452.632 19.3584 452.963 19.3354 453.301 19.3272C453.511 19.3222 453.707 19.3486 453.876 19.393C454.052 19.4375 454.241 19.4572 454.471 19.4473C454.802 19.4342 455.14 19.4177 455.478 19.4095C455.573 19.4078 455.681 19.4227 455.769 19.4358C455.959 19.4655 456.141 19.5 456.324 19.5313C456.655 19.5214 456.993 19.5181 457.318 19.4984C457.568 19.4836 457.744 19.4902 457.947 19.5231C458.204 19.5675 458.413 19.6465 458.833 19.6087C459.042 19.5906 459.286 19.5955 459.495 19.579C459.752 19.5576 459.928 19.5659 460.111 19.6152C460.456 19.7091 460.888 19.7107 461.335 19.6745C461.822 19.635 462.187 19.6811 462.552 19.7535C462.937 19.8293 462.937 19.8276 463.235 20.0103C463.323 20.063 463.573 20.0877 463.783 20.0778C464.134 20.0614 464.439 20.0696 464.696 20.1321C464.966 20.1996 465.291 20.1914 465.622 20.1733C466.062 20.1486 466.501 20.1272 466.86 20.2227C467.035 20.2688 467.225 20.2803 467.461 20.2688C468.131 20.2391 468.807 20.221 469.463 20.1848C469.862 20.1618 470.092 20.2144 470.362 20.2589C470.728 20.3198 471.127 20.3741 471.127 20.5042C471.127 20.5256 471.221 20.5503 471.302 20.5667C471.478 20.6013 471.668 20.6309 471.85 20.6638C472.121 20.7132 472.384 20.7544 472.756 20.728C473.081 20.7066 473.426 20.7001 473.757 20.6852C474.088 20.6704 474.393 20.6622 474.69 20.7247C475.035 20.7955 475.4 20.863 475.793 20.9157C476.07 20.9536 476.435 20.8894 476.733 20.9404C476.915 20.9717 477.091 21.0079 477.287 21.0342C477.368 21.0457 477.497 21.0375 477.605 21.0342C477.828 21.0276 478.058 21.0227 478.274 21.0062C478.525 20.9881 478.714 20.9914 478.903 21.0293C479.079 21.0639 479.255 21.1116 479.458 21.1215C479.762 21.1363 480.1 21.0704 480.404 21.1462C480.56 21.184 480.756 21.2202 480.959 21.2318C481.162 21.2433 481.399 21.2186 481.615 21.2202C481.71 21.2202 481.825 21.2466 481.879 21.268C481.912 21.2795 481.865 21.3108 481.818 21.3272C481.757 21.347 481.669 21.3733 481.581 21.3766C480.912 21.4063 480.242 21.4309 479.573 21.4589C479.174 21.4754 479.174 21.4754 478.369 21.3717C478.18 21.347 477.97 21.3519 477.733 21.3634C477.416 21.3783 477.091 21.4063 476.76 21.3766C476.327 21.2647 475.793 21.2548 475.225 21.2976C474.988 21.3157 474.771 21.3157 474.596 21.2844C474.224 21.2219 473.832 21.1643 473.5 21.0902C473.243 21.0326 473.121 21.0276 473.013 21.1067C472.979 21.1313 472.946 21.1577 472.952 21.1807C472.993 21.263 473.067 21.3437 473.108 21.426C473.121 21.449 473.067 21.4754 473.034 21.5001C472.925 21.5692 472.783 21.5643 472.547 21.5067C472.31 21.449 472.026 21.4112 471.647 21.4375C471.323 21.4606 470.971 21.4573 470.646 21.482C470.146 21.5182 469.794 21.4655 469.436 21.3947C469.362 21.3799 469.233 21.3717 469.139 21.375C468.131 21.4128 467.13 21.4556 466.123 21.4935C465.906 21.5017 465.71 21.477 465.541 21.4326C465.365 21.3881 465.169 21.3651 464.953 21.3733C464.06 21.4079 463.167 21.4392 462.275 21.482C461.909 21.5001 461.619 21.4787 461.369 21.4211C461.179 21.3783 461.003 21.3651 460.767 21.37C460.51 21.375 460.327 21.3914 460.199 21.4392C460.077 21.4853 460.165 21.5132 460.435 21.5495C460.726 21.589 460.997 21.64 461.274 21.6861C461.497 21.6795 461.72 21.6663 461.937 21.668C462.031 21.668 462.119 21.6976 462.214 21.7141C462.484 21.7618 462.734 21.8096 463.12 21.7832C463.445 21.7602 463.789 21.7552 464.121 21.7404C464.581 21.7223 464.581 21.7223 465.324 21.826C465.514 21.8524 465.717 21.8507 465.96 21.8359C466.17 21.8244 466.386 21.8474 466.535 21.8968C466.596 21.9165 466.576 21.9495 466.447 22.0581C466.447 22.1388 466.589 22.1026 466.636 22.0499C466.711 21.9742 466.569 21.9495 466.298 21.9906C466.109 22.0203 466.014 22.0631 466.062 22.0976C466.089 22.1157 466.217 22.1388 466.447 22.0581C467.042 21.9594 467.495 21.9478 467.928 21.9215C468.185 21.9067 468.347 21.9132 468.55 21.956C468.794 22.0071 469.037 22.0614 469.436 22.0351C469.869 22.0054 470.329 22.0021 470.768 21.9774C471.174 21.9544 471.384 22.0268 471.641 22.0696C471.952 22.1207 472.296 22.0631 472.58 22.0927C472.878 22.1223 473.088 22.1947 473.432 22.2079C473.933 22.1635 474.251 22.2458 474.629 22.3001C474.927 22.3413 475.279 22.305 475.596 22.2869C475.955 22.2672 476.252 22.2853 476.503 22.3445C476.787 22.412 477.105 22.3972 477.429 22.3824C478.186 22.3495 478.213 22.3445 478.653 22.4351C478.971 22.5009 479.275 22.4713 479.593 22.4631C479.87 22.5075 480.141 22.5552 480.432 22.5947C480.506 22.6046 480.648 22.5882 480.763 22.5832C481.094 22.5701 481.432 22.5569 481.764 22.5437C481.987 22.5355 482.224 22.5108 482.426 22.5207C482.629 22.5322 482.798 22.5799 482.981 22.6112C483.164 22.6425 483.353 22.6738 483.529 22.7067C483.799 22.7561 484.056 22.7972 484.435 22.7725C484.759 22.7511 485.098 22.7446 485.436 22.7297C485.862 22.7116 485.848 22.7166 486.639 22.8153C487.065 22.8697 487.505 22.8038 487.938 22.7972C488.154 22.7939 488.364 22.8121 488.513 22.8598C488.573 22.8795 488.553 22.9125 488.573 22.9404C487.458 22.9849 486.335 23.0227 485.233 23.0771C484.807 23.0985 484.584 23.0392 484.354 22.9898C483.975 22.9108 483.475 23.026 483.116 22.924C482.9 22.8631 482.589 22.8285 482.217 22.8581C482 22.8746 481.77 22.8729 481.547 22.8878C480.979 22.924 480.459 22.9256 480.005 22.812C479.85 22.7725 479.627 22.7511 479.465 22.7133C479.275 22.6721 479.093 22.6491 478.869 22.6573C477.862 22.6968 476.861 22.7363 475.86 22.7791C475.772 22.7824 475.684 22.8071 475.61 22.8252C475.421 22.8713 475.481 22.9075 475.786 22.9372C475.887 22.947 475.968 22.9684 476.063 22.9849C476.246 23.0162 476.415 23.0655 476.618 23.0771C476.82 23.0886 477.057 23.0655 477.28 23.0573C477.504 23.0491 477.74 23.0244 477.943 23.0343C478.146 23.0458 478.315 23.0935 478.504 23.1232C478.592 23.138 478.7 23.1627 478.788 23.161C479.235 23.1511 479.674 23.133 480.121 23.1182C480.398 23.1627 480.634 23.2269 480.966 23.2417C481.175 23.2516 481.399 23.2334 481.615 23.2367C481.71 23.2384 481.831 23.2631 481.879 23.2845C481.906 23.2977 481.818 23.3306 481.75 23.347C481.493 23.4096 481.142 23.3981 480.824 23.4178C480.479 23.4392 480.168 23.4326 479.904 23.3684C479.728 23.3256 479.532 23.3026 479.316 23.3108C478.754 23.3322 478.2 23.3569 477.639 23.375C477.544 23.3783 477.429 23.3635 477.341 23.352C476.631 23.2516 476.631 23.2483 476.131 23.2697C475.394 23.301 475.394 23.3009 474.9 23.2137C474.805 23.1972 474.704 23.166 474.623 23.1676C473.838 23.194 473.061 23.2203 472.283 23.2581C472.026 23.2697 471.85 23.2697 471.661 23.2269C471.499 23.1907 471.309 23.1495 471.106 23.1396C470.897 23.1297 470.667 23.1544 470.444 23.1627C470.22 23.1709 469.984 23.1923 469.788 23.1791C469.585 23.166 469.409 23.1199 469.233 23.087C469.051 23.0524 468.854 23.054 468.604 23.0672C467.833 23.105 467.827 23.1001 467.062 22.9981C466.975 22.9865 466.86 22.9734 466.765 22.9767C466.204 22.9964 465.649 23.0211 465.088 23.0409C464.871 23.0491 464.662 23.0277 464.513 22.98C464.452 22.9602 464.473 22.9273 464.432 22.8631C464.385 22.8482 464.439 22.8746 464.452 22.8993C464.554 22.896 464.675 22.8993 464.75 22.8861C464.939 22.8548 465.034 22.8137 464.986 22.7791C464.959 22.761 464.831 22.738 464.75 22.738C464.601 22.738 464.473 22.7742 464.432 22.8631C464.006 22.9174 463.553 22.9289 463.113 22.9553C462.856 22.9717 462.694 22.9635 462.491 22.9207C462.248 22.868 461.997 22.817 461.598 22.8433C461.166 22.8729 460.706 22.8779 460.259 22.9009C459.746 22.9273 459.522 22.7791 459.09 22.7824C458.643 22.7857 458.197 22.8137 457.751 22.8334C457.358 22.8499 457.358 22.8499 456.547 22.7429C456.249 22.7034 455.898 22.761 455.607 22.7199C455.411 22.6935 455.242 22.654 455.053 22.626C454.971 22.6145 454.843 22.6145 454.741 22.6178C454.18 22.6375 453.612 22.6507 453.071 22.6869C452.456 22.7297 451.989 22.6836 451.55 22.5865C450.995 22.6046 450.434 22.6145 449.886 22.6458C449.487 22.6688 449.257 22.6145 448.987 22.5701C448.892 22.5553 448.811 22.5306 448.71 22.524C448.608 22.5174 448.486 22.5305 448.378 22.5355C447.932 22.5536 447.472 22.5618 447.039 22.5915C446.505 22.6293 446.302 22.4943 445.89 22.4779C445.612 22.5585 445.464 22.6688 444.916 22.6771C444.47 22.6836 444.023 22.71 443.577 22.7281C443.354 22.7363 443.131 22.7462 442.907 22.7544C442.549 22.7692 442.38 22.8334 442.454 22.9322C442.495 22.9865 442.529 23.0409 442.563 23.0952C442.63 23.1923 442.461 23.2746 442.177 23.2861C441.393 23.3174 440.615 23.3503 439.831 23.3783C439.621 23.3865 439.418 23.3585 439.249 23.3141C439.073 23.2697 438.877 23.2499 438.661 23.2581C437.876 23.2894 437.099 23.3223 436.314 23.3503C436.226 23.3536 436.111 23.3372 436.023 23.324C435.834 23.2944 435.651 23.2598 435.469 23.2285C435.023 23.2433 434.583 23.2532 434.143 23.273C433.433 23.3026 433.433 23.3042 432.913 23.2137C432.818 23.1972 432.723 23.166 432.635 23.1676C432.297 23.1742 431.966 23.1907 431.628 23.2055C430.634 23.2483 430.634 23.2483 430.343 23.1989C430.079 23.1528 429.843 23.0968 429.444 23.1232C429.011 23.1528 428.551 23.1627 428.105 23.1791C427.773 23.1907 427.442 23.2038 427.111 23.2071C427.023 23.2088 426.928 23.1775 426.833 23.161C426.563 23.11 426.299 23.0688 425.927 23.0968C425.711 23.1133 425.481 23.1166 425.258 23.1248C424.676 23.1479 424.676 23.1478 423.723 23.0491C423.628 23.0392 423.513 23.0277 423.418 23.0326C422.634 23.0623 421.856 23.0952 421.072 23.1232C420.977 23.1265 420.862 23.1166 420.768 23.1083C419.699 23.0129 419.699 23.0129 418.563 23.059C418.13 23.0754 418.117 23.082 417.664 22.9948C417.461 22.9569 417.292 22.9388 417.055 22.9503C416.162 22.9898 415.263 23.0162 414.377 23.0623C413.978 23.082 413.748 23.0326 413.478 22.9882C413.383 22.9734 413.282 22.9405 413.201 22.9421C412.308 22.9734 411.415 23.0112 410.523 23.0425C410.441 23.0458 410.34 23.0129 410.245 22.9981C410.063 22.9684 409.887 22.924 409.684 22.9141C409.474 22.9042 409.245 22.9289 409.015 22.9372C408.453 22.9586 408.453 22.9569 407.804 22.8598C407.716 22.8466 407.601 22.8285 407.513 22.8318C406.621 22.8647 405.721 22.8927 404.836 22.9404C404.328 22.9668 403.983 22.919 403.625 22.8499C403.551 22.8351 403.422 22.8285 403.328 22.8318C402.32 22.8697 401.319 22.9125 400.312 22.9503C400.102 22.9585 399.899 22.9306 399.73 22.8878C399.459 22.8203 399.142 22.8285 398.804 22.8433C398.026 22.8779 398.019 22.8762 397.559 22.7972C397.465 22.7808 397.383 22.7594 397.282 22.7511C397.187 22.7429 397.066 22.7478 396.964 22.7511C396.518 22.7676 396.072 22.7857 395.625 22.8038C395.179 22.8219 394.726 22.8318 394.286 22.8598C393.745 22.8944 393.488 22.7873 393.11 22.738C392.555 22.7594 391.987 22.7725 391.439 22.8071C391.02 22.8334 390.824 22.761 390.547 22.7231C390.452 22.71 390.351 22.682 390.263 22.6853C389.255 22.7215 388.248 22.761 387.247 22.8055C387.003 22.8153 386.841 22.8022 386.638 22.7627C386.185 22.6738 386.165 22.6771 385.407 22.71C385.076 22.7248 384.758 22.738 384.474 22.6705C384.224 22.6096 383.92 22.5947 383.561 22.6145C383.122 22.6392 382.669 22.6524 382.222 22.6688C381.776 22.6869 381.33 22.7116 380.883 22.7199C380.525 22.7281 380.309 22.6507 380.025 22.6112C379.937 22.5997 379.815 22.598 379.714 22.6013C379.267 22.6161 378.807 22.6277 378.375 22.6557C377.847 22.6902 377.556 22.5997 377.184 22.547C377.103 22.5355 376.968 22.5421 376.866 22.547C376.082 22.5767 375.304 22.6096 374.52 22.6408C374.243 22.5964 373.959 22.5536 373.681 22.5092C373.235 22.5256 372.789 22.5437 372.343 22.5602C372.004 22.5734 371.66 22.5783 371.342 22.603C370.929 22.6359 370.726 22.5585 370.449 22.5207C370.354 22.5075 370.253 22.4795 370.165 22.4828C369.604 22.5009 369.043 22.5207 368.488 22.5487C367.961 22.5767 367.751 22.4285 367.318 22.4301C366.872 22.4318 366.412 22.4532 365.979 22.4828C365.479 22.5174 365.127 22.4647 364.769 22.3939C364.694 22.3791 364.566 22.3709 364.471 22.3742C363.91 22.3939 363.355 22.4186 362.794 22.4384C362.7 22.4417 362.585 22.4334 362.49 22.4236C361.422 22.3264 361.421 22.3248 360.955 22.3445C360.624 22.3577 360.285 22.3742 359.947 22.3824C359.853 22.3857 359.738 22.3709 359.65 22.3577C358.946 22.2573 358.946 22.2557 358.439 22.2754C357.993 22.2935 357.547 22.3116 357.1 22.3297C356.823 22.2853 356.539 22.2425 356.262 22.198C355.707 22.2194 355.139 22.2359 354.591 22.2655C354.334 22.2787 354.165 22.2738 353.969 22.2326C353.726 22.1832 353.482 22.1256 353.077 22.1536C352.644 22.1832 352.184 22.1865 351.745 22.2112C351.217 22.2408 351.001 22.091 350.575 22.0927C350.128 22.0943 349.669 22.1157 349.236 22.1454C348.735 22.1799 348.384 22.1273 348.025 22.0565C347.951 22.0417 347.822 22.0334 347.728 22.0367C346.497 22.0845 345.273 22.1322 344.042 22.1832C343.285 22.2145 343.285 22.2161 341.845 22.1256C341.743 22.119 341.635 22.1124 341.533 22.1157C341.087 22.1306 340.627 22.1421 340.194 22.17C339.667 22.2046 339.376 22.1157 339.004 22.0614C338.923 22.0499 338.795 22.0565 338.686 22.0598C338.348 22.0713 338.017 22.0861 337.679 22.0993C337.233 22.1174 336.786 22.1355 336.34 22.1536C336.063 22.1108 335.779 22.0663 335.501 22.0235C334.947 22.0449 334.379 22.0565 333.831 22.091C333.412 22.1174 333.216 22.0482 332.938 22.0087C332.844 21.9956 332.742 21.9676 332.655 21.9692C331.647 22.0054 330.639 22.0433 329.639 22.0894C329.226 22.1091 329.037 22.0351 328.759 21.9972C328.665 21.9857 328.557 21.9643 328.469 21.9676C327.799 21.9906 327.13 22.0186 326.46 22.0466C326.082 22.0631 326.082 22.063 325.257 21.961C325.162 21.9495 325.054 21.9379 324.959 21.9412C322.836 22.0235 320.719 22.1108 318.596 22.1931C318.379 22.2013 318.183 22.1766 318.014 22.1322C317.838 22.0877 317.642 22.0647 317.426 22.0729C316.533 22.1075 315.634 22.1388 314.748 22.1816C314.383 22.1997 314.092 22.1783 313.842 22.1207C313.652 22.0779 313.477 22.0614 313.24 22.0713C312.794 22.091 312.347 22.1075 311.901 22.1256C311.455 22.1437 311.008 22.1618 310.562 22.1799C310.116 22.198 309.663 22.2079 309.223 22.2359C308.682 22.2705 308.418 22.1684 308.046 22.1174C307.377 22.1421 306.707 22.1668 306.045 22.1931C305.152 22.2277 304.259 22.2655 303.367 22.2985C303.286 22.3017 303.184 22.2721 303.09 22.2573C302.812 22.2161 302.609 22.1585 302.197 22.1766C300.195 22.2639 298.18 22.338 296.172 22.4236C295.753 22.4417 295.57 22.3709 295.286 22.333C295.191 22.3215 295.083 22.2985 294.995 22.3017C293.879 22.3429 292.764 22.389 291.648 22.4334C291.195 22.4515 291.195 22.4515 290.437 22.3495C290.349 22.3379 290.234 22.3231 290.14 22.3264C288.686 22.3824 287.239 22.4417 285.785 22.4993C285.568 22.5075 285.372 22.4845 285.197 22.44C285.027 22.3956 284.825 22.3709 284.615 22.3791C283.276 22.4318 281.93 22.4828 280.598 22.5404C280.24 22.5569 279.942 22.5421 279.685 22.4828C279.503 22.44 279.32 22.4219 279.09 22.4318C277.082 22.5124 275.073 22.5898 273.065 22.6754C272.679 22.6919 272.409 22.6606 272.166 22.6063C271.969 22.5635 271.8 22.5552 271.557 22.5618C271.3 22.5701 271.144 22.5882 271.002 22.6375C270.82 22.7017 270.705 22.7824 270.272 22.7873C269.826 22.7923 269.373 22.8121 268.933 22.84C268.514 22.868 268.318 22.7939 268.054 22.7495C267.858 22.7182 267.675 22.7133 267.425 22.7281C267.195 22.7413 267.053 22.7692 266.918 22.8219C266.62 22.9338 266.593 22.9338 266.228 22.8631C266.032 22.8252 265.856 22.7956 265.64 22.8022C264.747 22.8351 263.855 22.8713 262.962 22.9092C262.448 22.9306 262.441 22.9339 262.056 22.8516C261.867 22.8104 261.684 22.7906 261.461 22.8005C259.006 22.8993 256.551 22.9948 254.097 23.0985C253.718 23.1149 253.461 23.0804 253.19 23.031C253.103 23.0145 253.015 22.9915 252.913 22.9849C252.812 22.9783 252.697 22.9849 252.589 22.9882C250.803 23.059 249.011 23.1265 247.233 23.2055C246.827 23.2236 246.611 23.1709 246.334 23.1281C246.239 23.1133 246.158 23.0902 246.056 23.0837C245.955 23.0787 245.833 23.0902 245.725 23.0952C243.94 23.166 242.148 23.2335 240.369 23.3125C239.943 23.3306 239.76 23.2614 239.483 23.2252C239.389 23.2121 239.287 23.1874 239.199 23.1906C238.638 23.2088 238.083 23.2334 237.522 23.2548C236.183 23.3092 234.844 23.3602 233.505 23.4162C232.991 23.4376 232.768 23.2911 232.335 23.2976C231.774 23.3059 231.22 23.3388 230.658 23.3618C230.212 23.38 229.766 23.3964 229.319 23.4162C228.88 23.4343 228.88 23.4343 227.784 23.3388C227.69 23.3306 227.575 23.319 227.48 23.3223C225.918 23.3832 224.349 23.4442 222.794 23.51C222.435 23.5248 222.138 23.5166 221.881 23.4557C221.698 23.4129 221.509 23.3915 221.286 23.4014C218.939 23.4952 216.599 23.589 214.253 23.6812C214.165 23.6845 214.05 23.668 213.962 23.6549C213.773 23.6252 213.59 23.5907 213.408 23.5594C213.272 23.5973 213.097 23.6318 213.009 23.6746C212.887 23.7322 212.725 23.7487 212.468 23.7586C212.211 23.7684 212.049 23.7652 211.846 23.7224C211.602 23.6697 211.352 23.6285 210.953 23.645C208.498 23.7487 206.043 23.8425 203.589 23.9446C203.183 23.961 202.994 23.8886 202.71 23.8507C202.615 23.8392 202.507 23.8211 202.419 23.8244C201.411 23.8623 200.41 23.9034 199.403 23.9429C196.61 24.0549 193.817 24.1619 191.031 24.2804C190.524 24.3018 190.179 24.2606 189.821 24.1899C189.746 24.175 189.618 24.1668 189.523 24.1701C185.615 24.3248 181.706 24.4812 177.804 24.6376C177.594 24.6458 177.391 24.6195 177.222 24.5767C177.047 24.5322 176.851 24.5109 176.634 24.5191C174.849 24.5899 173.064 24.6607 171.279 24.7331C170.832 24.7512 170.825 24.7528 170.366 24.6738C170.271 24.6574 170.169 24.6261 170.095 24.6294C169.94 24.6376 169.791 24.6787 169.683 24.7347C169.574 24.794 169.405 24.8104 169.155 24.822C168.898 24.8335 168.729 24.8286 168.533 24.7891C168.283 24.7397 168.053 24.6919 167.647 24.7084C162.514 24.9191 157.382 25.1216 152.249 25.3306C151.837 25.3471 151.647 25.278 151.363 25.2401C151.269 25.2286 151.174 25.2121 151.073 25.2088C150.964 25.2055 150.849 25.2154 150.741 25.2203C142.369 25.5545 133.998 25.8903 125.626 26.2245C125.126 26.2442 125.132 26.2442 124.585 26.3957C124.517 26.4138 124.429 26.4385 124.334 26.4418C121.771 26.5471 119.202 26.6492 116.632 26.7512C115.516 26.7957 114.401 26.8418 113.285 26.8846C112.886 26.8994 112.886 26.8994 111.932 27.0772C111.851 27.092 111.756 27.1117 111.662 27.115C107.199 27.2945 102.735 27.4739 98.2656 27.65C97.9139 27.6632 97.6299 27.6928 97.4676 27.7718C97.3527 27.8278 97.2039 27.8607 96.9808 27.8706C93.8566 27.9957 90.7325 28.1225 87.6015 28.2443C87.2296 28.2591 87.0063 28.3052 86.8238 28.3743C86.7629 28.3974 86.7088 28.4237 86.6208 28.4402C86.5397 28.455 86.418 28.4599 86.3166 28.4649C83.6387 28.5719 80.9609 28.6822 78.2763 28.7842C77.8773 28.799 77.7149 28.8599 77.5188 28.9241C77.4512 28.9455 77.4038 28.9752 77.3159 28.99C77.228 29.0032 77.0995 29.0032 76.9913 29.0064C74.7597 29.0953 72.5282 29.1859 70.2967 29.2748C69.8639 29.2665 69.7692 29.362 69.5595 29.4196C69.4851 29.4394 69.4312 29.4657 69.3433 29.4789C69.2486 29.4921 69.1267 29.4904 69.0117 29.4937C67.2265 29.5645 65.4413 29.6402 63.6493 29.7061C63.2368 29.7209 63.1556 29.8048 62.9324 29.8624C62.858 29.8805 62.7837 29.9085 62.6958 29.9135C61.5801 29.9612 60.4643 30.0056 59.3485 30.0484C58.9766 30.0633 58.9766 30.0616 58.3206 30.2246C58.2462 30.2427 58.1582 30.2624 58.0636 30.2674C56.3933 30.3365 54.7163 30.4024 53.0392 30.4699C52.8228 30.4781 52.6741 30.5176 52.5659 30.5736C52.4577 30.6295 52.3022 30.6657 52.0858 30.674C50.7468 30.7283 49.4078 30.7843 48.0688 30.8336C47.6969 30.8468 47.4535 30.888 47.2912 30.9621C47.1695 31.018 47.0208 31.046 46.7841 31.0559C45.4451 31.1085 44.1062 31.1662 42.7605 31.2123C42.3683 31.2254 42.1654 31.2814 42.0031 31.3505C41.8746 31.4065 41.7258 31.4263 41.4756 31.4361C39.0209 31.5316 36.5594 31.6271 34.1115 31.7324C33.699 31.7505 33.4893 31.6929 33.2188 31.6518C32.8334 31.5942 32.4751 31.5316 32.4751 31.4032C32.4751 31.3834 32.3601 31.3604 32.2789 31.3439C31.6771 31.2205 31.6771 31.2205 31.5824 31.0888C31.5283 31.0081 31.4674 30.9258 31.4201 30.8435C31.3322 30.7086 31.1157 30.674 30.4936 30.6987C30.2704 30.7069 30.0473 30.7184 29.8241 30.725C29.4928 30.7365 29.2426 30.6822 29.1817 30.5834C29.1479 30.5291 29.1074 30.4748 29.0736 30.4205C29.4117 30.4073 29.4049 30.4057 29.9999 30.2065C30.2501 30.1225 30.2502 30.1225 29.7701 30.0386C29.5875 30.0073 29.4117 29.9727 29.2156 29.9431C29.1277 29.9299 29.0127 29.9217 28.9181 29.925C28.3568 29.9447 27.8023 29.9678 27.2478 29.9908C26.3552 30.027 26.3551 30.027 25.4489 29.8591C25.3745 29.846 25.2596 29.8213 25.2731 29.8081C25.3475 29.7472 25.53 29.7209 25.7599 29.7143C26.0981 29.7044 26.4294 29.6879 26.7608 29.6748C26.9839 29.6665 27.2071 29.6567 27.4302 29.6484C27.6399 29.5859 27.8564 29.525 28.0525 29.4608C28.3635 29.362 28.3634 29.3587 27.9374 29.2896C27.6669 29.2435 27.3761 29.2023 27.0989 29.1595C26.7675 29.1727 26.4294 29.1875 26.0981 29.199C25.6788 29.2138 25.5097 29.1826 25.4015 29.0756C25.3069 28.9817 25.4218 28.9011 25.7464 28.8813C26.0778 28.8616 26.389 28.8484 26.558 28.7645C26.7203 28.6838 27.0043 28.6525 27.3559 28.6459C27.5791 28.641 27.8022 28.6295 28.0254 28.6196C28.3162 28.6064 28.4718 28.5225 28.4109 28.4286C28.3771 28.3677 28.3094 28.3167 28.0457 28.3035C26.8758 28.2459 26.8622 28.2476 26.2807 28.1356C26.2266 28.1258 26.1861 28.0961 26.2064 28.0813C26.2402 28.0566 26.3146 28.0204 26.3957 28.0155C27.1734 27.9793 27.951 27.9463 28.7287 27.9216C28.9857 27.9134 29.175 27.9019 29.263 27.841C29.3847 27.757 29.3306 27.6797 29.0939 27.622C29.0195 27.6039 28.8977 27.5809 28.8165 27.5825C27.9239 27.6122 27.0381 27.65 26.1454 27.6797C26.0643 27.6829 25.9156 27.655 25.8818 27.6336C25.8142 27.5941 25.9155 27.5414 26.1522 27.5233C26.4633 27.4986 26.7811 27.4969 26.9907 27.4146C27.2815 27.2978 27.6399 27.1908 27.9645 27.0788C28.0186 27.0591 28.1066 27.0212 28.0863 27.0179C27.9173 26.9817 27.7211 26.9537 27.5453 26.9191C27.2478 26.8615 27.2477 26.7809 27.3153 26.7035C27.3694 26.641 27.5723 26.6163 27.8225 26.6163C27.9307 26.6163 28.0659 26.6163 28.1538 26.6014C28.3838 26.5652 28.4582 26.5191 28.3432 26.4846C28.2756 26.4648 28.1539 26.4368 28.0728 26.4401C26.6256 26.4945 25.1716 26.5471 23.7313 26.6146C23.3052 26.6344 23.1092 26.5718 22.8523 26.5274C22.6562 26.4928 22.4735 26.4796 22.23 26.5043C22.0001 26.5274 21.777 26.5142 21.635 26.4599C21.5201 26.4154 21.7229 26.3776 22.2706 26.3348C22.3721 26.3265 22.487 26.3216 22.5614 26.3051C23.3458 26.1274 23.3458 26.1257 23.8868 26.1027C24.4142 26.0813 24.4144 26.0796 24.6916 25.9841C24.8201 25.9397 24.962 25.8952 25.0837 25.8492C25.1311 25.831 25.2123 25.7981 25.1852 25.7882C25.0365 25.7372 24.8335 25.7257 24.5968 25.7372C24.0694 25.7652 23.4473 25.7422 23.1701 25.8985C23.0619 25.9578 22.8928 25.9743 22.6494 25.9841C20.2014 26.0796 17.7534 26.1817 15.2987 26.2739C14.8997 26.2887 14.7172 26.3496 14.5617 26.4171C14.4264 26.473 14.2776 26.4895 14.0206 26.4994C13.7637 26.5093 13.5607 26.5142 13.4119 26.4599C13.324 26.427 13.3984 26.3809 13.6013 26.3348C13.8921 26.2689 13.838 26.1866 13.7433 26.1093C13.6757 26.0582 13.466 26.022 13.2429 26.0253C12.9115 26.0319 12.5938 26.05 12.3165 25.9841C12.1542 25.9463 11.9513 25.9199 11.7687 25.887C11.4171 25.8195 11.0654 25.7504 10.5718 25.7948C10.2337 25.7784 9.997 25.7191 9.72651 25.673C9.27343 25.5973 9.23286 25.5858 9.55745 25.5051C9.92262 25.4146 9.63854 25.296 9.84141 25.2072C10.0578 25.1117 10.3554 25.0277 10.6192 24.9389C10.6868 24.9158 10.7477 24.8944 10.8153 24.8714C10.6598 24.8384 10.5178 24.7973 10.3352 24.7742C10.0985 24.7446 9.97681 24.7084 9.99033 24.6063C9.94299 24.5915 9.96314 24.6294 10.0172 24.6392C10.0781 24.6491 10.227 24.6409 10.3014 24.6294C10.4907 24.5981 10.5853 24.5569 10.538 24.5224C10.5109 24.5043 10.3825 24.4812 10.3014 24.4812C10.1526 24.4812 10.0241 24.5174 9.98356 24.6063C9.22618 24.6738 8.44163 24.7068 7.6572 24.7331C7.57605 24.7364 7.47467 24.7035 7.38 24.687C7.06893 24.631 7.06889 24.6327 6.15598 24.6162C6.06131 24.6146 5.93289 24.5915 5.88555 24.5685C5.68945 24.4681 5.69626 24.3578 5.60159 24.2508C5.77741 24.1816 5.95309 24.1141 6.13567 24.0466C6.50084 23.91 6.97431 23.7899 7.25833 23.6401C7.19746 23.5594 7.1163 23.4787 7.41385 23.4129C8.25914 23.3306 8.25243 23.3306 8.48235 23.2516C9.13829 23.0277 9.78743 22.8022 10.4704 22.5816C10.653 22.524 10.653 22.4927 10.3284 22.468C10.227 22.4614 10.1187 22.4598 10.0105 22.4631C9.67236 22.4746 9.33425 22.5042 9.00289 22.4976C8.67154 22.4927 8.4281 22.4203 8.1576 22.3758C7.88035 22.3297 7.60311 22.282 7.32585 22.2343C7.00802 22.2392 6.69025 22.2853 6.37242 22.2112C6.12898 22.1536 5.82469 22.1124 5.54744 22.0647C5.75707 21.9396 6.14934 21.8441 6.45365 21.7338C6.7309 21.6334 6.73751 21.6351 7.48137 21.5577C7.83301 21.5215 7.95474 21.3355 7.6572 21.2811C7.29879 21.2153 6.92018 21.1544 6.55502 21.0918C6.23719 21.0968 5.91266 21.1412 5.60836 21.0671C5.37168 21.0112 5.10113 20.9733 4.70892 20.9947C4.04621 21.0309 3.37 21.049 2.70053 21.0787C2.47061 21.0885 2.22033 21.082 2.11889 21.026C2.05127 20.9865 2.24739 20.9322 2.47055 20.9206C2.80866 20.9042 3.11294 20.8844 3.28199 20.8021C3.44429 20.7198 3.7418 20.6951 4.09344 20.6836C4.18811 20.6803 4.29639 20.6605 4.34372 20.6408C4.58717 20.5453 4.85768 20.463 5.37838 20.4663C5.59477 20.4334 5.70966 20.3922 5.64204 20.3527C5.60146 20.3313 5.45953 20.3033 5.37838 20.3066C4.81711 20.3231 4.25585 20.3396 3.70811 20.3692C3.45114 20.3824 3.25492 20.3856 3.09263 20.3363C2.97767 20.3033 3.03852 20.2589 3.25492 20.2111C3.44426 20.17 3.49842 20.1223 3.4849 20.0663C3.45109 19.9362 3.24818 19.8984 2.59899 19.9066C2.13239 19.9132 2.01743 19.8918 1.91599 19.7799C1.88894 19.7535 1.82144 19.7173 1.86877 19.6992C2.15955 19.5873 2.34891 19.449 2.89666 19.3963C3.11305 19.3766 3.34288 19.3766 3.47813 19.3338C3.61337 19.291 3.73516 19.2416 3.87716 19.2004C4.05298 19.151 4.17459 19.105 4.09344 19.0737C3.95819 19.0177 3.74187 19.0128 3.49167 19.0325C3.27527 19.049 3.04536 19.0506 2.8222 19.0605C2.42323 19.0786 2.09871 19.0358 2.05137 18.9634C1.92289 18.7724 1.7876 18.5831 1.67264 18.3922C1.65912 18.3691 1.69283 18.3395 1.74693 18.3197C1.93628 18.2506 2.13923 18.1848 2.33533 18.1173C2.56525 18.0399 2.93048 18.0547 3.24155 18.0399C3.6811 18.0185 3.68094 18.0201 4.26927 17.8621C4.49919 17.7996 4.89818 17.8243 5.13486 17.7683C5.20925 17.7502 5.32421 17.7206 5.30392 17.7041C5.27687 17.6827 5.1417 17.6662 5.04026 17.6563C4.94559 17.6465 4.83066 17.6415 4.72922 17.6465C3.49848 17.6942 2.27453 17.7452 1.04379 17.7913C0.834159 17.7996 0.604233 17.7634 0.529847 17.7123C0.455462 17.6646 0.475683 17.607 0.462158 17.5526C0.658266 17.4851 0.881336 17.4226 1.05039 17.3502C1.17888 17.2942 1.32768 17.2695 1.58464 17.2662C1.92276 17.2613 2.25415 17.2415 2.63284 17.2267C3.33612 16.9864 4.02583 16.7345 4.78321 16.4942C5.08751 16.3971 5.01325 16.2983 5.07411 16.1946C5.13497 16.0991 5.58802 16.1139 5.89232 16.0859C6.13577 16.0629 6.21681 16.0102 6.12214 15.974C6.06804 15.9526 5.94638 15.9279 5.85171 15.9279C5.62855 15.9279 5.4054 15.9427 5.18225 15.951C4.95909 15.9592 4.70213 15.9543 4.51955 15.9822C4.34373 16.0086 4.22871 16.0645 4.11375 16.1123C3.98526 16.1649 3.81632 16.1831 3.55935 16.1864C3.228 16.1897 2.89667 16.2045 2.56531 16.216C2.20015 16.1518 1.82138 16.0892 1.46974 16.0217C1.40211 16.0086 1.38852 15.9707 1.39528 15.946C1.4088 15.8818 1.3074 15.8423 1.08424 15.811C0.894894 15.7847 0.739347 15.7468 0.563527 15.7139C0.698773 15.6695 0.847597 15.6267 0.955795 15.5789C1.19248 15.4785 1.49005 15.4061 2.00399 15.4094C2.20686 15.3452 2.36911 15.2662 2.63284 15.2217C2.88304 15.1789 3.30909 15.2217 3.49843 15.1246C3.59311 15.0769 3.7352 15.0225 3.91778 15.0028C4.20856 14.9715 4.58724 14.988 4.7563 14.8958C4.85773 14.8431 5.00645 14.7954 5.20255 14.7822C5.42571 14.7674 5.65557 14.7641 5.81786 14.7328C5.90578 14.7164 6.00046 14.69 6.00046 14.667C6.00046 14.6522 5.86532 14.6291 5.77065 14.6192C5.68274 14.6077 5.56765 14.5995 5.46621 14.6028C5.12809 14.6127 4.79675 14.6308 4.45863 14.6406C4.36396 14.6439 4.25579 14.6324 4.15436 14.6225C3.85682 14.5962 3.87707 14.5633 4.11375 14.504C4.35043 14.4464 4.51958 14.3723 4.71569 14.3048C4.93208 14.2933 5.20253 14.2982 5.3513 14.267C5.60151 14.2159 5.77728 14.1419 5.98015 14.0777C6.20331 14.0678 6.43322 14.0645 6.64285 14.0464C6.73076 14.0398 6.77137 14.0036 6.84575 13.9822C6.981 13.941 7.09605 13.8818 7.27863 13.862C7.57617 13.8324 7.94133 13.8439 8.11715 13.7534C8.21859 13.7007 8.37406 13.6447 8.56341 13.6414C9.09087 13.6349 9.31403 13.5443 9.58453 13.4587C9.78739 13.3945 10.2202 13.4274 10.4434 13.3632C10.5921 13.3221 10.7004 13.271 10.8492 13.2315C10.91 13.2151 11.0385 13.2069 11.1399 13.2019C11.6944 13.1772 12.2557 13.1591 12.8102 13.1328C12.8981 13.1278 12.9793 13.1032 13.0469 13.0834C13.1889 13.0406 13.2767 12.9813 13.4526 12.9534C13.6284 12.9254 13.8785 12.9254 14.0949 12.9171C14.7915 12.8925 14.8456 12.899 15.1634 12.7591C15.4204 12.6455 16.0494 12.7262 16.259 12.6011C16.3807 12.5286 16.6038 12.4694 17.0028 12.4612C17.564 12.4496 18.1185 12.4184 18.6798 12.397C19.1802 12.3772 19.1735 12.3772 19.7145 12.2241C19.9579 12.155 20.3164 12.1649 20.6342 12.1517C20.9723 12.1385 21.2834 12.1188 21.4457 12.0365C21.608 11.9558 21.9055 11.9295 22.2503 11.9179C22.5682 11.9064 22.9267 11.9146 23.1769 11.8488C23.7855 11.6908 23.7787 11.6891 24.2047 11.6727C24.8742 11.6463 25.5437 11.62 26.2131 11.592C26.6594 11.5739 27.126 11.5706 27.5453 11.5344C27.8496 11.508 27.9848 11.4159 28.1809 11.3517C28.7354 11.327 29.2899 11.3023 29.8444 11.2792C30.6221 11.2463 31.4065 11.2167 32.1909 11.1854C32.529 11.1229 32.5765 10.9846 33.1445 10.978C33.4826 10.9747 33.814 10.9533 34.1521 10.9401C34.7134 10.9171 35.2679 10.8875 35.8291 10.8759C36.2552 10.8677 36.3294 10.7788 36.5526 10.7228C36.627 10.7031 36.6947 10.6751 36.7826 10.6702C37.6617 10.6241 38.5678 10.6142 39.4266 10.5467C39.5145 10.5401 39.5957 10.5056 39.6159 10.4809C39.6295 10.4677 39.5145 10.443 39.4401 10.4315C39.3522 10.4183 39.2373 10.4051 39.1426 10.4084C36.3498 10.5187 33.557 10.6307 30.7642 10.741C30.372 10.7574 30.372 10.7558 29.4185 10.9368C29.3373 10.9517 29.2425 10.9681 29.1411 10.9731C28.6948 10.9928 28.2417 11.0043 27.8022 11.029C27.4438 11.0488 27.1463 11.029 26.8894 10.9698C26.7068 10.927 26.5173 10.9138 26.2874 10.9171C26.0305 10.922 25.8615 10.9401 25.7127 10.9846C25.5166 11.0455 25.4152 11.1245 25.0027 11.141C23.1024 11.2117 21.2021 11.2908 19.3087 11.3665C19.0449 11.3434 18.9165 11.3089 18.9841 11.2677C19.0247 11.243 19.1058 11.2101 19.187 11.2068C19.9647 11.1722 20.7491 11.1426 21.5267 11.1097C21.6349 11.1048 21.7837 11.108 21.8445 11.0916C22.1421 11.0175 22.2504 10.8973 22.8117 10.8891C23.1363 10.8842 23.4676 10.8595 23.7786 10.8364C23.8665 10.8298 23.9477 10.7953 23.968 10.7706C23.9748 10.7574 23.8666 10.7327 23.7854 10.7212C23.4879 10.6734 23.1431 10.7311 22.8455 10.6982C22.7441 10.6866 22.602 10.6702 22.5817 10.6504C22.5682 10.6323 22.6831 10.6027 22.7643 10.5846C22.8387 10.5681 22.94 10.5533 23.0415 10.5484C23.9341 10.5105 24.8269 10.471 25.7195 10.4414C26.0847 10.4298 26.3416 10.3887 26.5039 10.313C26.6256 10.257 26.7744 10.2274 27.0043 10.2191C28.5664 10.1582 30.1284 10.0907 31.6973 10.0348C32.0895 10.0216 32.2925 9.96728 32.4547 9.89649C32.5832 9.84052 32.732 9.82077 32.9822 9.81089C35.2206 9.72529 37.4453 9.62982 39.6836 9.54751C40.0961 9.5327 40.2179 9.46191 40.4276 9.40101C40.5019 9.37961 40.5492 9.35327 40.6438 9.3401C40.7385 9.32693 40.8602 9.32856 40.9752 9.32527C42.7604 9.25449 44.5458 9.17878 46.3378 9.11293C46.7571 9.09812 46.8381 9.0158 47.0545 8.95819C47.1289 8.94008 47.1966 8.91046 47.2845 8.90552C48.6234 8.84955 49.9623 8.79688 51.3013 8.74255C52.1939 8.70634 53.0865 8.67012 53.9791 8.63555C54.4187 8.61909 54.4187 8.61743 55.0138 8.46105C55.0814 8.44294 55.1761 8.42154 55.264 8.4166C57.8337 8.31125 60.3966 8.21085 62.9663 8.10715C63.1827 8.09892 63.3382 8.06104 63.4464 8.00507C63.5546 7.9491 63.7102 7.91124 63.9199 7.90301C65.9283 7.8207 67.9366 7.74005 69.9518 7.66268C70.317 7.64951 70.5739 7.61 70.7362 7.53592C70.8579 7.47996 71.0067 7.45033 71.2366 7.4421C73.245 7.36309 75.2535 7.27912 77.2687 7.2034C77.6541 7.18859 77.8434 7.13263 78.0327 7.06678C78.1004 7.04373 78.1545 7.00587 78.2356 7.00258C79.2365 6.95649 80.2305 6.90875 81.2381 6.87747C81.6573 6.8643 81.7994 6.79516 81.9685 6.72932C82.1037 6.67664 82.2593 6.65854 82.5162 6.65195C83.0775 6.63714 83.632 6.60916 84.1797 6.58118C84.2609 6.57624 84.3624 6.54002 84.3691 6.51698C84.3826 6.47418 84.227 6.44454 83.9701 6.42973C81.2922 6.53673 78.6076 6.64372 75.9297 6.75072C75.4902 6.76882 75.4902 6.76883 74.8951 6.92522C74.8275 6.94332 74.7327 6.96473 74.638 6.96966C72.0684 7.07337 69.5055 7.17543 66.9358 7.27914C66.7194 7.28737 66.5639 7.32523 66.4557 7.3812C66.3475 7.43717 66.1919 7.47503 65.9822 7.48326C63.5275 7.58203 61.0728 7.68244 58.6114 7.77627C58.2462 7.78944 57.9893 7.82729 57.827 7.90301C57.7053 7.95898 57.5565 7.98862 57.3266 7.99685C54.9801 8.08903 52.6402 8.18615 50.2869 8.27504C50.0502 8.28327 49.8745 8.23553 49.888 8.19108C49.8948 8.16804 49.9961 8.13019 50.0772 8.1269C51.3012 8.07258 52.5186 8.0166 53.7493 7.97545C54.1618 7.96228 54.2834 7.88985 54.493 7.82894C54.5607 7.80754 54.6148 7.77956 54.7027 7.76803C54.7974 7.75487 54.9191 7.75652 55.0341 7.75323C57.9351 7.63635 60.8362 7.51783 63.744 7.40754C64.1633 7.39108 64.2443 7.31041 64.4607 7.25279C64.5351 7.23304 64.6028 7.20342 64.6907 7.20013C65.5833 7.16062 66.4759 7.12605 67.3685 7.09148C68.9306 7.02892 70.4927 6.96637 72.0616 6.90381C72.5146 6.88571 72.5146 6.8857 73.0962 6.73096C73.1638 6.71286 73.2586 6.68983 73.3465 6.68653C77.4783 6.52027 81.6101 6.35401 85.7419 6.1894C85.9583 6.18117 86.1138 6.14331 86.222 6.08734C86.3302 6.03302 86.4857 5.99351 86.6953 5.98363C92.281 5.75976 97.8599 5.53587 103.446 5.31529C103.811 5.30048 104.068 5.26591 104.23 5.18854C104.345 5.13257 104.5 5.10295 104.73 5.09307C110.871 4.8478 117.011 4.60252 123.158 4.3556C127.289 4.19099 131.421 4.02309 135.553 3.86176C135.932 3.84695 136.135 3.79591 136.324 3.72842C136.385 3.70537 136.446 3.66751 136.527 3.66422C137.413 3.62306 138.299 3.58521 139.184 3.54735C139.462 3.59179 139.739 3.6346 140.016 3.67905C140.226 3.61649 140.429 3.55229 140.638 3.48974C141.977 3.442 143.296 3.36792 144.648 3.34488C144.736 3.34323 144.831 3.37451 144.926 3.39097C145.554 3.49468 145.913 3.48645 146.312 3.34817C146.454 3.29879 146.576 3.25434 146.792 3.24611C147.461 3.21648 148.138 3.19673 148.801 3.16216C149.159 3.14405 149.456 3.16051 149.713 3.21977C149.896 3.26257 150.085 3.28069 150.309 3.27081C151.539 3.22142 152.763 3.17368 153.994 3.121C154.082 3.11771 154.163 3.08972 154.231 3.06996C154.373 3.02717 154.494 2.98108 154.63 2.93664C154.812 2.96462 155.015 2.98603 155.164 3.02224C155.353 3.06504 155.529 3.06503 155.786 3.05351C160.695 2.85433 165.612 2.66008 170.521 2.45926C170.94 2.44279 171.123 2.51194 171.407 2.54815C171.502 2.56132 171.596 2.57778 171.698 2.58107C171.806 2.58436 171.921 2.57449 172.029 2.56955C175.714 2.4214 179.4 2.27489 183.085 2.12673C183.572 2.10698 183.572 2.10698 184.296 2.20904C184.384 2.22221 184.499 2.23703 184.593 2.23209C186.271 2.16789 187.948 2.09876 189.618 2.03291C189.834 2.02468 190.017 2.05102 190.213 2.08888C190.598 2.16295 190.625 2.16296 190.909 2.05431C191.045 2.00328 191.187 1.97199 191.41 1.95718C191.653 1.94072 191.849 1.94567 192.039 1.9753C192.309 2.01646 192.505 2.08558 192.918 2.06748C194.703 1.99011 196.495 1.92591 198.274 1.8469C198.679 1.82879 198.896 1.88476 199.166 1.92591C199.261 1.94073 199.349 1.96377 199.45 1.96871C199.552 1.97365 199.673 1.96212 199.782 1.95718C202.013 1.86829 204.251 1.78106 206.476 1.68558C206.896 1.66747 207.078 1.73824 207.362 1.77446C207.457 1.78763 207.565 1.81069 207.653 1.80739C208.992 1.75636 210.338 1.70203 211.677 1.6477C212.157 1.62795 212.157 1.6296 212.887 1.73001C212.975 1.74318 213.09 1.75635 213.185 1.75306C214.747 1.69215 216.316 1.6296 217.878 1.56704C218.358 1.54729 218.358 1.5473 219.744 1.63289C219.845 1.63948 219.954 1.64937 220.055 1.64608C221.84 1.57529 223.632 1.50615 225.418 1.43042C225.776 1.41561 226.074 1.42877 226.331 1.48803C226.513 1.53083 226.702 1.54895 226.926 1.53907C228.934 1.45841 230.949 1.38105 232.951 1.29545C233.336 1.27899 233.586 1.31519 233.857 1.36293C233.945 1.37939 234.033 1.40244 234.134 1.40902C234.236 1.41561 234.351 1.40902 234.459 1.40408C236.467 1.32342 238.482 1.2477 240.484 1.16045C240.89 1.14235 241.106 1.19831 241.377 1.23947C241.471 1.25428 241.573 1.28391 241.654 1.28227C242.438 1.25428 243.223 1.2296 244 1.18845C244.42 1.1654 244.602 1.24111 244.886 1.27732C244.981 1.28885 245.089 1.31355 245.177 1.31026C246.854 1.24606 248.531 1.17857 250.202 1.10944C250.438 1.09956 250.614 1.11436 250.803 1.15716C251.054 1.21477 251.344 1.23782 251.71 1.21971C252.487 1.18185 253.272 1.15552 254.056 1.12424C254.516 1.10614 254.516 1.10614 255.922 1.19174C256.024 1.19833 256.132 1.2082 256.233 1.2049C257.572 1.15223 258.918 1.1012 260.25 1.04359C260.609 1.02712 260.906 1.04194 261.163 1.1012C261.346 1.144 261.528 1.16211 261.758 1.15224C262.989 1.10285 264.213 1.05346 265.444 1.00408C265.89 0.985973 266.336 0.954688 266.783 0.954688C267.107 0.956334 267.344 1.03535 267.635 1.07485C267.716 1.08638 267.851 1.07322 267.959 1.06993C269.522 1.00738 271.09 0.949756 272.646 0.878972C273.051 0.860865 273.268 0.91683 273.538 0.957984C273.633 0.972799 273.734 1.00243 273.816 1.00078C274.377 0.982677 274.931 0.957983 275.493 0.936583C276.162 0.910245 276.838 0.890491 277.501 0.854276C278.042 0.824646 278.245 0.967855 278.678 0.972793C279.009 0.977732 279.347 0.949752 279.678 0.936583C280.348 0.910245 281.017 0.880618 281.687 0.857572C281.923 0.849341 282.106 0.822992 282.181 0.763731C282.194 0.752208 282.079 0.727527 282.005 0.712711C281.105 0.544806 281.105 0.544798 280.199 0.581013C279.638 0.604059 279.083 0.627109 278.522 0.646862C278.427 0.650154 278.319 0.636986 278.225 0.627109C277.954 0.599125 277.981 0.566206 278.211 0.506945C278.441 0.447684 278.617 0.375261 278.813 0.307769C279.09 0.350569 279.361 0.393353 279.638 0.436152C279.861 0.427922 280.084 0.418059 280.307 0.409829C281.423 0.367029 282.539 0.32258 283.655 0.283073C283.736 0.279781 283.837 0.312708 283.932 0.32917C284.202 0.376908 284.446 0.41805 284.838 0.399942C285.839 0.352204 286.847 0.317636 287.847 0.276482C288.287 0.258375 288.287 0.258376 289.058 0.360437C289.146 0.37196 289.261 0.385129 289.355 0.381837C290.363 0.343976 291.364 0.302828 292.371 0.26332C292.588 0.25509 292.797 0.276489 292.953 0.324226C293.014 0.34398 293 0.376896 293.257 0.646862C294.055 0.865798 294.603 0.842763 295.157 0.82301C295.394 0.814779 295.604 0.80654 295.759 0.773618C295.84 0.75551 295.942 0.729168 295.942 0.707768C295.942 0.691307 295.793 0.664964 295.698 0.661672C295.029 0.628749 294.393 0.697896 293.737 0.712711C293.433 0.719296 293.169 0.661681 293.115 0.567851C293.102 0.541513 293.081 0.51353 293.061 0.487192C293.041 0.460854 293.027 0.432871 293.007 0.406533C292.743 0.398302 292.588 0.427928 292.473 0.483897C292.378 0.529988 292.243 0.582665 292.06 0.607357C291.878 0.633695 291.627 0.628765 291.404 0.636996C291.188 0.645226 290.951 0.666624 290.748 0.655101C290.546 0.641932 290.383 0.594186 290.194 0.564555C290.106 0.54974 289.998 0.528349 289.91 0.531641C289.132 0.559625 288.361 0.587599 287.59 0.623814C287.185 0.643567 286.982 0.57444 286.725 0.531641C286.522 0.498718 286.319 0.506938 286.285 0.58266C286.197 0.763735 286.508 0.839453 287.198 0.804884C287.766 0.775254 288.28 0.770331 288.726 0.882268C288.787 0.897083 288.929 0.903665 289.017 0.900373C289.572 0.880619 290.119 0.855925 290.674 0.836171C290.775 0.832879 290.884 0.839453 290.978 0.846038C292.358 0.934929 292.358 0.936584 292.824 0.91683C293.048 0.906954 293.264 0.898722 293.244 0.64851C293.67 0.38019 294.346 0.362086 295.002 0.322579C295.428 0.297887 295.61 0.37032 295.888 0.408181C295.982 0.42135 296.084 0.447683 296.172 0.444391C297.626 0.390069 299.073 0.332446 300.52 0.271539C300.763 0.261662 300.939 0.271541 301.128 0.31434C301.372 0.368662 301.642 0.403238 302.028 0.383485C302.799 0.343978 303.583 0.319291 304.368 0.286369C304.767 0.269907 304.767 0.26989 305.571 0.371951C305.659 0.383474 305.774 0.396643 305.869 0.393351C306.653 0.365367 307.431 0.330809 308.209 0.301178C308.425 0.292948 308.621 0.315991 308.79 0.360437C308.959 0.404882 309.162 0.427926 309.372 0.419695C310.156 0.390065 310.934 0.357152 311.712 0.327522C311.806 0.32423 311.921 0.335752 312.009 0.347275C312.834 0.449335 312.834 0.449318 313.213 0.432857C313.767 0.408165 314.335 0.396655 314.883 0.363732C315.417 0.330809 315.695 0.426277 316.06 0.478953C317.061 0.441092 318.068 0.409824 319.062 0.363732C319.468 0.343978 319.684 0.398296 319.955 0.441095C320.049 0.455911 320.144 0.48719 320.232 0.485544C320.57 0.47896 320.902 0.460856 321.233 0.447686C321.564 0.434517 321.902 0.42135 322.234 0.408181C322.613 0.455919 322.863 0.567854 323.404 0.529993C323.728 0.506947 324.073 0.502009 324.404 0.48884C324.736 0.475671 325.074 0.462503 325.405 0.449334C325.628 0.441104 325.858 0.436158 326.075 0.421343C326.474 0.396651 326.67 0.477321 326.954 0.513536C327.049 0.525059 327.157 0.544799 327.245 0.541507C327.914 0.518461 328.59 0.498709 329.246 0.460848C329.753 0.431218 330.098 0.480608 330.457 0.549746C330.531 0.564561 330.66 0.572791 330.754 0.569499C331.539 0.541514 332.316 0.506936 333.094 0.477306C333.304 0.469075 333.507 0.495412 333.676 0.538212C333.851 0.582657 334.047 0.604073 334.264 0.595842C335.042 0.566212 335.826 0.53328 336.604 0.503649C336.698 0.500357 336.813 0.513529 336.901 0.526698C337.659 0.628758 337.659 0.630406 338.105 0.610652C338.213 0.605714 338.328 0.602408 338.436 0.59747C338.991 0.574424 339.566 0.566205 340.107 0.526698C340.729 0.482252 341.182 0.538223 341.621 0.632053C342.176 0.612299 342.744 0.600774 343.285 0.567851C343.691 0.543159 343.907 0.605709 344.178 0.646862C344.272 0.661677 344.374 0.691308 344.455 0.688015C345.239 0.660031 346.024 0.635348 346.794 0.594195C347.214 0.571149 347.396 0.645211 347.68 0.683072C347.775 0.696241 347.876 0.719299 347.964 0.716007C348.411 0.702838 348.857 0.683075 349.303 0.664967C349.824 0.643567 349.824 0.645212 350.514 0.745626C350.838 0.793364 351.163 0.755501 351.481 0.743978C351.819 0.730809 352.137 0.720936 352.407 0.788427C352.576 0.831227 352.779 0.857566 352.989 0.850981C353.435 0.836166 353.888 0.821358 354.328 0.796666C354.679 0.776912 354.984 0.790074 355.241 0.850981C355.423 0.89378 355.613 0.915193 355.836 0.905316C356.837 0.865809 357.844 0.82464 358.845 0.786779C358.933 0.783487 359.055 0.798308 359.136 0.813123C359.325 0.842754 359.508 0.875669 359.69 0.908592C360.13 0.893776 360.583 0.887209 361.016 0.864163C361.475 0.841117 361.895 0.832884 362.253 0.923421C362.328 0.943175 362.436 0.971144 362.524 0.969498C362.862 0.962913 363.193 0.946457 363.524 0.933288C363.856 0.920119 364.194 0.906951 364.525 0.893782C364.911 0.934935 365.154 1.05346 365.695 1.01559C366.02 0.992548 366.365 0.98761 366.696 0.974441C367.027 0.961272 367.366 0.946458 367.697 0.934935C367.805 0.931643 367.927 0.923408 368.021 0.929992C368.123 0.936577 368.211 0.959627 368.299 0.976089C368.569 1.02383 368.819 1.07157 369.205 1.04359C369.529 1.02054 369.874 1.0156 370.206 1.00078C370.659 0.982677 370.659 0.98268 371.409 1.08639C371.714 1.12919 372.059 1.07322 372.349 1.10944C372.545 1.13413 372.715 1.17527 372.904 1.20326C372.985 1.21478 373.113 1.21971 373.208 1.21642C373.654 1.2016 374.108 1.18679 374.547 1.1621C374.905 1.14235 375.203 1.1621 375.453 1.22136C375.636 1.26416 375.818 1.28228 376.048 1.2724C377.164 1.22631 378.28 1.18679 379.389 1.13576C379.768 1.11765 380.072 1.14564 380.281 1.2049C380.64 1.30696 381.147 1.1868 381.519 1.26911C381.749 1.32014 381.979 1.3794 382.398 1.35471C383.169 1.31191 383.953 1.28885 384.731 1.25922C385.008 1.30366 385.286 1.34812 385.57 1.39257C386.016 1.37446 386.462 1.35634 386.909 1.33988C387.24 1.32671 387.578 1.3119 387.909 1.30037C388.018 1.29708 388.133 1.29049 388.234 1.29872C388.335 1.30695 388.417 1.32836 388.511 1.34482C388.978 1.42548 388.978 1.42714 389.749 1.39421C390.08 1.3794 390.398 1.36952 390.675 1.43537C390.932 1.49627 391.236 1.50779 391.588 1.48968C392.251 1.45676 392.92 1.43207 393.597 1.40902C393.806 1.40079 394.002 1.42878 394.178 1.47158C394.442 1.53907 394.766 1.53248 395.098 1.51438C395.537 1.49133 395.97 1.46829 396.342 1.56047C396.416 1.58023 396.531 1.6082 396.613 1.60655C397.167 1.59338 397.728 1.58351 398.269 1.55224C398.81 1.52096 399.074 1.62302 399.446 1.6724C400 1.651 400.562 1.6296 401.116 1.6082C401.224 1.60326 401.353 1.58845 401.448 1.59668C401.847 1.63125 402.076 1.75471 402.624 1.71685C402.942 1.69545 403.287 1.68887 403.618 1.68393C403.706 1.68229 403.821 1.71026 403.882 1.73166C403.916 1.74318 403.882 1.77446 403.841 1.79092C403.72 1.83701 403.571 1.87982 403.463 1.92756C403.449 1.93414 403.578 1.96376 403.652 1.97693C403.835 2.00656 404.044 2.00163 404.288 1.98846C404.497 1.97694 404.714 1.99999 404.863 2.04937C404.923 2.06912 404.903 2.10204 404.775 2.21069C404.775 2.29135 404.917 2.25513 404.964 2.20245C405.038 2.12673 404.896 2.10204 404.626 2.14319C404.436 2.17282 404.342 2.21563 404.389 2.25019C404.416 2.2683 404.545 2.29135 404.775 2.21069C405.37 2.11192 405.816 2.09382 406.262 2.07571C406.377 2.07078 406.513 2.0543 406.594 2.06418C406.885 2.10369 407.155 2.15143 407.439 2.19588C407.764 2.186 408.068 2.1613 408.386 2.2255C408.832 2.31604 408.852 2.30781 409.285 2.2897C409.508 2.27982 409.731 2.27161 409.955 2.26338C410.178 2.25515 410.354 2.27983 410.55 2.31769C410.949 2.39506 410.982 2.39505 411.246 2.2897C411.402 2.2255 411.51 2.20411 411.706 2.23374C412.355 2.33415 412.362 2.34073 412.916 2.3111C413.376 2.28641 413.809 2.27982 414.147 2.37365C414.377 2.4395 414.452 2.42469 414.634 2.35555C415.121 2.17283 415.344 2.17611 416.257 2.3078C416.683 2.37036 417.123 2.30287 417.555 2.29464C417.921 2.28806 418.178 2.32756 418.205 2.43126C418.225 2.49546 418.286 2.54156 418.529 2.56296C418.624 2.57119 418.739 2.58271 418.833 2.57942C419.395 2.55967 419.949 2.53662 420.511 2.51357C420.795 2.50205 420.95 2.42469 420.896 2.32263C420.835 2.21399 420.943 2.17447 421.349 2.14319C421.592 2.12508 421.789 2.12839 421.985 2.15802C422.201 2.19094 422.14 2.22057 421.951 2.27983C421.498 2.42469 421.552 2.51357 422.134 2.61398C422.336 2.64855 422.499 2.67984 422.546 2.73087C422.573 2.75721 422.546 2.79178 422.607 2.81153C422.938 2.92182 423.398 2.99261 423.912 3.04529C424.406 3.00084 424.744 3.07491 425.122 3.13417C425.42 3.18026 425.772 3.14076 426.089 3.1243C426.448 3.10619 426.745 3.11936 427.002 3.18026C427.185 3.22306 427.374 3.24281 427.597 3.23458C428.044 3.21647 428.497 3.20495 428.936 3.17862C429.315 3.15557 429.599 3.1885 429.836 3.24446C430.133 3.31525 430.465 3.2675 430.776 3.27738C431.195 3.2889 431.405 3.4354 431.953 3.3959C432.277 3.37285 432.615 3.36462 432.953 3.35804C433.041 3.35639 433.149 3.38438 433.224 3.40413C433.582 3.49467 434.001 3.48973 434.461 3.46339C434.779 3.44529 435.09 3.42883 435.401 3.49138C435.915 3.59674 436.483 3.68893 437.024 3.78605C437.099 3.86177 437.044 3.95065 437.43 3.99509C437.633 4.01814 437.822 4.05272 437.978 4.09058C438.167 4.13503 438.343 4.14655 438.586 4.13503C439.026 4.11198 439.486 4.10703 439.919 4.0774C440.318 4.05106 440.568 4.1054 440.811 4.15643C441.007 4.19758 441.19 4.21733 441.427 4.1877C441.67 4.15971 441.846 4.17781 442.042 4.22226C442.319 4.28316 442.339 4.27659 443.259 4.2947C443.354 4.29634 443.469 4.32102 443.523 4.34242C443.55 4.35395 443.489 4.38689 443.442 4.40335C443.381 4.4231 443.286 4.44613 443.198 4.45107C442.197 4.49387 441.19 4.53173 440.189 4.57453C440.088 4.57947 439.979 4.59101 439.905 4.60747C439.824 4.62558 439.722 4.65025 439.722 4.6733C439.722 4.68976 439.858 4.70952 439.952 4.72104C440.25 4.7589 440.602 4.70129 440.892 4.74409C441.088 4.77207 441.251 4.81157 441.447 4.83791C441.528 4.84943 441.656 4.84779 441.758 4.8445C442.096 4.83298 442.427 4.81652 442.765 4.80664C442.86 4.805 442.968 4.82147 443.056 4.83463C443.705 4.9334 443.705 4.9334 444.267 4.912C444.49 4.90377 444.727 4.87907 444.936 4.88895C445.139 4.89883 445.315 4.94327 445.497 4.97126C445.876 5.03052 446.234 5.08813 446.262 5.21653C446.275 5.26591 446.498 5.3087 446.721 5.312C446.938 5.31529 447.168 5.2972 447.391 5.28732C447.918 5.26757 447.918 5.26757 448.601 5.36798C448.791 5.39596 448.993 5.39925 449.237 5.38279C449.332 5.37621 449.447 5.3828 449.548 5.39103C449.879 5.41572 449.879 5.44699 449.663 5.50625C449.359 5.59349 449.386 5.60173 450.238 5.67581C450.562 5.70379 450.812 5.75647 451.083 5.80256C451.523 5.87664 451.516 5.87662 451.225 5.97375C451.158 5.99515 451.097 6.0182 451.029 6.04124C450.833 6.10544 450.677 6.17458 450.272 6.18116C449.825 6.18774 449.379 6.21409 448.933 6.2322C448.5 6.25031 448.385 6.2898 448.425 6.40174C448.473 6.53672 448.561 6.55154 449.338 6.54989C449.562 6.54989 449.758 6.56306 449.927 6.6075C449.845 6.66018 449.697 6.70133 449.48 6.71121C448.926 6.7359 448.365 6.75731 447.81 6.77871C447.364 6.79681 446.918 6.81491 446.471 6.83302C446.194 6.84455 446.018 6.93015 446.092 7.02563C446.133 7.07995 446.167 7.13427 446.201 7.18859C446.275 7.29724 446.417 7.32523 446.87 7.32029C446.985 7.31865 447.093 7.30546 447.201 7.30876C447.641 7.32028 447.851 7.45691 448.378 7.42892C448.818 7.40588 449.278 7.40094 449.71 7.37131C450.109 7.34497 450.332 7.40425 450.61 7.44869C450.704 7.46351 450.806 7.49477 450.887 7.49312C451.448 7.47502 452.01 7.45692 452.557 7.42565C452.814 7.41248 452.97 7.42235 453.173 7.46186C453.659 7.55733 453.673 7.55239 454.397 7.52276C454.924 7.49972 454.931 7.50301 455.607 7.60342C455.796 7.63141 455.999 7.6314 456.243 7.61823C456.561 7.60177 456.892 7.57543 457.223 7.60013C457.325 7.60671 457.453 7.62647 457.487 7.64787C457.507 7.66269 457.413 7.6989 457.332 7.71042C456.736 7.79602 456.04 7.78121 455.391 7.81578C455.188 7.82566 454.985 7.79438 454.816 7.74993C454.64 7.70548 454.451 7.68738 454.221 7.69561C453.774 7.71372 453.321 7.72524 452.882 7.75158C452.503 7.77462 452.239 7.73676 451.976 7.68573C451.888 7.66927 451.786 7.63799 451.698 7.63963C450.698 7.67255 449.69 7.70549 448.696 7.75158C448.297 7.77133 448.067 7.71866 447.797 7.67421C447.702 7.6594 447.607 7.62812 447.519 7.62977C447.181 7.63635 446.85 7.65445 446.512 7.66762C445.281 7.71701 444.057 7.76639 442.826 7.81248C442.745 7.81578 442.644 7.7812 442.549 7.76639C442.366 7.73676 442.177 7.70877 441.988 7.68078C441.65 7.69395 441.318 7.71041 440.98 7.72029C440.737 7.72687 440.52 7.74993 440.486 7.81248C440.466 7.85364 440.689 7.89149 440.926 7.8882C441.156 7.88491 441.386 7.86515 441.575 7.88655C442.515 7.9919 442.515 7.99355 443.104 7.97215C443.617 7.9524 443.563 7.93593 444.016 8.02647C444.212 8.06598 444.388 8.08903 444.612 8.07916C445.166 8.05611 445.727 8.03306 446.289 8.01331C446.376 8.01001 446.491 8.02648 446.579 8.03965C447.242 8.13842 447.242 8.14171 447.79 8.11701C448.507 8.08738 448.534 8.07915 449.014 8.17957C449.345 8.24871 449.649 8.20097 449.967 8.19767C450.332 8.26187 450.731 8.3195 451.063 8.39193C451.455 8.47752 451.867 8.46269 452.314 8.438C452.645 8.41989 452.97 8.41331 453.24 8.4808C453.497 8.54336 453.808 8.54995 454.16 8.53349C454.478 8.51868 454.802 8.48739 455.134 8.5236C455.222 8.53348 455.357 8.55818 455.35 8.573C455.343 8.59604 455.255 8.62897 455.167 8.63885C454.545 8.70634 453.862 8.70469 453.206 8.73596C453.119 8.7409 453.004 8.72279 452.916 8.70962C452.726 8.67999 452.544 8.64543 452.361 8.61415C452.03 8.62403 451.692 8.62731 451.367 8.64706C451.117 8.66188 450.927 8.66025 450.745 8.62074C450.576 8.58453 450.393 8.54007 450.19 8.52855C449.988 8.51702 449.751 8.54172 449.528 8.5516C449.305 8.56147 449.048 8.55652 448.872 8.58286C448.696 8.6092 448.588 8.66682 448.473 8.71291C448.344 8.76394 448.168 8.78042 447.911 8.78535C447.675 8.79029 447.486 8.7837 447.31 8.73761C447.235 8.71786 447.134 8.70303 447.032 8.68987C446.938 8.67834 446.83 8.66023 446.742 8.66352C445.734 8.70138 444.733 8.74255 443.726 8.78206C443.225 8.80181 443.232 8.8018 442.191 8.70467C442.096 8.69644 441.981 8.68493 441.886 8.68822C441.325 8.70797 440.771 8.73102 440.209 8.75407C439.641 8.77711 439.648 8.77382 438.681 8.67011C438.505 8.65036 438.248 8.6767 438.039 8.67341C437.599 8.66518 437.383 8.52691 436.869 8.55324C436.429 8.57629 435.969 8.58122 435.53 8.61085C435.131 8.63719 434.901 8.57958 434.63 8.53514C434.536 8.52032 434.434 8.4874 434.353 8.49069C433.345 8.5269 432.345 8.56806 431.006 8.573C430.674 8.573 430.823 8.60757 431.04 8.61909C431.351 8.6372 431.452 8.60263 431.283 8.53679C431.161 8.49069 430.985 8.46763 430.843 8.47916C430.769 8.48574 430.674 8.51703 431.006 8.573C431.357 8.63555 431.337 8.67011 431.398 8.68987C431.547 8.7376 431.756 8.75736 431.973 8.75077C432.311 8.73925 432.642 8.72279 432.98 8.71291C433.075 8.70962 433.19 8.72114 433.278 8.73431C434.022 8.83637 434.029 8.84297 434.82 8.80346C435.07 8.79194 435.252 8.79193 435.449 8.82321C435.719 8.86601 435.915 8.93843 436.328 8.91538C436.875 8.88411 437.437 8.86602 437.998 8.84791C438.086 8.84461 438.181 8.87424 438.282 8.88741C438.559 8.92692 438.762 9.001 439.175 8.96972C439.492 8.94503 439.837 8.93843 440.175 8.93349C440.263 8.93184 440.398 8.95819 440.439 8.97959C440.52 9.01745 440.419 9.0619 440.189 9.09318C440.094 9.10635 439.966 9.10305 439.858 9.10799C439.411 9.1261 438.965 9.14584 438.519 9.16066C438.282 9.16889 438.059 9.19359 438.032 9.2545C438.012 9.29565 438.255 9.33186 438.485 9.32857C438.823 9.32363 439.161 9.31046 439.486 9.28906C440.06 9.25284 440.561 9.26272 441.027 9.36642C441.359 9.43885 441.339 9.41253 441.69 9.62652C441.778 9.68085 442.042 9.68578 442.272 9.68249C442.826 9.67426 443.083 9.69896 443.036 9.74998C442.975 9.81254 442.779 9.83228 442.529 9.84051C442.082 9.85368 441.636 9.87509 441.19 9.8932C441.082 9.89814 440.96 9.908 440.858 9.90471C440.757 9.90142 440.662 9.88167 440.574 9.86685C440.385 9.83558 440.223 9.78783 440.02 9.77631C439.817 9.76479 439.58 9.78948 439.357 9.79936C439.134 9.80759 438.897 9.83228 438.695 9.82076C438.492 9.80923 438.323 9.75986 438.14 9.73023C438.052 9.71542 437.944 9.69236 437.856 9.694C437.41 9.70717 436.963 9.72858 436.517 9.74504C435.969 9.76644 435.969 9.76644 435.307 9.66438C435.117 9.63475 434.921 9.6364 434.671 9.64957C434.13 9.67591 434.123 9.67096 433.136 9.57549C433.041 9.56561 432.926 9.55409 432.831 9.55903C431.824 9.59689 430.823 9.63804 429.822 9.67754C428.963 9.71211 428.963 9.71213 428.49 9.87674C428.138 9.99855 428.132 9.99855 428.477 10.0545C428.754 10.1006 429.004 10.1681 429.308 10.1928C429.592 10.2158 429.944 10.1418 430.255 10.2175C430.411 10.2553 430.613 10.2965 430.81 10.3031C431.121 10.3113 431.452 10.2636 431.75 10.336C431.898 10.3722 432.122 10.4101 432.311 10.4117C432.642 10.415 432.98 10.3887 433.312 10.3772C433.413 10.3739 433.528 10.3739 433.623 10.3821C433.724 10.392 433.812 10.4117 433.9 10.4282C434.17 10.4842 434.461 10.5105 434.813 10.4825C435.388 10.4364 435.902 10.4595 436.348 10.5648C436.409 10.5796 436.558 10.5813 436.652 10.5747C436.896 10.5582 437.105 10.5566 437.288 10.5879C437.362 10.601 437.47 10.6241 437.457 10.6389C437.437 10.6636 437.355 10.6965 437.268 10.7047C436.632 10.7607 435.949 10.7673 435.293 10.7969C435.205 10.8002 435.097 10.7788 435.009 10.764C434.82 10.7344 434.657 10.685 434.455 10.6735C434.252 10.6619 434.015 10.6833 433.792 10.6916C433.569 10.6998 433.332 10.7245 433.129 10.7146C432.926 10.7031 432.737 10.6619 432.575 10.6257C432.385 10.5846 432.203 10.5796 431.953 10.5961C431.628 10.6175 431.29 10.6208 430.958 10.6323C430.776 10.601 430.593 10.5665 430.404 10.5368C430.316 10.522 430.208 10.5039 430.113 10.5056C429.667 10.5187 429.22 10.5385 428.774 10.5566C428.328 10.5747 428.328 10.5747 427.571 10.4726C427.483 10.4611 427.368 10.4479 427.273 10.4512C426.712 10.471 426.157 10.4957 425.596 10.5154C425.379 10.5237 425.183 10.5006 425.008 10.4562C424.839 10.4117 424.636 10.387 424.426 10.3953C423.533 10.4298 422.641 10.4628 421.748 10.5039C421.39 10.5204 421.085 10.5056 420.842 10.4463C420.558 10.3788 420.24 10.3953 419.909 10.4084C419.158 10.4414 419.151 10.4397 418.671 10.3558C418.577 10.3393 418.482 10.308 418.394 10.3097C417.616 10.3343 416.832 10.3574 416.061 10.3969C415.655 10.4183 415.439 10.3607 415.168 10.3179C415.074 10.3031 414.972 10.2718 414.891 10.2751C414.33 10.2932 413.768 10.3097 413.221 10.3426C412.673 10.3755 412.463 10.2224 412.051 10.2241C411.49 10.2257 410.935 10.2636 410.381 10.2866C409.934 10.3047 409.488 10.3228 409.042 10.3409C408.595 10.359 408.149 10.3739 407.703 10.3953C407.466 10.4068 407.29 10.392 407.094 10.3508C406.844 10.2965 406.546 10.2537 406.276 10.2043C405.863 10.1335 405.863 10.1335 405.363 10.1533C405.255 10.1582 405.14 10.1615 405.032 10.1664C404.213 10.2027 404.213 10.1994 403.172 10.0957C403.125 10.0907 403.003 10.1088 402.956 10.122C402.814 10.1648 402.685 10.2109 402.557 10.2553C402.374 10.229 402.151 10.2142 402.029 10.1763C401.684 10.0693 401.143 10.2158 400.792 10.1105C400.663 10.071 400.44 10.0364 400.237 10.0265C400.027 10.0166 399.791 10.0397 399.574 10.0496C399.013 10.0743 399.013 10.0726 398.533 10.2191C398.29 10.2916 397.938 10.2784 397.62 10.2948C397.289 10.313 396.971 10.3228 396.694 10.2553C396.443 10.1944 396.139 10.1796 395.781 10.1994C395.341 10.2241 394.888 10.2389 394.442 10.2537C394.347 10.257 394.232 10.2488 394.137 10.2389C393.103 10.1418 393.103 10.1401 392.602 10.1615C392.379 10.1714 392.149 10.1747 391.933 10.1895C391.568 10.2158 391.291 10.1813 391.027 10.1286C390.939 10.1121 390.837 10.0809 390.75 10.0825C390.303 10.0907 389.864 10.1055 389.424 10.1204C389.086 10.1319 388.748 10.1385 388.423 10.1615C387.882 10.1994 387.619 10.0924 387.247 10.043C386.692 10.0644 386.131 10.0792 385.576 10.1088C385.319 10.122 385.15 10.1171 384.954 10.0776C384.704 10.0282 384.474 9.97221 384.068 9.99691C383.527 10.0298 382.959 10.0414 382.405 10.0611C382.033 10.0101 381.763 9.90636 381.228 9.94422C380.904 9.96726 380.559 9.9722 380.228 9.98537C379.781 10.0035 379.335 10.02 378.889 10.0397C378.408 10.0595 378.415 10.0545 377.678 9.9574C377.252 9.89979 376.812 9.96398 376.38 9.97386C376.042 9.98209 375.873 10.0578 375.954 10.1549C376.035 10.252 375.852 10.3278 375.541 10.3409C374.763 10.3722 373.979 10.4051 373.201 10.4331C373.107 10.4364 372.992 10.4249 372.904 10.4134C372.072 10.3097 372.072 10.3113 371.7 10.3261C371.146 10.3508 370.578 10.364 370.03 10.3953C369.651 10.4167 369.374 10.3821 369.13 10.3261C368.941 10.2833 368.765 10.2735 368.522 10.2833C365.844 10.3936 363.166 10.4957 360.495 10.6093C360.096 10.6257 359.866 10.578 359.596 10.5335C359.501 10.5187 359.413 10.4874 359.318 10.4874C359.095 10.4874 358.872 10.5023 358.649 10.5121C357.648 10.5517 356.647 10.5994 355.64 10.629C355.214 10.6422 355.099 10.7179 354.916 10.7805C354.774 10.8282 354.612 10.8479 354.362 10.8545C354.118 10.8611 353.942 10.8529 353.753 10.8101C353.509 10.7541 353.232 10.7195 352.854 10.7426C352.414 10.7689 351.968 10.7805 351.515 10.7986C351.285 10.8068 351.109 10.8364 351.034 10.8957C351.021 10.9056 351.163 10.9303 351.244 10.9451C351.515 10.9945 351.772 11.0521 352.076 11.0866C352.387 11.1212 352.725 11.0817 353.05 11.0718C353.165 11.0685 353.273 11.0587 353.381 11.0603C353.482 11.0619 353.604 11.0702 353.679 11.085C354.03 11.1591 354.402 11.2101 354.889 11.1657C355.308 11.1871 355.525 11.3237 356.059 11.2875C356.384 11.2661 356.722 11.2562 357.06 11.248C357.148 11.2463 357.242 11.2759 357.337 11.2908C357.607 11.3319 357.824 11.3978 358.23 11.3698C358.662 11.3401 359.122 11.3352 359.562 11.3122C359.805 11.299 359.981 11.3105 360.17 11.3533C360.414 11.4076 360.691 11.4488 361.07 11.4224C361.394 11.3994 361.739 11.3945 362.071 11.3796C362.503 11.3615 362.503 11.3632 363.274 11.4652C363.362 11.4768 363.477 11.4899 363.572 11.4866C364.133 11.4669 364.688 11.4422 365.249 11.4224C365.465 11.4142 365.675 11.4356 365.824 11.4833C365.885 11.5031 365.864 11.536 365.884 11.564C364.769 11.6085 363.653 11.6463 362.544 11.7006C362.125 11.722 361.935 11.6546 361.658 11.6167C361.563 11.6035 361.462 11.5755 361.374 11.5788C360.59 11.6068 359.812 11.6364 359.034 11.6727C358.791 11.6842 358.608 11.6776 358.426 11.6299C357.959 11.5031 357.391 11.5722 356.864 11.5904C356.458 11.6035 356.329 11.6546 356.377 11.7632C356.438 11.8916 356.681 11.9311 357.303 11.9081C357.526 11.8998 357.749 11.8883 357.973 11.8817C358.189 11.8751 358.385 11.8965 358.561 11.941C358.73 11.9854 358.933 12.0085 359.142 12.0019C359.589 11.9871 360.042 11.9723 360.475 11.9476C360.833 11.9278 361.131 11.9443 361.381 12.0052C361.658 12.0727 361.983 12.0579 362.307 12.043C363.065 12.0101 363.071 12.0118 363.545 12.0941C363.639 12.1105 363.734 12.1418 363.822 12.1402C364.6 12.1155 365.384 12.0941 366.148 12.0546C366.547 12.0348 366.777 12.0875 367.041 12.1303C367.136 12.1451 367.23 12.178 367.318 12.1747C367.879 12.1566 368.441 12.1385 368.988 12.1072C369.245 12.0924 369.401 12.1023 369.611 12.1418C370.111 12.2389 370.125 12.2356 370.835 12.2044C371.051 12.1945 371.288 12.1764 371.49 12.1895C371.693 12.2027 371.856 12.2505 372.045 12.2801C372.133 12.2933 372.241 12.3114 372.336 12.3081C372.782 12.2949 373.228 12.2751 373.675 12.257C374.094 12.2389 374.094 12.2406 374.878 12.3426C375.196 12.3854 375.528 12.3492 375.846 12.3361C376.19 12.3212 376.501 12.3212 376.765 12.3854C377.029 12.4496 377.347 12.4463 377.685 12.4332C378.003 12.42 378.327 12.3838 378.652 12.4282C379.396 12.5303 379.396 12.5319 379.856 12.5122C380.525 12.4842 381.188 12.4579 381.864 12.4332C381.952 12.4299 382.067 12.4496 382.155 12.4628C382.344 12.4924 382.506 12.5418 382.709 12.5533C382.912 12.5665 383.149 12.5468 383.365 12.5369C384.062 12.5056 384.109 12.4941 384.576 12.6027C384.968 12.6916 385.455 12.5632 385.82 12.6653C386.03 12.7229 386.313 12.769 386.706 12.741C387.03 12.7179 387.368 12.7114 387.707 12.6982C388.241 12.6768 388.241 12.6785 388.917 12.7772C389.005 12.7904 389.12 12.8068 389.208 12.8035C389.654 12.7904 390.107 12.7789 390.54 12.7492C391.047 12.7147 391.372 12.7772 391.75 12.8381C392.048 12.8859 392.4 12.8464 392.717 12.8299C393.062 12.8134 393.373 12.8184 393.63 12.8826C393.901 12.9484 394.219 12.9402 394.557 12.927C394.875 12.9155 395.199 12.8776 395.524 12.9237C396.22 13.0258 396.22 13.0258 396.728 13.006C397.174 12.9879 397.62 12.9682 398.066 12.955C398.154 12.9517 398.262 12.9731 398.35 12.9879C398.54 13.0175 398.702 13.0669 398.905 13.0785C399.108 13.09 399.344 13.0686 399.568 13.0604C399.791 13.0521 400.027 13.0274 400.23 13.0373C400.433 13.0472 400.623 13.0883 400.785 13.1246C400.974 13.1674 401.15 13.1723 401.407 13.1558C401.732 13.1344 402.07 13.1295 402.401 13.118C402.584 13.1492 402.773 13.1805 402.949 13.2151C403.131 13.2513 403.327 13.248 403.578 13.2365C404.409 13.197 404.416 13.2019 405.113 13.304C405.431 13.3501 405.762 13.3122 406.08 13.3007C406.418 13.2875 406.736 13.2809 406.999 13.3468C407.256 13.4093 407.574 13.4176 407.912 13.3978C408.129 13.3846 408.359 13.3764 408.582 13.3715C408.683 13.3698 408.805 13.3764 408.879 13.3896C409.238 13.4587 409.589 13.5213 410.083 13.4768C410.516 13.49 410.732 13.625 411.253 13.5986C411.693 13.5756 412.152 13.5706 412.585 13.541C412.984 13.5147 413.268 13.5608 413.471 13.6184C413.836 13.7205 414.35 13.5822 414.715 13.6826C414.925 13.7402 415.195 13.7863 415.601 13.7616C416.047 13.7353 416.189 13.7698 416.318 13.8735C416.392 13.9328 416.379 13.9805 416.244 14.0266C416.108 14.0744 415.96 14.0661 415.743 14.0118C415.493 13.9509 415.195 13.9394 414.837 13.9525C414.485 13.9657 414.269 13.8801 413.978 13.8472C413.687 13.8126 413.343 13.8703 413.038 13.8258C412.322 13.7221 412.321 13.7221 411.835 13.7419C411.503 13.755 411.158 13.7616 410.834 13.7847C410.448 13.8126 410.198 13.7616 409.934 13.7155C409.84 13.6991 409.745 13.6678 409.664 13.6694C408.886 13.6941 408.102 13.7172 407.331 13.7583C406.925 13.7797 406.709 13.7205 406.438 13.6793C406.344 13.6645 406.242 13.6349 406.161 13.6381C405.491 13.6612 404.829 13.6908 404.159 13.7188C404.031 13.7633 403.889 13.806 403.767 13.8538C403.639 13.9032 403.463 13.9246 403.206 13.9229C402.78 13.9229 402.36 13.9921 401.934 13.9048C401.495 13.8159 401.461 13.8209 401.035 13.8423C400.494 13.8703 399.919 13.8637 399.412 13.9279C399.324 13.9394 399.23 13.9707 399.23 13.9937C399.223 14.0085 399.365 14.0299 399.453 14.0431C399.75 14.0826 400.095 14.025 400.393 14.0661C400.589 14.0925 400.751 14.132 400.947 14.16C401.028 14.1715 401.15 14.1698 401.258 14.1682C401.373 14.1666 401.481 14.155 401.59 14.1567C401.691 14.1583 401.799 14.1682 401.88 14.183C402.252 14.2456 402.645 14.3032 402.976 14.3773C403.3 14.4497 403.605 14.4003 403.929 14.397C405.228 14.5122 405.228 14.5139 406.1 14.4777C406.317 14.4694 406.54 14.4596 406.763 14.4612C406.858 14.4612 406.945 14.4908 407.04 14.5073C407.311 14.5567 407.568 14.6011 407.946 14.5748C408.271 14.5517 408.616 14.5468 408.947 14.532C409.393 14.5139 409.393 14.5139 410.151 14.6176C410.34 14.6439 410.543 14.6406 410.786 14.6275C410.996 14.616 411.212 14.6406 411.361 14.6884C411.422 14.7081 411.402 14.7411 411.422 14.769C410.753 14.7954 410.076 14.8135 409.427 14.853C409.008 14.8777 408.819 14.8069 408.541 14.769C408.447 14.7559 408.345 14.7279 408.257 14.7312C407.595 14.7559 406.932 14.7838 406.269 14.8168C406.188 14.8201 406.087 14.8579 406.08 14.881C406.066 14.9238 406.235 14.9649 406.479 14.9633C406.803 14.9616 407.121 14.9336 407.412 15.0011C407.655 15.0604 407.96 15.0867 408.318 15.0604C408.534 15.0456 408.765 15.0456 408.981 15.0324C409.556 14.9929 410.076 15.0011 410.509 15.1131C410.84 15.1427 411.165 15.1147 411.483 15.0999C411.72 15.0884 411.949 15.0769 412.119 15.1081C412.477 15.174 412.829 15.2398 413.322 15.1954C413.857 15.2415 414.262 15.3386 414.709 15.4176C414.918 15.4555 415.08 15.4769 415.324 15.4522C415.425 15.4423 415.547 15.4423 415.655 15.4374C415.878 15.4291 416.115 15.4044 416.318 15.4143C416.521 15.4258 416.69 15.4736 416.872 15.5032C416.96 15.518 417.062 15.5427 417.15 15.5411C417.488 15.5328 417.819 15.5164 418.15 15.5032C418.482 15.4917 418.813 15.4802 419.145 15.4686C419.422 15.5114 419.706 15.5543 419.983 15.5971C420.429 15.5789 420.876 15.5608 421.315 15.5444C421.809 15.5246 421.809 15.5263 422.519 15.6283C422.837 15.6744 423.175 15.6448 423.479 15.6234C423.986 15.5888 424.325 15.6514 424.683 15.7172C424.757 15.7304 424.893 15.7386 424.98 15.732C425.332 15.709 425.636 15.7271 425.893 15.788C426.076 15.8308 426.259 15.8506 426.482 15.8423C427.259 15.811 428.037 15.7781 428.815 15.7501C428.909 15.7468 429.018 15.7617 429.105 15.7748C429.795 15.8752 429.802 15.8802 430.309 15.8538C430.762 15.8308 431.182 15.8209 431.54 15.9114C431.614 15.9312 431.729 15.9592 431.81 15.9575C432.365 15.9411 432.926 15.923 433.474 15.895C433.724 15.8818 433.9 15.8868 434.096 15.9246C434.346 15.9724 434.57 16.03 434.982 16.0086C436.125 15.9477 436.132 15.9575 437.484 16.0711C437.579 16.0793 437.707 16.0662 437.815 16.0596C438.045 16.0431 438.214 16.0662 438.417 16.1041C438.87 16.1897 438.884 16.1847 439.317 16.1666C439.648 16.1518 439.993 16.1485 440.317 16.1238C440.818 16.0876 441.149 16.1518 441.521 16.2127C441.819 16.2604 442.163 16.2209 442.481 16.2061C442.826 16.1897 443.137 16.1946 443.394 16.2571C443.57 16.2999 443.759 16.323 443.983 16.3148C444.76 16.2851 445.538 16.2522 446.316 16.2226C446.41 16.2193 446.525 16.2324 446.613 16.244C447.384 16.346 447.384 16.351 448.148 16.3131C448.392 16.3016 448.595 16.2983 448.777 16.3329C448.953 16.3658 449.142 16.3971 449.325 16.4283C449.656 16.4168 449.994 16.4135 450.319 16.3938C450.569 16.379 450.745 16.3855 450.941 16.4201C451.198 16.4646 451.414 16.5419 451.82 16.5041C452.03 16.4859 452.273 16.4909 452.483 16.4744C452.733 16.453 452.902 16.4662 453.098 16.509C453.342 16.56 453.592 16.6127 453.984 16.5864C454.417 16.5567 454.877 16.5518 455.316 16.5287C455.56 16.5156 455.729 16.5287 455.925 16.5716C456.168 16.6259 456.446 16.6604 456.824 16.639C457.595 16.5979 457.602 16.6061 458.352 16.7098C458.542 16.7362 458.745 16.7329 458.988 16.7197C459.198 16.7082 459.414 16.7329 459.563 16.7806C459.705 16.8333 459.691 16.8662 459.705 16.8942ZM399.446 2.04772C399.223 2.05595 399 2.06583 398.675 1.92262C398.655 1.89792 398.668 1.8683 398.621 1.8469C398.513 1.80245 398.344 1.77118 398.141 1.76624C397.776 1.75966 397.336 1.81561 397.343 1.85841C397.35 1.89463 397.465 1.9259 397.688 1.95553C397.782 1.96705 397.857 1.98681 397.945 1.99998C398.202 2.03784 398.405 2.11193 398.777 2.07407C398.709 1.97201 398.743 2.02304 398.777 2.07407C398.743 2.13662 398.844 2.18107 399.088 2.19917C399.155 2.20411 399.257 2.20081 399.311 2.19094C399.52 2.15472 399.554 2.10535 399.399 1.9753C399.372 1.9967 399.392 2.03455 399.453 2.04443C399.514 2.0543 399.662 2.04608 399.737 2.03456C399.926 2.00328 400.021 1.96213 399.973 1.92756C399.946 1.90945 399.818 1.8864 399.737 1.8864C399.595 1.8864 399.466 1.92262 399.446 2.04772ZM454.126 21.1379C453.632 21.1692 453.064 21.1577 452.571 21.2219C452.483 21.2334 452.395 21.263 452.388 21.2861C452.381 21.3009 452.517 21.3223 452.598 21.3338C452.78 21.3602 452.983 21.3519 453.22 21.3437C453.578 21.3322 453.788 21.4079 454.065 21.4457C454.153 21.4573 454.268 21.4655 454.363 21.4622C454.911 21.4425 455.451 21.4211 455.999 21.398C456.094 21.3931 456.195 21.3816 456.277 21.3667C456.547 21.319 456.52 21.2877 456.256 21.2515C455.965 21.212 455.736 21.1461 455.438 21.1149C455.012 21.0704 454.579 21.1297 454.126 21.1379ZM415.723 22.3396C415.392 22.3528 415.067 22.3659 414.736 22.3791C414.627 22.3841 414.512 22.3857 414.411 22.3923C414.201 22.4038 414.046 22.4384 413.944 22.4927C414.1 22.5355 414.289 22.5602 414.499 22.5552C414.83 22.5454 415.155 22.524 415.486 22.519C415.845 22.5124 416.054 22.5865 416.331 22.6244C416.419 22.6359 416.528 22.6375 416.629 22.6392C417.129 22.6458 417.434 22.5602 417.339 22.44C417.271 22.3462 417.014 22.2902 416.703 22.3017C416.379 22.3133 416.048 22.3264 415.723 22.3396ZM456.439 18.7049C456.52 18.6769 456.608 18.6572 456.649 18.6325C456.77 18.5486 456.723 18.486 456.5 18.4202C456.229 18.3395 455.898 18.3938 455.594 18.402C455.519 18.4037 455.438 18.4383 455.397 18.4597C455.37 18.4745 455.37 18.5058 455.411 18.514C455.742 18.5798 456.094 18.6407 456.439 18.7049ZM397.776 13.8423C397.451 13.8554 397.12 13.8653 396.795 13.8834C396.714 13.8884 396.64 13.9196 396.592 13.941C396.504 13.9805 396.599 14.0349 396.876 14.0398C397.194 14.0464 397.525 14.0184 397.857 14.0052C398.276 13.9888 398.526 13.9279 398.371 13.8752C398.222 13.8242 398.019 13.8143 397.776 13.8423ZM41.8137 10.3245C42.0301 10.3163 42.2532 10.3097 42.4696 10.2981C42.6725 10.2866 42.8281 10.2504 42.9296 10.1961C42.7605 10.1533 42.5711 10.1302 42.3615 10.1352C42.0301 10.1451 41.7056 10.1582 41.381 10.1747C41.1781 10.1846 40.9821 10.2208 40.9347 10.2767C40.8874 10.3195 41.3403 10.3442 41.8137 10.3245ZM369.178 10.071C369.266 10.0858 369.354 10.1154 369.441 10.1154C369.658 10.1154 369.881 10.1055 370.084 10.0891C370.172 10.0825 370.239 10.0529 370.28 10.0298C370.307 10.015 370.3 9.98867 370.26 9.9755C370.064 9.89649 369.279 9.92447 369.151 10.015C369.137 10.0315 369.171 10.0529 369.178 10.071ZM347.843 1.05675C347.863 1.08309 347.87 1.10942 347.897 1.13576C347.951 1.18514 348.1 1.22136 348.316 1.24606C348.485 1.2049 348.573 1.15882 348.566 1.10944C348.56 1.0831 348.539 1.05674 348.512 1.0304C348.458 0.98102 348.309 0.944818 348.093 0.920126C347.924 0.959633 347.843 1.00572 347.843 1.05675ZM472.066 22.626C472.006 22.6474 471.945 22.6688 471.877 22.6886C472.06 22.7363 472.229 22.7511 472.357 22.7248C472.439 22.7083 472.486 22.6836 472.547 22.6622C472.364 22.6145 472.202 22.6013 472.066 22.626ZM467.86 22.8499C467.948 22.8647 468.029 22.8845 468.124 22.8944C468.28 22.9108 468.422 22.8828 468.53 22.8236C468.442 22.8087 468.361 22.789 468.266 22.7791C468.111 22.7626 467.969 22.7906 467.86 22.8499ZM470.525 22.5487C470.477 22.5882 470.572 22.6211 470.822 22.6491C470.883 22.6277 470.964 22.6079 471.005 22.5849C471.073 22.547 470.957 22.5125 470.714 22.4861C470.646 22.5059 470.586 22.5273 470.525 22.5487ZM456.249 20.7741C456.202 20.8136 456.297 20.8466 456.547 20.8745C456.608 20.8531 456.689 20.8334 456.73 20.8103C456.797 20.7725 456.682 20.7379 456.439 20.7116C456.371 20.7313 456.31 20.7527 456.249 20.7741ZM436.801 9.12609C436.74 9.14749 436.679 9.16889 436.612 9.18865C436.794 9.23639 436.963 9.2512 437.092 9.22486C437.173 9.2084 437.22 9.1837 437.281 9.1623C437.099 9.11457 436.936 9.1014 436.801 9.12609ZM418.171 2.94651C418.333 2.95803 418.468 2.93499 418.583 2.87408C418.495 2.85927 418.414 2.83951 418.32 2.82964C418.164 2.81317 418.022 2.84117 417.914 2.90043C418.002 2.91689 418.09 2.93169 418.171 2.94651ZM408.278 2.55967C408.217 2.58107 408.156 2.60247 408.088 2.62222C408.271 2.66996 408.44 2.68477 408.568 2.65843C408.649 2.64197 408.697 2.61728 408.758 2.59588C408.575 2.54814 408.413 2.53662 408.278 2.55967ZM341.189 1.0551C341.128 1.0765 341.067 1.0979 340.999 1.11765C341.182 1.16539 341.351 1.1802 341.479 1.15386C341.561 1.1374 341.608 1.11271 341.669 1.09131C341.486 1.04357 341.324 1.03205 341.189 1.0551ZM7.13649 14.448C7.04857 14.4332 6.96074 14.4184 6.8796 14.402C6.68349 14.4464 6.62265 14.4876 6.73084 14.5188C6.79847 14.5386 6.89982 14.5501 6.98773 14.5649C7.1906 14.5205 7.23792 14.481 7.13649 14.448Z" fill="#FFE492"/>
<path d="M46.3577 8.63551C45.58 8.66678 44.8091 8.70628 44.0315 8.72603C43.619 8.73591 43.4703 8.8067 43.3012 8.87254C43.166 8.92522 43.0104 8.94168 42.7602 8.95155C40.6504 9.03221 38.5472 9.11782 36.4442 9.20177C36.1804 9.18037 36.0519 9.14581 36.1128 9.10465C36.1466 9.07996 36.2278 9.04539 36.3089 9.0421C37.7493 8.98119 39.1829 8.91863 40.63 8.87089C41.0425 8.85773 41.1575 8.78529 41.3671 8.72603C41.4348 8.70628 41.4889 8.67665 41.5768 8.66513C41.6647 8.65196 41.7932 8.65361 41.9082 8.65032C44.2344 8.55649 46.5607 8.46431 48.8869 8.37048C49.1507 8.39188 49.2791 8.42645 49.2183 8.4676C49.1845 8.49229 49.1033 8.52686 49.0221 8.53015C48.1295 8.56472 47.2435 8.59929 46.3577 8.63551Z" fill="#FFE492"/>
<path d="M472.153 17.4012C471.801 17.421 471.355 17.449 470.99 17.3535C470.814 17.3074 470.624 17.2926 470.394 17.3025C470.063 17.3189 469.725 17.3321 469.387 17.342C469.299 17.3436 469.184 17.3255 469.096 17.3107C468.907 17.2811 468.744 17.2317 468.542 17.2185C468.339 17.2054 468.095 17.2416 467.886 17.2333C467.608 17.2218 467.493 17.1774 467.568 17.1362C467.608 17.1132 467.69 17.0802 467.777 17.0753C469.028 17.0144 469.035 17.0144 469.387 17.0737C469.657 17.1198 469.908 17.1708 470.293 17.1428C470.618 17.1197 470.962 17.1148 471.294 17.1C471.754 17.0802 471.754 17.0819 472.498 17.1856C472.687 17.2119 472.89 17.2103 473.133 17.1955C473.343 17.1839 473.546 17.2103 473.715 17.2547C473.607 17.3107 473.451 17.3469 473.241 17.3568C472.903 17.3733 472.572 17.3848 472.153 17.4012Z" fill="#FFE492"/>
<path d="M459.702 16.8941C460.554 16.8595 461.413 16.8299 462.265 16.7904C462.616 16.7739 462.894 16.792 463.137 16.848C463.401 16.9089 463.698 16.904 464.023 16.8924C464.226 16.8859 464.422 16.9122 464.557 16.9583C464.611 16.9764 464.598 17.0093 464.618 17.0357C463.874 17.0653 463.124 17.0965 462.373 17.1229C462.285 17.1262 462.177 17.1097 462.096 17.0966C461.913 17.0686 461.757 17.0192 461.561 17.0093C461.142 16.9863 460.723 17.0307 460.297 17.0389C460.094 17.0422 459.898 17.0175 459.763 16.9731C459.708 16.9517 459.722 16.9204 459.702 16.8941Z" fill="#FFE492"/>
<path d="M151.785 2.74102C152.671 2.7048 153.557 2.67025 154.443 2.63403C154.706 2.65708 154.828 2.69 154.774 2.73115C154.74 2.75584 154.659 2.79041 154.578 2.7937C152.806 2.86778 151.034 2.93855 149.269 3.00934C149.006 2.98629 148.884 2.95337 148.938 2.91222C148.972 2.88753 149.053 2.85296 149.134 2.84967C150.013 2.81181 150.899 2.77723 151.785 2.74102Z" fill="#FFE492"/>
<path d="M15.2777 11.8882C14.8787 11.8915 14.4595 11.9524 14.0132 11.9063C13.9253 11.898 13.8036 11.8717 13.8103 11.8569C13.8239 11.8322 13.905 11.8009 13.9929 11.791C14.3784 11.7499 14.8585 11.7449 15.0547 11.6297C15.1493 11.5704 15.3251 11.5507 15.5618 11.5392C15.812 11.526 15.9878 11.5309 16.1839 11.5655C16.4409 11.61 16.6573 11.6923 17.063 11.6495C17.0833 11.6758 17.1306 11.7054 17.1103 11.7301C17.09 11.7548 17.0022 11.7779 16.9211 11.796C16.8467 11.8124 16.7451 11.8272 16.6505 11.8322C16.2042 11.8519 15.7578 11.8684 15.2777 11.8882Z" fill="#FFE492"/>
<path d="M366.973 11.5571C367.304 11.544 367.649 11.5374 367.973 11.5143C368.23 11.4962 368.393 11.5077 368.595 11.5472C368.94 11.6164 368.961 11.6098 369.806 11.6197C369.901 11.6213 370.016 11.646 370.07 11.6674C370.104 11.6789 370.056 11.7102 370.016 11.7267C369.955 11.7481 369.867 11.7761 369.786 11.7761C369.251 11.781 368.711 11.8781 368.19 11.7662C367.926 11.7102 367.635 11.6839 367.277 11.7086C367.06 11.7234 366.831 11.73 366.607 11.7366C366.391 11.7431 366.168 11.725 366.033 11.6756C365.837 11.6032 365.951 11.5752 366.303 11.5802C366.526 11.5835 366.749 11.5654 366.973 11.5571Z" fill="#FFE492"/>
<path d="M489.533 22.9046C489.959 22.8882 490.385 22.8684 490.817 22.8553C490.905 22.852 491.014 22.8701 491.095 22.8816C491.419 22.931 491.372 23.0149 491.385 23.089C491.392 23.1664 490.642 23.2289 490.324 23.1762C489.972 23.117 489.654 23.0495 489.167 23.0857C488.978 23.0989 488.755 23.0693 488.633 23.0215C488.451 22.9524 488.552 22.9244 488.897 22.9293C489.1 22.9326 489.316 22.9145 489.533 22.9046Z" fill="#FFE492"/>
<path d="M274.841 0.498444C275.281 0.480337 275.721 0.452366 276.16 0.45072C276.417 0.449074 276.546 0.503386 276.485 0.542893C276.451 0.567585 276.37 0.602155 276.289 0.605447C275.409 0.644954 274.53 0.677882 273.651 0.714097C273.394 0.691052 273.266 0.656488 273.327 0.616981C273.361 0.592289 273.442 0.559366 273.523 0.554427C273.962 0.531381 274.402 0.516552 274.841 0.498444Z" fill="#FFE492"/>
<path d="M481.101 17.5459C481.527 17.5295 481.96 17.5048 482.386 17.4965C482.609 17.4932 482.785 17.5311 482.812 17.5739C482.825 17.5937 482.717 17.6282 482.629 17.6365C482.021 17.6924 481.365 17.699 480.729 17.727C480.526 17.7352 480.31 17.7089 480.188 17.6628C480.005 17.592 480.107 17.5657 480.452 17.5706C480.668 17.5723 480.885 17.5542 481.101 17.5459Z" fill="#FFE492"/>
<path d="M378.15 11.7794C378.366 11.7712 378.589 11.7498 378.799 11.7564C379.022 11.7646 379.164 11.8123 379.232 11.8601C379.306 11.9144 379.299 11.9654 379.232 12.0115C379.123 12.0905 379.015 12.0872 378.765 12.0346C378.379 11.9523 378.352 11.9621 377.588 11.9654C377.5 11.9654 377.392 11.9407 377.325 11.9193C377.223 11.8864 377.277 11.8354 377.514 11.8058C377.69 11.7844 377.933 11.7876 378.15 11.7794Z" fill="#FFE492"/>
<path d="M465.254 17.0058C465.572 16.9926 465.89 16.9712 466.208 16.9712C466.431 16.9696 466.607 17.0075 466.627 17.0486C466.634 17.0684 466.532 17.1013 466.451 17.1112C466.066 17.1556 465.633 17.1589 465.214 17.1737C465.018 17.1803 464.801 17.154 464.679 17.1079C464.497 17.0387 464.605 17.0074 464.937 17.0173C465.038 17.0206 465.146 17.0107 465.254 17.0058Z" fill="#FFE492"/>
<path d="M415.236 14.9863C414.763 15.006 414.316 14.9813 414.35 14.9385C414.398 14.8826 414.594 14.8463 414.796 14.8365C415.121 14.82 415.446 14.8068 415.777 14.797C415.987 14.7904 416.176 14.8151 416.345 14.8579C416.244 14.9105 416.088 14.9484 415.885 14.9599C415.676 14.9714 415.452 14.978 415.236 14.9863Z" fill="#FFE492"/>
<path d="M412.134 14.7758C412.452 14.7627 412.769 14.7413 413.087 14.7413C413.31 14.7396 413.486 14.7775 413.507 14.8186C413.513 14.8384 413.412 14.8713 413.331 14.8812C412.945 14.9256 412.512 14.9289 412.093 14.9437C411.897 14.9503 411.681 14.924 411.559 14.8779C411.376 14.8087 411.485 14.7775 411.816 14.7874C411.917 14.7907 412.026 14.7808 412.134 14.7758Z" fill="#FFE492"/>
<path d="M374.312 11.7665C374.63 11.7533 374.948 11.7319 375.265 11.7303C375.489 11.7286 375.664 11.7665 375.685 11.8077C375.691 11.8274 375.59 11.8587 375.509 11.8702C375.124 11.9147 374.691 11.918 374.271 11.9328C374.075 11.9394 373.859 11.913 373.737 11.8669C373.555 11.7978 373.663 11.7665 373.994 11.7764C374.095 11.7797 374.204 11.7698 374.312 11.7665Z" fill="#FFE492"/>
<path d="M372.53 11.6691C372.868 11.6559 372.976 11.6477 373.085 11.6477C373.288 11.6477 373.497 11.6675 373.619 11.7152C373.802 11.7843 373.693 11.8041 373.362 11.8074C372.936 11.8107 372.517 11.8453 372.091 11.8518C371.867 11.8551 371.692 11.8156 371.678 11.7745C371.671 11.7547 371.773 11.7201 371.854 11.7136C372.138 11.6889 372.449 11.674 372.53 11.6691Z" fill="#FFE492"/>
<path d="M409.381 1.98509C409.165 1.99332 408.935 2.01636 408.732 2.00813C408.462 1.99661 408.353 1.95217 408.421 1.91102C408.462 1.88797 408.536 1.85505 408.617 1.85011C409.05 1.82707 409.489 1.81224 409.922 1.79578C410.179 1.82047 410.294 1.85503 410.226 1.89619C410.186 1.91923 410.111 1.95051 410.03 1.95709C409.821 1.97356 409.598 1.97685 409.381 1.98509Z" fill="#FFE492"/>
<path d="M146.935 2.93502C147.145 2.93338 147.334 2.95478 147.496 2.99593C147.395 3.04861 147.246 3.08318 147.043 3.09799C146.942 3.10457 146.827 3.10951 146.719 3.11115C146.509 3.11444 146.32 3.0914 146.157 3.05025C146.259 2.99757 146.414 2.963 146.61 2.94819C146.712 2.9416 146.827 2.93996 146.935 2.93502Z" fill="#FFE492"/>
<path d="M478.788 17.5395C478.782 17.4918 479.194 17.4375 479.566 17.4391C479.762 17.4408 479.965 17.4638 480.08 17.5083C480.256 17.5758 480.154 17.6021 479.823 17.5971C479.62 17.5939 479.404 17.6218 479.201 17.6169C478.971 17.6153 478.836 17.579 478.788 17.5395Z" fill="#FFE492"/>
<path d="M380.105 11.9789C380.098 11.9608 380.064 11.9394 380.085 11.923C380.213 11.8324 380.991 11.8044 381.194 11.8835C381.228 11.8983 381.241 11.923 381.214 11.9378C381.174 11.9608 381.099 11.9905 381.018 11.997C380.808 12.0135 380.592 12.0217 380.376 12.0234C380.281 12.0234 380.193 11.9954 380.105 11.9789Z" fill="#FFE492"/>
<path d="M17.6842 11.6247C16.8863 11.6593 16.8728 11.656 17.0148 11.5737C17.1433 11.4996 17.38 11.4552 17.7248 11.4552C17.8263 11.4552 17.9344 11.4519 18.0224 11.4585C18.117 11.4667 18.2524 11.4831 18.2726 11.5029C18.3132 11.5408 18.1981 11.5819 17.9953 11.6099C17.9074 11.6231 17.7924 11.6198 17.6842 11.6247Z" fill="#FFE492"/>
<path d="M156.925 2.70315C156.688 2.73114 156.486 2.72127 156.337 2.66859C156.188 2.61592 156.425 2.55336 156.837 2.53854C156.946 2.53525 157.06 2.52209 157.162 2.52867C157.263 2.53361 157.365 2.55335 157.426 2.5731C157.534 2.60603 157.466 2.65048 157.25 2.68834C157.162 2.70316 157.033 2.69986 156.925 2.70315Z" fill="#FFE492"/>
<path d="M477.379 17.4162C477.44 17.3948 477.501 17.3734 477.569 17.3536C477.82 17.3816 477.928 17.4145 477.86 17.4524C477.819 17.4754 477.738 17.4952 477.677 17.5166C477.427 17.4886 477.325 17.4541 477.379 17.4162Z" fill="#FFE492"/>
<path d="M28.3972 30.3643C28.3972 30.3446 28.4921 30.3133 28.5666 30.3067C28.7088 30.2952 28.8849 30.3182 29.0068 30.3643C29.1762 30.4302 29.0747 30.4647 28.7631 30.4466C28.5463 30.4335 28.3972 30.4005 28.3972 30.3643Z" fill="#FFE492"/>
<path d="M382.86 10.4465C382.948 10.4613 383.037 10.4761 383.118 10.4926C383.003 10.5535 382.86 10.5798 382.711 10.5633C382.616 10.5535 382.535 10.5337 382.447 10.5189C382.562 10.458 382.698 10.4349 382.86 10.4465Z" fill="#FFE492"/>
<path d="M380.521 10.3723C380.656 10.3476 380.819 10.3608 381.008 10.4085C380.947 10.4299 380.893 10.4546 380.819 10.4711C380.69 10.4974 380.521 10.4842 380.338 10.4349C380.392 10.4151 380.453 10.3937 380.521 10.3723Z" fill="#FFE492"/>
<path d="M378.727 10.4447C378.815 10.4595 378.904 10.4744 378.985 10.4908C378.87 10.5517 378.734 10.5781 378.578 10.5616C378.483 10.5517 378.402 10.532 378.314 10.5171C378.429 10.4562 378.565 10.4316 378.727 10.4447Z" fill="#FFE492"/>
<path d="M377.406 10.3576C377.508 10.3905 377.454 10.43 377.257 10.4745C377.169 10.4597 377.068 10.4482 377 10.4284C376.892 10.3971 376.946 10.356 377.149 10.3115C377.23 10.328 377.318 10.3428 377.406 10.3576Z" fill="#FFE492"/>
</svg>
