<svg width="51" height="40" viewBox="0 0 51 40" fill="none" xmlns="http://www.w3.org/2000/svg">
<path d="M0 3.47821V12.5598C0 15.3257 3.45437 16.8009 5.56538 14.8647L15.6406 5.78318C17.8476 3.80091 16.4083 0.297363 13.3857 0.297363H3.31044C1.4873 0.297363 0 1.72644 0 3.47821Z" fill="#5986EF"/>
<path d="M47.6895 0.297363H37.6143C34.6397 0.297363 33.1523 3.80091 35.3593 5.78318L45.4346 14.8647C47.5456 16.7548 51 15.3257 51 12.5598V3.47821C51 1.72644 49.5127 0.297363 47.6895 0.297363Z" fill="#5986EF"/>
<path d="M27.7789 22.4711L45.4346 38.4215C47.5456 40.3115 51 38.8824 51 36.1165V26.9427C51 26.0668 50.6162 25.2371 49.9445 24.6378L27.7789 4.58458C26.4835 3.43209 24.5165 3.43209 23.2211 4.58458L1.0555 24.6378C0.383819 25.2371 0 26.0668 0 26.9427V36.1165C0 38.8824 3.45437 40.3576 5.56538 38.4215L23.2211 22.4711C24.5165 21.3186 26.4835 21.3186 27.7789 22.4711Z" fill="#5986EF"/>
</svg>
