<svg width="191" height="35" viewBox="0 0 191 35" fill="none" xmlns="http://www.w3.org/2000/svg">
<g clip-path="url(#clip0_9_7517)">
<path d="M0 5.70705V12.46C0 14.5167 2.50611 15.6137 4.03763 14.1739L11.3471 7.42099C12.9483 5.947 11.904 3.3418 9.71119 3.3418H2.40169C1.07902 3.3418 0 4.40444 0 5.70705Z" fill="white"/>
<path d="M34.5982 3.3418H27.2887C25.1307 3.3418 24.0517 5.947 25.6528 7.42099L32.9623 14.1739C34.4938 15.5794 36.9999 14.5167 36.9999 12.46V5.70705C36.9999 4.40444 35.9209 3.3418 34.5982 3.3418Z" fill="white"/>
<path d="M20.1533 19.8302L32.9624 31.6907C34.4939 33.0961 37 32.0335 37 29.9767V23.1552C37 22.5039 36.7215 21.8869 36.2342 21.4413L20.1533 6.52994C19.2135 5.67296 17.7865 5.67296 16.8467 6.52994L0.765757 21.4413C0.278457 21.8869 0 22.5039 0 23.1552V29.9767C0 32.0335 2.50611 33.1304 4.03763 31.6907L16.8467 19.8302C17.7865 18.9732 19.2135 18.9732 20.1533 19.8302Z" fill="white"/>
</g>
<path d="M51.7031 27.8418L47.5469 12.5691H51.8324L54.1989 22.8304H54.3381L56.804 12.5691H61.0099L63.5156 22.7708H63.6449L65.9716 12.5691H70.2472L66.1009 27.8418H61.6165L58.9915 18.2367H58.8026L56.1776 27.8418H51.7031ZM76.7425 19.0123V27.8418H72.5067V7.47816H76.6232V15.2637H76.8022C77.1469 14.3622 77.7037 13.6562 78.4727 13.1458C79.2416 12.6287 80.2061 12.3702 81.3661 12.3702C82.4267 12.3702 83.3514 12.6022 84.1403 13.0662C84.9357 13.5236 85.5522 14.1832 85.9897 15.0449C86.4338 15.9 86.6526 16.9242 86.646 18.1174V27.8418H82.4102V18.873C82.4168 17.9318 82.1781 17.1993 81.6942 16.6756C81.217 16.1519 80.5475 15.8901 79.6857 15.8901C79.109 15.8901 78.5986 16.0127 78.1545 16.258C77.717 16.5033 77.3723 16.8612 77.1204 17.3319C76.8751 17.7959 76.7492 18.356 76.7425 19.0123ZM89.9794 27.8418V12.5691H94.2152V27.8418H89.9794ZM92.1072 10.6003C91.4775 10.6003 90.9373 10.3915 90.4865 9.9739C90.0424 9.54966 89.8203 9.04255 89.8203 8.45259C89.8203 7.86926 90.0424 7.36878 90.4865 6.95117C90.9373 6.52693 91.4775 6.31481 92.1072 6.31481C92.737 6.31481 93.2739 6.52693 93.718 6.95117C94.1688 7.36878 94.3942 7.86926 94.3942 8.45259C94.3942 9.04255 94.1688 9.54966 93.718 9.9739C93.2739 10.3915 92.737 10.6003 92.1072 10.6003ZM105.732 12.5691V15.7509H96.5344V12.5691H105.732ZM98.6225 8.90998H102.858V23.1486C102.858 23.5397 102.918 23.8446 103.037 24.0634C103.157 24.2755 103.322 24.4247 103.534 24.5108C103.753 24.597 104.005 24.6401 104.29 24.6401C104.489 24.6401 104.688 24.6235 104.887 24.5904C105.086 24.5506 105.238 24.5208 105.344 24.5009L106.01 27.6529C105.798 27.7192 105.5 27.7954 105.115 27.8816C104.731 27.9744 104.264 28.0307 103.713 28.0506C102.693 28.0904 101.798 27.9545 101.029 27.6429C100.266 27.3314 99.6732 26.8475 99.2489 26.1912C98.8247 25.535 98.6159 24.7064 98.6225 23.7054V8.90998ZM115.287 28.1401C113.716 28.1401 112.364 27.8219 111.23 27.1855C110.104 26.5426 109.235 25.6344 108.625 24.4611C108.016 23.2812 107.711 21.8858 107.711 20.275C107.711 18.704 108.016 17.3252 108.625 16.1387C109.235 14.9521 110.094 14.0274 111.201 13.3645C112.314 12.7016 113.62 12.3702 115.118 12.3702C116.126 12.3702 117.064 12.5326 117.932 12.8574C118.807 13.1756 119.569 13.6562 120.219 14.2992C120.875 14.9422 121.386 15.7509 121.75 16.7253C122.115 17.6931 122.297 18.8266 122.297 20.1259V21.2892H109.401V18.6642H118.31C118.31 18.0544 118.177 17.5141 117.912 17.0435C117.647 16.5729 117.279 16.205 116.809 15.9398C116.345 15.668 115.804 15.5321 115.188 15.5321C114.545 15.5321 113.975 15.6813 113.478 15.9796C112.987 16.2712 112.603 16.6657 112.324 17.1628C112.046 17.6533 111.903 18.2002 111.897 18.8034V21.2992C111.897 22.0549 112.036 22.7078 112.314 23.258C112.599 23.8082 113 24.2324 113.517 24.5307C114.034 24.829 114.648 24.9782 115.357 24.9782C115.828 24.9782 116.258 24.9119 116.65 24.7793C117.041 24.6467 117.375 24.4479 117.654 24.1827C117.932 23.9176 118.144 23.5927 118.29 23.2083L122.208 23.4668C122.009 24.4081 121.601 25.2301 120.985 25.9327C120.375 26.6287 119.586 27.1723 118.618 27.5634C117.657 27.9479 116.547 28.1401 115.287 28.1401ZM125.061 33.5691V12.5691H129.238V15.1344H129.426C129.612 14.7234 129.881 14.3058 130.232 13.8816C130.59 13.4507 131.054 13.0927 131.624 12.8077C132.201 12.516 132.917 12.3702 133.772 12.3702C134.885 12.3702 135.913 12.6619 136.854 13.2452C137.795 13.8219 138.548 14.6936 139.111 15.8603C139.675 17.0203 139.956 18.4753 139.956 20.2253C139.956 21.9289 139.681 23.3674 139.131 24.5407C138.587 25.7073 137.845 26.5923 136.904 27.1955C135.969 27.7921 134.922 28.0904 133.762 28.0904C132.94 28.0904 132.24 27.9545 131.664 27.6827C131.094 27.4109 130.626 27.0695 130.262 26.6586C129.897 26.2409 129.619 25.82 129.426 25.3958H129.297V33.5691H125.061ZM129.208 20.2054C129.208 21.1136 129.334 21.9057 129.586 22.5819C129.837 23.258 130.202 23.785 130.679 24.1628C131.157 24.534 131.737 24.7196 132.419 24.7196C133.109 24.7196 133.692 24.5307 134.169 24.1529C134.647 23.7684 135.008 23.2381 135.253 22.562C135.505 21.8792 135.631 21.0937 135.631 20.2054C135.631 19.3238 135.508 18.5482 135.263 17.8787C135.018 17.2092 134.657 16.6855 134.179 16.3077C133.702 15.9299 133.115 15.7409 132.419 15.7409C131.73 15.7409 131.147 15.9232 130.669 16.2878C130.199 16.6524 129.837 17.1694 129.586 17.839C129.334 18.5085 129.208 19.2973 129.208 20.2054ZM147.135 28.1301C146.161 28.1301 145.292 27.9611 144.53 27.623C143.768 27.2783 143.165 26.7712 142.721 26.1017C142.283 25.4256 142.064 24.5837 142.064 23.5762C142.064 22.7277 142.22 22.0151 142.532 21.4384C142.843 20.8617 143.267 20.3977 143.804 20.0463C144.341 19.695 144.951 19.4299 145.634 19.2509C146.323 19.0719 147.046 18.946 147.801 18.873C148.69 18.7802 149.406 18.6941 149.949 18.6145C150.493 18.5283 150.887 18.4024 151.132 18.2367C151.378 18.071 151.5 17.8257 151.5 17.5009V17.4412C151.5 16.8115 151.301 16.3243 150.904 15.9796C150.513 15.6349 149.956 15.4625 149.233 15.4625C148.471 15.4625 147.864 15.6316 147.414 15.9696C146.963 16.3011 146.665 16.7187 146.519 17.2225L142.601 16.9043C142.8 15.9763 143.191 15.1742 143.775 14.498C144.358 13.8153 145.11 13.2916 146.032 12.927C146.96 12.5558 148.033 12.3702 149.253 12.3702C150.102 12.3702 150.914 12.4696 151.689 12.6685C152.471 12.8674 153.164 13.1756 153.767 13.5932C154.377 14.0108 154.858 14.5478 155.209 15.204C155.56 15.8536 155.736 16.6325 155.736 17.5407V27.8418H151.719V25.7239H151.6C151.355 26.2012 151.026 26.6221 150.615 26.9867C150.204 27.3446 149.711 27.6264 149.134 27.8319C148.557 28.0307 147.891 28.1301 147.135 28.1301ZM148.348 25.2069C148.971 25.2069 149.522 25.0842 149.999 24.839C150.476 24.5871 150.851 24.249 151.123 23.8248C151.394 23.4005 151.53 22.9199 151.53 22.383V20.7623C151.398 20.8484 151.215 20.928 150.983 21.0009C150.758 21.0672 150.503 21.1301 150.218 21.1898C149.933 21.2428 149.648 21.2926 149.363 21.339C149.078 21.3787 148.819 21.4152 148.587 21.4483C148.09 21.5212 147.656 21.6373 147.284 21.7963C146.913 21.9554 146.625 22.1709 146.419 22.4426C146.214 22.7078 146.111 23.0392 146.111 23.437C146.111 24.0137 146.32 24.4545 146.738 24.7594C147.162 25.0577 147.699 25.2069 148.348 25.2069ZM165.923 28.1401C164.359 28.1401 163.013 27.8087 161.886 27.1458C160.766 26.4763 159.904 25.5482 159.301 24.3617C158.704 23.1751 158.406 21.8096 158.406 20.2651C158.406 18.7007 158.708 17.3285 159.311 16.1486C159.921 14.9621 160.786 14.0373 161.906 13.3745C163.026 12.705 164.359 12.3702 165.903 12.3702C167.235 12.3702 168.402 12.6122 169.403 13.0961C170.404 13.58 171.196 14.2594 171.779 15.1344C172.363 16.0094 172.684 17.0369 172.744 18.2168H168.747C168.634 17.4545 168.336 16.8413 167.852 16.3773C167.375 15.9067 166.748 15.6713 165.973 15.6713C165.316 15.6713 164.743 15.8503 164.252 16.2083C163.769 16.5596 163.391 17.0733 163.119 17.7495C162.847 18.4256 162.711 19.2443 162.711 20.2054C162.711 21.1799 162.844 22.0085 163.109 22.6912C163.381 23.374 163.762 23.8944 164.252 24.2523C164.743 24.6103 165.316 24.7892 165.973 24.7892C166.457 24.7892 166.891 24.6898 167.275 24.4909C167.666 24.2921 167.988 24.0037 168.24 23.6259C168.498 23.2414 168.667 22.7807 168.747 22.2438H172.744C172.678 23.4105 172.359 24.4379 171.789 25.3262C171.226 26.2078 170.447 26.8972 169.453 27.3944C168.458 27.8915 167.282 28.1401 165.923 28.1401ZM182.416 28.1401C180.845 28.1401 179.493 27.8219 178.359 27.1855C177.232 26.5426 176.364 25.6344 175.754 24.4611C175.144 23.2812 174.839 21.8858 174.839 20.275C174.839 18.704 175.144 17.3252 175.754 16.1387C176.364 14.9521 177.223 14.0274 178.33 13.3645C179.443 12.7016 180.749 12.3702 182.247 12.3702C183.255 12.3702 184.193 12.5326 185.061 12.8574C185.936 13.1756 186.698 13.6562 187.348 14.2992C188.004 14.9422 188.515 15.7509 188.879 16.7253C189.244 17.6931 189.426 18.8266 189.426 20.1259V21.2892H176.53V18.6642H185.439C185.439 18.0544 185.306 17.5141 185.041 17.0435C184.776 16.5729 184.408 16.205 183.938 15.9398C183.473 15.668 182.933 15.5321 182.317 15.5321C181.674 15.5321 181.104 15.6813 180.607 15.9796C180.116 16.2712 179.732 16.6657 179.453 17.1628C179.175 17.6533 179.032 18.2002 179.026 18.8034V21.2992C179.026 22.0549 179.165 22.7078 179.443 23.258C179.728 23.8082 180.129 24.2324 180.646 24.5307C181.163 24.829 181.777 24.9782 182.486 24.9782C182.956 24.9782 183.387 24.9119 183.778 24.7793C184.17 24.6467 184.504 24.4479 184.783 24.1827C185.061 23.9176 185.273 23.5927 185.419 23.2083L189.337 23.4668C189.138 24.4081 188.73 25.2301 188.114 25.9327C187.504 26.6287 186.715 27.1723 185.747 27.5634C184.786 27.9479 183.676 28.1401 182.416 28.1401Z" fill="white"/>
<defs>
<clipPath id="clip0_9_7517">
<rect width="37" height="29" fill="white" transform="translate(0 3.3418)"/>
</clipPath>
</defs>
</svg>
