<svg width="45" height="45" viewBox="0 0 45 45" fill="none" xmlns="http://www.w3.org/2000/svg">
<g clip-path="url(#clip0_9_7364)">
<path d="M42.8352 10.1726H23.7383C22.9854 10.1726 22.3743 10.7837 22.3743 11.5367C22.3743 12.2896 22.9854 12.9007 23.7383 12.9007H38.8603L30.4795 19.4182L24.4695 15.5961L23.0072 17.8987L29.8275 22.2364C30.0485 22.3782 30.3049 22.4492 30.5586 22.4492C30.8533 22.4492 31.1506 22.3537 31.3962 22.1627L41.4711 14.3248V31.9976H23.7383C22.9854 31.9976 22.3743 32.6087 22.3743 33.3617C22.3743 34.1146 22.9854 34.7257 23.7383 34.7257H42.8352C43.5882 34.7257 44.1993 34.1146 44.1993 33.3617V11.5367C44.1993 10.7837 43.5882 10.1726 42.8352 10.1726Z" fill="#1976D2"/>
<path d="M24.6094 2.30214C24.2984 2.04297 23.881 1.93112 23.4881 2.01296L1.66312 6.10515C1.01656 6.22519 0.550049 6.78718 0.550049 7.44466V37.454C0.550049 38.1088 1.01656 38.6735 1.66312 38.7935L23.4881 42.8857C23.57 42.9021 23.6545 42.9103 23.7391 42.9103C24.0556 42.9103 24.3639 42.8012 24.6094 42.5965C24.9231 42.3374 25.1032 41.95 25.1032 41.5462V3.35247C25.1032 2.94598 24.9231 2.56132 24.6094 2.30214Z" fill="#2196F3"/>
<path d="M12.8274 31.9974C9.06804 31.9974 6.00708 28.3253 6.00708 23.813C6.00708 19.3007 9.06804 15.6287 12.8274 15.6287C16.5867 15.6287 19.6477 19.3007 19.6477 23.813C19.6477 28.3253 16.5867 31.9974 12.8274 31.9974ZM12.8274 18.3568C10.5712 18.3568 8.73521 20.8039 8.73521 23.813C8.73521 26.8221 10.5712 29.2693 12.8274 29.2693C15.0836 29.2693 16.9196 26.8221 16.9196 23.813C16.9196 20.8039 15.0836 18.3568 12.8274 18.3568Z" fill="#FAFAFA"/>
</g>
<defs>
<clipPath id="clip0_9_7364">
<rect width="43.65" height="43.65" fill="white" transform="translate(0.550049 0.623291)"/>
</clipPath>
</defs>
</svg>
