<svg width="64" height="179" viewBox="0 0 64 179" fill="none" xmlns="http://www.w3.org/2000/svg">
<g id="Group">
<path id="Vector" d="M-75.7488 178.905C-87.357 178.905 -97.4013 175.832 -105.013 169.881C-135.458 146.383 -167.155 96.8113 -176.504 67.0021C-178.033 60.1102 -175.844 53.3844 -170.075 46.9631C-152.28 27.1733 -99.5561 10.0959 -29.0029 1.29427C10.7918 -1.778 40.4728 6.7192 54.653 25.2358C70.7099 46.2158 64.9405 76.7447 38.8393 108.962C4.88341 149.732 -35.7454 175.749 -69.8403 178.628C-71.8561 178.822 -73.8372 178.905 -75.7488 178.905ZM-13.5021 4.25584C-18.2983 4.25584 -23.2683 4.44959 -28.4121 4.86476C-97.6445 13.5003 -149.291 30.0241 -166.356 49.0667C-171.43 54.713 -173.341 60.4977 -172.056 66.2824C-162.88 95.4828 -131.739 144.252 -101.815 167.335C-93.9258 173.48 -83.0126 176.164 -70.2922 175.085C-37.518 172.317 1.89445 146.881 35.0857 107.025C59.8315 76.4679 65.7399 46.6033 50.8298 27.1179C39.3954 12.1994 16.8392 4.25584 -13.5021 4.25584Z" fill="#CCCCCC"/>
</g>
</svg>
