<svg width="101" height="210" viewBox="0 0 101 210" fill="none" xmlns="http://www.w3.org/2000/svg">
<g opacity="0.2">
<path d="M19.444 209.925C17.9096 209.925 16.0767 209.28 13.6362 207.818C7.15906 203.853 0.517181 191.947 -6.49541 179.356C-10.357 172.442 -14.3421 165.29 -18.3478 159.429C-24.1968 148.84 -34.1133 141.543 -43.7105 134.471C-50.7231 129.308 -57.3444 124.422 -62.4725 118.39L-62.4828 118.377C-66.3341 113.688 -68.1362 109.157 -67.992 104.534C-67.714 95.5125 -60.0217 87.4785 -51.1041 78.1801L-50.2494 77.2845C-43.6384 70.3568 -35.3387 61.0847 -23.3215 47.2425L-22.302 46.1098C-11.5515 34.151 1.83527 19.2683 19.1762 10.2465C53.9097 -10.6552 84.3078 5.53142 93.9051 23.0746C103.914 43.5811 103.049 65.352 90.6099 106.326C77.5836 149.038 48.73 182.056 36.9291 194.265C32.0996 198.295 29.0721 201.865 26.8685 204.472C24.0675 207.765 22.2449 209.925 19.444 209.925ZM-61.5664 117.125C-56.5515 123.026 -49.992 127.859 -43.0515 132.983C-33.341 140.134 -23.2906 147.536 -17.3181 158.362C-13.302 164.223 -9.29632 171.414 -5.42446 178.355C1.49545 190.762 8.03436 202.484 14.1923 206.264C20.2781 209.885 21.7094 208.2 25.9623 203.195C28.2071 200.547 31.2861 196.912 36.1465 192.856C47.8032 180.779 76.4509 148.01 89.3639 105.68C101.628 65.2993 102.524 43.9235 92.793 23.9965C83.4737 6.98018 53.7861 -8.7191 19.7117 11.7874C2.5458 20.7302 -10.7483 35.5075 -21.4268 47.3742L-22.4359 48.5069C-34.4634 62.3623 -42.7735 71.6475 -49.405 78.5884L-50.2597 79.4839C-58.9302 88.5189 -66.4062 96.3291 -66.6636 104.574C-66.7872 108.696 -65.119 112.792 -61.5664 117.125Z" fill="#CCCCCC"/>
<path d="M17.354 197.992C15.2327 197.992 12.9879 197.123 9.89864 195.582L9.83685 195.556C3.9055 191.75 -0.790154 182.57 -5.75354 172.863C-9.14141 166.225 -12.6529 159.376 -16.8748 153.41C-22.8268 143.73 -30.313 136.196 -37.5419 128.913C-42.4023 124.027 -46.995 119.404 -51.0007 114.294L-51.0728 114.188C-59.2284 99.9774 -53.3794 93.7082 -42.773 82.3157C-41.6197 81.0777 -40.4046 79.7738 -39.138 78.3777C-36.646 76.0202 -33.9892 73.3861 -31.1677 70.5939C-18.6357 58.1741 -1.4595 41.1709 22.7705 27.3682C52.3861 12.8675 75.2671 23.3512 84.8232 40.17C94.3998 57.7 90.6824 78.7991 79.9216 114.043C68.1309 149.683 46.6092 172.758 35.0451 185.151L33.7579 186.534C25.1595 194.7 21.473 197.992 17.354 197.992ZM10.4135 194.002C18.8472 198.19 20.2785 197.189 32.9341 185.204L34.1904 183.86C45.6618 171.559 67.0188 148.656 78.6859 113.424C89.2717 78.7728 92.9685 58.0687 83.7419 41.1841C74.4948 24.9053 52.211 14.8035 23.2854 28.9619C-0.769562 42.6592 -17.8634 59.5965 -30.3542 71.9505C-33.1758 74.7426 -35.8325 77.3767 -38.3039 79.7211C-39.5396 81.0777 -40.7547 82.3815 -41.908 83.6327C-52.5247 95.0384 -57.3851 100.254 -50.0224 113.135C-46.0785 118.153 -41.527 122.723 -36.7181 127.57C-29.4172 134.906 -21.8794 142.505 -15.8554 152.304C-11.5922 158.323 -8.04988 165.237 -4.63112 171.928C0.218998 181.411 4.81168 190.38 10.4135 194.002Z" fill="#CCCCCC"/>
<path d="M15.5439 188.036C12.8357 188.036 10.3231 186.798 7.19265 184.691C1.96153 180.661 -2.23986 172.324 -6.68837 163.513C-9.32453 158.271 -12.0637 152.858 -15.1941 147.892C-19.5705 140.095 -24.7604 133.431 -29.765 126.978C-33.8737 121.683 -37.7559 116.691 -40.8142 111.542L-40.8554 111.463C-47.0545 98.1077 -40.6495 91.878 -29.0133 80.5645L-28.8794 80.4328L-26.7273 78.5495C-14.4733 67.8682 2.31164 53.2357 25.3059 42.6334C52.4501 31.557 69.7293 42.8442 76.2888 55.8566C83.3014 69.7384 81.5817 88.3747 70.3574 120.182C62.1812 142.348 48.8357 162.275 30.7018 179.409C23.6892 185.494 19.4158 188.036 15.5439 188.036ZM-39.733 110.528C-36.7261 115.572 -32.8852 120.524 -28.8177 125.753C-23.7719 132.246 -18.5511 138.976 -14.1334 146.839C-10.9721 151.83 -8.22268 157.296 -5.56593 162.577C-1.21009 171.23 2.9089 179.396 7.85169 183.202C14.9776 188.023 18.5302 187.931 29.9295 178.013C47.8677 161.05 61.0691 141.347 69.1423 119.457C80.1503 88.2561 81.9009 70.094 75.1664 56.7654C68.3597 43.2656 50.4421 34.1516 25.7281 44.227C2.9192 54.7503 -13.7833 69.3037 -25.9756 79.9455L-28.2101 81.9079C-39.9286 93.3005 -45.2936 98.516 -39.733 110.528Z" fill="#CCCCCC"/>
<path d="M14.57 178.974C11.5425 178.974 8.70044 177.644 5.52882 175.036L5.50822 175.023C0.730183 170.835 -3.12107 162.959 -7.19888 154.635C-9.08332 150.776 -11.0399 146.798 -13.1611 143.005C-15.9929 137.447 -19.1337 132.311 -22.1714 127.359C-25.8991 121.274 -29.4312 115.518 -31.7378 109.934C-35.7641 98.1465 -29.8739 91.9827 -19.7 83.198C-9.21718 74.9005 6.98076 63.0734 26.8343 56.093C45.792 51.1014 59.9922 55.1052 66.8606 67.3538C74.2748 80.5507 72.4316 101.479 61.8046 124.777C50.673 152.198 33.0746 168.28 27.9465 172.547C22.4888 176.867 18.3801 178.974 14.57 178.974ZM6.24964 173.6C12.181 178.46 16.8354 179.33 27.2256 171.098C32.2714 166.897 49.6432 151.026 60.6307 123.948C70.9899 101.228 72.8641 80.9721 65.7691 68.3548C59.2199 56.6857 45.5037 52.9321 27.1329 57.7657C7.48533 64.6802 -8.59933 76.4151 -18.9895 84.6467C-29.462 93.6817 -34.0238 99.0553 -30.5536 109.21C-28.319 114.597 -24.8282 120.286 -21.1314 126.318C-18.073 131.31 -14.9117 136.46 -12.0696 142.057C-9.93801 145.85 -7.98149 149.867 -6.08675 153.739C-2.07073 161.892 1.70844 169.61 6.24964 173.6Z" fill="#CCCCCC"/>
<path d="M14.028 170.703C10.8152 170.703 7.85983 169.294 4.79118 166.476L4.7088 166.383C-7.04063 151.171 -20.932 116.335 -23.599 109.513L-23.6402 109.355C-25.7203 99.5824 -21.0246 93.8401 -11.6436 86.6621C-2.80837 80.3139 11.1447 71.9375 27.4971 68.0258C42.5521 64.9966 53.8278 69.0795 59.2649 79.5237C65.2992 91.1269 63.456 108.762 54.2191 127.912C46.0841 146.377 34.0978 159.666 25.5921 165.936C21.1436 169.123 17.4365 170.703 14.028 170.703ZM5.61498 165.132C11.4949 170.493 16.7363 170.308 24.9228 164.447C33.274 158.297 45.0441 145.231 53.0658 127.043C61.9011 108.723 63.7958 91.3245 58.1528 80.472C53.0246 70.6072 42.2123 66.7746 27.7237 69.7117C11.5669 73.5838 -2.2317 81.8812 -10.9743 88.1504C-19.9537 95.0122 -24.186 100.109 -22.3736 108.841C-14.7123 128.439 -3.35413 153.489 5.61498 165.132Z" fill="#CCCCCC"/>
<path d="M13.473 163.078C10.0336 163.078 7.05765 161.616 4.8025 158.784C-4.2181 147.602 -13.6094 124.014 -16.3794 109.829C-16.8325 106.55 -16.1838 103.349 -14.4744 100.294C-9.20209 90.8769 6.41922 82.7507 27.3231 78.5624C39.1138 77.1005 47.9078 81.1439 52.1092 89.955C56.8666 99.9382 55.1572 114.465 47.4238 129.796C37.3632 149.196 25.3254 161.576 15.2236 162.946C14.6263 163.038 14.0393 163.078 13.473 163.078ZM31.9158 79.9717C30.4947 79.9717 29.0222 80.0639 27.4982 80.2615C6.98558 84.3707 -8.3165 92.2335 -13.3726 101.295C-14.876 103.982 -15.4424 106.734 -15.0614 109.487C-12.3428 123.382 -3.11627 146.588 5.74987 157.572C8.0874 160.496 11.3208 161.774 15.0897 161.26C24.8002 159.943 36.4776 147.839 46.3117 128.874C53.6435 114.334 55.3941 100.123 50.9764 90.8506C47.5886 83.7516 40.9055 79.9717 31.9158 79.9717Z" fill="#CCCCCC"/>
<path d="M13.7912 155.834C10.599 155.834 7.7878 154.516 5.59444 151.961C-2.23165 142.887 -9.47078 123.697 -9.88268 110.909V110.883C-9.93417 99.0949 5.38848 89.4145 26.5395 87.8867C35.5498 87.6102 42.2329 91.456 45.3736 98.7524C48.9778 107.116 47.4949 118.719 41.3061 130.599C33.6551 145.034 24.0784 154.411 15.6757 155.689C15.0269 155.781 14.3988 155.834 13.7912 155.834ZM-8.54401 110.856C-8.13211 123.263 -1.10922 141.886 6.50062 150.697C8.81756 153.397 11.9274 154.53 15.5109 153.99C23.5327 152.765 32.7592 143.664 40.194 129.637C46.0945 118.311 47.5567 107.34 44.1997 99.5558C41.3061 92.852 35.0658 89.296 26.591 89.5726C6.53151 91.0345 -8.5852 100.188 -8.54401 110.856Z" fill="#CCCCCC"/>
<path d="M14.2551 148.972C11.4645 148.972 8.97253 147.879 6.96452 145.732C-0.0892606 138.238 -5.10415 123.065 -4.00232 112.582C-2.80781 102.519 10.0332 95.3018 25.1911 96.1315C31.8433 96.6189 36.7449 100.122 39.0103 105.983C41.6053 112.7 40.4211 121.617 35.746 130.428C30.2265 140.74 22.9462 147.602 16.2734 148.787C15.5835 148.919 14.9142 148.972 14.2551 148.972ZM22.7918 97.7779C9.34324 97.7779 -1.64418 104.139 -2.67393 112.832C-3.70368 122.617 1.19793 137.382 7.81921 144.428C10.0023 146.746 12.8547 147.668 16.0881 147.102C22.4005 145.982 29.3307 139.384 34.6442 129.466C39.0412 121.182 40.1945 112.898 37.8158 106.734C35.7769 101.452 31.2666 98.2915 25.1293 97.8306C24.3467 97.8042 23.5641 97.7779 22.7918 97.7779Z" fill="#CCCCCC"/>
<path d="M14.7881 142.413C12.5433 142.413 10.5044 141.583 8.79498 139.963C2.87393 134.34 -0.452158 123.026 1.3808 114.742C3.24464 106.55 12.9243 101.624 23.3968 103.521C28.041 104.403 31.4495 107.353 32.9941 111.831C34.7447 116.902 33.8797 123.329 30.6257 129.466C26.8877 136.473 21.8728 141.109 16.8682 142.176C16.168 142.334 15.4677 142.413 14.7881 142.413ZM2.66798 115.216C0.999788 122.736 4.17142 133.444 9.5879 138.594C11.5135 140.424 13.954 141.083 16.652 140.503C21.2344 139.516 26.0536 135.038 29.5341 128.518C32.5204 122.881 33.3339 117.06 31.779 112.529C30.43 108.604 27.382 106.01 23.2115 105.22C13.5421 103.455 4.32588 107.946 2.66798 115.216Z" fill="#CCCCCC"/>
<path d="M15.3557 136.064C13.8008 136.064 12.2974 135.55 10.9793 134.444C6.57198 130.796 4.51248 123.051 6.37633 117.191C8.25047 111.356 14.9336 108.208 21.2871 110.184C24.2219 111.093 26.3638 113.318 27.3214 116.427C28.3718 119.851 27.8363 124.013 25.8592 127.832C23.1303 133.074 19.0834 136.064 15.3557 136.064ZM11.7001 133.022C15.4999 136.169 21.3489 133.43 24.7471 126.897C26.477 123.552 26.9713 119.956 26.0754 117.059C25.2825 114.477 23.4702 112.62 20.9679 111.843C15.2322 110.065 9.23904 112.752 7.61204 117.836C5.97474 122.986 7.80768 129.795 11.7001 133.022Z" fill="#CCCCCC"/>
<path d="M15.8309 129.835C14.9865 129.835 14.1627 129.585 13.411 129.058C10.8366 127.254 9.79661 123.105 11.1044 119.799C12.3916 116.533 15.9236 114.966 18.9614 116.309C20.4236 116.954 21.4945 118.245 21.9579 119.957C22.4522 121.762 22.2154 123.869 21.2989 125.726C19.9911 128.347 17.8801 129.835 15.8309 129.835ZM16.6547 117.534C14.7909 117.534 13.03 118.68 12.2783 120.576C11.3 123.065 12.0826 126.2 14.0392 127.557C15.9854 128.926 18.7348 127.688 20.1559 124.804C20.8664 123.368 21.0518 121.854 20.681 120.51C20.3515 119.299 19.5792 118.377 18.5083 117.903C17.9007 117.652 17.2726 117.534 16.6547 117.534Z" fill="#CCCCCC"/>
</g>
</svg>
