<svg width="219" height="441" viewBox="0 0 219 441" fill="none" xmlns="http://www.w3.org/2000/svg">
<g style="mix-blend-mode:multiply" opacity="0.2">
<path d="M-56.1654 440.354C-61.344 440.354 -67.5304 438.998 -75.7674 435.926C-97.6284 427.595 -120.046 402.574 -143.714 376.114C-156.747 361.583 -170.197 346.553 -183.717 334.237C-203.458 311.984 -236.928 296.65 -269.319 281.787C-292.988 270.937 -315.335 260.668 -332.643 247.992L-332.678 247.964C-345.677 238.111 -351.759 228.589 -351.272 218.874C-350.334 199.915 -324.372 183.031 -294.274 163.491L-291.389 161.609C-269.076 147.05 -241.063 127.564 -200.504 98.4748L-197.063 96.0945C-160.779 70.9628 -115.597 39.6866 -57.0691 20.7271C60.1604 -23.198 162.758 10.8183 195.15 47.6856C228.932 90.7803 226.013 136.532 184.028 222.639C140.063 312.399 42.6785 381.788 2.84897 407.445C-13.4512 415.915 -23.6693 423.416 -31.1069 428.896C-40.5603 435.815 -46.712 440.354 -56.1654 440.354ZM-329.585 245.335C-312.659 257.734 -290.52 267.892 -267.095 278.659C-234.321 293.688 -200.4 309.243 -180.242 331.995C-166.687 344.312 -153.167 359.424 -140.099 374.01C-116.744 400.083 -94.6742 424.716 -73.8906 432.66C-53.3502 440.271 -48.5193 436.729 -34.1653 426.211C-26.5887 420.648 -16.1969 413.009 0.207611 404.484C39.5505 379.103 136.24 310.24 179.823 221.282C221.216 136.421 224.24 91.4999 191.396 49.623C159.943 13.8629 59.7434 -19.1293 -55.2617 23.9654C-113.199 42.7589 -158.068 73.8136 -194.109 98.7516L-197.515 101.132C-238.109 130.249 -266.157 149.762 -288.539 164.349L-291.424 166.231C-320.688 185.218 -345.92 201.631 -346.789 218.958C-347.206 227.621 -341.576 236.229 -329.585 245.335Z" fill="#CCCCCC"/>
<path d="M-62.911 415.278C-70.0706 415.278 -77.6473 413.451 -88.0738 410.213L-88.2824 410.157C-108.301 402.158 -124.15 382.867 -140.902 362.468C-152.336 348.518 -164.188 334.126 -178.438 321.588C-198.526 301.244 -223.793 285.412 -248.191 270.106C-264.596 259.838 -280.097 250.123 -293.616 239.384L-293.86 239.162C-321.386 209.298 -301.645 196.123 -265.847 172.181C-261.954 169.58 -257.853 166.839 -253.578 163.906C-245.168 158.951 -236.201 153.416 -226.678 147.548C-184.381 121.447 -126.409 85.715 -44.6298 56.7084C55.3264 26.2348 132.553 48.2666 164.805 83.6115C197.128 120.451 184.581 164.791 148.262 238.858C108.467 313.755 35.8287 362.247 -3.20145 388.292L-7.54587 391.198C-36.5665 408.358 -49.0089 415.278 -62.911 415.278ZM-86.3361 406.891C-57.8715 415.693 -53.0405 413.59 -10.3263 388.402L-6.08615 385.579C32.6312 359.728 104.714 311.596 144.091 237.557C179.82 164.736 192.297 121.226 161.156 85.7427C129.946 51.5326 54.7355 30.3035 -42.892 60.0574C-124.08 88.8426 -181.774 124.437 -223.932 150.399C-233.455 156.266 -242.422 161.802 -250.763 166.729C-254.934 169.58 -259.035 172.32 -262.928 174.949C-298.76 198.918 -315.165 209.879 -290.315 236.948C-277.003 247.493 -261.642 257.098 -245.411 267.283C-220.769 282.7 -195.329 298.67 -174.997 319.263C-160.608 331.912 -148.652 346.443 -137.114 360.503C-120.744 380.431 -105.243 399.28 -86.3361 406.891Z" fill="#CCCCCC"/>
<path d="M-68.7397 394.354C-77.8803 394.354 -86.3606 391.753 -96.9262 387.324C-114.582 378.855 -128.762 361.334 -143.776 342.818C-152.674 331.802 -161.919 320.426 -172.484 309.991C-187.255 293.606 -204.772 279.601 -221.663 266.039C-235.53 254.912 -248.633 244.422 -258.955 233.6L-259.094 233.434C-280.017 205.368 -258.399 192.277 -219.126 168.501L-218.674 168.224L-211.41 164.266C-170.051 141.819 -113.4 111.069 -35.7917 88.7882C55.8231 65.511 114.142 89.2311 136.282 116.577C159.95 145.75 154.146 184.914 116.263 251.757C88.6668 298.339 43.6241 340.216 -17.58 376.225C-41.2483 389.012 -55.6717 394.354 -68.7397 394.354ZM-255.306 231.469C-245.157 242.069 -232.194 252.476 -218.465 263.465C-201.435 277.11 -183.814 291.253 -168.904 307.777C-158.235 318.267 -148.955 329.754 -139.988 340.853C-125.287 359.037 -111.384 376.197 -94.7019 384.196C-70.6512 394.327 -58.6607 394.133 -20.1866 373.291C40.3571 337.642 84.9133 296.235 112.161 250.234C149.315 184.665 155.223 146.497 132.493 118.487C109.52 90.1168 49.0459 70.9635 -34.3668 92.1373C-111.35 114.252 -167.723 144.836 -208.873 167.2L-216.415 171.324C-255.966 195.266 -274.074 206.226 -255.306 231.469Z" fill="#CCCCCC"/>
<path d="M-72.0046 375.312C-82.2226 375.312 -91.8151 372.517 -102.52 367.036L-102.589 367.009C-118.716 358.207 -131.714 341.656 -145.477 324.163C-151.837 316.053 -158.441 307.695 -165.601 299.723C-175.158 288.043 -185.759 277.249 -196.011 266.842C-208.593 254.054 -220.514 241.959 -228.299 230.224C-241.888 205.452 -222.008 192.498 -187.67 174.037C-152.289 156.6 -97.6192 131.745 -30.6111 117.076C33.3734 106.586 81.3008 115 104.483 140.74C129.506 168.474 123.285 212.454 87.4178 261.417C49.8473 319.043 -9.54938 352.837 -26.8575 361.805C-45.2778 370.884 -59.1452 375.312 -72.0046 375.312ZM-100.087 364.019C-80.0678 374.233 -64.3585 376.059 -29.2904 358.761C-12.2603 349.931 46.3718 316.579 83.4557 259.673C118.419 211.928 124.745 169.359 100.799 142.844C78.6942 118.321 32.4002 110.433 -29.6032 120.591C-95.9162 135.122 -150.204 159.783 -185.272 177.082C-220.618 196.069 -236.015 207.361 -224.302 228.701C-216.76 240.022 -204.978 251.979 -192.501 264.655C-182.179 275.145 -171.509 285.967 -161.916 297.73C-154.722 305.702 -148.119 314.143 -141.724 322.281C-128.169 339.414 -115.414 355.633 -100.087 364.019Z" fill="#CCCCCC"/>
<path d="M-74.162 357.929C-85.0057 357.929 -94.9804 354.967 -105.338 349.044L-105.616 348.85C-145.271 316.882 -192.156 243.673 -201.158 229.336L-201.297 229.004C-208.317 208.467 -192.469 196.399 -160.807 181.315C-130.987 167.974 -83.8935 150.371 -28.7022 142.15C22.11 135.784 60.167 144.364 78.5178 166.313C98.8844 190.697 92.6632 227.758 61.4878 268.002C34.0311 306.807 -6.42406 334.734 -35.1319 347.909C-50.1462 354.607 -62.6581 357.929 -74.162 357.929ZM-102.557 346.221C-82.7118 357.486 -65.0214 357.098 -37.391 344.781C-9.20445 331.856 30.5208 304.399 57.5952 266.176C87.4152 227.675 93.8101 191.113 74.7642 168.306C57.4561 147.575 20.9631 139.521 -27.9375 145.693C-82.4685 153.83 -129.041 171.267 -158.548 184.442C-188.854 198.863 -203.139 209.574 -197.022 227.925C-171.164 269.11 -132.829 321.753 -102.557 346.221Z" fill="#CCCCCC"/>
<path d="M-75.7488 341.905C-87.357 341.905 -97.4013 338.832 -105.013 332.881C-135.458 309.383 -167.155 259.811 -176.504 230.002C-178.033 223.11 -175.844 216.384 -170.075 209.963C-152.28 190.173 -99.5561 173.096 -29.0029 164.294C10.7918 161.222 40.4728 169.719 54.653 188.236C70.7099 209.216 64.9405 239.745 38.8393 271.962C4.88341 312.732 -35.7454 338.749 -69.8403 341.628C-71.8561 341.822 -73.8372 341.905 -75.7488 341.905ZM-13.5021 167.256C-18.2983 167.256 -23.2683 167.45 -28.4121 167.865C-97.6445 176.5 -149.291 193.024 -166.356 212.067C-171.43 217.713 -173.341 223.498 -172.056 229.282C-162.88 258.483 -131.739 307.252 -101.815 330.335C-93.9258 336.48 -83.0126 339.164 -70.2922 338.085C-37.518 335.317 1.89445 309.881 35.0857 270.025C59.8315 239.468 65.7399 209.603 50.8298 190.118C39.3954 175.199 16.8392 167.256 -13.5021 167.256Z" fill="#CCCCCC"/>
<path d="M-74.8203 326.68C-85.5945 326.68 -95.0827 323.912 -102.486 318.543C-128.9 299.473 -153.332 259.146 -154.723 232.27V232.215C-154.896 207.443 -103.181 187.1 -31.7934 183.889C-1.38251 183.308 21.1737 191.39 31.774 206.723C43.9384 224.299 38.9336 248.683 18.0457 273.649C-7.7775 303.984 -40.0999 323.691 -68.4602 326.376C-70.6498 326.569 -72.7698 326.68 -74.8203 326.68ZM-150.205 232.16C-148.814 258.232 -125.111 297.369 -99.4271 315.886C-91.6071 321.56 -81.1111 323.94 -69.0162 322.805C-41.9419 320.231 -10.8011 301.106 14.2921 271.628C34.2069 247.825 39.1422 224.769 27.8119 208.412C18.0457 194.324 -3.01601 186.85 -31.6196 187.432C-99.3228 190.504 -150.344 209.74 -150.205 232.16Z" fill="#CCCCCC"/>
<path d="M-74.0442 312.261C-83.4628 312.261 -91.8736 309.963 -98.6509 305.452C-122.458 289.703 -139.384 257.818 -135.665 235.786C-131.634 214.64 -88.2938 199.472 -37.1341 201.216C-14.6822 202.24 1.8613 209.603 9.50746 221.919C18.2658 236.035 14.2689 254.773 -1.50995 273.29C-20.1388 294.962 -44.7107 309.382 -67.2322 311.873C-69.5608 312.15 -71.8198 312.261 -74.0442 312.261ZM-45.2321 204.676C-90.6224 204.676 -127.706 218.045 -131.182 236.312C-134.657 256.877 -118.114 287.904 -95.7662 302.712C-88.3981 307.583 -78.7709 309.521 -67.8577 308.33C-46.5527 305.978 -23.1624 292.111 -5.22873 271.269C9.61176 253.86 13.5043 236.45 5.47585 223.497C-1.4057 212.398 -16.6285 205.755 -37.3426 204.787C-39.984 204.731 -42.6254 204.676 -45.2321 204.676Z" fill="#CCCCCC"/>
</g>
</svg>
