<svg width="45" height="45" viewBox="0 0 45 45" fill="none" xmlns="http://www.w3.org/2000/svg">
<g id="slack 1" clip-path="url(#clip0_9_7351)">
<g id="Group">
<path id="Vector" d="M16.3794 23.7776C13.8612 23.7776 11.8125 25.8262 11.8125 28.3445V39.7568C11.8125 42.275 13.8612 44.3237 16.3794 44.3237C18.8976 44.3238 20.9463 42.2751 20.9463 39.7569V28.3445C20.9463 25.8262 18.8976 23.7776 16.3794 23.7776Z" fill="#FF4340"/>
<path id="Vector_2" d="M9.2566 23.7776H4.83533C2.39741 23.7776 0.414062 25.761 0.414062 28.1989C0.414062 30.6368 2.39749 32.6201 4.83533 32.6201C7.27316 32.6201 9.2566 30.6367 9.2566 28.1989V23.7776Z" fill="#FF4340"/>
<path id="Vector_3" d="M0.400391 16.6531C0.400391 19.1713 2.44904 21.2199 4.96727 21.2199H16.3796C18.8979 21.2199 20.9466 19.1713 20.9466 16.6531C20.9466 14.1348 18.8979 12.0862 16.3797 12.0862H4.96727C2.44904 12.0861 0.400391 14.1348 0.400391 16.6531H0.400391Z" fill="#36C6FF"/>
<path id="Vector_4" d="M16.5267 9.52833H20.948V5.10706C20.948 2.66914 18.9646 0.685791 16.5267 0.685791C14.0888 0.685791 12.1055 2.66922 12.1055 5.10706C12.1055 7.54489 14.0888 9.52833 16.5267 9.52833Z" fill="#36C6FF"/>
<path id="Vector_5" d="M28.0708 21.2198C30.589 21.2198 32.6377 19.1711 32.6377 16.6529V5.24047C32.6378 2.72224 30.589 0.673584 28.0708 0.673584C25.5526 0.673584 23.5039 2.72224 23.5039 5.24047V16.6528C23.5039 19.1711 25.5526 21.2198 28.0708 21.2198Z" fill="#0DC46E"/>
<path id="Vector_6" d="M35.1953 21.2202H39.6166C42.0545 21.2202 44.0378 19.2368 44.0378 16.799C44.0378 14.361 42.0544 12.3777 39.6166 12.3777C37.1787 12.3777 35.1953 14.3611 35.1953 16.799V21.2202Z" fill="#0DC46E"/>
<g id="Group_2">
<path id="Vector_7" d="M44.0501 28.3445C44.0501 25.8262 42.0014 23.7776 39.4832 23.7776H28.0708C25.5526 23.7776 23.5039 25.8262 23.5039 28.3445C23.5039 30.8627 25.5526 32.9113 28.0708 32.9113H39.4831C42.0014 32.9114 44.0501 30.8627 44.0501 28.3445Z" fill="#FDCB02"/>
<path id="Vector_8" d="M27.9252 35.4688H23.5039V39.89C23.5039 42.3279 25.4873 44.3113 27.9252 44.3113C30.3631 44.3113 32.3464 42.3279 32.3464 39.89C32.3464 37.4522 30.3631 35.4688 27.9252 35.4688Z" fill="#FDCB02"/>
</g>
</g>
</g>
<defs>
<clipPath id="clip0_9_7351">
<rect width="43.65" height="43.65" fill="white" transform="translate(0.400391 0.673584)"/>
</clipPath>
</defs>
</svg>
