<svg width="338" height="674" viewBox="0 0 338 674" fill="none" xmlns="http://www.w3.org/2000/svg">
<g opacity="0.2">
<path d="M246.672 187.35C248.274 193.328 248.131 201.022 246.02 211.78C240.149 240.404 209.14 276.451 176.336 314.528C158.332 335.48 139.702 357.115 125.206 377.728C97.5665 409.562 84.6671 454.433 72.148 497.869C63.0164 529.603 54.3577 559.575 40.4883 584.709L40.457 584.76C29.5357 603.771 16.9786 614.661 2.09552 618.047C-26.9462 624.668 -60.5811 601.555 -99.5248 574.747L-103.271 572.181C-132.252 552.336 -170.466 527.913 -227.127 492.907L-231.801 489.902C-281.137 458.224 -342.543 418.77 -389.4 358.903C-492.276 241.409 -472.43 109.138 -426.542 56.7609C-371.641 0.248308 -301.356 -14.9719 -157.791 -1.48901C-8.07162 12.7964 127.28 97.0317 178.51 132.589C196.397 147.967 210.932 156.716 221.544 163.076C234.961 171.178 243.748 176.436 246.672 187.35ZM35.5128 582.257C49.0806 557.678 57.6361 527.991 66.7171 496.572C79.3697 452.627 92.465 407.144 120.731 374.627C135.216 353.973 153.951 332.224 172.028 311.21C204.341 273.651 234.87 238.163 240.487 210.94C245.675 184.133 238.808 179.995 218.418 167.697C207.638 161.211 192.839 152.317 174.836 136.842C124.177 101.734 -10.1629 18.0875 -158.546 3.91723C-300.04 -9.38961 -369.098 5.37278 -422.443 60.3071C-466.942 111.151 -485.977 240.238 -385.048 355.5C-338.626 414.753 -277.652 453.935 -228.685 485.412L-224.022 488.377C-167.309 523.412 -129.041 547.864 -99.9976 567.777L-96.2511 570.343C-58.4049 596.413 -25.7094 618.875 0.834505 612.837C14.1011 609.799 25.4129 599.801 35.5128 582.257Z" fill="#A7CEFC"/>
<path d="M210.828 205.684C213.043 213.95 212.616 223.439 210.931 236.793L210.911 237.056C204.974 263.418 180.622 289.554 154.87 317.183C137.253 336.053 119.093 355.584 104.487 377.13C79.8514 408.588 63.6592 444.192 47.9957 478.58C37.4984 501.691 27.5611 523.534 15.4579 543.507L15.1974 543.878C-21.5762 587.792 -47.6622 570.354 -95.0428 538.754C-100.192 535.317 -105.616 531.695 -111.388 527.952C-121.503 520.255 -132.672 512.152 -144.516 503.542C-197.181 465.315 -269.301 412.906 -338.587 330.278C-415.721 227.261 -406.2 129.151 -362.578 77.5527C-316.711 25.2672 -245.589 21.7353 -122.034 33.57C3.85532 49.0799 99.8626 113.237 151.433 147.715L157.184 151.549C192.185 178.081 206.527 189.634 210.828 205.684ZM205.356 236.136C209.898 199.697 205.214 194.975 153.805 155.895L148.212 152.147C97.0321 117.952 1.74257 54.2906 -122.717 38.9136C-244.2 27.2549 -314.041 30.5296 -358.217 80.8999C-400.441 130.833 -409.368 226.29 -334.046 326.911C-265.279 408.947 -193.454 461.091 -141.042 499.214C-129.198 507.824 -118.029 515.927 -107.978 523.555C-102.364 527.212 -96.9403 530.833 -91.7486 534.258C-44.3153 565.888 -22.6193 580.373 10.7429 540.685C22.6168 521.032 32.4293 499.394 42.8544 476.517C58.6105 441.804 74.9588 405.943 99.8971 374.102C114.628 352.351 132.965 332.643 150.718 313.608C175.874 286.612 199.663 261.057 205.356 236.136Z" fill="#A7CEFC"/>
<path d="M180.99 221.249C183.817 231.802 182.495 242.649 179.048 256.647C171.666 280.472 149.484 303.962 126.048 328.82C112.096 343.568 97.7046 358.864 85.1492 375.302C64.8706 399.013 49.0511 424.927 33.7095 449.938C21.1263 470.47 9.27182 489.859 -3.94641 506.174L-4.15531 506.402C-40.2435 541.961 -66.7841 522.323 -114.988 486.642L-115.548 486.233L-123.797 479.455C-170.631 440.828 -234.788 387.919 -292.584 307.373C-356.224 211.062 -338.295 134.093 -303.674 97.422C-266.756 58.2428 -205.569 49.0297 -92.4852 65.6055C-13.308 78.5368 64.131 113.523 137.671 169.551C164.384 191.68 176.947 206.162 180.99 221.249ZM-8.30726 502.827C4.62895 486.803 16.4005 467.607 28.8169 447.293C44.2413 422.087 60.2385 395.997 80.684 372.069C93.291 355.488 107.839 340.107 121.896 325.245C144.925 300.883 166.647 277.86 173.617 255.35C181.539 223.467 177.536 209.702 134.028 173.753C61.2381 118.34 -15.3369 83.725 -93.5251 70.9588C-204.452 54.7083 -264.161 63.3962 -299.606 101.02C-335.522 139.07 -345.859 216.67 -287.946 304.367C-230.595 384.258 -166.776 436.913 -120.132 475.334L-111.545 482.366C-63.0036 518.3 -40.7808 534.751 -8.30726 502.827Z" fill="#A7CEFC"/>
<path d="M153.12 232.757C156.281 244.554 155.009 256.765 150.01 271.35L149.989 271.441C141.631 293.636 120.552 315.368 98.2826 338.366C87.9521 349.004 77.319 360.024 67.4456 371.529C52.6897 387.309 39.5994 403.934 26.9893 419.999C11.4898 439.72 -3.1646 458.398 -18.5528 472.155C-51.9148 497.909 -77.708 480.221 -116.326 448.079C-153.714 414.317 -208.318 361.3 -251.293 289.899C-286.994 220.291 -289.06 161.54 -257.197 124.317C-222.881 84.1581 -154.262 73.4696 -68.9158 94.9834C30.0942 114.943 99.7175 169.785 118.671 186.123C138.136 203.701 149.142 217.911 153.12 232.757ZM144.682 269.767C153.977 242.505 151.888 223.626 114.807 190.169C96.149 174.095 27.4338 119.957 -70.3344 100.266C-153.554 79.3008 -220.065 89.2953 -252.867 127.716C-283.217 163.2 -280.859 219.852 -246.274 287.307C-203.724 357.962 -149.533 410.616 -112.451 444.073C-72.7235 477.165 -50.8356 490.352 -22.0977 468.159C-7.26387 454.852 7.22371 436.391 22.5875 416.835C35.3021 400.655 48.4128 383.94 63.2839 368.085C73.1465 356.54 83.9055 345.486 94.2673 334.797C116.055 312.186 136.706 290.87 144.682 269.767Z" fill="#A7CEFC"/>
<path d="M127.333 241.949C130.688 254.468 129.282 267.187 123.504 281.551L123.296 281.951C87.0849 340.723 -9.4299 424.599 -28.3873 440.818L-28.8479 441.113C-57.82 457.563 -81.0229 444.17 -113.693 413.745C-143.149 384.739 -184.412 337.522 -213.951 277.144C-239.323 221.068 -238.085 173.644 -210.477 143.54C-179.799 110.118 -121.673 102.241 -51 121.881C16.3397 137.812 71.2052 173.17 100.065 200.959C114.867 215.572 123.774 228.667 127.333 241.949ZM118.363 279.488C129.306 251.999 123.246 231.733 96.021 204.838C67.7002 177.549 13.774 142.843 -52.5661 127.117C-120.175 108.334 -177.6 115.808 -206.294 147.063C-232.377 175.469 -233.302 220.873 -208.815 274.821C-179.606 334.471 -138.756 381.153 -109.649 409.866C-78.4055 438.996 -57.7431 451.135 -31.8073 436.616C22.6494 390.028 90.623 324.379 118.363 279.488Z" fill="#A7CEFC"/>
<path d="M103.611 250.627C107.202 264.029 105.651 276.874 98.981 288.079C72.7643 332.777 7.39608 389.514 -34.9166 412.42C-44.8948 416.986 -55.7716 417.191 -67.2941 413.139C-102.81 400.637 -145.017 346.706 -180.19 268.829C-197.159 224.134 -193.455 186.414 -169.762 162.519C-142.914 135.456 -94.8327 129.712 -37.9018 146.755C34.4285 169.391 86.4516 205.725 101.364 243.918C102.281 246.167 103.02 248.42 103.611 250.627ZM-180.494 249.729C-179.01 255.267 -177.179 260.926 -174.958 266.696C-140.445 343.116 -99.4109 396.028 -65.2545 407.991C-55.1223 411.555 -45.7587 411.412 -37.3842 407.576C4.05891 385.118 68.382 329.35 94.1304 285.422C101.008 273.817 101.703 260.127 96.1312 245.88C81.7953 209.166 31.0299 174 -39.6788 151.876C-93.672 135.723 -140.789 141.037 -165.725 166.168C-184.811 185.431 -189.88 214.7 -180.494 249.729Z" fill="#A7CEFC"/>
<path d="M80.1932 255.568C83.5262 268.007 82.2641 280.085 76.4114 290.814C55.6631 329.058 2.06683 373.652 -38.2589 386.178L-38.3428 386.2C-75.8548 396.466 -122.703 345.027 -149.656 263.914C-159.945 229.041 -154.666 199.716 -134.692 181.247C-111.803 160.062 -73.2761 155.931 -28.9549 169.902C25.0359 187.389 64.9194 216.698 77.764 248.349C78.7352 250.798 79.5589 253.2 80.1932 255.568ZM-39.8244 381.006C-0.715952 368.807 51.3013 325.539 71.4359 288.363C77.6212 277.029 77.984 263.944 72.5215 250.441C60.2427 220.23 21.606 192.049 -30.8578 175.057C-73.1151 161.737 -109.605 165.408 -130.906 185.135C-149.249 202.135 -154.067 229.487 -144.337 262.274C-118.734 339.189 -73.7795 390.277 -39.8244 381.006Z" fill="#A7CEFC"/>
<path d="M57.8403 259.622C60.7539 270.496 59.872 281.139 55.1269 290.797C38.6091 324.682 -4.50775 357.179 -39.0686 361.838C-72.3831 365.776 -108.791 321.903 -121.973 262.13C-127.366 235.793 -121.319 213.702 -105.006 199.87C-86.3092 184.023 -56.6571 181.023 -23.696 191.716C14.9316 204.417 44.4008 226.926 55.1454 251.915C56.2855 254.491 57.1522 257.054 57.8403 259.622ZM-114.222 270.074C-100.18 322.477 -68.4354 359.858 -39.6581 356.448C-7.39703 352.104 34.537 320.397 50.0793 288.58C55.1872 278.094 55.1472 266.192 49.9664 254.077C39.808 230.436 11.5438 209.066 -25.6096 196.83C-56.6015 186.771 -84.2067 189.351 -101.366 203.884C-116.069 216.338 -121.433 236.612 -116.494 260.92C-115.761 263.992 -115.028 267.064 -114.222 270.074Z" fill="#A7CEFC"/>
<path d="M36.38 263.136C38.7239 271.884 38.2084 280.537 34.8305 288.581C23.0901 316.455 -9.49193 339.076 -37.8067 339.008C-65.8599 338.741 -91.6642 305.23 -96.5543 262.803C-98.5911 243.953 -92.7478 228.152 -80.0897 218.31C-65.7579 207.158 -44.372 205.041 -21.4151 212.479C4.81731 221.061 24.8277 236.644 33.4528 255.233C34.6875 257.827 35.6705 260.488 36.38 263.136ZM-37.6396 333.588C-11.9313 333.666 18.8813 312.164 29.6374 286.661C33.4611 277.594 33.0116 267.522 28.348 257.504C20.4156 240.492 1.11312 225.537 -23.2975 217.542C-44.3799 210.72 -63.7813 212.521 -76.5965 222.448C-87.696 231.056 -92.7822 245.149 -90.9463 262.074C-86.475 301.259 -62.5397 333.336 -37.6396 333.588Z" fill="#A7CEFC"/>
<path d="M15.5561 266.35C17.1796 272.408 17.1124 278.705 14.9628 284.786C7.93794 305.075 -14.5919 319.713 -35.2159 317.455C-55.7667 315.135 -72.7759 291.781 -73.1136 265.337C-73.2817 253.125 -68.4246 242.879 -59.5189 236.493C-49.7025 229.476 -35.88 228.009 -21.6435 232.451C-2.08915 238.608 11.6641 251.824 15.5561 266.35ZM9.67713 283.192C15.7414 265.698 0.904088 245.246 -23.4625 237.583C-35.9299 233.699 -47.9046 234.843 -56.2032 240.808C-63.6021 246.102 -67.628 254.75 -67.4917 265.164C-67.1695 289.032 -52.3497 310.09 -34.4494 312.089C-16.3285 314.071 3.45781 301.115 9.67713 283.192Z" fill="#A7CEFC"/>
<path d="M-4.79197 269.824C-3.91035 273.115 -3.84776 276.538 -4.74182 279.917C-7.80424 291.489 -19.9398 299.085 -31.8405 296.812C-43.5937 294.585 -52.2762 282.161 -51.1667 269.177C-50.6367 262.928 -47.6415 257.653 -42.6688 254.385C-37.4346 250.918 -30.4717 250.042 -23.5966 252.027C-13.8786 254.885 -6.93152 261.84 -4.79197 269.824ZM-44.8549 277.119C-42.9089 284.381 -37.4187 290.264 -30.5897 291.574C-21.6354 293.26 -12.463 287.534 -10.1826 278.752C-7.84942 269.999 -14.6655 260.342 -25.3413 257.268C-30.6582 255.725 -35.6786 256.296 -39.5728 258.888C-43.0902 261.207 -45.222 265.003 -45.6148 269.581C-45.778 272.162 -45.5 274.711 -44.8549 277.119Z" fill="#A7CEFC"/>
</g>
</svg>
