<svg width="183" height="272" viewBox="0 0 183 272" fill="none" xmlns="http://www.w3.org/2000/svg">
<g opacity="0.2">
<path d="M10.5505 271.474C7.3123 271.474 3.44386 270.641 -1.70683 268.753C-15.3768 263.633 -29.3945 248.257 -44.1945 231.997C-52.3444 223.067 -60.755 213.831 -69.209 206.262C-81.5533 192.587 -102.482 183.164 -122.737 174.03C-137.537 167.363 -151.511 161.052 -162.334 153.262L-162.356 153.245C-170.484 147.19 -174.287 141.339 -173.983 135.369C-173.396 123.718 -157.162 113.342 -138.341 101.334L-136.537 100.177C-122.585 91.2306 -105.068 79.2563 -79.706 61.3799L-77.5545 59.9172C-54.8654 44.4731 -26.6127 25.253 9.98546 13.6019C83.2903 -13.3913 147.446 7.51267 167.701 30.1686C188.825 56.6515 187 84.7672 160.746 137.682C133.254 192.842 72.3587 235.483 47.4529 251.251C37.2602 256.455 30.8707 261.065 26.2199 264.433C20.3086 268.685 16.4618 271.474 10.5505 271.474ZM-160.422 151.629C-149.838 159.249 -135.994 165.492 -121.346 172.108C-100.852 181.344 -79.6408 190.903 -67.0358 204.884C-58.56 212.453 -50.1059 221.74 -41.9343 230.704C-27.3298 246.726 -13.5295 261.864 -0.533234 266.746C12.3109 271.423 15.3317 269.246 24.3074 262.783C29.0452 259.364 35.5433 254.669 45.8012 249.431C70.4028 233.833 130.864 191.515 158.117 136.849C184 84.6992 185.891 57.0937 165.354 31.3592C145.685 9.38364 83.0296 -10.891 11.1156 15.5919C-25.1131 27.141 -53.1702 46.225 -75.7072 61.55L-77.837 63.0128C-103.221 80.9062 -120.759 92.8975 -134.755 101.861L-136.559 103.018C-154.858 114.686 -170.636 124.772 -171.18 135.42C-171.44 140.744 -167.92 146.033 -160.422 151.629Z" fill="#CCCCCC"/>
<path d="M6.13791 256.064C1.66095 256.064 -3.07683 254.942 -9.59668 252.952L-9.72707 252.918C-22.2452 248.002 -32.1554 236.147 -42.6306 223.611C-49.7807 215.039 -57.1916 206.194 -66.1021 198.489C-78.6637 185.987 -94.4634 176.258 -109.72 166.852C-119.978 160.542 -129.671 154.572 -138.125 147.972L-138.277 147.836C-155.489 129.484 -143.145 121.387 -120.76 106.675C-118.326 105.076 -115.762 103.392 -113.089 101.589C-107.829 98.5445 -102.222 95.1427 -96.2673 91.5368C-69.8184 75.4974 -33.568 53.5389 17.5694 35.7135C80.0731 16.9867 128.363 30.5258 148.532 52.2462C168.743 74.8851 160.898 102.133 138.187 147.649C113.303 193.675 67.881 223.475 43.475 239.48L40.7584 241.266C22.6114 251.812 14.8311 256.064 6.13791 256.064ZM-8.51004 250.91C9.28917 256.319 12.3101 255.027 39.0197 239.549L41.6711 237.814C65.8815 221.927 110.955 192.349 135.579 146.85C157.92 102.099 165.722 75.3613 146.25 53.5559C126.733 32.5328 79.7036 19.487 18.656 37.7716C-32.1119 55.4609 -68.1884 77.3343 -94.5504 93.2887C-100.505 96.8946 -106.112 100.296 -111.328 103.324C-113.936 105.076 -116.501 106.76 -118.935 108.376C-141.341 123.105 -151.599 129.841 -136.06 146.476C-127.736 152.956 -118.131 158.858 -107.981 165.117C-92.5727 174.591 -76.6642 184.406 -63.9505 197.06C-54.9531 204.833 -47.477 213.763 -40.2617 222.404C-30.0256 234.65 -20.3327 246.233 -8.51004 250.91Z" fill="#CCCCCC"/>
<path d="M2.3148 243.206C-3.40093 243.206 -8.70375 241.607 -15.3105 238.885C-26.3508 233.681 -35.2178 222.914 -44.6064 211.535C-50.17 204.765 -55.951 197.775 -62.5578 191.362C-71.7942 181.293 -82.7476 172.687 -93.3097 164.352C-101.981 157.515 -110.174 151.068 -116.629 144.418L-116.716 144.316C-129.799 127.069 -116.281 119.023 -91.7232 104.413L-91.4407 104.243L-86.8985 101.81C-61.0364 88.016 -25.6119 69.1191 22.9175 55.4269C80.2053 41.1224 116.673 55.6991 130.517 72.5039C145.317 90.4313 141.688 114.499 117.999 155.576C100.743 184.202 72.5771 209.936 34.3056 232.065C19.5055 239.923 10.4864 243.206 2.3148 243.206ZM-114.347 143.108C-108.001 149.622 -99.8948 156.018 -91.3103 162.77C-80.6612 171.156 -69.6427 179.847 -60.3193 190.002C-53.6473 196.448 -47.8446 203.507 -42.2375 210.327C-33.0445 221.502 -24.3514 232.048 -13.9196 236.963C1.1195 243.188 8.61734 243.069 32.6756 230.262C70.5342 208.354 98.3957 182.909 115.434 154.64C138.667 114.346 142.361 90.8905 128.148 73.6775C113.783 56.2433 75.9674 44.4732 23.8086 57.485C-24.3297 71.0751 -59.5804 89.87 -85.312 103.613L-90.0281 106.148C-114.76 120.86 -126.083 127.596 -114.347 143.108Z" fill="#CCCCCC"/>
<path d="M0.263481 231.504C-6.12598 231.504 -12.1242 229.786 -18.818 226.418L-18.8614 226.401C-28.9455 220.992 -37.0736 210.821 -45.6798 200.071C-49.6569 195.088 -53.7861 189.951 -58.2631 185.052C-64.2396 177.875 -70.8682 171.241 -77.2793 164.846C-85.1466 156.988 -92.601 149.555 -97.4692 142.343C-105.967 127.12 -93.5355 119.16 -72.0634 107.815C-49.9394 97.0991 -15.7536 81.8251 26.1473 72.8104C66.1575 66.364 96.1271 71.5347 110.623 87.353C126.271 104.396 122.38 131.423 99.9521 161.512C76.4588 196.925 39.3174 217.692 28.4945 223.203C16.9761 228.782 8.30464 231.504 0.263481 231.504ZM-17.2967 224.564C-4.77854 230.84 5.04469 231.963 26.9731 221.332C37.6222 215.907 74.2856 195.411 97.4745 160.44C119.338 131.1 123.293 104.94 108.319 88.6457C94.4971 73.5758 65.549 68.7282 26.7776 74.9705C-14.6887 83.9002 -48.6354 99.0552 -70.5639 109.686C-92.6662 121.354 -102.294 128.293 -94.9699 141.407C-90.2539 148.364 -82.8864 155.712 -75.0843 163.502C-68.6297 169.948 -61.9577 176.599 -55.9594 183.828C-51.4607 188.726 -47.3315 193.914 -43.3326 198.915C-34.8568 209.443 -26.8809 219.41 -17.2967 224.564Z" fill="#CCCCCC"/>
<path d="M-0.880157 220.822C-7.6608 220.822 -13.8981 219.002 -20.3745 215.362L-20.5484 215.243C-45.3456 195.598 -74.6632 150.609 -80.292 141.798L-80.3789 141.594C-84.769 128.974 -74.8588 121.558 -55.0602 112.288C-36.4134 104.089 -6.96535 93.2718 27.5464 88.2201C59.3198 84.3081 83.1173 89.5809 94.5922 103.069C107.328 118.054 103.438 140.829 83.9432 165.56C66.7742 189.406 41.4772 206.568 23.5258 214.665C14.1372 218.781 6.31342 220.822 -0.880157 220.822ZM-18.6359 213.627C-6.22643 220.55 4.83559 220.312 22.1132 212.743C39.7385 204.799 64.5792 187.927 81.5091 164.437C100.156 140.778 104.155 118.309 92.2451 104.294C81.4221 91.5539 58.6027 86.6043 28.0245 90.3973C-6.0743 95.3979 -35.1963 106.114 -53.6475 114.21C-72.5986 123.071 -81.5308 129.654 -77.7058 140.931C-61.5366 166.24 -37.5652 198.591 -18.6359 213.627Z" fill="#CCCCCC"/>
<path d="M-2.05236 210.974C-9.31113 210.974 -15.5919 209.086 -20.3514 205.429C-39.3894 190.988 -59.2097 160.525 -65.0559 142.206C-66.0121 137.971 -64.643 133.838 -61.0353 129.892C-49.9081 117.731 -16.9393 107.236 27.1784 101.827C52.0625 99.9393 70.6223 105.161 79.4893 116.54C89.5299 129.433 85.9222 148.194 69.6009 167.992C48.3679 193.046 22.9622 209.035 1.64225 210.803C0.381744 210.923 -0.857056 210.974 -2.05236 210.974ZM36.8712 103.647C33.8721 103.647 30.7643 103.766 27.5478 104.021C-15.744 109.328 -48.0391 119.483 -58.7099 131.185C-61.8829 134.655 -63.0782 138.209 -62.2741 141.764C-56.5366 159.709 -37.064 189.678 -18.352 203.864C-13.4186 207.64 -6.59451 209.29 1.35972 208.626C21.8538 206.925 46.4988 191.294 67.2537 166.801C82.7275 148.024 86.4221 129.671 77.0987 117.697C69.9486 108.529 55.844 103.647 36.8712 103.647Z" fill="#CCCCCC"/>
<path d="M-1.37965 201.619C-8.11683 201.619 -14.0499 199.918 -18.679 196.618C-35.196 184.899 -50.4742 160.117 -51.3435 143.601V143.567C-51.4521 128.344 -19.1137 115.843 25.5256 113.87C44.5418 113.512 58.6465 118.479 65.275 127.902C72.8815 138.703 69.7519 153.687 56.6905 169.03C40.543 187.671 20.3314 199.782 2.59743 201.432C1.22826 201.551 -0.0974083 201.619 -1.37965 201.619ZM-48.5182 143.533C-47.6489 159.556 -32.8271 183.606 -16.7665 194.985C-11.8766 198.472 -5.3133 199.935 2.24973 199.237C19.1796 197.656 38.6523 185.902 54.3434 167.788C66.7963 153.16 69.8824 138.992 62.7974 128.939C56.6905 120.282 43.5204 115.69 25.6343 116.047C-16.7013 117.935 -48.6051 129.756 -48.5182 143.533Z" fill="#CCCCCC"/>
<path d="M-0.398823 192.757C-6.28843 192.757 -11.5478 191.346 -15.7857 188.573C-30.6727 178.895 -41.2566 159.301 -38.9312 145.762C-36.4102 132.767 -9.3093 123.446 22.6815 124.517C36.7209 125.147 47.0657 129.671 51.8469 137.24C57.3236 145.915 54.8244 157.43 44.9576 168.809C33.3088 182.127 17.9437 190.988 3.8608 192.519C2.4047 192.689 0.992081 192.757 -0.398823 192.757ZM17.6177 126.644C-10.7654 126.644 -33.9544 134.859 -36.1276 146.085C-38.3009 158.722 -27.9561 177.789 -13.9819 186.889C-9.37449 189.883 -3.35449 191.073 3.46962 190.342C16.7919 188.896 31.4181 180.375 42.6322 167.567C51.9122 156.868 54.3462 146.17 49.3259 138.21C45.0228 131.389 35.5039 127.307 22.5511 126.712C20.8994 126.678 19.2477 126.644 17.6177 126.644Z" fill="#CCCCCC"/>
<path d="M0.724743 184.287C-4.01302 184.287 -8.31611 183.215 -11.9238 181.123C-24.4202 173.86 -31.4399 159.25 -27.5714 148.551C-23.6378 137.971 -3.2089 131.61 18.8934 134.059C28.6949 135.199 35.8885 139.009 39.1484 144.792C42.843 151.34 41.0175 159.641 34.1499 167.567C26.2609 176.616 15.677 182.603 5.11479 183.981C3.63696 184.185 2.15911 184.287 0.724743 184.287ZM-24.8548 149.163C-28.3755 158.875 -21.6818 172.704 -10.2503 179.354C-6.18628 181.718 -1.03559 182.569 4.65842 181.82C14.3295 180.545 24.5005 174.762 31.8462 166.342C38.1487 159.063 39.8656 151.545 36.5839 145.693C33.7369 140.625 27.304 137.274 18.5022 136.254C-1.90491 133.974 -21.3558 139.774 -24.8548 149.163Z" fill="#CCCCCC"/>
<path d="M1.92414 176.088C-1.35752 176.088 -4.53052 175.425 -7.31232 173.996C-16.614 169.285 -20.9606 159.283 -17.0269 151.714C-13.0715 144.179 1.03311 140.114 14.4423 142.666C20.6361 143.839 25.1566 146.714 27.1777 150.728C29.3945 155.15 28.2644 160.525 24.0916 165.458C18.3324 172.227 9.79143 176.088 1.92414 176.088ZM-5.79103 172.159C2.22839 176.224 14.5727 172.686 21.7445 164.25C25.3956 159.93 26.4388 155.286 24.548 151.544C22.8746 148.211 19.0496 145.812 13.7685 144.809C1.66334 142.513 -10.9852 145.982 -14.4189 152.548C-17.8745 159.198 -14.0061 167.992 -5.79103 172.159Z" fill="#CCCCCC"/>
<path d="M2.9224 168.043C1.14031 168.043 -0.598331 167.72 -2.18483 167.04C-7.61804 164.709 -9.81304 159.352 -7.05297 155.082C-4.33636 150.864 3.11798 148.84 9.52917 150.575C12.6152 151.408 14.8755 153.075 15.8534 155.286C16.8966 157.617 16.3968 160.338 14.4625 162.736C11.7025 166.121 7.24724 168.043 2.9224 168.043ZM4.66104 152.157C0.727392 152.157 -2.98892 153.637 -4.57542 156.086C-6.64004 159.301 -4.98837 163.349 -0.859124 165.101C3.24838 166.869 9.05106 165.271 12.0502 161.546C13.5498 159.692 13.9409 157.736 13.1586 156.001C12.4631 154.436 10.8331 153.245 8.57292 152.633C7.29069 152.31 5.96501 152.157 4.66104 152.157Z" fill="#CCCCCC"/>
</g>
</svg>
