<svg width="262" height="837" viewBox="0 0 262 837" fill="none" xmlns="http://www.w3.org/2000/svg">
<g opacity="0.2">
<path d="M170.172 317.261C171.774 323.239 171.631 330.933 169.52 341.691C163.649 370.315 132.64 406.362 99.836 444.439C81.832 465.391 63.2016 487.026 48.706 507.639C21.0665 539.473 8.16713 584.344 -4.35198 627.78C-13.4836 659.514 -22.1423 689.487 -36.0117 714.62L-36.043 714.671C-46.9643 733.682 -59.5214 744.573 -74.4045 747.958C-103.446 754.579 -137.081 731.466 -176.025 704.658L-179.771 702.092C-208.752 682.248 -246.966 657.824 -303.627 622.819L-308.301 619.813C-357.637 588.135 -419.043 548.681 -465.9 488.814C-568.776 371.32 -548.93 239.049 -503.042 186.672C-448.141 130.159 -377.856 114.939 -234.291 128.422C-84.5716 142.708 50.7803 226.943 102.01 262.501C119.897 277.878 134.432 286.627 145.044 292.987C158.461 301.089 167.248 306.347 170.172 317.261ZM-40.9872 712.169C-27.4194 687.589 -18.8639 657.902 -9.78295 626.483C2.86969 582.538 15.965 537.055 44.2309 504.538C58.7158 483.884 77.4507 462.135 95.528 441.121C127.841 403.563 158.37 368.074 163.987 340.851C169.175 314.044 162.308 309.907 141.918 297.609C131.138 291.122 116.339 282.229 98.3364 266.754C47.6765 231.645 -86.6629 147.999 -235.046 133.828C-376.54 120.522 -445.598 135.284 -498.943 190.218C-543.442 241.062 -562.477 370.149 -461.548 485.412C-415.126 544.664 -354.152 583.847 -305.185 615.323L-300.522 618.288C-243.809 653.323 -205.541 677.775 -176.498 697.688L-172.751 700.254C-134.905 726.324 -102.209 748.786 -75.6655 742.748C-62.3989 739.71 -51.0871 729.712 -40.9872 712.169Z" fill="#A7CEFC"/>
<path d="M134.328 335.596C136.542 343.862 136.116 353.351 134.431 366.705L134.411 366.968C128.474 393.33 104.121 419.466 78.3695 447.095C60.7524 465.965 42.5927 485.496 27.9871 507.042C3.35129 538.5 -12.8409 574.104 -28.5044 608.491C-39.0017 631.603 -48.939 653.446 -61.0422 673.419L-61.3027 673.789C-98.0764 717.704 -124.162 700.266 -171.543 668.665C-176.693 665.229 -182.117 661.607 -187.888 657.864C-198.003 650.167 -209.172 642.064 -221.016 633.454C-273.681 595.227 -345.801 542.818 -415.087 460.19C-492.221 357.173 -482.7 259.062 -439.078 207.464C-393.211 155.179 -322.089 151.647 -198.534 163.482C-72.6448 178.992 23.3624 243.149 74.9329 277.626L80.6839 281.461C115.685 307.993 130.027 319.546 134.328 335.596ZM128.856 366.048C133.398 329.609 128.714 324.886 77.3048 285.807L71.7119 282.059C20.532 247.864 -74.7576 184.202 -199.217 168.825C-320.7 157.167 -390.541 160.441 -434.717 210.812C-476.941 260.745 -485.868 356.202 -410.546 456.823C-341.779 538.859 -269.954 591.003 -217.542 629.126C-205.698 637.736 -194.529 645.839 -184.478 653.467C-178.864 657.123 -173.44 660.745 -168.249 664.17C-120.815 695.8 -99.1195 710.285 -65.7572 670.596C-53.8833 650.943 -44.0709 629.306 -33.6458 606.428C-17.8896 571.715 -1.54133 535.854 23.397 504.014C38.1275 482.262 56.4647 462.555 74.2175 443.52C99.3741 416.524 123.163 390.969 128.856 366.048Z" fill="#A7CEFC"/>
<path d="M104.49 351.16C107.317 361.713 105.995 372.56 102.548 386.558C95.1659 410.383 72.9837 433.873 49.5484 458.731C35.5956 473.479 21.2046 488.775 8.64922 505.213C-11.6294 528.924 -27.4489 554.838 -42.7905 579.85C-55.3737 600.381 -67.2282 619.77 -80.4464 636.085L-80.6553 636.313C-116.743 671.872 -143.284 652.234 -191.488 616.554L-192.048 616.144L-200.297 609.367C-247.131 570.739 -311.288 517.83 -369.084 437.284C-432.724 340.973 -414.795 264.004 -380.174 227.333C-343.256 188.154 -282.069 178.941 -168.985 195.517C-89.808 208.448 -12.369 243.434 61.1712 299.462C87.8844 321.592 100.447 336.073 104.49 351.16ZM-84.8073 632.738C-71.871 616.714 -60.0995 597.518 -47.6831 577.204C-32.2587 551.998 -16.2615 525.908 4.18395 501.98C16.791 485.399 31.3392 470.018 45.3965 455.156C68.4248 430.794 90.1474 407.771 97.1169 385.261C105.039 353.378 101.036 339.614 57.5284 303.664C-15.2619 248.252 -91.8369 213.636 -170.025 200.87C-280.952 184.619 -340.661 193.307 -376.106 230.931C-412.022 268.981 -422.359 346.581 -364.446 434.278C-307.095 514.169 -243.276 566.824 -196.632 605.245L-188.045 612.277C-139.504 648.211 -117.281 664.662 -84.8073 632.738Z" fill="#A7CEFC"/>
<path d="M76.62 362.669C79.7809 374.466 78.509 386.677 73.5099 401.262L73.4894 401.354C65.1307 423.548 44.052 445.28 21.7826 468.278C11.4521 478.916 0.819018 489.936 -9.05437 501.441C-23.8103 517.221 -36.9006 533.846 -49.5107 549.911C-65.0102 569.633 -79.6646 588.31 -95.0528 602.067C-128.415 627.821 -154.208 610.133 -192.826 577.991C-230.214 544.229 -284.818 491.212 -327.793 419.811C-363.494 350.204 -365.56 291.452 -333.697 254.229C-299.381 214.07 -230.762 203.382 -145.416 224.896C-46.4058 244.855 23.2175 299.697 42.171 316.035C61.6364 333.613 72.642 347.823 76.62 362.669ZM68.1822 399.679C77.4774 372.417 75.388 353.538 38.3066 320.081C19.649 304.008 -49.0662 249.869 -146.834 230.178C-230.054 209.213 -296.565 219.207 -329.367 257.628C-359.717 293.112 -357.359 349.764 -322.774 417.22C-280.224 487.874 -226.033 540.528 -188.951 573.985C-149.223 607.077 -127.336 620.264 -98.5977 598.071C-83.7639 584.764 -69.2763 566.303 -53.9125 546.747C-41.1979 530.568 -28.0872 513.852 -13.2161 497.997C-3.35346 486.452 7.40549 475.398 17.7673 464.709C39.5555 442.098 60.2058 420.782 68.1822 399.679Z" fill="#A7CEFC"/>
<path d="M50.8332 371.859C54.1877 384.378 52.7822 397.097 47.004 411.461L46.7962 411.861C10.5849 470.634 -85.9299 554.51 -104.887 570.728L-105.348 571.023C-134.32 587.473 -157.523 574.08 -190.193 543.655C-219.649 514.649 -260.912 467.432 -290.451 407.054C-315.823 350.978 -314.585 303.554 -286.977 273.45C-256.299 240.028 -198.173 232.151 -127.5 251.791C-60.1603 267.722 -5.29479 303.08 23.5651 330.87C38.3671 345.482 47.2745 358.577 50.8332 371.859ZM41.8626 409.398C52.8065 381.91 46.7464 361.643 19.521 334.749C-8.79983 307.459 -62.726 272.753 -129.066 257.027C-196.675 238.244 -254.1 245.718 -282.794 276.973C-308.877 305.379 -309.802 350.784 -285.315 404.732C-256.106 464.381 -215.256 511.064 -186.149 539.776C-154.906 568.906 -134.243 581.045 -108.307 566.526C-53.8506 519.938 14.123 454.289 41.8626 409.398Z" fill="#A7CEFC"/>
<path d="M27.1115 380.537C30.7024 393.939 29.1506 406.784 22.481 417.989C-3.73571 462.687 -69.1039 519.424 -111.417 542.33C-121.395 546.896 -132.272 547.101 -143.794 543.05C-179.31 530.547 -221.517 476.616 -256.69 398.739C-273.659 354.044 -269.955 316.324 -246.262 292.429C-219.414 265.367 -171.333 259.622 -114.402 276.665C-42.0715 299.301 9.9516 335.636 24.864 373.829C25.7814 376.077 26.5201 378.331 27.1115 380.537ZM-256.994 379.64C-255.51 385.177 -253.679 390.836 -251.458 396.606C-216.945 473.026 -175.911 525.938 -141.755 537.901C-131.622 541.465 -122.259 541.322 -113.884 537.487C-72.4411 515.028 -8.11802 459.26 17.6304 415.332C24.5078 403.727 25.2032 390.037 19.6312 375.79C5.29528 339.077 -45.4701 303.91 -116.179 281.786C-170.172 265.633 -217.289 270.947 -242.225 296.078C-261.311 315.341 -266.38 344.61 -256.994 379.64Z" fill="#A7CEFC"/>
<path d="M3.69324 385.479C7.0262 397.918 5.76406 409.997 -0.0886358 420.725C-20.8369 458.969 -74.4332 503.563 -114.759 516.089L-114.843 516.111C-152.355 526.378 -199.203 474.938 -226.156 393.825C-236.445 358.952 -231.166 329.627 -211.192 311.158C-188.303 289.973 -149.776 285.843 -105.455 299.813C-51.4641 317.3 -11.5806 346.609 1.26402 378.26C2.23518 380.709 3.0589 383.112 3.69324 385.479ZM-116.324 510.917C-77.216 498.718 -25.1987 455.45 -5.06414 418.274C1.12123 406.94 1.48396 393.855 -3.97845 380.353C-16.2573 350.141 -54.894 321.96 -107.358 304.968C-149.615 291.648 -186.105 295.319 -207.406 315.046C-225.749 332.046 -230.567 359.398 -220.837 392.185C-195.234 469.101 -150.28 520.188 -116.324 510.917Z" fill="#A7CEFC"/>
<path d="M-18.6598 389.533C-15.7462 400.407 -16.6281 411.05 -21.3732 420.708C-37.891 454.593 -81.0079 487.09 -115.569 491.749C-148.883 495.687 -185.292 451.814 -198.473 392.041C-203.866 365.704 -197.819 343.613 -181.506 329.781C-162.809 313.934 -133.157 310.934 -100.196 321.627C-61.5685 334.328 -32.0993 356.837 -21.3548 381.826C-20.2147 384.402 -19.3479 386.965 -18.6598 389.533ZM-190.722 399.985C-176.68 452.388 -144.936 489.769 -116.158 486.359C-83.8972 482.015 -41.9632 450.308 -26.4208 418.491C-21.3129 408.005 -21.353 396.103 -26.5338 383.987C-36.6921 360.347 -64.9563 338.977 -102.11 326.741C-133.102 316.682 -160.707 319.262 -177.867 333.794C-192.569 346.249 -197.933 366.523 -192.994 390.831C-192.261 393.903 -191.528 396.975 -190.722 399.985Z" fill="#A7CEFC"/>
</g>
</svg>
